%TF.GenerationSoftware,KiCad,Pcbnew,10.0.3*%
%TF.CreationDate,2026-05-20T09:56:52+02:00*%
%TF.ProjectId,vesta,76657374-612e-46b6-9963-61645f706362,1*%
%TF.SameCoordinates,Original*%
%TF.FileFunction,Copper,L2,Inr*%
%TF.FilePolarity,Positive*%
%FSLAX46Y46*%
G04 Gerber Fmt 4.6, Leading zero omitted, Abs format (unit mm)*
G04 Created by KiCad (PCBNEW 10.0.3) date 2026-05-20 09:56:52*
%MOMM*%
%LPD*%
G01*
G04 APERTURE LIST*
G04 Aperture macros list*
%AMRotRect*
0 Rectangle, with rotation*
0 The origin of the aperture is its center*
0 $1 length*
0 $2 width*
0 $3 Rotation angle, in degrees counterclockwise*
0 Add horizontal line*
21,1,$1,$2,0,0,$3*%
G04 Aperture macros list end*
%TA.AperFunction,ComponentPad*%
%ADD10R,1.524003X1.524003*%
%TD*%
%TA.AperFunction,ComponentPad*%
%ADD11O,1.524003X1.524003*%
%TD*%
%TA.AperFunction,ComponentPad*%
%ADD12RotRect,1.350000X1.350000X160.000000*%
%TD*%
%TA.AperFunction,ComponentPad*%
%ADD13C,1.350000*%
%TD*%
%TA.AperFunction,ViaPad*%
%ADD14C,0.600000*%
%TD*%
%TA.AperFunction,ViaPad*%
%ADD15C,0.900000*%
%TD*%
G04 APERTURE END LIST*
D10*
%TO.N,/BAT_RAW*%
%TO.C,BATTERY1*%
X55000000Y-64167526D03*
D11*
%TO.N,GND*%
X53000000Y-64167526D03*
%TD*%
D12*
%TO.N,/3V3_SYS*%
%TO.C,J_EXP1*%
X20773817Y-58457235D03*
D13*
%TO.N,GND*%
X21457858Y-56577849D03*
%TO.N,/I2C1_SCL*%
X22141897Y-54698465D03*
%TO.N,/I2C1_SDA*%
X22825938Y-52819079D03*
%TO.N,/SPI1_SCK*%
X23509978Y-50939694D03*
%TO.N,/SPI1_MISO*%
X24194019Y-49060308D03*
%TO.N,/SPI1_MOSI*%
X24878059Y-47180925D03*
%TO.N,/EXP_SPI_CS0*%
X25562099Y-45301536D03*
%TO.N,/EXP_INT_WAKE*%
X26246139Y-43422152D03*
%TO.N,/EXP_GPIO_CS1*%
X26930180Y-41542768D03*
%TD*%
D10*
%TO.N,/VIN_SOLAR*%
%TO.C,J1*%
X28500000Y-64167526D03*
D11*
%TO.N,GND*%
X26500000Y-64167526D03*
%TD*%
D10*
%TO.N,/VIN_SOLAR*%
%TO.C,J2*%
X41500000Y-71000000D03*
D11*
%TO.N,GND*%
X39500000Y-71000000D03*
%TD*%
D14*
%TO.N,GND*%
X45500000Y-26000000D03*
X43000000Y-41500000D03*
X41000000Y-56500000D03*
X35500000Y-31500000D03*
X50360000Y-49360000D03*
X28000000Y-39000000D03*
X45500000Y-28000000D03*
D15*
X47000000Y-42500000D03*
D14*
X33000000Y-35000000D03*
X54500000Y-61500000D03*
X37500000Y-24500000D03*
X40499873Y-49500000D03*
X47500000Y-30500000D03*
X43500000Y-22000000D03*
X32000000Y-37500000D03*
%TO.N,/RF_SW_CTRL*%
X44000000Y-24000000D03*
X34000000Y-38500000D03*
%TO.N,/3V3_SYS*%
X33500000Y-36500000D03*
X42000000Y-42500000D03*
X40500000Y-29000000D03*
D15*
X52500000Y-50000000D03*
X52200152Y-42200152D03*
D14*
X35700000Y-49020381D03*
X40500000Y-44000000D03*
X44500000Y-42000000D03*
X32390000Y-40610000D03*
X44000000Y-35249555D03*
%TO.N,/I2C1_SDA*%
X30000000Y-52500000D03*
X46500000Y-38000000D03*
%TO.N,/I2C1_SCL*%
X30000000Y-54500000D03*
X44000000Y-51000000D03*
%TO.N,/SPI1_SCK*%
X28250000Y-49250000D03*
X43000000Y-33216313D03*
%TO.N,/SPI1_MISO*%
X33500000Y-43000000D03*
X33500000Y-43000000D03*
X33500000Y-43000000D03*
X33500000Y-43000000D03*
X35000000Y-43500000D03*
X42166313Y-32666313D03*
%TO.N,/SPI1_MOSI*%
X41000000Y-33000000D03*
%TO.N,/EXP_SPI_CS0*%
X32000000Y-48500000D03*
X44000000Y-34000000D03*
X44000000Y-34000000D03*
%TO.N,/EXP_INT_WAKE*%
X36485992Y-42575000D03*
X43500000Y-37000000D03*
%TO.N,/EXP_GPIO_CS1*%
X29000000Y-41500000D03*
X40249936Y-32750064D03*
%TO.N,/SMPS_1V55*%
X29000000Y-38000000D03*
X42000000Y-50500000D03*
%TO.N,/NRST*%
X49500000Y-52000000D03*
X39500000Y-33000000D03*
%TO.N,/SWDIO*%
X58500000Y-53000000D03*
X34250826Y-40250826D03*
%TO.N,/SWCLK*%
X38751080Y-43751080D03*
X58500000Y-54000000D03*
%TO.N,/SWO*%
X44000000Y-39500000D03*
X58500000Y-52000000D03*
%TD*%
%TA.AperFunction,Conductor*%
%TO.N,GND*%
G36*
X40513129Y-17957568D02*
G01*
X40523600Y-17958296D01*
X40960657Y-18007378D01*
X40971140Y-18009012D01*
X41403509Y-18095565D01*
X41413792Y-18098086D01*
X41842240Y-18222779D01*
X41852179Y-18226134D01*
X41996623Y-18281815D01*
X42277600Y-18390128D01*
X42287042Y-18394225D01*
X42711342Y-18599684D01*
X42717968Y-18603143D01*
X42927242Y-18720618D01*
X42931456Y-18723094D01*
X43142753Y-18852963D01*
X43146771Y-18855542D01*
X43356738Y-18996107D01*
X43360564Y-18998774D01*
X43571127Y-19151621D01*
X43574796Y-19154390D01*
X43628840Y-19196768D01*
X43784496Y-19318823D01*
X43787963Y-19321645D01*
X43987421Y-19490035D01*
X44008821Y-19513400D01*
X44392819Y-20058838D01*
X44395287Y-20062479D01*
X44980454Y-20959655D01*
X44982284Y-20962546D01*
X45709796Y-22148233D01*
X45711295Y-22150744D01*
X46547104Y-23587888D01*
X46548363Y-23590104D01*
X47172537Y-24716482D01*
X47473691Y-25259940D01*
X47474791Y-25261969D01*
X48477253Y-27153178D01*
X48478220Y-27155040D01*
X49549104Y-29260688D01*
X49549965Y-29262414D01*
X50682631Y-31577949D01*
X50683396Y-31579541D01*
X50952770Y-32150924D01*
X51872723Y-34102280D01*
X51873422Y-34103789D01*
X53115081Y-36831804D01*
X53115717Y-36833225D01*
X54406187Y-39765619D01*
X54406769Y-39766963D01*
X55743037Y-42903402D01*
X55743572Y-42904677D01*
X57122972Y-46245148D01*
X57123465Y-46246361D01*
X58543684Y-49791300D01*
X58544140Y-49792456D01*
X59066356Y-51134744D01*
X59072318Y-51204358D01*
X59039697Y-51266145D01*
X58978850Y-51300487D01*
X58909095Y-51296481D01*
X58888483Y-51286115D01*
X58888338Y-51286387D01*
X58882969Y-51283517D01*
X58735831Y-51222570D01*
X58735823Y-51222568D01*
X58579634Y-51191500D01*
X58579630Y-51191500D01*
X58420370Y-51191500D01*
X58420365Y-51191500D01*
X58264176Y-51222568D01*
X58264168Y-51222570D01*
X58117030Y-51283517D01*
X57984612Y-51371995D01*
X57984605Y-51372001D01*
X57872001Y-51484605D01*
X57871995Y-51484612D01*
X57783517Y-51617030D01*
X57722570Y-51764168D01*
X57722568Y-51764176D01*
X57691500Y-51920365D01*
X57691500Y-52079634D01*
X57722568Y-52235823D01*
X57722570Y-52235831D01*
X57775978Y-52364769D01*
X57783517Y-52382968D01*
X57808507Y-52420369D01*
X57815684Y-52431110D01*
X57836561Y-52497788D01*
X57818076Y-52565168D01*
X57815684Y-52568890D01*
X57783516Y-52617033D01*
X57722570Y-52764168D01*
X57722568Y-52764176D01*
X57691500Y-52920365D01*
X57691500Y-53079634D01*
X57722568Y-53235823D01*
X57722570Y-53235831D01*
X57739801Y-53277431D01*
X57783517Y-53382968D01*
X57815683Y-53431108D01*
X57815684Y-53431110D01*
X57836561Y-53497788D01*
X57818076Y-53565168D01*
X57815684Y-53568890D01*
X57783516Y-53617033D01*
X57722570Y-53764168D01*
X57722568Y-53764176D01*
X57691500Y-53920365D01*
X57691500Y-54079634D01*
X57722568Y-54235823D01*
X57722570Y-54235831D01*
X57783517Y-54382969D01*
X57871995Y-54515387D01*
X57872001Y-54515394D01*
X57984605Y-54627998D01*
X57984612Y-54628004D01*
X58117030Y-54716482D01*
X58117031Y-54716482D01*
X58117032Y-54716483D01*
X58264169Y-54777430D01*
X58420365Y-54808499D01*
X58420369Y-54808500D01*
X58420370Y-54808500D01*
X58579631Y-54808500D01*
X58579632Y-54808499D01*
X58735831Y-54777430D01*
X58882968Y-54716483D01*
X59015389Y-54628003D01*
X59128003Y-54515389D01*
X59216483Y-54382968D01*
X59277430Y-54235831D01*
X59308500Y-54079630D01*
X59308500Y-53920370D01*
X59277430Y-53764169D01*
X59216483Y-53617032D01*
X59216481Y-53617029D01*
X59216478Y-53617023D01*
X59184317Y-53568892D01*
X59163438Y-53502215D01*
X59181922Y-53434834D01*
X59184317Y-53431108D01*
X59216478Y-53382976D01*
X59216479Y-53382973D01*
X59216483Y-53382968D01*
X59277430Y-53235831D01*
X59308500Y-53079630D01*
X59308500Y-52920370D01*
X59277430Y-52764169D01*
X59216483Y-52617032D01*
X59216481Y-52617029D01*
X59216478Y-52617023D01*
X59184317Y-52568892D01*
X59180813Y-52557702D01*
X59173361Y-52548651D01*
X59170563Y-52524970D01*
X59163438Y-52502215D01*
X59166331Y-52489145D01*
X59165164Y-52479264D01*
X59172730Y-52460239D01*
X59175958Y-52445661D01*
X59179641Y-52438105D01*
X59216483Y-52382968D01*
X59272771Y-52247077D01*
X59274420Y-52243696D01*
X59295513Y-52220558D01*
X59315160Y-52196179D01*
X59318863Y-52194946D01*
X59321492Y-52192063D01*
X59351746Y-52184001D01*
X59381454Y-52174114D01*
X59385234Y-52175078D01*
X59389006Y-52174074D01*
X59418817Y-52183650D01*
X59449153Y-52191393D01*
X59451812Y-52194249D01*
X59455528Y-52195443D01*
X59475424Y-52219610D01*
X59496764Y-52242530D01*
X59499649Y-52249034D01*
X59499937Y-52249384D01*
X59499985Y-52249791D01*
X59501442Y-52253076D01*
X60003098Y-53542517D01*
X60003418Y-53543346D01*
X60744048Y-55488202D01*
X60744252Y-55488742D01*
X61491105Y-57477732D01*
X61498991Y-57523954D01*
X61482088Y-58320112D01*
X61482001Y-58322810D01*
X61482001Y-58322814D01*
X61474065Y-58507116D01*
X61473929Y-58509673D01*
X61427746Y-59233912D01*
X61427538Y-59236681D01*
X61411729Y-59419903D01*
X61411490Y-59422379D01*
X61334532Y-60144740D01*
X61334198Y-60147568D01*
X61310660Y-60328876D01*
X61310326Y-60331269D01*
X61202593Y-61050963D01*
X61202126Y-61053846D01*
X61171059Y-61232532D01*
X61170636Y-61234837D01*
X61032163Y-61950831D01*
X61031559Y-61953763D01*
X60993223Y-62129160D01*
X60992718Y-62131374D01*
X60823512Y-62842815D01*
X60822766Y-62845787D01*
X60777535Y-63017049D01*
X60776955Y-63019171D01*
X60577034Y-63725167D01*
X60576141Y-63728174D01*
X60524368Y-63894805D01*
X60523719Y-63896831D01*
X60293149Y-64596333D01*
X60292105Y-64599368D01*
X60234333Y-64760489D01*
X60233624Y-64762418D01*
X59972336Y-65454787D01*
X59971137Y-65457841D01*
X59907940Y-65612763D01*
X59907176Y-65614593D01*
X59615198Y-66298859D01*
X59613840Y-66301926D01*
X59545907Y-66449910D01*
X59545097Y-66451640D01*
X59222350Y-67127063D01*
X59220830Y-67130133D01*
X59148927Y-67270502D01*
X59148077Y-67272132D01*
X58794552Y-67937773D01*
X58792868Y-67940838D01*
X58717759Y-68073113D01*
X58716876Y-68074643D01*
X58332507Y-68729644D01*
X58330656Y-68732697D01*
X58253401Y-68856068D01*
X58252492Y-68857498D01*
X57837087Y-69501145D01*
X57835068Y-69504174D01*
X57756691Y-69618127D01*
X57755762Y-69619459D01*
X57309176Y-70250890D01*
X57306986Y-70253890D01*
X57228747Y-70357767D01*
X57227807Y-70358999D01*
X56749746Y-70977479D01*
X56747385Y-70980439D01*
X56670622Y-71073719D01*
X56669676Y-71074855D01*
X56159757Y-71679649D01*
X56157225Y-71682559D01*
X56083611Y-71764552D01*
X56082666Y-71765593D01*
X55540337Y-72356042D01*
X55537632Y-72358894D01*
X55468807Y-72429216D01*
X55467869Y-72430164D01*
X54892576Y-73005457D01*
X54889701Y-73008241D01*
X54827903Y-73066173D01*
X54826978Y-73067032D01*
X54217635Y-73626715D01*
X54214588Y-73629422D01*
X54162094Y-73674549D01*
X54161190Y-73675319D01*
X53516825Y-74218602D01*
X53513610Y-74221221D01*
X53472967Y-74253226D01*
X53472086Y-74253914D01*
X52791302Y-74780135D01*
X52787918Y-74782660D01*
X52762605Y-74800884D01*
X52761757Y-74801489D01*
X52042488Y-75310201D01*
X52038941Y-75312619D01*
X52032550Y-75316815D01*
X52031736Y-75317345D01*
X51274551Y-75806026D01*
X51270068Y-75808786D01*
X50487468Y-76268033D01*
X50482873Y-76270600D01*
X49681485Y-76696221D01*
X49676785Y-76698591D01*
X48858039Y-77089825D01*
X48853242Y-77091993D01*
X48018658Y-77448113D01*
X48013774Y-77450076D01*
X47164783Y-77770471D01*
X47159819Y-77772224D01*
X46298057Y-78056278D01*
X46293024Y-78057820D01*
X45419926Y-78305059D01*
X45414832Y-78306385D01*
X44532059Y-78516340D01*
X44526913Y-78517449D01*
X43636027Y-78689747D01*
X43630839Y-78690637D01*
X42733410Y-78824975D01*
X42728189Y-78825643D01*
X41825916Y-78921767D01*
X41820671Y-78922214D01*
X40915082Y-78979961D01*
X40909823Y-78980184D01*
X40002632Y-78999444D01*
X39997368Y-78999444D01*
X39090176Y-78980184D01*
X39084917Y-78979961D01*
X38179328Y-78922214D01*
X38174083Y-78921767D01*
X37271810Y-78825643D01*
X37266589Y-78824975D01*
X36369160Y-78690637D01*
X36363972Y-78689747D01*
X35473086Y-78517449D01*
X35467940Y-78516340D01*
X34585167Y-78306385D01*
X34580073Y-78305059D01*
X33706975Y-78057820D01*
X33701942Y-78056278D01*
X32840180Y-77772224D01*
X32835216Y-77770471D01*
X32396602Y-77604945D01*
X31986213Y-77450071D01*
X31981353Y-77448118D01*
X31146757Y-77091993D01*
X31141960Y-77089825D01*
X30323214Y-76698591D01*
X30318514Y-76696221D01*
X29517126Y-76270600D01*
X29512531Y-76268033D01*
X28729931Y-75808786D01*
X28725448Y-75806026D01*
X27968211Y-75317312D01*
X27967448Y-75316815D01*
X27961038Y-75312606D01*
X27957527Y-75310212D01*
X27673006Y-75108982D01*
X27238241Y-74801489D01*
X27237393Y-74800884D01*
X27227669Y-74793883D01*
X27212056Y-74782642D01*
X27208713Y-74780147D01*
X26527912Y-74253914D01*
X26527031Y-74253226D01*
X26486388Y-74221221D01*
X26483173Y-74218602D01*
X25838808Y-73675319D01*
X25837904Y-73674549D01*
X25785410Y-73629422D01*
X25782363Y-73626715D01*
X25173020Y-73067032D01*
X25172095Y-73066173D01*
X25110297Y-73008241D01*
X25107422Y-73005457D01*
X24532129Y-72430164D01*
X24531191Y-72429216D01*
X24462366Y-72358894D01*
X24459661Y-72356042D01*
X23917278Y-71765533D01*
X23916447Y-71764618D01*
X23842755Y-71682538D01*
X23840260Y-71679671D01*
X23330256Y-71074775D01*
X23329447Y-71073804D01*
X23252588Y-70980408D01*
X23250277Y-70977511D01*
X23074419Y-70749999D01*
X38261864Y-70749999D01*
X38261864Y-70750000D01*
X39116407Y-70750000D01*
X39073957Y-70823527D01*
X39042799Y-70939808D01*
X39042799Y-71060192D01*
X39073957Y-71176473D01*
X39116407Y-71250000D01*
X38261864Y-71250000D01*
X38269073Y-71295517D01*
X38330455Y-71484435D01*
X38420640Y-71661433D01*
X38537401Y-71822139D01*
X38677860Y-71962598D01*
X38838566Y-72079359D01*
X39015562Y-72169543D01*
X39204473Y-72230923D01*
X39250000Y-72238134D01*
X39250000Y-71383592D01*
X39323527Y-71426043D01*
X39439808Y-71457201D01*
X39560192Y-71457201D01*
X39676473Y-71426043D01*
X39750000Y-71383592D01*
X39750000Y-72238133D01*
X39795526Y-72230923D01*
X39984437Y-72169543D01*
X40161425Y-72079363D01*
X40161430Y-72079360D01*
X40178435Y-72067005D01*
X40244241Y-72043523D01*
X40312295Y-72059345D01*
X40350591Y-72093008D01*
X40374737Y-72125263D01*
X40491794Y-72212891D01*
X40628797Y-72263991D01*
X40656048Y-72266920D01*
X40689343Y-72270501D01*
X40689360Y-72270502D01*
X42310640Y-72270502D01*
X42310656Y-72270501D01*
X42337694Y-72267593D01*
X42371203Y-72263991D01*
X42508206Y-72212891D01*
X42625263Y-72125263D01*
X42712891Y-72008206D01*
X42763991Y-71871203D01*
X42769266Y-71822139D01*
X42770501Y-71810656D01*
X42770502Y-71810639D01*
X42770502Y-70189360D01*
X42770501Y-70189343D01*
X42767159Y-70158268D01*
X42763991Y-70128797D01*
X42712891Y-69991794D01*
X42625263Y-69874737D01*
X42508206Y-69787109D01*
X42371205Y-69736009D01*
X42310656Y-69729498D01*
X42310640Y-69729498D01*
X40689360Y-69729498D01*
X40689343Y-69729498D01*
X40628795Y-69736009D01*
X40628793Y-69736009D01*
X40491793Y-69787109D01*
X40374736Y-69874738D01*
X40350592Y-69906990D01*
X40294657Y-69948861D01*
X40224966Y-69953844D01*
X40178442Y-69932997D01*
X40161435Y-69920641D01*
X39984434Y-69830455D01*
X39984436Y-69830455D01*
X39795517Y-69769073D01*
X39750000Y-69761864D01*
X39750000Y-70616407D01*
X39676473Y-70573957D01*
X39560192Y-70542799D01*
X39439808Y-70542799D01*
X39323527Y-70573957D01*
X39250000Y-70616407D01*
X39250000Y-69761864D01*
X39249999Y-69761864D01*
X39204482Y-69769073D01*
X39015564Y-69830455D01*
X38838566Y-69920640D01*
X38677860Y-70037401D01*
X38537401Y-70177860D01*
X38420640Y-70338566D01*
X38330455Y-70515564D01*
X38269073Y-70704482D01*
X38261864Y-70749999D01*
X23074419Y-70749999D01*
X22772180Y-70358985D01*
X22771251Y-70357767D01*
X22756789Y-70338566D01*
X22692978Y-70253844D01*
X22690857Y-70250938D01*
X22244189Y-69619392D01*
X22243351Y-69618191D01*
X22164930Y-69504174D01*
X22162911Y-69501145D01*
X22077885Y-69369402D01*
X21747461Y-68857428D01*
X21746683Y-68856204D01*
X21669304Y-68732634D01*
X21667511Y-68729677D01*
X21283122Y-68074643D01*
X21282239Y-68073113D01*
X21207130Y-67940838D01*
X21205446Y-67937773D01*
X20851921Y-67272132D01*
X20851125Y-67270607D01*
X20779123Y-67130042D01*
X20777678Y-67127125D01*
X20454883Y-66451603D01*
X20454132Y-66449999D01*
X20386114Y-66301828D01*
X20384831Y-66298930D01*
X20092790Y-65614518D01*
X20092087Y-65612834D01*
X20028832Y-65457767D01*
X20027691Y-65454862D01*
X19766366Y-64762396D01*
X19765665Y-64760489D01*
X19707893Y-64599368D01*
X19706849Y-64596334D01*
X19705938Y-64593569D01*
X19483100Y-63917525D01*
X25261864Y-63917525D01*
X25261864Y-63917526D01*
X26116407Y-63917526D01*
X26073957Y-63991053D01*
X26042799Y-64107334D01*
X26042799Y-64227718D01*
X26073957Y-64343999D01*
X26116407Y-64417526D01*
X25261864Y-64417526D01*
X25269073Y-64463043D01*
X25330455Y-64651961D01*
X25420640Y-64828959D01*
X25537401Y-64989665D01*
X25677860Y-65130124D01*
X25838566Y-65246885D01*
X26015562Y-65337069D01*
X26204473Y-65398449D01*
X26250000Y-65405660D01*
X26250000Y-64551118D01*
X26323527Y-64593569D01*
X26439808Y-64624727D01*
X26560192Y-64624727D01*
X26676473Y-64593569D01*
X26750000Y-64551118D01*
X26750000Y-65405659D01*
X26795526Y-65398449D01*
X26984437Y-65337069D01*
X27161425Y-65246889D01*
X27161430Y-65246886D01*
X27178435Y-65234531D01*
X27244241Y-65211049D01*
X27312295Y-65226871D01*
X27350591Y-65260534D01*
X27374737Y-65292789D01*
X27491794Y-65380417D01*
X27628797Y-65431517D01*
X27656048Y-65434446D01*
X27689343Y-65438027D01*
X27689360Y-65438028D01*
X29310640Y-65438028D01*
X29310656Y-65438027D01*
X29337694Y-65435119D01*
X29371203Y-65431517D01*
X29508206Y-65380417D01*
X29625263Y-65292789D01*
X29712891Y-65175732D01*
X29763991Y-65038729D01*
X29769266Y-64989665D01*
X29770501Y-64978182D01*
X29770502Y-64978165D01*
X29770502Y-63917525D01*
X51761864Y-63917525D01*
X51761864Y-63917526D01*
X52616407Y-63917526D01*
X52573957Y-63991053D01*
X52542799Y-64107334D01*
X52542799Y-64227718D01*
X52573957Y-64343999D01*
X52616407Y-64417526D01*
X51761864Y-64417526D01*
X51769073Y-64463043D01*
X51830455Y-64651961D01*
X51920640Y-64828959D01*
X52037401Y-64989665D01*
X52177860Y-65130124D01*
X52338566Y-65246885D01*
X52515562Y-65337069D01*
X52704473Y-65398449D01*
X52750000Y-65405660D01*
X52750000Y-64551118D01*
X52823527Y-64593569D01*
X52939808Y-64624727D01*
X53060192Y-64624727D01*
X53176473Y-64593569D01*
X53250000Y-64551118D01*
X53250000Y-65405659D01*
X53295526Y-65398449D01*
X53484437Y-65337069D01*
X53661425Y-65246889D01*
X53661430Y-65246886D01*
X53678435Y-65234531D01*
X53744241Y-65211049D01*
X53812295Y-65226871D01*
X53850591Y-65260534D01*
X53874737Y-65292789D01*
X53991794Y-65380417D01*
X54128797Y-65431517D01*
X54156048Y-65434446D01*
X54189343Y-65438027D01*
X54189360Y-65438028D01*
X55810640Y-65438028D01*
X55810656Y-65438027D01*
X55837694Y-65435119D01*
X55871203Y-65431517D01*
X56008206Y-65380417D01*
X56125263Y-65292789D01*
X56212891Y-65175732D01*
X56263991Y-65038729D01*
X56269266Y-64989665D01*
X56270501Y-64978182D01*
X56270502Y-64978165D01*
X56270502Y-63356886D01*
X56270501Y-63356869D01*
X56267159Y-63325794D01*
X56263991Y-63296323D01*
X56212891Y-63159320D01*
X56125263Y-63042263D01*
X56008206Y-62954635D01*
X55871205Y-62903535D01*
X55810656Y-62897024D01*
X55810640Y-62897024D01*
X54189360Y-62897024D01*
X54189343Y-62897024D01*
X54128795Y-62903535D01*
X54128793Y-62903535D01*
X53991793Y-62954635D01*
X53874736Y-63042264D01*
X53850592Y-63074516D01*
X53794657Y-63116387D01*
X53724966Y-63121370D01*
X53678442Y-63100523D01*
X53661435Y-63088167D01*
X53484434Y-62997981D01*
X53484436Y-62997981D01*
X53295517Y-62936599D01*
X53250000Y-62929390D01*
X53250000Y-63783933D01*
X53176473Y-63741483D01*
X53060192Y-63710325D01*
X52939808Y-63710325D01*
X52823527Y-63741483D01*
X52750000Y-63783933D01*
X52750000Y-62929390D01*
X52749999Y-62929390D01*
X52704482Y-62936599D01*
X52515564Y-62997981D01*
X52338566Y-63088166D01*
X52177860Y-63204927D01*
X52037401Y-63345386D01*
X51920640Y-63506092D01*
X51830455Y-63683090D01*
X51769073Y-63872008D01*
X51761864Y-63917525D01*
X29770502Y-63917525D01*
X29770502Y-63356886D01*
X29770501Y-63356869D01*
X29767159Y-63325794D01*
X29763991Y-63296323D01*
X29712891Y-63159320D01*
X29625263Y-63042263D01*
X29508206Y-62954635D01*
X29371205Y-62903535D01*
X29310656Y-62897024D01*
X29310640Y-62897024D01*
X27689360Y-62897024D01*
X27689343Y-62897024D01*
X27628795Y-62903535D01*
X27628793Y-62903535D01*
X27491793Y-62954635D01*
X27374736Y-63042264D01*
X27350592Y-63074516D01*
X27294657Y-63116387D01*
X27224966Y-63121370D01*
X27178442Y-63100523D01*
X27161435Y-63088167D01*
X26984434Y-62997981D01*
X26984436Y-62997981D01*
X26795517Y-62936599D01*
X26750000Y-62929390D01*
X26750000Y-63783933D01*
X26676473Y-63741483D01*
X26560192Y-63710325D01*
X26439808Y-63710325D01*
X26323527Y-63741483D01*
X26250000Y-63783933D01*
X26250000Y-62929390D01*
X26249999Y-62929390D01*
X26204482Y-62936599D01*
X26015564Y-62997981D01*
X25838566Y-63088166D01*
X25677860Y-63204927D01*
X25537401Y-63345386D01*
X25420640Y-63506092D01*
X25330455Y-63683090D01*
X25269073Y-63872008D01*
X25261864Y-63917525D01*
X19483100Y-63917525D01*
X19476260Y-63896774D01*
X19475647Y-63894859D01*
X19423850Y-63728151D01*
X19422964Y-63725167D01*
X19411049Y-63683090D01*
X19223004Y-63019028D01*
X19222503Y-63017197D01*
X19177221Y-62845746D01*
X19176496Y-62842857D01*
X19007267Y-62131319D01*
X19006787Y-62129216D01*
X18968414Y-61953641D01*
X18967860Y-61950952D01*
X18829350Y-61234772D01*
X18828951Y-61232600D01*
X18797860Y-61053772D01*
X18797416Y-61051035D01*
X18689652Y-60331127D01*
X18689358Y-60329021D01*
X18665796Y-60147536D01*
X18665466Y-60144740D01*
X18632090Y-59831454D01*
X18588497Y-59422272D01*
X18588279Y-59420008D01*
X18572453Y-59236596D01*
X18572258Y-59233999D01*
X18544047Y-58791592D01*
X19399596Y-58791592D01*
X19400756Y-58937801D01*
X19400757Y-58937809D01*
X19443064Y-59077772D01*
X19443065Y-59077775D01*
X19523092Y-59200154D01*
X19634355Y-59295030D01*
X19689031Y-59321858D01*
X19689034Y-59321860D01*
X19689037Y-59321861D01*
X19689039Y-59321862D01*
X21049033Y-59816860D01*
X21108171Y-59831455D01*
X21254389Y-59830295D01*
X21394357Y-59787987D01*
X21516736Y-59707960D01*
X21611612Y-59596697D01*
X21638444Y-59542013D01*
X22133442Y-58182019D01*
X22148037Y-58122881D01*
X22146877Y-57976663D01*
X22104569Y-57836695D01*
X22046675Y-57748163D01*
X22026460Y-57681283D01*
X22045612Y-57614089D01*
X22077571Y-57579981D01*
X22223313Y-57474094D01*
X22354099Y-57343308D01*
X22354103Y-57343303D01*
X22462805Y-57193686D01*
X22546773Y-57028892D01*
X22546774Y-57028889D01*
X22603924Y-56852996D01*
X22632858Y-56670322D01*
X22632858Y-56485375D01*
X22606369Y-56318133D01*
X22606368Y-56318133D01*
X21846632Y-56672404D01*
X21857858Y-56630510D01*
X21857858Y-56525188D01*
X21830599Y-56423455D01*
X21777938Y-56332243D01*
X21703464Y-56257769D01*
X21636110Y-56218882D01*
X22419059Y-55853787D01*
X22433135Y-55848242D01*
X22596203Y-55795258D01*
X22762186Y-55710685D01*
X22912896Y-55601189D01*
X23044621Y-55469464D01*
X23154117Y-55318754D01*
X23238690Y-55152771D01*
X23296256Y-54975602D01*
X23305581Y-54916724D01*
X23325397Y-54791614D01*
X23325397Y-54605315D01*
X23298212Y-54433676D01*
X23297599Y-54429812D01*
X23296256Y-54421328D01*
X23295943Y-54420365D01*
X29191500Y-54420365D01*
X29191500Y-54579634D01*
X29222568Y-54735823D01*
X29222570Y-54735831D01*
X29283517Y-54882969D01*
X29371995Y-55015387D01*
X29372001Y-55015394D01*
X29484605Y-55127998D01*
X29484612Y-55128004D01*
X29617030Y-55216482D01*
X29617031Y-55216482D01*
X29617032Y-55216483D01*
X29764169Y-55277430D01*
X29920365Y-55308499D01*
X29920369Y-55308500D01*
X29920370Y-55308500D01*
X30079631Y-55308500D01*
X30079632Y-55308499D01*
X30235831Y-55277430D01*
X30382968Y-55216483D01*
X30412815Y-55196540D01*
X54103200Y-55196540D01*
X54103200Y-55343459D01*
X54131858Y-55487534D01*
X54131860Y-55487542D01*
X54132357Y-55488742D01*
X54188078Y-55623266D01*
X54188083Y-55623275D01*
X54269698Y-55745419D01*
X54269701Y-55745423D01*
X54373576Y-55849298D01*
X54373580Y-55849301D01*
X54495724Y-55930916D01*
X54495730Y-55930919D01*
X54495731Y-55930920D01*
X54631458Y-55987140D01*
X54775540Y-56015799D01*
X54775544Y-56015800D01*
X54775545Y-56015800D01*
X54922456Y-56015800D01*
X54922457Y-56015799D01*
X55066542Y-55987140D01*
X55202269Y-55930920D01*
X55324420Y-55849301D01*
X55428301Y-55745420D01*
X55509920Y-55623269D01*
X55566140Y-55487542D01*
X55594800Y-55343455D01*
X55594800Y-55196545D01*
X55594799Y-55196540D01*
X56135200Y-55196540D01*
X56135200Y-55343459D01*
X56163858Y-55487534D01*
X56163860Y-55487542D01*
X56164357Y-55488742D01*
X56220078Y-55623266D01*
X56220083Y-55623275D01*
X56301698Y-55745419D01*
X56301701Y-55745423D01*
X56405576Y-55849298D01*
X56405580Y-55849301D01*
X56527724Y-55930916D01*
X56527730Y-55930919D01*
X56527731Y-55930920D01*
X56663458Y-55987140D01*
X56807540Y-56015799D01*
X56807544Y-56015800D01*
X56807545Y-56015800D01*
X56954456Y-56015800D01*
X56954457Y-56015799D01*
X57098542Y-55987140D01*
X57234269Y-55930920D01*
X57356420Y-55849301D01*
X57460301Y-55745420D01*
X57541920Y-55623269D01*
X57598140Y-55487542D01*
X57626800Y-55343455D01*
X57626800Y-55196545D01*
X57598140Y-55052458D01*
X57541920Y-54916731D01*
X57541919Y-54916730D01*
X57541916Y-54916724D01*
X57460301Y-54794580D01*
X57460298Y-54794576D01*
X57356423Y-54690701D01*
X57356419Y-54690698D01*
X57234275Y-54609083D01*
X57234266Y-54609078D01*
X57123611Y-54563244D01*
X57098542Y-54552860D01*
X57098538Y-54552859D01*
X57098534Y-54552858D01*
X56954459Y-54524200D01*
X56954455Y-54524200D01*
X56807545Y-54524200D01*
X56807540Y-54524200D01*
X56663465Y-54552858D01*
X56663455Y-54552861D01*
X56527733Y-54609078D01*
X56527724Y-54609083D01*
X56405580Y-54690698D01*
X56405576Y-54690701D01*
X56301701Y-54794576D01*
X56301698Y-54794580D01*
X56220083Y-54916724D01*
X56220078Y-54916733D01*
X56163861Y-55052455D01*
X56163858Y-55052465D01*
X56135200Y-55196540D01*
X55594799Y-55196540D01*
X55566140Y-55052458D01*
X55509920Y-54916731D01*
X55509919Y-54916730D01*
X55509916Y-54916724D01*
X55428301Y-54794580D01*
X55428298Y-54794576D01*
X55324423Y-54690701D01*
X55324419Y-54690698D01*
X55202275Y-54609083D01*
X55202266Y-54609078D01*
X55091611Y-54563244D01*
X55066542Y-54552860D01*
X55066538Y-54552859D01*
X55066534Y-54552858D01*
X54922459Y-54524200D01*
X54922455Y-54524200D01*
X54775545Y-54524200D01*
X54775540Y-54524200D01*
X54631465Y-54552858D01*
X54631455Y-54552861D01*
X54495733Y-54609078D01*
X54495724Y-54609083D01*
X54373580Y-54690698D01*
X54373576Y-54690701D01*
X54269701Y-54794576D01*
X54269698Y-54794580D01*
X54188083Y-54916724D01*
X54188078Y-54916733D01*
X54131861Y-55052455D01*
X54131858Y-55052465D01*
X54103200Y-55196540D01*
X30412815Y-55196540D01*
X30515389Y-55128003D01*
X30515394Y-55127998D01*
X30540621Y-55102772D01*
X30627998Y-55015394D01*
X30628003Y-55015389D01*
X30716483Y-54882968D01*
X30777430Y-54735831D01*
X30808500Y-54579630D01*
X30808500Y-54420370D01*
X30777430Y-54264169D01*
X30716483Y-54117032D01*
X30707405Y-54103446D01*
X30628004Y-53984612D01*
X30627998Y-53984605D01*
X30515394Y-53872001D01*
X30515387Y-53871995D01*
X30382969Y-53783517D01*
X30235831Y-53722570D01*
X30235823Y-53722568D01*
X30079634Y-53691500D01*
X30079630Y-53691500D01*
X29920370Y-53691500D01*
X29920365Y-53691500D01*
X29764176Y-53722568D01*
X29764168Y-53722570D01*
X29617030Y-53783517D01*
X29484612Y-53871995D01*
X29484605Y-53872001D01*
X29372001Y-53984605D01*
X29371995Y-53984612D01*
X29283517Y-54117030D01*
X29222570Y-54264168D01*
X29222568Y-54264176D01*
X29191500Y-54420365D01*
X23295943Y-54420365D01*
X23238690Y-54244159D01*
X23238688Y-54244156D01*
X23238688Y-54244154D01*
X23166993Y-54103446D01*
X23154097Y-54034777D01*
X23180373Y-53970036D01*
X23237480Y-53929779D01*
X23238948Y-53929289D01*
X23280244Y-53915872D01*
X23446227Y-53831299D01*
X23596937Y-53721803D01*
X23728662Y-53590078D01*
X23838158Y-53439368D01*
X23922731Y-53273385D01*
X23980297Y-53096216D01*
X23993098Y-53015394D01*
X24009438Y-52912228D01*
X24009438Y-52725929D01*
X23992188Y-52617023D01*
X23980297Y-52541942D01*
X23940794Y-52420365D01*
X29191500Y-52420365D01*
X29191500Y-52579634D01*
X29222568Y-52735823D01*
X29222570Y-52735831D01*
X29283517Y-52882969D01*
X29371995Y-53015387D01*
X29372001Y-53015394D01*
X29484605Y-53127998D01*
X29484612Y-53128004D01*
X29617030Y-53216482D01*
X29617031Y-53216482D01*
X29617032Y-53216483D01*
X29764169Y-53277430D01*
X29920365Y-53308499D01*
X29920369Y-53308500D01*
X29920370Y-53308500D01*
X30079631Y-53308500D01*
X30079632Y-53308499D01*
X30235831Y-53277430D01*
X30382968Y-53216483D01*
X30515389Y-53128003D01*
X30628003Y-53015389D01*
X30716483Y-52882968D01*
X30777430Y-52735831D01*
X30808500Y-52579630D01*
X30808500Y-52420370D01*
X30777430Y-52264169D01*
X30716483Y-52117032D01*
X30703506Y-52097611D01*
X30628004Y-51984612D01*
X30627998Y-51984605D01*
X30563758Y-51920365D01*
X48691500Y-51920365D01*
X48691500Y-52079634D01*
X48722568Y-52235823D01*
X48722570Y-52235831D01*
X48783517Y-52382969D01*
X48871995Y-52515387D01*
X48872001Y-52515394D01*
X48984605Y-52627998D01*
X48984612Y-52628004D01*
X49117030Y-52716482D01*
X49117031Y-52716482D01*
X49117032Y-52716483D01*
X49264169Y-52777430D01*
X49420365Y-52808499D01*
X49420369Y-52808500D01*
X49420370Y-52808500D01*
X49579631Y-52808500D01*
X49579632Y-52808499D01*
X49735831Y-52777430D01*
X49882968Y-52716483D01*
X50015389Y-52628003D01*
X50128003Y-52515389D01*
X50216483Y-52382968D01*
X50277430Y-52235831D01*
X50308500Y-52079630D01*
X50308500Y-51920370D01*
X50277430Y-51764169D01*
X50216483Y-51617032D01*
X50178364Y-51559983D01*
X50128004Y-51484612D01*
X50127998Y-51484605D01*
X50015394Y-51372001D01*
X50015387Y-51371995D01*
X49882969Y-51283517D01*
X49735831Y-51222570D01*
X49735823Y-51222568D01*
X49579634Y-51191500D01*
X49579630Y-51191500D01*
X49420370Y-51191500D01*
X49420365Y-51191500D01*
X49264176Y-51222568D01*
X49264168Y-51222570D01*
X49117030Y-51283517D01*
X48984612Y-51371995D01*
X48984605Y-51372001D01*
X48872001Y-51484605D01*
X48871995Y-51484612D01*
X48783517Y-51617030D01*
X48722570Y-51764168D01*
X48722568Y-51764176D01*
X48691500Y-51920365D01*
X30563758Y-51920365D01*
X30515394Y-51872001D01*
X30515387Y-51871995D01*
X30382969Y-51783517D01*
X30235831Y-51722570D01*
X30235823Y-51722568D01*
X30079634Y-51691500D01*
X30079630Y-51691500D01*
X29920370Y-51691500D01*
X29920365Y-51691500D01*
X29764176Y-51722568D01*
X29764168Y-51722570D01*
X29617030Y-51783517D01*
X29484612Y-51871995D01*
X29484605Y-51872001D01*
X29372001Y-51984605D01*
X29371995Y-51984612D01*
X29283517Y-52117030D01*
X29222570Y-52264168D01*
X29222568Y-52264176D01*
X29191500Y-52420365D01*
X23940794Y-52420365D01*
X23922731Y-52364773D01*
X23851033Y-52224060D01*
X23838138Y-52155392D01*
X23864414Y-52090652D01*
X23921520Y-52050394D01*
X23923145Y-52049853D01*
X23964284Y-52036487D01*
X24130267Y-51951914D01*
X24280977Y-51842418D01*
X24412702Y-51710693D01*
X24522198Y-51559983D01*
X24606771Y-51394000D01*
X24664337Y-51216831D01*
X24664392Y-51216482D01*
X24693478Y-51032843D01*
X24693478Y-50846544D01*
X24664337Y-50662556D01*
X24646092Y-50606406D01*
X24606771Y-50485388D01*
X24573640Y-50420365D01*
X41191500Y-50420365D01*
X41191500Y-50579634D01*
X41222568Y-50735823D01*
X41222570Y-50735831D01*
X41283517Y-50882969D01*
X41371995Y-51015387D01*
X41372001Y-51015394D01*
X41484605Y-51127998D01*
X41484612Y-51128004D01*
X41617030Y-51216482D01*
X41617031Y-51216482D01*
X41617032Y-51216483D01*
X41764169Y-51277430D01*
X41880086Y-51300487D01*
X41920365Y-51308499D01*
X41920369Y-51308500D01*
X41920370Y-51308500D01*
X42079631Y-51308500D01*
X42079632Y-51308499D01*
X42235831Y-51277430D01*
X42382968Y-51216483D01*
X42515389Y-51128003D01*
X42628003Y-51015389D01*
X42691495Y-50920365D01*
X43191500Y-50920365D01*
X43191500Y-51079634D01*
X43222568Y-51235823D01*
X43222570Y-51235831D01*
X43283517Y-51382969D01*
X43371995Y-51515387D01*
X43372001Y-51515394D01*
X43484605Y-51627998D01*
X43484612Y-51628004D01*
X43617030Y-51716482D01*
X43617031Y-51716482D01*
X43617032Y-51716483D01*
X43764169Y-51777430D01*
X43912110Y-51806857D01*
X43920365Y-51808499D01*
X43920369Y-51808500D01*
X43920370Y-51808500D01*
X44079631Y-51808500D01*
X44079632Y-51808499D01*
X44105191Y-51803415D01*
X44159261Y-51792661D01*
X44191597Y-51786228D01*
X44235831Y-51777430D01*
X44382968Y-51716483D01*
X44515389Y-51628003D01*
X44628003Y-51515389D01*
X44716483Y-51382968D01*
X44777430Y-51235831D01*
X44808500Y-51079630D01*
X44808500Y-50920370D01*
X44777430Y-50764169D01*
X44716483Y-50617032D01*
X44712457Y-50611007D01*
X44628004Y-50484612D01*
X44627998Y-50484605D01*
X44515394Y-50372001D01*
X44515387Y-50371995D01*
X44382969Y-50283517D01*
X44235831Y-50222570D01*
X44235823Y-50222568D01*
X44079634Y-50191500D01*
X44079630Y-50191500D01*
X43920370Y-50191500D01*
X43920365Y-50191500D01*
X43764176Y-50222568D01*
X43764168Y-50222570D01*
X43617030Y-50283517D01*
X43484612Y-50371995D01*
X43484605Y-50372001D01*
X43372001Y-50484605D01*
X43371995Y-50484612D01*
X43283517Y-50617030D01*
X43222570Y-50764168D01*
X43222568Y-50764176D01*
X43191500Y-50920365D01*
X42691495Y-50920365D01*
X42716483Y-50882968D01*
X42729758Y-50850921D01*
X42734236Y-50840108D01*
X42777430Y-50735831D01*
X42808500Y-50579630D01*
X42808500Y-50420370D01*
X42777430Y-50264169D01*
X42716483Y-50117032D01*
X42716154Y-50116540D01*
X42628004Y-49984612D01*
X42627998Y-49984605D01*
X42548984Y-49905591D01*
X51541500Y-49905591D01*
X51541500Y-50094408D01*
X51578332Y-50279576D01*
X51578334Y-50279584D01*
X51650586Y-50454017D01*
X51650591Y-50454026D01*
X51755483Y-50611007D01*
X51755486Y-50611011D01*
X51888988Y-50744513D01*
X51888992Y-50744516D01*
X52045973Y-50849408D01*
X52045982Y-50849413D01*
X52049623Y-50850921D01*
X52220416Y-50921666D01*
X52405591Y-50958499D01*
X52405595Y-50958500D01*
X52405596Y-50958500D01*
X52594405Y-50958500D01*
X52594406Y-50958499D01*
X52779584Y-50921666D01*
X52954020Y-50849412D01*
X53111008Y-50744516D01*
X53244516Y-50611008D01*
X53349412Y-50454020D01*
X53421666Y-50279584D01*
X53453999Y-50117032D01*
X53454097Y-50116540D01*
X55119200Y-50116540D01*
X55119200Y-50263459D01*
X55147858Y-50407534D01*
X55147860Y-50407542D01*
X55153173Y-50420369D01*
X55204078Y-50543266D01*
X55204083Y-50543275D01*
X55285698Y-50665419D01*
X55285701Y-50665423D01*
X55389576Y-50769298D01*
X55389580Y-50769301D01*
X55511724Y-50850916D01*
X55511730Y-50850919D01*
X55511731Y-50850920D01*
X55647458Y-50907140D01*
X55791540Y-50935799D01*
X55791544Y-50935800D01*
X55791545Y-50935800D01*
X55938456Y-50935800D01*
X55938457Y-50935799D01*
X56082542Y-50907140D01*
X56218269Y-50850920D01*
X56340420Y-50769301D01*
X56444301Y-50665420D01*
X56525920Y-50543269D01*
X56582140Y-50407542D01*
X56610800Y-50263455D01*
X56610800Y-50116545D01*
X56582140Y-49972458D01*
X56525920Y-49836731D01*
X56525919Y-49836730D01*
X56525916Y-49836724D01*
X56444301Y-49714580D01*
X56444298Y-49714576D01*
X56340423Y-49610701D01*
X56340419Y-49610698D01*
X56218275Y-49529083D01*
X56218266Y-49529078D01*
X56082544Y-49472861D01*
X56082545Y-49472861D01*
X56082542Y-49472860D01*
X56082538Y-49472859D01*
X56082534Y-49472858D01*
X55938459Y-49444200D01*
X55938455Y-49444200D01*
X55791545Y-49444200D01*
X55791540Y-49444200D01*
X55647465Y-49472858D01*
X55647455Y-49472861D01*
X55511733Y-49529078D01*
X55511724Y-49529083D01*
X55389580Y-49610698D01*
X55389576Y-49610701D01*
X55285701Y-49714576D01*
X55285698Y-49714580D01*
X55204083Y-49836724D01*
X55204078Y-49836733D01*
X55147861Y-49972455D01*
X55147858Y-49972465D01*
X55119200Y-50116540D01*
X53454097Y-50116540D01*
X53458498Y-50094415D01*
X53458499Y-50094408D01*
X53458500Y-50094404D01*
X53458500Y-49905596D01*
X53421666Y-49720416D01*
X53349412Y-49545980D01*
X53349411Y-49545979D01*
X53349408Y-49545973D01*
X53244516Y-49388992D01*
X53244513Y-49388988D01*
X53111011Y-49255486D01*
X53111007Y-49255483D01*
X52954026Y-49150591D01*
X52954017Y-49150586D01*
X52779584Y-49078334D01*
X52779576Y-49078332D01*
X52594408Y-49041500D01*
X52594404Y-49041500D01*
X52405596Y-49041500D01*
X52405591Y-49041500D01*
X52220423Y-49078332D01*
X52220415Y-49078334D01*
X52045982Y-49150586D01*
X52045973Y-49150591D01*
X51888992Y-49255483D01*
X51888988Y-49255486D01*
X51755486Y-49388988D01*
X51755483Y-49388992D01*
X51650591Y-49545973D01*
X51650586Y-49545982D01*
X51578334Y-49720415D01*
X51578332Y-49720423D01*
X51541500Y-49905591D01*
X42548984Y-49905591D01*
X42515394Y-49872001D01*
X42515387Y-49871995D01*
X42382969Y-49783517D01*
X42235831Y-49722570D01*
X42235823Y-49722568D01*
X42079634Y-49691500D01*
X42079630Y-49691500D01*
X41920370Y-49691500D01*
X41920365Y-49691500D01*
X41764176Y-49722568D01*
X41764168Y-49722570D01*
X41617030Y-49783517D01*
X41484612Y-49871995D01*
X41484605Y-49872001D01*
X41372001Y-49984605D01*
X41371995Y-49984612D01*
X41283517Y-50117030D01*
X41222570Y-50264168D01*
X41222568Y-50264176D01*
X41191500Y-50420365D01*
X24573640Y-50420365D01*
X24535074Y-50344675D01*
X24522178Y-50276005D01*
X24548454Y-50211265D01*
X24605561Y-50171008D01*
X24607029Y-50170518D01*
X24648325Y-50157101D01*
X24814308Y-50072528D01*
X24965018Y-49963032D01*
X25096743Y-49831307D01*
X25206239Y-49680597D01*
X25290812Y-49514614D01*
X25348378Y-49337445D01*
X25352962Y-49308500D01*
X25374841Y-49170365D01*
X27441500Y-49170365D01*
X27441500Y-49329634D01*
X27472568Y-49485823D01*
X27472570Y-49485831D01*
X27533517Y-49632969D01*
X27621995Y-49765387D01*
X27622001Y-49765394D01*
X27734605Y-49877998D01*
X27734612Y-49878004D01*
X27867030Y-49966482D01*
X27867031Y-49966482D01*
X27867032Y-49966483D01*
X28014169Y-50027430D01*
X28170365Y-50058499D01*
X28170369Y-50058500D01*
X28170370Y-50058500D01*
X28329631Y-50058500D01*
X28329632Y-50058499D01*
X28485831Y-50027430D01*
X28632968Y-49966483D01*
X28765389Y-49878003D01*
X28878003Y-49765389D01*
X28966483Y-49632968D01*
X29027430Y-49485831D01*
X29058500Y-49329630D01*
X29058500Y-49170370D01*
X29027430Y-49014169D01*
X28966483Y-48867032D01*
X28911370Y-48784549D01*
X28878004Y-48734612D01*
X28877998Y-48734605D01*
X28765394Y-48622001D01*
X28765387Y-48621995D01*
X28632969Y-48533517D01*
X28621675Y-48528839D01*
X28485831Y-48472570D01*
X28485823Y-48472568D01*
X28329634Y-48441500D01*
X28329630Y-48441500D01*
X28170370Y-48441500D01*
X28170365Y-48441500D01*
X28014176Y-48472568D01*
X28014168Y-48472570D01*
X27867030Y-48533517D01*
X27734612Y-48621995D01*
X27734605Y-48622001D01*
X27622001Y-48734605D01*
X27621995Y-48734612D01*
X27533517Y-48867030D01*
X27472570Y-49014168D01*
X27472568Y-49014176D01*
X27441500Y-49170365D01*
X25374841Y-49170365D01*
X25377518Y-49153460D01*
X25377519Y-49153454D01*
X25377519Y-48967158D01*
X25348378Y-48783170D01*
X25290810Y-48605997D01*
X25239345Y-48504992D01*
X25219115Y-48465291D01*
X25210678Y-48420365D01*
X31191500Y-48420365D01*
X31191500Y-48579634D01*
X31222568Y-48735823D01*
X31222570Y-48735831D01*
X31283517Y-48882969D01*
X31371995Y-49015387D01*
X31372001Y-49015394D01*
X31484605Y-49127998D01*
X31484612Y-49128004D01*
X31617030Y-49216482D01*
X31617031Y-49216482D01*
X31617032Y-49216483D01*
X31764169Y-49277430D01*
X31920365Y-49308499D01*
X31920369Y-49308500D01*
X31920370Y-49308500D01*
X32079631Y-49308500D01*
X32079632Y-49308499D01*
X32235831Y-49277430D01*
X32382968Y-49216483D01*
X32515389Y-49128003D01*
X32628003Y-49015389D01*
X32677877Y-48940746D01*
X34891500Y-48940746D01*
X34891500Y-49100015D01*
X34922568Y-49256204D01*
X34922570Y-49256212D01*
X34983517Y-49403350D01*
X35071995Y-49535768D01*
X35072001Y-49535775D01*
X35184605Y-49648379D01*
X35184612Y-49648385D01*
X35317030Y-49736863D01*
X35317031Y-49736863D01*
X35317032Y-49736864D01*
X35464169Y-49797811D01*
X35620365Y-49828880D01*
X35620369Y-49828881D01*
X35620370Y-49828881D01*
X35779631Y-49828881D01*
X35779632Y-49828880D01*
X35935831Y-49797811D01*
X36082968Y-49736864D01*
X36215389Y-49648384D01*
X36328003Y-49535770D01*
X36416483Y-49403349D01*
X36477430Y-49256212D01*
X36508500Y-49100011D01*
X36508500Y-48940751D01*
X36477430Y-48784550D01*
X36416483Y-48637413D01*
X36406182Y-48621997D01*
X36328004Y-48504993D01*
X36327998Y-48504986D01*
X36215394Y-48392382D01*
X36215387Y-48392376D01*
X36082969Y-48303898D01*
X35935831Y-48242951D01*
X35935823Y-48242949D01*
X35779634Y-48211881D01*
X35779630Y-48211881D01*
X35620370Y-48211881D01*
X35620365Y-48211881D01*
X35464176Y-48242949D01*
X35464168Y-48242951D01*
X35317030Y-48303898D01*
X35184612Y-48392376D01*
X35184605Y-48392382D01*
X35072001Y-48504986D01*
X35071995Y-48504993D01*
X34983517Y-48637411D01*
X34922570Y-48784549D01*
X34922568Y-48784557D01*
X34891500Y-48940746D01*
X32677877Y-48940746D01*
X32716483Y-48882968D01*
X32777430Y-48735831D01*
X32808500Y-48579630D01*
X32808500Y-48420370D01*
X32777430Y-48264169D01*
X32716483Y-48117032D01*
X32694177Y-48083649D01*
X32628004Y-47984612D01*
X32627998Y-47984605D01*
X32515394Y-47872001D01*
X32515387Y-47871995D01*
X32382969Y-47783517D01*
X32235831Y-47722570D01*
X32235823Y-47722568D01*
X32079634Y-47691500D01*
X32079630Y-47691500D01*
X31920370Y-47691500D01*
X31920365Y-47691500D01*
X31764176Y-47722568D01*
X31764168Y-47722570D01*
X31617030Y-47783517D01*
X31484612Y-47871995D01*
X31484605Y-47872001D01*
X31372001Y-47984605D01*
X31371995Y-47984612D01*
X31283517Y-48117030D01*
X31222570Y-48264168D01*
X31222568Y-48264176D01*
X31191500Y-48420365D01*
X25210678Y-48420365D01*
X25206220Y-48396623D01*
X25232496Y-48331883D01*
X25289602Y-48291625D01*
X25291227Y-48291084D01*
X25332365Y-48277718D01*
X25498348Y-48193145D01*
X25649058Y-48083649D01*
X25780783Y-47951924D01*
X25890279Y-47801214D01*
X25974852Y-47635231D01*
X26032418Y-47458062D01*
X26061559Y-47274074D01*
X26061559Y-47087775D01*
X26032418Y-46903787D01*
X26014611Y-46848984D01*
X25974852Y-46726619D01*
X25974849Y-46726615D01*
X25974849Y-46726612D01*
X25903154Y-46585905D01*
X25890257Y-46517235D01*
X25916533Y-46452495D01*
X25973639Y-46412237D01*
X25975268Y-46411695D01*
X26016405Y-46398329D01*
X26182388Y-46313756D01*
X26333098Y-46204260D01*
X26464823Y-46072535D01*
X26574319Y-45921825D01*
X26658892Y-45755842D01*
X26716458Y-45578673D01*
X26745599Y-45394685D01*
X26745599Y-45208386D01*
X26716458Y-45024398D01*
X26679107Y-44909445D01*
X26658892Y-44847230D01*
X26658889Y-44847226D01*
X26658889Y-44847223D01*
X26592396Y-44716725D01*
X26587195Y-44706519D01*
X26574299Y-44637851D01*
X26600575Y-44573110D01*
X26657681Y-44532852D01*
X26659306Y-44532311D01*
X26700445Y-44518945D01*
X26866428Y-44434372D01*
X27017138Y-44324876D01*
X27148863Y-44193151D01*
X27258359Y-44042441D01*
X27342932Y-43876458D01*
X27400498Y-43699289D01*
X27406746Y-43659840D01*
X27429639Y-43515301D01*
X27429639Y-43329002D01*
X27400498Y-43145014D01*
X27369484Y-43049564D01*
X27342932Y-42967846D01*
X27342929Y-42967842D01*
X27342929Y-42967839D01*
X27318740Y-42920365D01*
X32691500Y-42920365D01*
X32691500Y-43079634D01*
X32722568Y-43235823D01*
X32722570Y-43235831D01*
X32783517Y-43382969D01*
X32871995Y-43515387D01*
X32872001Y-43515394D01*
X32984605Y-43627998D01*
X32984612Y-43628004D01*
X33117030Y-43716482D01*
X33117031Y-43716482D01*
X33117032Y-43716483D01*
X33264169Y-43777430D01*
X33420365Y-43808499D01*
X33420369Y-43808500D01*
X33420370Y-43808500D01*
X33579631Y-43808500D01*
X33579632Y-43808499D01*
X33735831Y-43777430D01*
X33882968Y-43716483D01*
X33967741Y-43659840D01*
X34020454Y-43624619D01*
X34021147Y-43625657D01*
X34079444Y-43600898D01*
X34148312Y-43612689D01*
X34199872Y-43659840D01*
X34215417Y-43699873D01*
X34222568Y-43735823D01*
X34222570Y-43735831D01*
X34283517Y-43882969D01*
X34371995Y-44015387D01*
X34372001Y-44015394D01*
X34484605Y-44127998D01*
X34484612Y-44128004D01*
X34617030Y-44216482D01*
X34617031Y-44216482D01*
X34617032Y-44216483D01*
X34764169Y-44277430D01*
X34911889Y-44306813D01*
X34920365Y-44308499D01*
X34920369Y-44308500D01*
X34920370Y-44308500D01*
X35079631Y-44308500D01*
X35079632Y-44308499D01*
X35235831Y-44277430D01*
X35382968Y-44216483D01*
X35515389Y-44128003D01*
X35628003Y-44015389D01*
X35716483Y-43882968D01*
X35777430Y-43735831D01*
X35790237Y-43671445D01*
X37942580Y-43671445D01*
X37942580Y-43830714D01*
X37973648Y-43986903D01*
X37973650Y-43986911D01*
X38034597Y-44134049D01*
X38123075Y-44266467D01*
X38123081Y-44266474D01*
X38235685Y-44379078D01*
X38235692Y-44379084D01*
X38368110Y-44467562D01*
X38368111Y-44467562D01*
X38368112Y-44467563D01*
X38515249Y-44528510D01*
X38655428Y-44556393D01*
X38671445Y-44559579D01*
X38671449Y-44559580D01*
X38671450Y-44559580D01*
X38830711Y-44559580D01*
X38830712Y-44559579D01*
X38986911Y-44528510D01*
X39134048Y-44467563D01*
X39266469Y-44379083D01*
X39379083Y-44266469D01*
X39467563Y-44134048D01*
X39469729Y-44128819D01*
X39513567Y-44074413D01*
X39579860Y-44052345D01*
X39647560Y-44069621D01*
X39695173Y-44120756D01*
X39705909Y-44152074D01*
X39722568Y-44235825D01*
X39722570Y-44235831D01*
X39783517Y-44382969D01*
X39871995Y-44515387D01*
X39872001Y-44515394D01*
X39984605Y-44627998D01*
X39984612Y-44628004D01*
X40117030Y-44716482D01*
X40117031Y-44716482D01*
X40117032Y-44716483D01*
X40264169Y-44777430D01*
X40414408Y-44807314D01*
X40420365Y-44808499D01*
X40420369Y-44808500D01*
X40420370Y-44808500D01*
X40579631Y-44808500D01*
X40579632Y-44808499D01*
X40735831Y-44777430D01*
X40882968Y-44716483D01*
X41015389Y-44628003D01*
X41128003Y-44515389D01*
X41216483Y-44382968D01*
X41277430Y-44235831D01*
X41308500Y-44079630D01*
X41308500Y-43920370D01*
X41277430Y-43764169D01*
X41216483Y-43617032D01*
X41204437Y-43599004D01*
X41128004Y-43484612D01*
X41127998Y-43484605D01*
X41015394Y-43372001D01*
X41015387Y-43371995D01*
X40882969Y-43283517D01*
X40735831Y-43222570D01*
X40735823Y-43222568D01*
X40579634Y-43191500D01*
X40579630Y-43191500D01*
X40420370Y-43191500D01*
X40420365Y-43191500D01*
X40264176Y-43222568D01*
X40264168Y-43222570D01*
X40117030Y-43283517D01*
X39984612Y-43371995D01*
X39984605Y-43372001D01*
X39872001Y-43484605D01*
X39871995Y-43484612D01*
X39783517Y-43617030D01*
X39783515Y-43617034D01*
X39781345Y-43622273D01*
X39737501Y-43676674D01*
X39671205Y-43698734D01*
X39603507Y-43681451D01*
X39555900Y-43630310D01*
X39545170Y-43599004D01*
X39536694Y-43556393D01*
X39528510Y-43515249D01*
X39467563Y-43368112D01*
X39457085Y-43352431D01*
X39379084Y-43235692D01*
X39379078Y-43235685D01*
X39266474Y-43123081D01*
X39266467Y-43123075D01*
X39134049Y-43034597D01*
X38986911Y-42973650D01*
X38986903Y-42973648D01*
X38830714Y-42942580D01*
X38830710Y-42942580D01*
X38671450Y-42942580D01*
X38671445Y-42942580D01*
X38515256Y-42973648D01*
X38515248Y-42973650D01*
X38368110Y-43034597D01*
X38235692Y-43123075D01*
X38235685Y-43123081D01*
X38123081Y-43235685D01*
X38123075Y-43235692D01*
X38034597Y-43368110D01*
X37973650Y-43515248D01*
X37973648Y-43515256D01*
X37942580Y-43671445D01*
X35790237Y-43671445D01*
X35796260Y-43641167D01*
X35802231Y-43611149D01*
X35808500Y-43579630D01*
X35808500Y-43420370D01*
X35792191Y-43338378D01*
X35798418Y-43268787D01*
X35841281Y-43213610D01*
X35907171Y-43190365D01*
X35975168Y-43206433D01*
X35982698Y-43211085D01*
X36103022Y-43291482D01*
X36103023Y-43291482D01*
X36103024Y-43291483D01*
X36250161Y-43352430D01*
X36406357Y-43383499D01*
X36406361Y-43383500D01*
X36406362Y-43383500D01*
X36565623Y-43383500D01*
X36565624Y-43383499D01*
X36721823Y-43352430D01*
X36868960Y-43291483D01*
X37001381Y-43203003D01*
X37113995Y-43090389D01*
X37202475Y-42957968D01*
X37263422Y-42810831D01*
X37294492Y-42654630D01*
X37294492Y-42495370D01*
X37279572Y-42420365D01*
X41191500Y-42420365D01*
X41191500Y-42579634D01*
X41222568Y-42735823D01*
X41222570Y-42735831D01*
X41283517Y-42882969D01*
X41371995Y-43015387D01*
X41372001Y-43015394D01*
X41484605Y-43127998D01*
X41484612Y-43128004D01*
X41617030Y-43216482D01*
X41617031Y-43216482D01*
X41617032Y-43216483D01*
X41764169Y-43277430D01*
X41920365Y-43308499D01*
X41920369Y-43308500D01*
X41920370Y-43308500D01*
X42079631Y-43308500D01*
X42079632Y-43308499D01*
X42235831Y-43277430D01*
X42382968Y-43216483D01*
X42515389Y-43128003D01*
X42628003Y-43015389D01*
X42716483Y-42882968D01*
X42777430Y-42735831D01*
X42808500Y-42579630D01*
X42808500Y-42420370D01*
X42777430Y-42264169D01*
X42716483Y-42117032D01*
X42628003Y-41984611D01*
X42628002Y-41984610D01*
X42628000Y-41984607D01*
X42563758Y-41920365D01*
X43691500Y-41920365D01*
X43691500Y-42079634D01*
X43722568Y-42235823D01*
X43722570Y-42235831D01*
X43783517Y-42382969D01*
X43871995Y-42515387D01*
X43872001Y-42515394D01*
X43984605Y-42627998D01*
X43984612Y-42628004D01*
X44117030Y-42716482D01*
X44117031Y-42716482D01*
X44117032Y-42716483D01*
X44264169Y-42777430D01*
X44420365Y-42808499D01*
X44420369Y-42808500D01*
X44420370Y-42808500D01*
X44579631Y-42808500D01*
X44579632Y-42808499D01*
X44735831Y-42777430D01*
X44882968Y-42716483D01*
X45015389Y-42628003D01*
X45128003Y-42515389D01*
X45216483Y-42382968D01*
X45277430Y-42235831D01*
X45308500Y-42079630D01*
X45308500Y-41920370D01*
X45277430Y-41764169D01*
X45216483Y-41617032D01*
X45197846Y-41589140D01*
X45128004Y-41484612D01*
X45127998Y-41484605D01*
X45015394Y-41372001D01*
X45015387Y-41371995D01*
X44882969Y-41283517D01*
X44735831Y-41222570D01*
X44735823Y-41222568D01*
X44579634Y-41191500D01*
X44579630Y-41191500D01*
X44420370Y-41191500D01*
X44420365Y-41191500D01*
X44264176Y-41222568D01*
X44264168Y-41222570D01*
X44117030Y-41283517D01*
X43984612Y-41371995D01*
X43984605Y-41372001D01*
X43872001Y-41484605D01*
X43871995Y-41484612D01*
X43783517Y-41617030D01*
X43722570Y-41764168D01*
X43722568Y-41764176D01*
X43691500Y-41920365D01*
X42563758Y-41920365D01*
X42515394Y-41872001D01*
X42515387Y-41871995D01*
X42382969Y-41783517D01*
X42235831Y-41722570D01*
X42235823Y-41722568D01*
X42079634Y-41691500D01*
X42079630Y-41691500D01*
X41920370Y-41691500D01*
X41920365Y-41691500D01*
X41764176Y-41722568D01*
X41764168Y-41722570D01*
X41617030Y-41783517D01*
X41484612Y-41871995D01*
X41484605Y-41872001D01*
X41372001Y-41984605D01*
X41371995Y-41984612D01*
X41283517Y-42117030D01*
X41222570Y-42264168D01*
X41222568Y-42264176D01*
X41191500Y-42420365D01*
X37279572Y-42420365D01*
X37277497Y-42409932D01*
X37272134Y-42382968D01*
X37263422Y-42339169D01*
X37202475Y-42192032D01*
X37159693Y-42128004D01*
X37113996Y-42059612D01*
X37113990Y-42059605D01*
X37001386Y-41947001D01*
X37001379Y-41946995D01*
X36868961Y-41858517D01*
X36721823Y-41797570D01*
X36721815Y-41797568D01*
X36565626Y-41766500D01*
X36565622Y-41766500D01*
X36406362Y-41766500D01*
X36406357Y-41766500D01*
X36250168Y-41797568D01*
X36250160Y-41797570D01*
X36103022Y-41858517D01*
X35970604Y-41946995D01*
X35970597Y-41947001D01*
X35857993Y-42059605D01*
X35857987Y-42059612D01*
X35769509Y-42192030D01*
X35708562Y-42339168D01*
X35708560Y-42339176D01*
X35677492Y-42495365D01*
X35677492Y-42495368D01*
X35677492Y-42495370D01*
X35677492Y-42654630D01*
X35677493Y-42654634D01*
X35693801Y-42736621D01*
X35687573Y-42806213D01*
X35644709Y-42861390D01*
X35578819Y-42884634D01*
X35510822Y-42868566D01*
X35503293Y-42863915D01*
X35382966Y-42783515D01*
X35235831Y-42722570D01*
X35235823Y-42722568D01*
X35079634Y-42691500D01*
X35079630Y-42691500D01*
X34920370Y-42691500D01*
X34920365Y-42691500D01*
X34764176Y-42722568D01*
X34764168Y-42722570D01*
X34617030Y-42783517D01*
X34479546Y-42875381D01*
X34478855Y-42874347D01*
X34420525Y-42899105D01*
X34351660Y-42887297D01*
X34300111Y-42840133D01*
X34284582Y-42800128D01*
X34277430Y-42764169D01*
X34216483Y-42617032D01*
X34148571Y-42515394D01*
X34128004Y-42484612D01*
X34127998Y-42484605D01*
X34015394Y-42372001D01*
X34015387Y-42371995D01*
X33882969Y-42283517D01*
X33735831Y-42222570D01*
X33735823Y-42222568D01*
X33579634Y-42191500D01*
X33579630Y-42191500D01*
X33420370Y-42191500D01*
X33420365Y-42191500D01*
X33264176Y-42222568D01*
X33264168Y-42222570D01*
X33117030Y-42283517D01*
X32984612Y-42371995D01*
X32984605Y-42372001D01*
X32872001Y-42484605D01*
X32871995Y-42484612D01*
X32783517Y-42617030D01*
X32722570Y-42764168D01*
X32722568Y-42764176D01*
X32691500Y-42920365D01*
X27318740Y-42920365D01*
X27271236Y-42827135D01*
X27258340Y-42758466D01*
X27284616Y-42693726D01*
X27341722Y-42653468D01*
X27343347Y-42652927D01*
X27384486Y-42639561D01*
X27550469Y-42554988D01*
X27701179Y-42445492D01*
X27832904Y-42313767D01*
X27942400Y-42163057D01*
X28026973Y-41997074D01*
X28057023Y-41904589D01*
X28096459Y-41846916D01*
X28160818Y-41819717D01*
X28229664Y-41831631D01*
X28280102Y-41877922D01*
X28280132Y-41877903D01*
X28280212Y-41878024D01*
X28281140Y-41878875D01*
X28283181Y-41882466D01*
X28371995Y-42015387D01*
X28372001Y-42015394D01*
X28484605Y-42127998D01*
X28484612Y-42128004D01*
X28617030Y-42216482D01*
X28617031Y-42216482D01*
X28617032Y-42216483D01*
X28764169Y-42277430D01*
X28920365Y-42308499D01*
X28920369Y-42308500D01*
X28920370Y-42308500D01*
X29079631Y-42308500D01*
X29079632Y-42308499D01*
X29235831Y-42277430D01*
X29382968Y-42216483D01*
X29515389Y-42128003D01*
X29628003Y-42015389D01*
X29716483Y-41882968D01*
X29777430Y-41735831D01*
X29808500Y-41579630D01*
X29808500Y-41420370D01*
X29777430Y-41264169D01*
X29716483Y-41117032D01*
X29697393Y-41088462D01*
X29628004Y-40984612D01*
X29627998Y-40984605D01*
X29515394Y-40872001D01*
X29515387Y-40871995D01*
X29382969Y-40783517D01*
X29235831Y-40722570D01*
X29235823Y-40722568D01*
X29079634Y-40691500D01*
X29079630Y-40691500D01*
X28920370Y-40691500D01*
X28920365Y-40691500D01*
X28764176Y-40722568D01*
X28764168Y-40722570D01*
X28617030Y-40783517D01*
X28484612Y-40871995D01*
X28484605Y-40872001D01*
X28372001Y-40984605D01*
X28371995Y-40984612D01*
X28283517Y-41117030D01*
X28283514Y-41117034D01*
X28273574Y-41141032D01*
X28229731Y-41195434D01*
X28163436Y-41217496D01*
X28095737Y-41200214D01*
X28048129Y-41149075D01*
X28041087Y-41131900D01*
X28026973Y-41088462D01*
X27942400Y-40922479D01*
X27832904Y-40771769D01*
X27701179Y-40640044D01*
X27701175Y-40640040D01*
X27679940Y-40624612D01*
X27679924Y-40624602D01*
X27550469Y-40530548D01*
X27550110Y-40530365D01*
X31581500Y-40530365D01*
X31581500Y-40689634D01*
X31612568Y-40845823D01*
X31612570Y-40845831D01*
X31673517Y-40992969D01*
X31761995Y-41125387D01*
X31762001Y-41125394D01*
X31874605Y-41237998D01*
X31874612Y-41238004D01*
X32007030Y-41326482D01*
X32007031Y-41326482D01*
X32007032Y-41326483D01*
X32154169Y-41387430D01*
X32310365Y-41418499D01*
X32310369Y-41418500D01*
X32310370Y-41418500D01*
X32469631Y-41418500D01*
X32469632Y-41418499D01*
X32625831Y-41387430D01*
X32772968Y-41326483D01*
X32905389Y-41238003D01*
X33018003Y-41125389D01*
X33106483Y-40992968D01*
X33167430Y-40845831D01*
X33198500Y-40689630D01*
X33198500Y-40530370D01*
X33167430Y-40374169D01*
X33106483Y-40227032D01*
X33099434Y-40216483D01*
X33018004Y-40094612D01*
X33017998Y-40094605D01*
X32905394Y-39982001D01*
X32905387Y-39981995D01*
X32772969Y-39893517D01*
X32625831Y-39832570D01*
X32625823Y-39832568D01*
X32469634Y-39801500D01*
X32469630Y-39801500D01*
X32310370Y-39801500D01*
X32310365Y-39801500D01*
X32154176Y-39832568D01*
X32154168Y-39832570D01*
X32007030Y-39893517D01*
X31874612Y-39981995D01*
X31874605Y-39982001D01*
X31762001Y-40094605D01*
X31761995Y-40094612D01*
X31673517Y-40227030D01*
X31612570Y-40374168D01*
X31612568Y-40374176D01*
X31581500Y-40530365D01*
X27550110Y-40530365D01*
X27544587Y-40527551D01*
X27384490Y-40445976D01*
X27207317Y-40388408D01*
X27023329Y-40359268D01*
X27023324Y-40359268D01*
X26837036Y-40359268D01*
X26837031Y-40359268D01*
X26653042Y-40388408D01*
X26475869Y-40445976D01*
X26309894Y-40530546D01*
X26159178Y-40640046D01*
X26027458Y-40771766D01*
X25917958Y-40922482D01*
X25833388Y-41088457D01*
X25775820Y-41265630D01*
X25746680Y-41449618D01*
X25746680Y-41635917D01*
X25775820Y-41819905D01*
X25833388Y-41997078D01*
X25888757Y-42105743D01*
X25900096Y-42127998D01*
X25905083Y-42137784D01*
X25917979Y-42206453D01*
X25891703Y-42271193D01*
X25834597Y-42311451D01*
X25832967Y-42311993D01*
X25791833Y-42325359D01*
X25791827Y-42325361D01*
X25625853Y-42409930D01*
X25625850Y-42409931D01*
X25625850Y-42409932D01*
X25576905Y-42445492D01*
X25475137Y-42519430D01*
X25343417Y-42651150D01*
X25291530Y-42722568D01*
X25235183Y-42800124D01*
X25233917Y-42801866D01*
X25149347Y-42967841D01*
X25091779Y-43145014D01*
X25062639Y-43329002D01*
X25062639Y-43515301D01*
X25091779Y-43699289D01*
X25149347Y-43876462D01*
X25186835Y-43950034D01*
X25220135Y-44015389D01*
X25221042Y-44017168D01*
X25233938Y-44085837D01*
X25207662Y-44150577D01*
X25150556Y-44190835D01*
X25148877Y-44191393D01*
X25107792Y-44204742D01*
X24941813Y-44289314D01*
X24941810Y-44289315D01*
X24941810Y-44289316D01*
X24892865Y-44324876D01*
X24791097Y-44398814D01*
X24659377Y-44530534D01*
X24659375Y-44530537D01*
X24563739Y-44662171D01*
X24549877Y-44681250D01*
X24465307Y-44847225D01*
X24407739Y-45024398D01*
X24378599Y-45208386D01*
X24378599Y-45394685D01*
X24407739Y-45578673D01*
X24465307Y-45755846D01*
X24537004Y-45896557D01*
X24549900Y-45965226D01*
X24523624Y-46029967D01*
X24466517Y-46070224D01*
X24464887Y-46070766D01*
X24459439Y-46072537D01*
X24423748Y-46084133D01*
X24257773Y-46168703D01*
X24107057Y-46278203D01*
X23975337Y-46409923D01*
X23865837Y-46560639D01*
X23781267Y-46726614D01*
X23723699Y-46903787D01*
X23694559Y-47087775D01*
X23694559Y-47274074D01*
X23723699Y-47458062D01*
X23781267Y-47635235D01*
X23852961Y-47775940D01*
X23865857Y-47844609D01*
X23839581Y-47909350D01*
X23782474Y-47949607D01*
X23780797Y-47950165D01*
X23739711Y-47963515D01*
X23573733Y-48048086D01*
X23423017Y-48157586D01*
X23291297Y-48289306D01*
X23257893Y-48335284D01*
X23196076Y-48420369D01*
X23181797Y-48440022D01*
X23097227Y-48605997D01*
X23039659Y-48783170D01*
X23010519Y-48967158D01*
X23010519Y-49153457D01*
X23039659Y-49337445D01*
X23097227Y-49514618D01*
X23168922Y-49655326D01*
X23181818Y-49723996D01*
X23155542Y-49788736D01*
X23098435Y-49828993D01*
X23096805Y-49829535D01*
X23055672Y-49842901D01*
X23055666Y-49842903D01*
X22889692Y-49927472D01*
X22889689Y-49927473D01*
X22889689Y-49927474D01*
X22835997Y-49966483D01*
X22738976Y-50036972D01*
X22607256Y-50168692D01*
X22497756Y-50319408D01*
X22413186Y-50485383D01*
X22355618Y-50662556D01*
X22326478Y-50846544D01*
X22326478Y-51032843D01*
X22355618Y-51216831D01*
X22413186Y-51394004D01*
X22484881Y-51534711D01*
X22497777Y-51603380D01*
X22471501Y-51668121D01*
X22414394Y-51708378D01*
X22412716Y-51708936D01*
X22371631Y-51722285D01*
X22205652Y-51806857D01*
X22205649Y-51806858D01*
X22205649Y-51806859D01*
X22156710Y-51842415D01*
X22054936Y-51916357D01*
X21923216Y-52048077D01*
X21923214Y-52048080D01*
X21818606Y-52192063D01*
X21813716Y-52198793D01*
X21729146Y-52364768D01*
X21671578Y-52541941D01*
X21642438Y-52725929D01*
X21642438Y-52912228D01*
X21671578Y-53096216D01*
X21729146Y-53273389D01*
X21800841Y-53414097D01*
X21813737Y-53482767D01*
X21787461Y-53547507D01*
X21730354Y-53587764D01*
X21728724Y-53588306D01*
X21687591Y-53601672D01*
X21687585Y-53601674D01*
X21521611Y-53686243D01*
X21370895Y-53795743D01*
X21239175Y-53927463D01*
X21129675Y-54078179D01*
X21045105Y-54244154D01*
X20987537Y-54421327D01*
X20958397Y-54605315D01*
X20958397Y-54791614D01*
X20987537Y-54975602D01*
X21045105Y-55152775D01*
X21077567Y-55216483D01*
X21124452Y-55308500D01*
X21129679Y-55318757D01*
X21169840Y-55374035D01*
X21181904Y-55394515D01*
X21552414Y-56189074D01*
X21510519Y-56177849D01*
X21405197Y-56177849D01*
X21303464Y-56205108D01*
X21212252Y-56257769D01*
X21137778Y-56332243D01*
X21098892Y-56399595D01*
X20745946Y-55642701D01*
X20692403Y-55681604D01*
X20692394Y-55681611D01*
X20561616Y-55812389D01*
X20561612Y-55812394D01*
X20452910Y-55962011D01*
X20368942Y-56126805D01*
X20368941Y-56126808D01*
X20311791Y-56302701D01*
X20282858Y-56485375D01*
X20282858Y-56670322D01*
X20311791Y-56852998D01*
X20339412Y-56938008D01*
X20341407Y-57007849D01*
X20305326Y-57067682D01*
X20257360Y-57095021D01*
X20153279Y-57126482D01*
X20030898Y-57206510D01*
X19936021Y-57317773D01*
X19909193Y-57372449D01*
X19909191Y-57372452D01*
X19414193Y-58732447D01*
X19414190Y-58732456D01*
X19399596Y-58791592D01*
X18544047Y-58791592D01*
X18526060Y-58509515D01*
X18525941Y-58507274D01*
X18517993Y-58322710D01*
X18517913Y-58320215D01*
X18501007Y-57523949D01*
X18508891Y-57477738D01*
X19255862Y-55488434D01*
X19996632Y-53543209D01*
X19996858Y-53542626D01*
X21455911Y-49792320D01*
X21456266Y-49791420D01*
X22876546Y-46246327D01*
X22877026Y-46245148D01*
X22893910Y-46204260D01*
X24256469Y-42904573D01*
X24256974Y-42903371D01*
X24296404Y-42810823D01*
X25593242Y-39766931D01*
X25593765Y-39765723D01*
X26405859Y-37920365D01*
X28191500Y-37920365D01*
X28191500Y-38079634D01*
X28222568Y-38235823D01*
X28222570Y-38235831D01*
X28283517Y-38382969D01*
X28371995Y-38515387D01*
X28372001Y-38515394D01*
X28484605Y-38627998D01*
X28484612Y-38628004D01*
X28617030Y-38716482D01*
X28617031Y-38716482D01*
X28617032Y-38716483D01*
X28764169Y-38777430D01*
X28911889Y-38806813D01*
X28920365Y-38808499D01*
X28920369Y-38808500D01*
X28920370Y-38808500D01*
X29079631Y-38808500D01*
X29079632Y-38808499D01*
X29235831Y-38777430D01*
X29382968Y-38716483D01*
X29515389Y-38628003D01*
X29628003Y-38515389D01*
X29691495Y-38420365D01*
X33191500Y-38420365D01*
X33191500Y-38579634D01*
X33222568Y-38735823D01*
X33222570Y-38735831D01*
X33283517Y-38882969D01*
X33371995Y-39015387D01*
X33372001Y-39015394D01*
X33484605Y-39127998D01*
X33484612Y-39128004D01*
X33617030Y-39216482D01*
X33617031Y-39216482D01*
X33617032Y-39216483D01*
X33764169Y-39277430D01*
X33852323Y-39294964D01*
X33914231Y-39327348D01*
X33948806Y-39388063D01*
X33945067Y-39457833D01*
X33904201Y-39514505D01*
X33875590Y-39531139D01*
X33867860Y-39534341D01*
X33867856Y-39534343D01*
X33735438Y-39622821D01*
X33735431Y-39622827D01*
X33622827Y-39735431D01*
X33622821Y-39735438D01*
X33534343Y-39867856D01*
X33473396Y-40014994D01*
X33473394Y-40015002D01*
X33442326Y-40171191D01*
X33442326Y-40330460D01*
X33473394Y-40486649D01*
X33473396Y-40486657D01*
X33534343Y-40633795D01*
X33622821Y-40766213D01*
X33622827Y-40766220D01*
X33735431Y-40878824D01*
X33735438Y-40878830D01*
X33867856Y-40967308D01*
X33867857Y-40967308D01*
X33867858Y-40967309D01*
X34014995Y-41028256D01*
X34171191Y-41059325D01*
X34171195Y-41059326D01*
X34171196Y-41059326D01*
X34330457Y-41059326D01*
X34330458Y-41059325D01*
X34486657Y-41028256D01*
X34633794Y-40967309D01*
X34766215Y-40878829D01*
X34878829Y-40766215D01*
X34967309Y-40633794D01*
X35028256Y-40486657D01*
X35059326Y-40330456D01*
X35059326Y-40171196D01*
X35028256Y-40014995D01*
X34967309Y-39867858D01*
X34944452Y-39833650D01*
X34878830Y-39735438D01*
X34878824Y-39735431D01*
X34766220Y-39622827D01*
X34766213Y-39622821D01*
X34633797Y-39534344D01*
X34620506Y-39528839D01*
X34620504Y-39528838D01*
X34486657Y-39473396D01*
X34486649Y-39473394D01*
X34398504Y-39455861D01*
X34336593Y-39423476D01*
X34334821Y-39420365D01*
X43191500Y-39420365D01*
X43191500Y-39579634D01*
X43222568Y-39735823D01*
X43222570Y-39735831D01*
X43283517Y-39882969D01*
X43371995Y-40015387D01*
X43372001Y-40015394D01*
X43484605Y-40127998D01*
X43484612Y-40128004D01*
X43617030Y-40216482D01*
X43617031Y-40216482D01*
X43617032Y-40216483D01*
X43764169Y-40277430D01*
X43920365Y-40308499D01*
X43920369Y-40308500D01*
X43920370Y-40308500D01*
X44079631Y-40308500D01*
X44079632Y-40308499D01*
X44235831Y-40277430D01*
X44382968Y-40216483D01*
X44515389Y-40128003D01*
X44628003Y-40015389D01*
X44716483Y-39882968D01*
X44777430Y-39735831D01*
X44808500Y-39579630D01*
X44808500Y-39420370D01*
X44777430Y-39264169D01*
X44716483Y-39117032D01*
X44716482Y-39117030D01*
X44716482Y-39117029D01*
X44641984Y-39005535D01*
X44641983Y-39005534D01*
X44628001Y-38984608D01*
X44586995Y-38943602D01*
X48499500Y-38943602D01*
X48499500Y-44556397D01*
X48524594Y-44666342D01*
X48524596Y-44666348D01*
X48524597Y-44666350D01*
X48534859Y-44687659D01*
X48536067Y-44692167D01*
X48541870Y-44702219D01*
X48543884Y-44706400D01*
X48543884Y-44706401D01*
X48573532Y-44767967D01*
X48590552Y-44789310D01*
X48596350Y-44796580D01*
X48601612Y-44805694D01*
X48611522Y-44815604D01*
X48615859Y-44821042D01*
X48615863Y-44821047D01*
X48643850Y-44856142D01*
X48643851Y-44856143D01*
X48643852Y-44856144D01*
X48643854Y-44856146D01*
X48678951Y-44884135D01*
X48678950Y-44884135D01*
X48684395Y-44888477D01*
X48694306Y-44898388D01*
X48703425Y-44903653D01*
X48732033Y-44926467D01*
X48732036Y-44926468D01*
X48732037Y-44926469D01*
X48793591Y-44956112D01*
X48793592Y-44956112D01*
X48797778Y-44958128D01*
X48807833Y-44963933D01*
X48812340Y-44965140D01*
X48833650Y-44975403D01*
X48943607Y-45000500D01*
X54565890Y-45000500D01*
X54565892Y-45000500D01*
X54693186Y-44966392D01*
X54807314Y-44900500D01*
X54825985Y-44881828D01*
X54829114Y-44879818D01*
X54836361Y-44871452D01*
X54900500Y-44807314D01*
X54917595Y-44777703D01*
X54922790Y-44771710D01*
X54929345Y-44757351D01*
X54966392Y-44693186D01*
X54977382Y-44652167D01*
X54982213Y-44641591D01*
X54984522Y-44625520D01*
X55000500Y-44565892D01*
X55000500Y-44514403D01*
X55002571Y-44500000D01*
X55000500Y-44485596D01*
X55000500Y-44434109D01*
X55000499Y-44434105D01*
X54991043Y-44398814D01*
X54984523Y-44374483D01*
X54982213Y-44358409D01*
X54977383Y-44347833D01*
X54966392Y-44306814D01*
X54932308Y-44247778D01*
X54929350Y-44242656D01*
X54922790Y-44228290D01*
X54917593Y-44222292D01*
X54914239Y-44216483D01*
X54900500Y-44192686D01*
X54836370Y-44128556D01*
X54829114Y-44120182D01*
X54825985Y-44118171D01*
X54807316Y-44099502D01*
X54807314Y-44099500D01*
X54750250Y-44066554D01*
X54693187Y-44033608D01*
X54625184Y-44015387D01*
X54565892Y-43999500D01*
X54565891Y-43999500D01*
X50006963Y-43999500D01*
X49993078Y-43998720D01*
X49906679Y-43988984D01*
X49888468Y-43985538D01*
X49877049Y-43982478D01*
X49868192Y-43979746D01*
X49796462Y-43954648D01*
X49771442Y-43942599D01*
X49700395Y-43897956D01*
X49678687Y-43880644D01*
X49619355Y-43821312D01*
X49602046Y-43799610D01*
X49557393Y-43728545D01*
X49545353Y-43703543D01*
X49520251Y-43631804D01*
X49517520Y-43622949D01*
X49514771Y-43612689D01*
X49514458Y-43611523D01*
X49511015Y-43593326D01*
X49501280Y-43506921D01*
X49500500Y-43493038D01*
X49500500Y-42105743D01*
X51241652Y-42105743D01*
X51241652Y-42294560D01*
X51278484Y-42479728D01*
X51278486Y-42479736D01*
X51350738Y-42654169D01*
X51350743Y-42654178D01*
X51455635Y-42811159D01*
X51455638Y-42811163D01*
X51589140Y-42944665D01*
X51589144Y-42944668D01*
X51746125Y-43049560D01*
X51746131Y-43049563D01*
X51746132Y-43049564D01*
X51920568Y-43121818D01*
X52105743Y-43158651D01*
X52105747Y-43158652D01*
X52105748Y-43158652D01*
X52294557Y-43158652D01*
X52294558Y-43158651D01*
X52479736Y-43121818D01*
X52654172Y-43049564D01*
X52811160Y-42944668D01*
X52944668Y-42811160D01*
X53049564Y-42654172D01*
X53121818Y-42479736D01*
X53158652Y-42294556D01*
X53158652Y-42105748D01*
X53121818Y-41920568D01*
X53049564Y-41746132D01*
X53049563Y-41746131D01*
X53049560Y-41746125D01*
X52944668Y-41589144D01*
X52944665Y-41589140D01*
X52811163Y-41455638D01*
X52811159Y-41455635D01*
X52654178Y-41350743D01*
X52654169Y-41350738D01*
X52479736Y-41278486D01*
X52479728Y-41278484D01*
X52294560Y-41241652D01*
X52294556Y-41241652D01*
X52105748Y-41241652D01*
X52105743Y-41241652D01*
X51920575Y-41278484D01*
X51920567Y-41278486D01*
X51746134Y-41350738D01*
X51746125Y-41350743D01*
X51589144Y-41455635D01*
X51589140Y-41455638D01*
X51455638Y-41589140D01*
X51455635Y-41589144D01*
X51350743Y-41746125D01*
X51350738Y-41746134D01*
X51278486Y-41920567D01*
X51278484Y-41920575D01*
X51241652Y-42105743D01*
X49500500Y-42105743D01*
X49500500Y-40006960D01*
X49501280Y-39993077D01*
X49502528Y-39982001D01*
X49511016Y-39906670D01*
X49514455Y-39888487D01*
X49517528Y-39877020D01*
X49520246Y-39868210D01*
X49545355Y-39796452D01*
X49557391Y-39771457D01*
X49602049Y-39700386D01*
X49619352Y-39678690D01*
X49678690Y-39619352D01*
X49700386Y-39602049D01*
X49771457Y-39557391D01*
X49796452Y-39545355D01*
X49868210Y-39520246D01*
X49877020Y-39517528D01*
X49888487Y-39514455D01*
X49906670Y-39511016D01*
X49993078Y-39501279D01*
X50006960Y-39500500D01*
X51565890Y-39500500D01*
X51565892Y-39500500D01*
X51693186Y-39466392D01*
X51807314Y-39400500D01*
X51825985Y-39381828D01*
X51829114Y-39379818D01*
X51836361Y-39371452D01*
X51900500Y-39307314D01*
X51917595Y-39277703D01*
X51922790Y-39271710D01*
X51929345Y-39257351D01*
X51966392Y-39193186D01*
X51977382Y-39152167D01*
X51982213Y-39141591D01*
X51984522Y-39125520D01*
X52000500Y-39065892D01*
X52000500Y-39014403D01*
X52002571Y-39000000D01*
X52000500Y-38985596D01*
X52000500Y-38934109D01*
X52000499Y-38934105D01*
X51984523Y-38874483D01*
X51982213Y-38858409D01*
X51977383Y-38847833D01*
X51966392Y-38806814D01*
X51932308Y-38747778D01*
X51929350Y-38742656D01*
X51922790Y-38728290D01*
X51917593Y-38722292D01*
X51914239Y-38716483D01*
X51900500Y-38692686D01*
X51836370Y-38628556D01*
X51829114Y-38620182D01*
X51825985Y-38618171D01*
X51807316Y-38599502D01*
X51807314Y-38599500D01*
X51721519Y-38549966D01*
X51693187Y-38533608D01*
X51616365Y-38513024D01*
X51565892Y-38499500D01*
X51500207Y-38499500D01*
X49000500Y-38499500D01*
X49000000Y-38499500D01*
X48943607Y-38499500D01*
X48943602Y-38499500D01*
X48833649Y-38524596D01*
X48822804Y-38529819D01*
X48812332Y-38534861D01*
X48807833Y-38536067D01*
X48797802Y-38541857D01*
X48793614Y-38543875D01*
X48732033Y-38573532D01*
X48732032Y-38573532D01*
X48710684Y-38590557D01*
X48710682Y-38590559D01*
X48703417Y-38596351D01*
X48694306Y-38601612D01*
X48684411Y-38611506D01*
X48678958Y-38615855D01*
X48678955Y-38615859D01*
X48643853Y-38643853D01*
X48615859Y-38678955D01*
X48611513Y-38684404D01*
X48601612Y-38694306D01*
X48596350Y-38703419D01*
X48590559Y-38710682D01*
X48590557Y-38710682D01*
X48590557Y-38710684D01*
X48573532Y-38732032D01*
X48573532Y-38732033D01*
X48543877Y-38793607D01*
X48543878Y-38793608D01*
X48541858Y-38797802D01*
X48536067Y-38807833D01*
X48534861Y-38812331D01*
X48529819Y-38822803D01*
X48529819Y-38822804D01*
X48524596Y-38833649D01*
X48499500Y-38943602D01*
X44586995Y-38943602D01*
X44515394Y-38872001D01*
X44515387Y-38871995D01*
X44382969Y-38783517D01*
X44235831Y-38722570D01*
X44235823Y-38722568D01*
X44079634Y-38691500D01*
X44079630Y-38691500D01*
X43920370Y-38691500D01*
X43920365Y-38691500D01*
X43764176Y-38722568D01*
X43764168Y-38722570D01*
X43617030Y-38783517D01*
X43484612Y-38871995D01*
X43484605Y-38872001D01*
X43372001Y-38984605D01*
X43371995Y-38984612D01*
X43283517Y-39117030D01*
X43222570Y-39264168D01*
X43222568Y-39264176D01*
X43191500Y-39420365D01*
X34334821Y-39420365D01*
X34302019Y-39362761D01*
X34305758Y-39292991D01*
X34346624Y-39236319D01*
X34375245Y-39219682D01*
X34382968Y-39216483D01*
X34515389Y-39128003D01*
X34628003Y-39015389D01*
X34716483Y-38882968D01*
X34777430Y-38735831D01*
X34808500Y-38579630D01*
X34808500Y-38420370D01*
X34777430Y-38264169D01*
X34716483Y-38117032D01*
X34628003Y-37984611D01*
X34627998Y-37984605D01*
X34563758Y-37920365D01*
X45691500Y-37920365D01*
X45691500Y-38079634D01*
X45722568Y-38235823D01*
X45722570Y-38235831D01*
X45783517Y-38382969D01*
X45871995Y-38515387D01*
X45872001Y-38515394D01*
X45984605Y-38627998D01*
X45984612Y-38628004D01*
X46117030Y-38716482D01*
X46117031Y-38716482D01*
X46117032Y-38716483D01*
X46264169Y-38777430D01*
X46411889Y-38806813D01*
X46420365Y-38808499D01*
X46420369Y-38808500D01*
X46420370Y-38808500D01*
X46579631Y-38808500D01*
X46579632Y-38808499D01*
X46735831Y-38777430D01*
X46882968Y-38716483D01*
X47015389Y-38628003D01*
X47128003Y-38515389D01*
X47216483Y-38382968D01*
X47277430Y-38235831D01*
X47308500Y-38079630D01*
X47308500Y-37920370D01*
X47277430Y-37764169D01*
X47216483Y-37617032D01*
X47148571Y-37515394D01*
X47128004Y-37484612D01*
X47127998Y-37484605D01*
X47015394Y-37372001D01*
X47015387Y-37371995D01*
X46882969Y-37283517D01*
X46735831Y-37222570D01*
X46735823Y-37222568D01*
X46579634Y-37191500D01*
X46579630Y-37191500D01*
X46420370Y-37191500D01*
X46420365Y-37191500D01*
X46264176Y-37222568D01*
X46264168Y-37222570D01*
X46117030Y-37283517D01*
X45984612Y-37371995D01*
X45984605Y-37372001D01*
X45872001Y-37484605D01*
X45871995Y-37484612D01*
X45783517Y-37617030D01*
X45722570Y-37764168D01*
X45722568Y-37764176D01*
X45691500Y-37920365D01*
X34563758Y-37920365D01*
X34515394Y-37872001D01*
X34515387Y-37871995D01*
X34382969Y-37783517D01*
X34235831Y-37722570D01*
X34235823Y-37722568D01*
X34079634Y-37691500D01*
X34079630Y-37691500D01*
X33920370Y-37691500D01*
X33920365Y-37691500D01*
X33764176Y-37722568D01*
X33764168Y-37722570D01*
X33617030Y-37783517D01*
X33484612Y-37871995D01*
X33484605Y-37872001D01*
X33372001Y-37984605D01*
X33371995Y-37984612D01*
X33283517Y-38117030D01*
X33222570Y-38264168D01*
X33222568Y-38264176D01*
X33191500Y-38420365D01*
X29691495Y-38420365D01*
X29716483Y-38382968D01*
X29777430Y-38235831D01*
X29808500Y-38079630D01*
X29808500Y-37920370D01*
X29777430Y-37764169D01*
X29716483Y-37617032D01*
X29648571Y-37515394D01*
X29628004Y-37484612D01*
X29627998Y-37484605D01*
X29515394Y-37372001D01*
X29515387Y-37371995D01*
X29382969Y-37283517D01*
X29235831Y-37222570D01*
X29235823Y-37222568D01*
X29079634Y-37191500D01*
X29079630Y-37191500D01*
X28920370Y-37191500D01*
X28920365Y-37191500D01*
X28764176Y-37222568D01*
X28764168Y-37222570D01*
X28617030Y-37283517D01*
X28484612Y-37371995D01*
X28484605Y-37372001D01*
X28372001Y-37484605D01*
X28371995Y-37484612D01*
X28283517Y-37617030D01*
X28222570Y-37764168D01*
X28222568Y-37764176D01*
X28191500Y-37920365D01*
X26405859Y-37920365D01*
X26884327Y-36833120D01*
X26884870Y-36831908D01*
X27072184Y-36420365D01*
X32691500Y-36420365D01*
X32691500Y-36579634D01*
X32722568Y-36735823D01*
X32722570Y-36735831D01*
X32783517Y-36882969D01*
X32871995Y-37015387D01*
X32872001Y-37015394D01*
X32984605Y-37127998D01*
X32984612Y-37128004D01*
X33117030Y-37216482D01*
X33117031Y-37216482D01*
X33117032Y-37216483D01*
X33264169Y-37277430D01*
X33420365Y-37308499D01*
X33420369Y-37308500D01*
X33420370Y-37308500D01*
X33579631Y-37308500D01*
X33579632Y-37308499D01*
X33735831Y-37277430D01*
X33882968Y-37216483D01*
X34015389Y-37128003D01*
X34128003Y-37015389D01*
X34216483Y-36882968D01*
X34277430Y-36735831D01*
X34308500Y-36579630D01*
X34308500Y-36420370D01*
X34277430Y-36264169D01*
X34216483Y-36117032D01*
X34204563Y-36099193D01*
X34128004Y-35984612D01*
X34127998Y-35984605D01*
X34015394Y-35872001D01*
X34015387Y-35871995D01*
X33882969Y-35783517D01*
X33735831Y-35722570D01*
X33735823Y-35722568D01*
X33579634Y-35691500D01*
X33579630Y-35691500D01*
X33420370Y-35691500D01*
X33420365Y-35691500D01*
X33264176Y-35722568D01*
X33264168Y-35722570D01*
X33117030Y-35783517D01*
X32984612Y-35871995D01*
X32984605Y-35872001D01*
X32872001Y-35984605D01*
X32871995Y-35984612D01*
X32783517Y-36117030D01*
X32722570Y-36264168D01*
X32722568Y-36264176D01*
X32691500Y-36420365D01*
X27072184Y-36420365D01*
X28126625Y-34103681D01*
X28127275Y-34102280D01*
X28684481Y-32920365D01*
X38691500Y-32920365D01*
X38691500Y-33079634D01*
X38722568Y-33235823D01*
X38722570Y-33235831D01*
X38783517Y-33382969D01*
X38871995Y-33515387D01*
X38872001Y-33515394D01*
X38984605Y-33627998D01*
X38984612Y-33628004D01*
X39117030Y-33716482D01*
X39117031Y-33716482D01*
X39117032Y-33716483D01*
X39264169Y-33777430D01*
X39420365Y-33808499D01*
X39420369Y-33808500D01*
X39420370Y-33808500D01*
X39579631Y-33808500D01*
X39579632Y-33808499D01*
X39735831Y-33777430D01*
X39882968Y-33716483D01*
X40015389Y-33628003D01*
X40052142Y-33591249D01*
X40113463Y-33557764D01*
X40139811Y-33554930D01*
X40152030Y-33554928D01*
X40170306Y-33558564D01*
X40329566Y-33558564D01*
X40347934Y-33554910D01*
X40360142Y-33554909D01*
X40382422Y-33561448D01*
X40405552Y-33563518D01*
X40418595Y-33572066D01*
X40427184Y-33574587D01*
X40433417Y-33581779D01*
X40447835Y-33591228D01*
X40484605Y-33627998D01*
X40484612Y-33628004D01*
X40617030Y-33716482D01*
X40617031Y-33716482D01*
X40617032Y-33716483D01*
X40764169Y-33777430D01*
X40920365Y-33808499D01*
X40920369Y-33808500D01*
X40920370Y-33808500D01*
X41079631Y-33808500D01*
X41079632Y-33808499D01*
X41235831Y-33777430D01*
X41382968Y-33716483D01*
X41515389Y-33628003D01*
X41628003Y-33515389D01*
X41674530Y-33445754D01*
X41728139Y-33400951D01*
X41797464Y-33392242D01*
X41825083Y-33400084D01*
X41930482Y-33443743D01*
X42086678Y-33474812D01*
X42086682Y-33474813D01*
X42086683Y-33474813D01*
X42149106Y-33474813D01*
X42216145Y-33494498D01*
X42261900Y-33547302D01*
X42263667Y-33551360D01*
X42283517Y-33599282D01*
X42371995Y-33731700D01*
X42372001Y-33731707D01*
X42484605Y-33844311D01*
X42484612Y-33844317D01*
X42617030Y-33932795D01*
X42617031Y-33932795D01*
X42617032Y-33932796D01*
X42764169Y-33993743D01*
X42920365Y-34024812D01*
X42920369Y-34024813D01*
X43078832Y-34024813D01*
X43145871Y-34044498D01*
X43191626Y-34097302D01*
X43200449Y-34124622D01*
X43222568Y-34235823D01*
X43222570Y-34235831D01*
X43283517Y-34382969D01*
X43371995Y-34515387D01*
X43372001Y-34515394D01*
X43393703Y-34537096D01*
X43427188Y-34598419D01*
X43422204Y-34668111D01*
X43393707Y-34712455D01*
X43371996Y-34734166D01*
X43371993Y-34734171D01*
X43283517Y-34866585D01*
X43222570Y-35013723D01*
X43222568Y-35013731D01*
X43191500Y-35169920D01*
X43191500Y-35329189D01*
X43222568Y-35485378D01*
X43222570Y-35485386D01*
X43283517Y-35632524D01*
X43371995Y-35764942D01*
X43372001Y-35764949D01*
X43484606Y-35877554D01*
X43484609Y-35877556D01*
X43484611Y-35877558D01*
X43614578Y-35964398D01*
X43659383Y-36018010D01*
X43668090Y-36087334D01*
X43637936Y-36150362D01*
X43578493Y-36187082D01*
X43545687Y-36191500D01*
X43420365Y-36191500D01*
X43264176Y-36222568D01*
X43264168Y-36222570D01*
X43117030Y-36283517D01*
X42984612Y-36371995D01*
X42984605Y-36372001D01*
X42872001Y-36484605D01*
X42871995Y-36484612D01*
X42783517Y-36617030D01*
X42722570Y-36764168D01*
X42722568Y-36764176D01*
X42691500Y-36920365D01*
X42691500Y-37079634D01*
X42722568Y-37235823D01*
X42722570Y-37235831D01*
X42783517Y-37382969D01*
X42871995Y-37515387D01*
X42872001Y-37515394D01*
X42984605Y-37627998D01*
X42984612Y-37628004D01*
X43117030Y-37716482D01*
X43117031Y-37716482D01*
X43117032Y-37716483D01*
X43264169Y-37777430D01*
X43420365Y-37808499D01*
X43420369Y-37808500D01*
X43420370Y-37808500D01*
X43579631Y-37808500D01*
X43579632Y-37808499D01*
X43605191Y-37803415D01*
X43659261Y-37792661D01*
X43691597Y-37786228D01*
X43735831Y-37777430D01*
X43882968Y-37716483D01*
X44015389Y-37628003D01*
X44128003Y-37515389D01*
X44216483Y-37382968D01*
X44277430Y-37235831D01*
X44308500Y-37079630D01*
X44308500Y-36920370D01*
X44277430Y-36764169D01*
X44216483Y-36617032D01*
X44128003Y-36484611D01*
X44127998Y-36484605D01*
X44015393Y-36372000D01*
X44001789Y-36362910D01*
X43885421Y-36285156D01*
X43840617Y-36231545D01*
X43831910Y-36162221D01*
X43862064Y-36099193D01*
X43921507Y-36062473D01*
X43954313Y-36058055D01*
X44079631Y-36058055D01*
X44079632Y-36058054D01*
X44235831Y-36026985D01*
X44382968Y-35966038D01*
X44515389Y-35877558D01*
X44628003Y-35764944D01*
X44716483Y-35632523D01*
X44777430Y-35485386D01*
X44808500Y-35329185D01*
X44808500Y-35169925D01*
X44777430Y-35013724D01*
X44716483Y-34866587D01*
X44628006Y-34734171D01*
X44628004Y-34734167D01*
X44627998Y-34734160D01*
X44606296Y-34712458D01*
X44572811Y-34651135D01*
X44577795Y-34581443D01*
X44606295Y-34537096D01*
X44628003Y-34515389D01*
X44716483Y-34382968D01*
X44777430Y-34235831D01*
X44808500Y-34079630D01*
X44808500Y-33920370D01*
X44777430Y-33764169D01*
X44716483Y-33617032D01*
X44704622Y-33599281D01*
X44628004Y-33484612D01*
X44627998Y-33484605D01*
X44515394Y-33372001D01*
X44515387Y-33371995D01*
X44382969Y-33283517D01*
X44235831Y-33222570D01*
X44235823Y-33222568D01*
X44079634Y-33191500D01*
X44079630Y-33191500D01*
X43921168Y-33191500D01*
X43854129Y-33171815D01*
X43808374Y-33119011D01*
X43799551Y-33091691D01*
X43777431Y-32980489D01*
X43777430Y-32980482D01*
X43716483Y-32833345D01*
X43670266Y-32764176D01*
X43628004Y-32700925D01*
X43627998Y-32700918D01*
X43515394Y-32588314D01*
X43515387Y-32588308D01*
X43382969Y-32499830D01*
X43235831Y-32438883D01*
X43235823Y-32438881D01*
X43079634Y-32407813D01*
X43079630Y-32407813D01*
X43017207Y-32407813D01*
X42950168Y-32388128D01*
X42904413Y-32335324D01*
X42902646Y-32331266D01*
X42882795Y-32283343D01*
X42794317Y-32150925D01*
X42794311Y-32150918D01*
X42681707Y-32038314D01*
X42681700Y-32038308D01*
X42549282Y-31949830D01*
X42402144Y-31888883D01*
X42402136Y-31888881D01*
X42245947Y-31857813D01*
X42245943Y-31857813D01*
X42086683Y-31857813D01*
X42086678Y-31857813D01*
X41930489Y-31888881D01*
X41930481Y-31888883D01*
X41783343Y-31949830D01*
X41650925Y-32038308D01*
X41650918Y-32038314D01*
X41538314Y-32150918D01*
X41491782Y-32220558D01*
X41438169Y-32265362D01*
X41368844Y-32274069D01*
X41341227Y-32266227D01*
X41235831Y-32222570D01*
X41235823Y-32222568D01*
X41079634Y-32191500D01*
X41079630Y-32191500D01*
X40920370Y-32191500D01*
X40913969Y-32192773D01*
X40844378Y-32186544D01*
X40802099Y-32158835D01*
X40765323Y-32122059D01*
X40632905Y-32033581D01*
X40485767Y-31972634D01*
X40485759Y-31972632D01*
X40329570Y-31941564D01*
X40329566Y-31941564D01*
X40170306Y-31941564D01*
X40170301Y-31941564D01*
X40014112Y-31972632D01*
X40014104Y-31972634D01*
X39866966Y-32033581D01*
X39734552Y-32122057D01*
X39734543Y-32122064D01*
X39697790Y-32158816D01*
X39636466Y-32192300D01*
X39585926Y-32192752D01*
X39579630Y-32191500D01*
X39420370Y-32191500D01*
X39420365Y-32191500D01*
X39264176Y-32222568D01*
X39264168Y-32222570D01*
X39117030Y-32283517D01*
X38984612Y-32371995D01*
X38984605Y-32372001D01*
X38872001Y-32484605D01*
X38871995Y-32484612D01*
X38783517Y-32617030D01*
X38722570Y-32764168D01*
X38722568Y-32764176D01*
X38691500Y-32920365D01*
X28684481Y-32920365D01*
X29316655Y-31579430D01*
X29317303Y-31578081D01*
X30450066Y-29262348D01*
X30450836Y-29260803D01*
X30623975Y-28920365D01*
X39691500Y-28920365D01*
X39691500Y-29079634D01*
X39722568Y-29235823D01*
X39722570Y-29235831D01*
X39783517Y-29382969D01*
X39871995Y-29515387D01*
X39872001Y-29515394D01*
X39984605Y-29627998D01*
X39984612Y-29628004D01*
X40117030Y-29716482D01*
X40117031Y-29716482D01*
X40117032Y-29716483D01*
X40264169Y-29777430D01*
X40420365Y-29808499D01*
X40420369Y-29808500D01*
X40420370Y-29808500D01*
X40579631Y-29808500D01*
X40579632Y-29808499D01*
X40735831Y-29777430D01*
X40882968Y-29716483D01*
X41015389Y-29628003D01*
X41128003Y-29515389D01*
X41216483Y-29382968D01*
X41277430Y-29235831D01*
X41308500Y-29079630D01*
X41308500Y-28920370D01*
X41277430Y-28764169D01*
X41216483Y-28617032D01*
X41128003Y-28484611D01*
X41127998Y-28484605D01*
X41015394Y-28372001D01*
X41015387Y-28371995D01*
X40882969Y-28283517D01*
X40735831Y-28222570D01*
X40735823Y-28222568D01*
X40579634Y-28191500D01*
X40579630Y-28191500D01*
X40420370Y-28191500D01*
X40420365Y-28191500D01*
X40264176Y-28222568D01*
X40264168Y-28222570D01*
X40117030Y-28283517D01*
X39984612Y-28371995D01*
X39984605Y-28372001D01*
X39872001Y-28484605D01*
X39871995Y-28484612D01*
X39783517Y-28617030D01*
X39722570Y-28764168D01*
X39722568Y-28764176D01*
X39691500Y-28920365D01*
X30623975Y-28920365D01*
X31521803Y-27154990D01*
X31522718Y-27153229D01*
X32525256Y-25261877D01*
X32526256Y-25260033D01*
X33268624Y-23920365D01*
X43191500Y-23920365D01*
X43191500Y-24079634D01*
X43222568Y-24235823D01*
X43222570Y-24235831D01*
X43283517Y-24382969D01*
X43371995Y-24515387D01*
X43372001Y-24515394D01*
X43484605Y-24627998D01*
X43484612Y-24628004D01*
X43617030Y-24716482D01*
X43617031Y-24716482D01*
X43617032Y-24716483D01*
X43764169Y-24777430D01*
X43920365Y-24808499D01*
X43920369Y-24808500D01*
X43920370Y-24808500D01*
X44079631Y-24808500D01*
X44079632Y-24808499D01*
X44235831Y-24777430D01*
X44382968Y-24716483D01*
X44515389Y-24628003D01*
X44628003Y-24515389D01*
X44716483Y-24382968D01*
X44777430Y-24235831D01*
X44808500Y-24079630D01*
X44808500Y-23920370D01*
X44777430Y-23764169D01*
X44716483Y-23617032D01*
X44698490Y-23590104D01*
X44628004Y-23484612D01*
X44627998Y-23484605D01*
X44515394Y-23372001D01*
X44515387Y-23371995D01*
X44382969Y-23283517D01*
X44235831Y-23222570D01*
X44235823Y-23222568D01*
X44079634Y-23191500D01*
X44079630Y-23191500D01*
X43920370Y-23191500D01*
X43920365Y-23191500D01*
X43764176Y-23222568D01*
X43764168Y-23222570D01*
X43617030Y-23283517D01*
X43484612Y-23371995D01*
X43484605Y-23372001D01*
X43372001Y-23484605D01*
X43371995Y-23484612D01*
X43283517Y-23617030D01*
X43222570Y-23764168D01*
X43222568Y-23764176D01*
X43191500Y-23920365D01*
X33268624Y-23920365D01*
X33451676Y-23590031D01*
X33452894Y-23587888D01*
X34288733Y-22150692D01*
X34290172Y-22148282D01*
X35017735Y-20962511D01*
X35019521Y-20959690D01*
X35604722Y-20062461D01*
X35607170Y-20058850D01*
X35990748Y-19514007D01*
X36013262Y-19489715D01*
X36081140Y-19433766D01*
X36086227Y-19429794D01*
X36401405Y-19196746D01*
X36407996Y-19192197D01*
X36811900Y-18932454D01*
X36818907Y-18928269D01*
X37260547Y-18683908D01*
X37268005Y-18680107D01*
X37726017Y-18465915D01*
X37734034Y-18462505D01*
X38197568Y-18284319D01*
X38206143Y-18281378D01*
X38669331Y-18141288D01*
X38678428Y-18138911D01*
X39137991Y-18037367D01*
X39147607Y-18035638D01*
X39601894Y-17972357D01*
X39611919Y-17971375D01*
X40060294Y-17945867D01*
X40070618Y-17945712D01*
X40513129Y-17957568D01*
G37*
%TD.AperFunction*%
%TD*%
M02*
