%TF.GenerationSoftware,KiCad,Pcbnew,10.0.3*%
%TF.CreationDate,2026-05-20T09:56:52+02:00*%
%TF.ProjectId,vesta,76657374-612e-46b6-9963-61645f706362,1*%
%TF.SameCoordinates,Original*%
%TF.FileFunction,Copper,L1,Top*%
%TF.FilePolarity,Positive*%
%FSLAX46Y46*%
G04 Gerber Fmt 4.6, Leading zero omitted, Abs format (unit mm)*
G04 Created by KiCad (PCBNEW 10.0.3) date 2026-05-20 09:56:52*
%MOMM*%
%LPD*%
G01*
G04 APERTURE LIST*
G04 Aperture macros list*
%AMRoundRect*
0 Rectangle with rounded corners*
0 $1 Rounding radius*
0 $2 $3 $4 $5 $6 $7 $8 $9 X,Y pos of 4 corners*
0 Add a 4 corners polygon primitive as box body*
4,1,4,$2,$3,$4,$5,$6,$7,$8,$9,$2,$3,0*
0 Add four circle primitives for the rounded corners*
1,1,$1+$1,$2,$3*
1,1,$1+$1,$4,$5*
1,1,$1+$1,$6,$7*
1,1,$1+$1,$8,$9*
0 Add four rect primitives between the rounded corners*
20,1,$1+$1,$2,$3,$4,$5,0*
20,1,$1+$1,$4,$5,$6,$7,0*
20,1,$1+$1,$6,$7,$8,$9,0*
20,1,$1+$1,$8,$9,$2,$3,0*%
%AMRotRect*
0 Rectangle, with rotation*
0 The origin of the aperture is its center*
0 $1 length*
0 $2 width*
0 $3 Rotation angle, in degrees counterclockwise*
0 Add horizontal line*
21,1,$1,$2,0,0,$3*%
%AMFreePoly0*
4,1,23,0.500000,-0.750000,0.000000,-0.750000,0.000000,-0.745722,-0.065263,-0.745722,-0.191342,-0.711940,-0.304381,-0.646677,-0.396677,-0.554381,-0.461940,-0.441342,-0.495722,-0.315263,-0.495722,-0.250000,-0.500000,-0.250000,-0.500000,0.250000,-0.495722,0.250000,-0.495722,0.315263,-0.461940,0.441342,-0.396677,0.554381,-0.304381,0.646677,-0.191342,0.711940,-0.065263,0.745722,0.000000,0.745722,
0.000000,0.750000,0.500000,0.750000,0.500000,-0.750000,0.500000,-0.750000,$1*%
%AMFreePoly1*
4,1,23,0.000000,0.745722,0.065263,0.745722,0.191342,0.711940,0.304381,0.646677,0.396677,0.554381,0.461940,0.441342,0.495722,0.315263,0.495722,0.250000,0.500000,0.250000,0.500000,-0.250000,0.495722,-0.250000,0.495722,-0.315263,0.461940,-0.441342,0.396677,-0.554381,0.304381,-0.646677,0.191342,-0.711940,0.065263,-0.745722,0.000000,-0.745722,0.000000,-0.750000,-0.500000,-0.750000,
-0.500000,0.750000,0.000000,0.750000,0.000000,0.745722,0.000000,0.745722,$1*%
%AMFreePoly2*
4,1,6,0.850000,-0.850000,-0.850000,-0.850000,-0.850000,0.425000,-0.425000,0.850000,0.850000,0.850000,0.850000,-0.850000,0.850000,-0.850000,$1*%
G04 Aperture macros list end*
%TA.AperFunction,EtchedComponent*%
%ADD10C,0.000000*%
%TD*%
%TA.AperFunction,SMDPad,CuDef*%
%ADD11R,0.780010X0.350013*%
%TD*%
%TA.AperFunction,SMDPad,CuDef*%
%ADD12RoundRect,0.140000X-0.140000X-0.170000X0.140000X-0.170000X0.140000X0.170000X-0.140000X0.170000X0*%
%TD*%
%TA.AperFunction,SMDPad,CuDef*%
%ADD13RoundRect,0.225000X0.225000X0.250000X-0.225000X0.250000X-0.225000X-0.250000X0.225000X-0.250000X0*%
%TD*%
%TA.AperFunction,SMDPad,CuDef*%
%ADD14RoundRect,0.200000X0.200000X0.275000X-0.200000X0.275000X-0.200000X-0.275000X0.200000X-0.275000X0*%
%TD*%
%TA.AperFunction,SMDPad,CuDef*%
%ADD15R,0.900000X0.800000*%
%TD*%
%TA.AperFunction,SMDPad,CuDef*%
%ADD16R,0.664999X0.280010*%
%TD*%
%TA.AperFunction,SMDPad,CuDef*%
%ADD17R,1.200000X2.000000*%
%TD*%
%TA.AperFunction,SMDPad,CuDef*%
%ADD18RoundRect,0.140000X0.140000X0.170000X-0.140000X0.170000X-0.140000X-0.170000X0.140000X-0.170000X0*%
%TD*%
%TA.AperFunction,SMDPad,CuDef*%
%ADD19RoundRect,0.250000X0.275000X0.250000X-0.275000X0.250000X-0.275000X-0.250000X0.275000X-0.250000X0*%
%TD*%
%TA.AperFunction,SMDPad,CuDef*%
%ADD20RoundRect,0.250000X0.850000X0.275000X-0.850000X0.275000X-0.850000X-0.275000X0.850000X-0.275000X0*%
%TD*%
%TA.AperFunction,SMDPad,CuDef*%
%ADD21RoundRect,0.225000X-0.250000X0.225000X-0.250000X-0.225000X0.250000X-0.225000X0.250000X0.225000X0*%
%TD*%
%TA.AperFunction,SMDPad,CuDef*%
%ADD22RoundRect,0.200000X-0.200000X-0.275000X0.200000X-0.275000X0.200000X0.275000X-0.200000X0.275000X0*%
%TD*%
%TA.AperFunction,SMDPad,CuDef*%
%ADD23RoundRect,0.200000X-0.275000X0.200000X-0.275000X-0.200000X0.275000X-0.200000X0.275000X0.200000X0*%
%TD*%
%TA.AperFunction,SMDPad,CuDef*%
%ADD24RoundRect,0.225000X0.250000X-0.225000X0.250000X0.225000X-0.250000X0.225000X-0.250000X-0.225000X0*%
%TD*%
%TA.AperFunction,SMDPad,CuDef*%
%ADD25C,1.500000*%
%TD*%
%TA.AperFunction,SMDPad,CuDef*%
%ADD26RoundRect,0.250000X-0.250000X-0.475000X0.250000X-0.475000X0.250000X0.475000X-0.250000X0.475000X0*%
%TD*%
%TA.AperFunction,ComponentPad*%
%ADD27R,1.524003X1.524003*%
%TD*%
%TA.AperFunction,ComponentPad*%
%ADD28O,1.524003X1.524003*%
%TD*%
%TA.AperFunction,SMDPad,CuDef*%
%ADD29O,0.204013X0.204013*%
%TD*%
%TA.AperFunction,SMDPad,CuDef*%
%ADD30RoundRect,0.225000X-0.225000X-0.250000X0.225000X-0.250000X0.225000X0.250000X-0.225000X0.250000X0*%
%TD*%
%TA.AperFunction,ComponentPad*%
%ADD31RotRect,1.350000X1.350000X160.000000*%
%TD*%
%TA.AperFunction,ComponentPad*%
%ADD32C,1.350000*%
%TD*%
%TA.AperFunction,SMDPad,CuDef*%
%ADD33R,0.889002X0.448006*%
%TD*%
%TA.AperFunction,SMDPad,CuDef*%
%ADD34FreePoly0,0.000000*%
%TD*%
%TA.AperFunction,SMDPad,CuDef*%
%ADD35FreePoly1,0.000000*%
%TD*%
%TA.AperFunction,SMDPad,CuDef*%
%ADD36C,1.000000*%
%TD*%
%TA.AperFunction,SMDPad,CuDef*%
%ADD37RoundRect,0.225000X0.375000X-0.225000X0.375000X0.225000X-0.375000X0.225000X-0.375000X-0.225000X0*%
%TD*%
%TA.AperFunction,SMDPad,CuDef*%
%ADD38RoundRect,0.250000X0.250000X0.475000X-0.250000X0.475000X-0.250000X-0.475000X0.250000X-0.475000X0*%
%TD*%
%TA.AperFunction,SMDPad,CuDef*%
%ADD39RoundRect,0.250000X-0.650000X-0.250000X0.650000X-0.250000X0.650000X0.250000X-0.650000X0.250000X0*%
%TD*%
%TA.AperFunction,SMDPad,CuDef*%
%ADD40RoundRect,0.250000X0.475000X-0.250000X0.475000X0.250000X-0.475000X0.250000X-0.475000X-0.250000X0*%
%TD*%
%TA.AperFunction,ConnectorPad*%
%ADD41C,0.787400*%
%TD*%
%TA.AperFunction,SMDPad,CuDef*%
%ADD42R,0.800000X2.200000*%
%TD*%
%TA.AperFunction,SMDPad,CuDef*%
%ADD43O,0.850000X0.280000*%
%TD*%
%TA.AperFunction,SMDPad,CuDef*%
%ADD44O,0.280000X0.850000*%
%TD*%
%TA.AperFunction,SMDPad,CuDef*%
%ADD45FreePoly2,180.000000*%
%TD*%
%TA.AperFunction,SMDPad,CuDef*%
%ADD46R,2.124003X4.220015*%
%TD*%
%TA.AperFunction,SMDPad,CuDef*%
%ADD47O,0.900000X0.280010*%
%TD*%
%TA.AperFunction,SMDPad,CuDef*%
%ADD48O,0.280010X0.900000*%
%TD*%
%TA.AperFunction,SMDPad,CuDef*%
%ADD49R,5.600000X5.600000*%
%TD*%
%TA.AperFunction,ViaPad*%
%ADD50C,0.600000*%
%TD*%
%TA.AperFunction,ViaPad*%
%ADD51C,0.900000*%
%TD*%
%TA.AperFunction,Conductor*%
%ADD52C,0.300000*%
%TD*%
%TA.AperFunction,Conductor*%
%ADD53C,0.200000*%
%TD*%
%TA.AperFunction,Conductor*%
%ADD54C,0.250000*%
%TD*%
%TA.AperFunction,Conductor*%
%ADD55C,0.150000*%
%TD*%
%TA.AperFunction,Conductor*%
%ADD56C,0.500000*%
%TD*%
G04 APERTURE END LIST*
D10*
%TA.AperFunction,EtchedComponent*%
%TO.C,G\u002A\u002A\u002A*%
G36*
X32951790Y-68865886D02*
G01*
X32952864Y-68876535D01*
X32951790Y-68877851D01*
X32946456Y-68876618D01*
X32945809Y-68871866D01*
X32949091Y-68864483D01*
X32951790Y-68865886D01*
G37*
%TD.AperFunction*%
%TA.AperFunction,EtchedComponent*%
G36*
X47502369Y-68893870D02*
G01*
X47503443Y-68904519D01*
X47502369Y-68905835D01*
X47497035Y-68904602D01*
X47496388Y-68899850D01*
X47499670Y-68892467D01*
X47502369Y-68893870D01*
G37*
%TD.AperFunction*%
%TD*%
D11*
%TO.P,U6,1,RF1_1*%
%TO.N,Net-(U6-RF1)*%
X44339980Y-26489967D03*
%TO.P,U6,2,GND_2*%
%TO.N,GND*%
X44339980Y-25839980D03*
%TO.P,U6,3,RF2_3*%
%TO.N,Net-(U6-RF2)*%
X44339980Y-25189993D03*
%TO.P,U6,4,CTRL_4*%
%TO.N,/RF_SW_CTRL*%
X42660020Y-25189993D03*
%TO.P,U6,5,RFC_5*%
%TO.N,Net-(U6-RFC)*%
X42660020Y-25839980D03*
%TO.P,U6,6,CTRL#_or_VDD_6*%
%TO.N,/3V3_SYS*%
X42660020Y-26489967D03*
%TD*%
D12*
%TO.P,C16,1*%
%TO.N,/RFO_OUT*%
X43500000Y-30500000D03*
%TO.P,C16,2*%
%TO.N,Net-(U6-RF1)*%
X44500000Y-30500000D03*
%TD*%
D13*
%TO.P,C20,1*%
%TO.N,/RF_ANT_SW*%
X40149987Y-26339980D03*
%TO.P,C20,2*%
%TO.N,GND*%
X38599987Y-26339980D03*
%TD*%
%TO.P,C10,1*%
%TO.N,/3V3_SYS*%
X31280000Y-39500000D03*
%TO.P,C10,2*%
%TO.N,GND*%
X29720000Y-39500000D03*
%TD*%
D14*
%TO.P,R15,1*%
%TO.N,/I2C1_SDA*%
X50820000Y-35000000D03*
%TO.P,R15,2*%
%TO.N,/3V3_SYS*%
X49180000Y-35000000D03*
%TD*%
D15*
%TO.P,X2,1,OSC1_1*%
%TO.N,/OSC_IN*%
X31700025Y-33950089D03*
%TO.P,X2,2,GND_2*%
%TO.N,GND*%
X30299975Y-33950089D03*
%TO.P,X2,3,OSC2_3*%
%TO.N,/OSC_OUT*%
X30299975Y-35049911D03*
%TO.P,X2,4,GND_4*%
%TO.N,GND*%
X31700025Y-35049911D03*
%TD*%
D14*
%TO.P,R10,1*%
%TO.N,GND*%
X46920000Y-54600000D03*
%TO.P,R10,2*%
%TO.N,Net-(U3-CFG1)*%
X45280000Y-54600000D03*
%TD*%
D16*
%TO.P,U3,1,EN_1*%
%TO.N,/SYS_RAW*%
X41657607Y-55180076D03*
%TO.P,U3,2,SEL_2*%
%TO.N,GND*%
X41657607Y-54679949D03*
%TO.P,U3,3,CFG1_3*%
%TO.N,Net-(U3-CFG1)*%
X41657607Y-54180076D03*
%TO.P,U3,4,CFG2_4*%
%TO.N,Net-(U3-CFG2)*%
X41657607Y-53679949D03*
%TO.P,U3,5,CFG3_5*%
%TO.N,Net-(U3-CFG3)*%
X41657607Y-53180076D03*
%TO.P,U3,6,VOUT_6*%
%TO.N,/3V3_SYS*%
X39342393Y-53180076D03*
%TO.P,U3,7,LX2_7*%
%TO.N,Net-(U3-LX2)*%
X39342393Y-53679949D03*
%TO.P,U3,8,GND_8*%
%TO.N,GND*%
X39342393Y-54180076D03*
%TO.P,U3,9,LX1_9*%
%TO.N,Net-(U3-LX1)*%
X39342393Y-54679949D03*
%TO.P,U3,10,VIN_10*%
%TO.N,/SYS_RAW*%
X39342393Y-55180076D03*
D17*
%TO.P,U3,11,EP_11*%
%TO.N,GND*%
X40499873Y-54180076D03*
%TD*%
D18*
%TO.P,C18,1*%
%TO.N,/RF_ANT_SW*%
X36149987Y-25839980D03*
%TO.P,C18,2*%
%TO.N,Net-(U6-RFC)*%
X35149987Y-25839980D03*
%TD*%
D14*
%TO.P,R9,1*%
%TO.N,GND*%
X46920000Y-53100000D03*
%TO.P,R9,2*%
%TO.N,Net-(U3-CFG2)*%
X45280000Y-53100000D03*
%TD*%
D19*
%TO.P,U.FL1,1,Pin_1_1*%
%TO.N,Net-(U.FL1-Pin_1)*%
X38750000Y-20500000D03*
D20*
%TO.P,U.FL1,2,Pin_2_2*%
%TO.N,GND*%
X40250000Y-22000000D03*
%TO.P,U.FL1,3,Pin_3_3*%
X40250000Y-19000000D03*
%TD*%
D13*
%TO.P,C19,1*%
%TO.N,GND*%
X44280000Y-29500000D03*
%TO.P,C19,2*%
%TO.N,/3V3_SYS*%
X42720000Y-29500000D03*
%TD*%
D14*
%TO.P,R2,1*%
%TO.N,GND*%
X47320000Y-64500000D03*
%TO.P,R2,2*%
%TO.N,Net-(U2-ISET)*%
X45680000Y-64500000D03*
%TD*%
D21*
%TO.P,C11,1*%
%TO.N,/3V3_SYS*%
X39500000Y-45220000D03*
%TO.P,C11,2*%
%TO.N,GND*%
X39500000Y-46780000D03*
%TD*%
D22*
%TO.P,R5,1*%
%TO.N,/3V3_SYS*%
X34860000Y-58500000D03*
%TO.P,R5,2*%
%TO.N,/CHARGER_CHG_N*%
X36500000Y-58500000D03*
%TD*%
D23*
%TO.P,R14,1*%
%TO.N,/VDDA*%
X33499619Y-45180000D03*
%TO.P,R14,2*%
%TO.N,/3V3_SYS*%
X33499619Y-46820000D03*
%TD*%
D24*
%TO.P,C2,1*%
%TO.N,GND*%
X41657607Y-68475076D03*
%TO.P,C2,2*%
%TO.N,/VIN_SOLAR*%
X41657607Y-66925076D03*
%TD*%
D25*
%TO.P,TP1,1,1_1*%
%TO.N,/SYS_RAW*%
X54119000Y-58770000D03*
%TD*%
D26*
%TO.P,C6,1*%
%TO.N,GND*%
X33550000Y-52000000D03*
%TO.P,C6,2*%
%TO.N,/3V3_SYS*%
X35450000Y-52000000D03*
%TD*%
D27*
%TO.P,BATTERY1,1,1_1*%
%TO.N,/BAT_RAW*%
X55000000Y-64167526D03*
D28*
%TO.P,BATTERY1,2,2_2*%
%TO.N,GND*%
X53000000Y-64167526D03*
%TD*%
D22*
%TO.P,R1,1*%
%TO.N,GND*%
X33180000Y-62500000D03*
%TO.P,R1,2*%
%TO.N,Net-(U2-ILIM)*%
X34820000Y-62500000D03*
%TD*%
D29*
%TO.P,FL1,A1,RFO_in_A1*%
%TO.N,/RFO_IN*%
X37160147Y-32000000D03*
%TO.P,FL1,A2,RFI_N_out_A2*%
%TO.N,/RFI_N_OUT*%
X37870078Y-32000000D03*
%TO.P,FL1,A3,RFI_P_out_A3*%
%TO.N,/RFI_P_OUT*%
X38500000Y-32000000D03*
%TO.P,FL1,B1,GND2_B1*%
%TO.N,GND*%
X36820040Y-31225045D03*
%TO.P,FL1,B2,GND3_B2*%
X37660020Y-31310135D03*
%TO.P,FL1,C1,RFO_out_C1*%
%TO.N,/RFO_OUT*%
X36820040Y-30620016D03*
%TO.P,FL1,C2,GND1_C2*%
%TO.N,GND*%
X37660020Y-30620016D03*
%TO.P,FL1,C3,RFI_in_C3*%
%TO.N,/RFI_IN*%
X38500000Y-30620016D03*
%TD*%
D13*
%TO.P,C23,1*%
%TO.N,/3V3_SYS*%
X53109870Y-48500000D03*
%TO.P,C23,2*%
%TO.N,GND*%
X51549870Y-48500000D03*
%TD*%
D21*
%TO.P,C8,1*%
%TO.N,/VDDA*%
X35000000Y-45220000D03*
%TO.P,C8,2*%
%TO.N,GND*%
X35000000Y-46780000D03*
%TD*%
D30*
%TO.P,C12,1*%
%TO.N,/3V3_SYS*%
X45220000Y-41000000D03*
%TO.P,C12,2*%
%TO.N,GND*%
X46780000Y-41000000D03*
%TD*%
D18*
%TO.P,R11,1*%
%TO.N,GND*%
X44500000Y-32500000D03*
%TO.P,R11,2*%
%TO.N,/PH3-BOOT0*%
X43500000Y-32500000D03*
%TD*%
D14*
%TO.P,R12,1*%
%TO.N,GND*%
X44320000Y-28000000D03*
%TO.P,R12,2*%
%TO.N,/RF_SW_CTRL*%
X42680000Y-28000000D03*
%TD*%
D31*
%TO.P,J_EXP1,1,Pin_1_1*%
%TO.N,/3V3_SYS*%
X20773817Y-58457235D03*
D32*
%TO.P,J_EXP1,2,Pin_2_2*%
%TO.N,GND*%
X21457858Y-56577849D03*
%TO.P,J_EXP1,3,Pin_3_3*%
%TO.N,/I2C1_SCL*%
X22141897Y-54698465D03*
%TO.P,J_EXP1,4,Pin_4_4*%
%TO.N,/I2C1_SDA*%
X22825938Y-52819079D03*
%TO.P,J_EXP1,5,Pin_5_5*%
%TO.N,/SPI1_SCK*%
X23509978Y-50939694D03*
%TO.P,J_EXP1,6,Pin_6_6*%
%TO.N,/SPI1_MISO*%
X24194019Y-49060308D03*
%TO.P,J_EXP1,7,Pin_7_7*%
%TO.N,/SPI1_MOSI*%
X24878059Y-47180925D03*
%TO.P,J_EXP1,8,Pin_8_8*%
%TO.N,/EXP_SPI_CS0*%
X25562099Y-45301536D03*
%TO.P,J_EXP1,9,Pin_9_9*%
%TO.N,/EXP_INT_WAKE*%
X26246139Y-43422152D03*
%TO.P,J_EXP1,10,Pin_10_10*%
%TO.N,/EXP_GPIO_CS1*%
X26930180Y-41542768D03*
%TD*%
D21*
%TO.P,C7,1*%
%TO.N,/SMPS_1V55*%
X38000000Y-45220000D03*
%TO.P,C7,2*%
%TO.N,GND*%
X38000000Y-46780000D03*
%TD*%
D33*
%TO.P,U4,1,GND_1*%
%TO.N,GND*%
X50880669Y-42999998D03*
%TO.P,U4,2,CSB_2*%
%TO.N,/3V3_SYS*%
X50880670Y-42200152D03*
%TO.P,U4,3,SDI_3*%
%TO.N,/I2C1_SDA*%
X50880669Y-41400050D03*
%TO.P,U4,4,SCK_4*%
%TO.N,/I2C1_SCL*%
X50880670Y-40600204D03*
%TO.P,U4,5,SDO_5*%
%TO.N,GND*%
X53719633Y-40600203D03*
%TO.P,U4,6,VDDIO_6*%
%TO.N,/3V3_SYS*%
X53719633Y-41400050D03*
%TO.P,U4,7,GND_7*%
%TO.N,GND*%
X53719634Y-42200152D03*
%TO.P,U4,8,VDD_8*%
%TO.N,/3V3_SYS*%
X53719634Y-43000000D03*
%TD*%
D12*
%TO.P,R13,1*%
%TO.N,Net-(U.FL1-Pin_1)*%
X35149987Y-24839980D03*
%TO.P,R13,2*%
%TO.N,/RF_ANT_SW*%
X36149987Y-24839980D03*
%TD*%
D13*
%TO.P,C21,1*%
%TO.N,Net-(U.FL1-Pin_1)*%
X40149987Y-24839980D03*
%TO.P,C21,2*%
%TO.N,GND*%
X38599987Y-24839980D03*
%TD*%
D34*
%TO.P,JP_TMR_DISABLE1,1,A_1*%
%TO.N,Net-(JP_TMR_DISABLE1-A)*%
X41000000Y-64500000D03*
D35*
%TO.P,JP_TMR_DISABLE1,2,B_2*%
%TO.N,GND*%
X42300000Y-64500000D03*
%TD*%
D14*
%TO.P,R3,1*%
%TO.N,GND*%
X47320000Y-63000000D03*
%TO.P,R3,2*%
%TO.N,Net-(U2-TS)*%
X45680000Y-63000000D03*
%TD*%
D36*
%TO.P,TP2,1,1_1*%
%TO.N,/3V3_SYS*%
X55500000Y-47500000D03*
%TD*%
D37*
%TO.P,D1,1,A1_1*%
%TO.N,GND*%
X38000000Y-68350076D03*
%TO.P,D1,2,A2_2*%
%TO.N,/VIN_SOLAR*%
X38000000Y-65050076D03*
%TD*%
D38*
%TO.P,C5,1*%
%TO.N,GND*%
X47450000Y-56500000D03*
%TO.P,C5,2*%
%TO.N,/SYS_RAW*%
X45550000Y-56500000D03*
%TD*%
D21*
%TO.P,C9,1*%
%TO.N,/VDDA*%
X36500000Y-45220000D03*
%TO.P,C9,2*%
%TO.N,GND*%
X36500000Y-46780000D03*
%TD*%
D26*
%TO.P,C14,1*%
%TO.N,/3V3_SYS*%
X45550000Y-35500000D03*
%TO.P,C14,2*%
%TO.N,GND*%
X47450000Y-35500000D03*
%TD*%
D39*
%TO.P,X1,1,1_1*%
%TO.N,/PC14-OSC32_IN*%
X31500000Y-41750000D03*
%TO.P,X1,2,2_2*%
%TO.N,/PC15-OSC32_OUT*%
X31500000Y-44250000D03*
%TD*%
D24*
%TO.P,C15,1*%
%TO.N,/NRST*%
X48500000Y-52780000D03*
%TO.P,C15,2*%
%TO.N,GND*%
X48500000Y-51220000D03*
%TD*%
D40*
%TO.P,C4,1*%
%TO.N,GND*%
X51000000Y-60450000D03*
%TO.P,C4,2*%
%TO.N,/SYS_RAW*%
X51000000Y-58550000D03*
%TD*%
D41*
%TO.P,J3,1,VCC_1*%
%TO.N,/3V3_SYS*%
X55230000Y-51460000D03*
%TO.P,J3,2,SWDIO_2*%
%TO.N,/SWDIO*%
X56500000Y-51460000D03*
%TO.P,J3,3,~{RESET}_3*%
%TO.N,/NRST*%
X55230000Y-52730000D03*
%TO.P,J3,4,SWCLK_4*%
%TO.N,/SWCLK*%
X56500000Y-52730000D03*
%TO.P,J3,5,GND_5*%
%TO.N,GND*%
X55230000Y-54000000D03*
%TO.P,J3,6,SWO_6*%
%TO.N,/SWO*%
X56500000Y-54000000D03*
%TD*%
D42*
%TO.P,L1,1,1_1*%
%TO.N,Net-(U3-LX1)*%
X35157607Y-54700076D03*
%TO.P,L1,2,2_2*%
%TO.N,Net-(U3-LX2)*%
X33157607Y-54700076D03*
%TD*%
D43*
%TO.P,U2,1,TS_1*%
%TO.N,Net-(U2-TS)*%
X41500000Y-60250189D03*
%TO.P,U2,2,BAT_2*%
%TO.N,/BAT_RAW*%
X41500000Y-59750000D03*
%TO.P,U2,3,BAT_3*%
X41500000Y-59250191D03*
%TO.P,U2,4,CE#_4*%
%TO.N,Net-(U2-CE#)*%
X41500000Y-58750000D03*
D44*
%TO.P,U2,5,EN2_5*%
%TO.N,GND*%
X40750000Y-58000000D03*
%TO.P,U2,6,EN1_6*%
X40249809Y-58000000D03*
%TO.P,U2,7,PGOOD#_7*%
%TO.N,/CHARGER_PGOOD_N*%
X39750000Y-58000000D03*
%TO.P,U2,8,VSS_8*%
%TO.N,GND*%
X39249811Y-58000000D03*
D43*
%TO.P,U2,9,CHG#_9*%
%TO.N,/CHARGER_CHG_N*%
X38500000Y-58750000D03*
%TO.P,U2,10,OUT_10*%
%TO.N,/SYS_RAW*%
X38500000Y-59250191D03*
%TO.P,U2,11,OUT_11*%
X38500000Y-59750000D03*
%TO.P,U2,12,ILIM_12*%
%TO.N,Net-(U2-ILIM)*%
X38500000Y-60250189D03*
D44*
%TO.P,U2,13,IN_13*%
%TO.N,/VIN_SOLAR*%
X39249811Y-61000000D03*
%TO.P,U2,14,TMR_14*%
%TO.N,Net-(JP_TMR_DISABLE1-A)*%
X39750000Y-61000000D03*
%TO.P,U2,15,ITERM_15*%
%TO.N,unconnected-(U2-ITERM-Pad15)*%
X40249809Y-61000000D03*
%TO.P,U2,16,ISET_16*%
%TO.N,Net-(U2-ISET)*%
X40750000Y-61000000D03*
D45*
%TO.P,U2,17,EP_17*%
%TO.N,GND*%
X39999873Y-59500127D03*
%TD*%
D27*
%TO.P,J1,1,Pin_1_1*%
%TO.N,/VIN_SOLAR*%
X28500000Y-64167526D03*
D28*
%TO.P,J1,2,Pin_2_2*%
%TO.N,GND*%
X26500000Y-64167526D03*
%TD*%
D22*
%TO.P,R7,1*%
%TO.N,Net-(JP_TMR_DISABLE1-A)*%
X40180000Y-62500000D03*
%TO.P,R7,2*%
%TO.N,GND*%
X41820000Y-62500000D03*
%TD*%
D26*
%TO.P,C3,1*%
%TO.N,/BAT_RAW*%
X45550000Y-60500000D03*
%TO.P,C3,2*%
%TO.N,GND*%
X47450000Y-60500000D03*
%TD*%
D13*
%TO.P,C13,1*%
%TO.N,/3V3_SYS*%
X31280000Y-36500000D03*
%TO.P,C13,2*%
%TO.N,GND*%
X29720000Y-36500000D03*
%TD*%
D36*
%TO.P,TP3,1,1_1*%
%TO.N,/PH3-BOOT0*%
X46500000Y-32000000D03*
%TD*%
D14*
%TO.P,R4,1*%
%TO.N,GND*%
X47320000Y-58500000D03*
%TO.P,R4,2*%
%TO.N,Net-(U2-CE#)*%
X45680000Y-58500000D03*
%TD*%
%TO.P,R16,1*%
%TO.N,/I2C1_SCL*%
X50820000Y-36500000D03*
%TO.P,R16,2*%
%TO.N,/3V3_SYS*%
X49180000Y-36500000D03*
%TD*%
D40*
%TO.P,C1,1*%
%TO.N,GND*%
X43657607Y-68650076D03*
%TO.P,C1,2*%
%TO.N,/VIN_SOLAR*%
X43657607Y-66750076D03*
%TD*%
D13*
%TO.P,C22,1*%
%TO.N,/3V3_SYS*%
X53109870Y-47000000D03*
%TO.P,C22,2*%
%TO.N,GND*%
X51549870Y-47000000D03*
%TD*%
D27*
%TO.P,J2,1,Pin_1_1*%
%TO.N,/VIN_SOLAR*%
X41500000Y-71000000D03*
D28*
%TO.P,J2,2,Pin_2_2*%
%TO.N,GND*%
X39500000Y-71000000D03*
%TD*%
D46*
%TO.P,L3,1,1_1*%
%TO.N,Net-(U1-VLXSMPS)*%
X46000000Y-46500000D03*
%TO.P,L3,2,2_2*%
%TO.N,/SMPS_1V55*%
X42000000Y-46500000D03*
%TD*%
D47*
%TO.P,U1,1,PB3_1*%
%TO.N,/SWO*%
X42547320Y-40250826D03*
%TO.P,U1,2,PB4_2*%
%TO.N,unconnected-(U1-PB4-Pad2)*%
X42547320Y-39750445D03*
%TO.P,U1,3,PB5_3*%
%TO.N,unconnected-(U1-PB5-Pad3)*%
X42547320Y-39250064D03*
%TO.P,U1,4,PB6_4*%
%TO.N,/I2C1_SCL*%
X42547320Y-38749682D03*
%TO.P,U1,5,PB7_5*%
%TO.N,/I2C1_SDA*%
X42547320Y-38249301D03*
%TO.P,U1,6,PB8_6*%
%TO.N,unconnected-(U1-PB8-Pad6)*%
X42547320Y-37748920D03*
%TO.P,U1,7,PA0_7*%
%TO.N,/EXP_INT_WAKE*%
X42547320Y-37251080D03*
%TO.P,U1,8,PA1_8*%
%TO.N,unconnected-(U1-PA1-Pad8)*%
X42547320Y-36750699D03*
%TO.P,U1,9,PA2_9*%
%TO.N,unconnected-(U1-PA2-Pad9)*%
X42547320Y-36250318D03*
%TO.P,U1,10,PA3_10*%
%TO.N,unconnected-(U1-PA3-Pad10)*%
X42547320Y-35749936D03*
%TO.P,U1,11,VDD_11*%
%TO.N,/3V3_SYS*%
X42547320Y-35249555D03*
%TO.P,U1,12,PA4_12*%
%TO.N,/EXP_SPI_CS0*%
X42547320Y-34749174D03*
D48*
%TO.P,U1,13,PA5_13*%
%TO.N,/SPI1_SCK*%
X41750064Y-33952680D03*
%TO.P,U1,14,PA6_14*%
%TO.N,/SPI1_MISO*%
X41249936Y-33952680D03*
%TO.P,U1,15,PA7_15*%
%TO.N,/SPI1_MOSI*%
X40750064Y-33952680D03*
%TO.P,U1,16,PA8_16*%
%TO.N,/EXP_GPIO_CS1*%
X40249936Y-33952680D03*
%TO.P,U1,17,PA9_17*%
%TO.N,unconnected-(U1-PA9-Pad17)*%
X39750064Y-33952680D03*
%TO.P,U1,18,NRST_18*%
%TO.N,/NRST*%
X39249936Y-33952680D03*
%TO.P,U1,19,PH3-BOOT0_19*%
%TO.N,/PH3-BOOT0*%
X38750064Y-33952680D03*
%TO.P,U1,20,RFI_P_20*%
%TO.N,/RFI_P_OUT*%
X38249936Y-33952680D03*
%TO.P,U1,21,RFI_N_21*%
%TO.N,/RFI_N_OUT*%
X37750064Y-33952680D03*
%TO.P,U1,22,RFO_LP_22*%
%TO.N,/RFO_IN*%
X37249936Y-33952680D03*
%TO.P,U1,23,RFO_HP_23*%
%TO.N,unconnected-(U1-RFO_HP-Pad23)*%
X36750064Y-33952680D03*
%TO.P,U1,24,VR_PA_24*%
%TO.N,/VR_PA_RF*%
X36249936Y-33952680D03*
D47*
%TO.P,U1,25,VDDPA_25*%
%TO.N,/SMPS_1V55*%
X35452680Y-34749174D03*
%TO.P,U1,26,OSC_IN_26*%
%TO.N,/OSC_IN*%
X35452680Y-35249555D03*
%TO.P,U1,27,OSC_OUT_27*%
%TO.N,/OSC_OUT*%
X35452680Y-35749936D03*
%TO.P,U1,28,VDDRF_28*%
%TO.N,/3V3_SYS*%
X35452680Y-36250318D03*
%TO.P,U1,29,VDDRF1V55_29*%
%TO.N,/SMPS_1V55*%
X35452680Y-36750699D03*
%TO.P,U1,30,PB0-VDD_TCXO_30*%
%TO.N,unconnected-(U1-PB0-VDD_TCXO-Pad30)*%
X35452680Y-37251080D03*
%TO.P,U1,31,PB2_31*%
%TO.N,unconnected-(U1-PB2-Pad31)*%
X35452680Y-37748920D03*
%TO.P,U1,32,PB12_32*%
%TO.N,/RF_SW_CTRL*%
X35452680Y-38249301D03*
%TO.P,U1,33,PA10_33*%
%TO.N,unconnected-(U1-PA10-Pad33)*%
X35452680Y-38749682D03*
%TO.P,U1,34,PA11_34*%
%TO.N,unconnected-(U1-PA11-Pad34)*%
X35452680Y-39250064D03*
%TO.P,U1,35,PA12_35*%
%TO.N,unconnected-(U1-PA12-Pad35)*%
X35452680Y-39750445D03*
%TO.P,U1,36,PA13_36*%
%TO.N,/SWDIO*%
X35452680Y-40250826D03*
D48*
%TO.P,U1,37,VBAT_37*%
%TO.N,/3V3_SYS*%
X36249174Y-41047320D03*
%TO.P,U1,38,PC13_38*%
%TO.N,unconnected-(U1-PC13-Pad38)*%
X36749555Y-41047320D03*
%TO.P,U1,39,PC14-OSC32_IN_39*%
%TO.N,/PC14-OSC32_IN*%
X37249936Y-41047320D03*
%TO.P,U1,40,PC15-OSC32_OUT_40*%
%TO.N,/PC15-OSC32_OUT*%
X37750318Y-41047320D03*
%TO.P,U1,41,VDDA_41*%
%TO.N,/VDDA*%
X38250699Y-41047320D03*
%TO.P,U1,42,PA14_42*%
%TO.N,/SWCLK*%
X38751080Y-41047320D03*
%TO.P,U1,43,PA15_43*%
%TO.N,unconnected-(U1-PA15-Pad43)*%
X39248920Y-41047320D03*
%TO.P,U1,44,VDD_44*%
%TO.N,/3V3_SYS*%
X39749301Y-41047320D03*
%TO.P,U1,45,VFBSMPS_45*%
%TO.N,/SMPS_1V55*%
X40249682Y-41047320D03*
%TO.P,U1,46,VDDSMPS_46*%
%TO.N,/3V3_SYS*%
X40750064Y-41047320D03*
%TO.P,U1,47,VLXSMPS_47*%
%TO.N,Net-(U1-VLXSMPS)*%
X41250445Y-41047320D03*
%TO.P,U1,48,VSSSMPS_48*%
%TO.N,GND*%
X41750826Y-41047320D03*
D49*
%TO.P,U1,49,EP_49*%
%TO.N,unconnected-(U1-EP-Pad49)*%
X39000000Y-37500000D03*
%TD*%
D22*
%TO.P,R6,1*%
%TO.N,/3V3_SYS*%
X34860000Y-57000000D03*
%TO.P,R6,2*%
%TO.N,/CHARGER_PGOOD_N*%
X36500000Y-57000000D03*
%TD*%
D12*
%TO.P,C17,1*%
%TO.N,/RFI_IN*%
X43500000Y-31500000D03*
%TO.P,C17,2*%
%TO.N,Net-(U6-RF2)*%
X44500000Y-31500000D03*
%TD*%
D14*
%TO.P,R8,1*%
%TO.N,GND*%
X46920000Y-51600000D03*
%TO.P,R8,2*%
%TO.N,Net-(U3-CFG3)*%
X45280000Y-51600000D03*
%TD*%
D50*
%TO.N,GND*%
X45500000Y-26000000D03*
X43000000Y-41500000D03*
X41000000Y-56500000D03*
X35500000Y-31500000D03*
X50360000Y-49360000D03*
X28000000Y-39000000D03*
X45500000Y-28000000D03*
D51*
X47000000Y-42500000D03*
D50*
X33000000Y-35000000D03*
X54500000Y-61500000D03*
X37500000Y-24500000D03*
X40499873Y-49500000D03*
X47500000Y-30500000D03*
X43500000Y-22000000D03*
X32000000Y-37500000D03*
%TO.N,/RF_SW_CTRL*%
X44000000Y-24000000D03*
X34000000Y-38500000D03*
%TO.N,/3V3_SYS*%
X33500000Y-36500000D03*
X42000000Y-42500000D03*
X40500000Y-29000000D03*
D51*
X52500000Y-50000000D03*
X52200152Y-42200152D03*
D50*
X35700000Y-49020381D03*
X40500000Y-44000000D03*
X44500000Y-42000000D03*
X32390000Y-40610000D03*
X44000000Y-35249555D03*
%TO.N,/I2C1_SDA*%
X30000000Y-52500000D03*
X46500000Y-38000000D03*
%TO.N,/I2C1_SCL*%
X30000000Y-54500000D03*
X44000000Y-51000000D03*
%TO.N,/SPI1_SCK*%
X28250000Y-49250000D03*
X43000000Y-33216313D03*
%TO.N,/SPI1_MISO*%
X33500000Y-43000000D03*
X33500000Y-43000000D03*
X33500000Y-43000000D03*
X33500000Y-43000000D03*
X35000000Y-43500000D03*
X42166313Y-32666313D03*
%TO.N,/SPI1_MOSI*%
X41000000Y-33000000D03*
%TO.N,/EXP_SPI_CS0*%
X32000000Y-48500000D03*
X44000000Y-34000000D03*
X44000000Y-34000000D03*
%TO.N,/EXP_INT_WAKE*%
X36485992Y-42575000D03*
X43500000Y-37000000D03*
%TO.N,/EXP_GPIO_CS1*%
X29000000Y-41500000D03*
X40249936Y-32750064D03*
%TO.N,/SMPS_1V55*%
X29000000Y-38000000D03*
X42000000Y-50500000D03*
%TO.N,/NRST*%
X49500000Y-52000000D03*
X39500000Y-33000000D03*
%TO.N,/SWDIO*%
X58500000Y-53000000D03*
X34250826Y-40250826D03*
%TO.N,/SWCLK*%
X38751080Y-43751080D03*
X58500000Y-54000000D03*
%TO.N,/SWO*%
X44000000Y-39500000D03*
X58500000Y-52000000D03*
%TD*%
%TO.N,Net-(U6-RF1)*%
D52*
X46396447Y-26603553D02*
X46350000Y-26650000D01*
X47000000Y-27207106D02*
X46396447Y-26603553D01*
X46000000Y-29279999D02*
X45889999Y-29389999D01*
X47000000Y-28279998D02*
X47000000Y-27207106D01*
X46350000Y-26650000D02*
X44500013Y-26650000D01*
X44339980Y-26489967D02*
X44989967Y-26489967D01*
X44500013Y-26650000D02*
X44339980Y-26489967D01*
X44779999Y-30500000D02*
X44500000Y-30500000D01*
X45889999Y-29389999D02*
X47000000Y-28279998D01*
X45889999Y-29389999D02*
X44779999Y-30500000D01*
%TO.N,GND*%
D53*
X40750000Y-56750000D02*
X41000000Y-56500000D01*
X40499873Y-47779873D02*
X39500000Y-46780000D01*
X37660020Y-31310135D02*
X36905130Y-31310135D01*
X29025000Y-56525000D02*
X33550000Y-52000000D01*
X42000000Y-19000000D02*
X42000000Y-20500000D01*
X40250000Y-58974999D02*
X39999999Y-59225000D01*
D54*
X46920000Y-55970000D02*
X47450000Y-56500000D01*
D53*
X44280000Y-28040000D02*
X44320000Y-28000000D01*
X42300000Y-64500000D02*
X43320000Y-64500000D01*
X47320000Y-63000000D02*
X51832474Y-63000000D01*
X29720000Y-36500000D02*
X29549975Y-36329975D01*
D54*
X48500000Y-51220000D02*
X47300000Y-51220000D01*
D53*
X52549870Y-46000000D02*
X54500000Y-46000000D01*
X36905130Y-31310135D02*
X36820040Y-31225045D01*
X51220000Y-48500000D02*
X50360000Y-49360000D01*
X39500000Y-71000000D02*
X40512001Y-72012001D01*
X42300000Y-64500000D02*
X42300000Y-62980000D01*
X54500000Y-46000000D02*
X55500000Y-45000000D01*
X39342393Y-54180076D02*
X40499873Y-54180076D01*
X42547320Y-41047320D02*
X43000000Y-41500000D01*
X54364135Y-42200152D02*
X54414134Y-42150153D01*
X43657607Y-70866395D02*
X43657607Y-68650076D01*
X51832474Y-63000000D02*
X53000000Y-64167526D01*
X55230000Y-54000000D02*
X49950000Y-54000000D01*
D54*
X41832607Y-68650076D02*
X41657607Y-68475076D01*
D53*
X46780000Y-41000000D02*
X46780000Y-40720000D01*
X31700025Y-35049911D02*
X32950089Y-35049911D01*
X48500000Y-31500000D02*
X47500000Y-30500000D01*
X38000000Y-69500000D02*
X38000000Y-68350076D01*
X50360000Y-49360000D02*
X48500000Y-51220000D01*
X51549870Y-47000000D02*
X52549870Y-46000000D01*
D54*
X46920000Y-54600000D02*
X46920000Y-55970000D01*
D53*
X48500000Y-32500000D02*
X48500000Y-31500000D01*
X30720000Y-37500000D02*
X32000000Y-37500000D01*
X39999999Y-59225000D02*
X39556326Y-59225000D01*
X28500000Y-39500000D02*
X28000000Y-39000000D01*
X33180000Y-62500000D02*
X28167526Y-62500000D01*
X54474003Y-43474003D02*
X54414135Y-43474003D01*
X29549975Y-34050089D02*
X29649975Y-33950089D01*
X39250000Y-58918674D02*
X39250000Y-58050000D01*
X28167526Y-62500000D02*
X26500000Y-64167526D01*
X28972151Y-56577849D02*
X29025000Y-56525000D01*
X40512001Y-72012001D02*
X42512001Y-72012001D01*
D54*
X43657607Y-68650076D02*
X41832607Y-68650076D01*
D53*
X54414134Y-42150153D02*
X54414134Y-40650203D01*
X44320000Y-28000000D02*
X45500000Y-28000000D01*
X37839980Y-24839980D02*
X37500000Y-24500000D01*
X29649975Y-33950089D02*
X30299975Y-33950089D01*
X44500000Y-32500000D02*
X46500000Y-30500000D01*
X51549870Y-48500000D02*
X51220000Y-48500000D01*
X54414135Y-43474003D02*
X54414135Y-42250152D01*
X42512001Y-72012001D02*
X43657607Y-70866395D01*
X35774955Y-31225045D02*
X35500000Y-31500000D01*
X29720000Y-36500000D02*
X29720000Y-36720000D01*
D54*
X43657607Y-68650076D02*
X43657607Y-68842393D01*
X47320000Y-58500000D02*
X47320000Y-60370000D01*
D53*
X21457858Y-56577849D02*
X28972151Y-56577849D01*
X39500000Y-71000000D02*
X38000000Y-69500000D01*
X37660020Y-30620016D02*
X37660020Y-31310135D01*
X40750000Y-58050000D02*
X40500000Y-58050000D01*
X40250000Y-19000000D02*
X42000000Y-19000000D01*
D54*
X47450000Y-60500000D02*
X48000000Y-60500000D01*
D53*
X55500000Y-45000000D02*
X55500000Y-44500000D01*
X38599987Y-24839980D02*
X37839980Y-24839980D01*
X36820040Y-31225045D02*
X35774955Y-31225045D01*
X42000000Y-20500000D02*
X42750000Y-21250000D01*
X40499873Y-49500000D02*
X40499873Y-47779873D01*
X51549870Y-48500000D02*
X51549870Y-47000000D01*
X47450000Y-33550000D02*
X48500000Y-32500000D01*
X40250000Y-22000000D02*
X42000000Y-22000000D01*
X47320000Y-63000000D02*
X47320000Y-64500000D01*
X41657607Y-54679949D02*
X40999746Y-54679949D01*
X40750000Y-58050000D02*
X40750000Y-56750000D01*
X41750826Y-41047320D02*
X42547320Y-41047320D01*
X54364134Y-40600203D02*
X53719633Y-40600203D01*
X43320000Y-64500000D02*
X45320000Y-66500000D01*
X44280000Y-29500000D02*
X44280000Y-28040000D01*
D54*
X47450000Y-64370000D02*
X47320000Y-64500000D01*
X47450000Y-58370000D02*
X47320000Y-58500000D01*
D53*
X54414134Y-40650203D02*
X54364134Y-40600203D01*
X46780000Y-42280000D02*
X47000000Y-42500000D01*
X44339980Y-25839980D02*
X45339980Y-25839980D01*
X55500000Y-44500000D02*
X54474003Y-43474003D01*
X46500000Y-30500000D02*
X47500000Y-30500000D01*
D55*
X31999491Y-35249555D02*
X31700025Y-34950089D01*
D53*
X29720000Y-36500000D02*
X30720000Y-37500000D01*
X54414135Y-42250152D02*
X54364135Y-42200152D01*
X54364135Y-42200152D02*
X53719634Y-42200152D01*
X40250000Y-58300000D02*
X40250000Y-58974999D01*
D54*
X48000000Y-60500000D02*
X48050000Y-60450000D01*
D53*
X29720000Y-39500000D02*
X28500000Y-39500000D01*
X54388138Y-43500000D02*
X54414135Y-43474003D01*
X40499873Y-54180076D02*
X40499873Y-49500000D01*
D54*
X47320000Y-64500000D02*
X45320000Y-66500000D01*
D53*
X42300000Y-62980000D02*
X41820000Y-62500000D01*
X49950000Y-54000000D02*
X47450000Y-56500000D01*
X42750000Y-21250000D02*
X43500000Y-22000000D01*
X39556326Y-59225000D02*
X39250000Y-58918674D01*
D54*
X47320000Y-60370000D02*
X47450000Y-60500000D01*
X48050000Y-60450000D02*
X51000000Y-60450000D01*
X46920000Y-51600000D02*
X46920000Y-54600000D01*
D53*
X40500000Y-58050000D02*
X40250000Y-58300000D01*
X47450000Y-35500000D02*
X47450000Y-33550000D01*
X42000000Y-22000000D02*
X42750000Y-21250000D01*
D54*
X39500000Y-46780000D02*
X35000000Y-46780000D01*
D53*
X32950089Y-35049911D02*
X33000000Y-35000000D01*
X29549975Y-36329975D02*
X29549975Y-34050089D01*
D54*
X53450000Y-60450000D02*
X54500000Y-61500000D01*
D53*
X38599987Y-26339980D02*
X38599987Y-24839980D01*
X43657607Y-68650076D02*
X45320000Y-66987683D01*
D54*
X47300000Y-51220000D02*
X46920000Y-51600000D01*
D53*
X45339980Y-25839980D02*
X45500000Y-26000000D01*
X40999746Y-54679949D02*
X40499873Y-54180076D01*
X46780000Y-41000000D02*
X46780000Y-42280000D01*
D54*
X51000000Y-60450000D02*
X53450000Y-60450000D01*
D53*
X50880669Y-42999998D02*
X51380671Y-43500000D01*
X45320000Y-66987683D02*
X45320000Y-66500000D01*
X51380671Y-43500000D02*
X54388138Y-43500000D01*
%TO.N,Net-(U6-RF2)*%
D52*
X46500000Y-29779999D02*
X46389999Y-29889999D01*
X47500000Y-28779998D02*
X47500000Y-27000000D01*
X46389999Y-29889999D02*
X44779999Y-31500000D01*
X44779999Y-31500000D02*
X44500000Y-31500000D01*
X45689993Y-25189993D02*
X44339980Y-25189993D01*
X47500000Y-27000000D02*
X45689993Y-25189993D01*
X46389999Y-29889999D02*
X47500000Y-28779998D01*
%TO.N,/RF_SW_CTRL*%
X43350025Y-25189993D02*
X43400025Y-25239993D01*
X43350025Y-25189993D02*
X43350025Y-24649975D01*
X42660020Y-25189993D02*
X43350025Y-25189993D01*
D54*
X34250699Y-38249301D02*
X34000000Y-38500000D01*
D52*
X43350025Y-24649975D02*
X44000000Y-24000000D01*
X43400025Y-25239993D02*
X43400025Y-27279975D01*
X43400025Y-27279975D02*
X42680000Y-28000000D01*
D54*
X35452680Y-38249301D02*
X34250699Y-38249301D01*
%TO.N,Net-(U6-RFC)*%
D52*
X41970015Y-25839980D02*
X42660020Y-25839980D01*
X35149987Y-25839980D02*
X35149987Y-26149979D01*
X40145015Y-27664980D02*
X41970015Y-25839980D01*
X36664988Y-27664980D02*
X40145015Y-27664980D01*
X35149987Y-26149979D02*
X36664988Y-27664980D01*
%TO.N,/3V3_SYS*%
D56*
X54836301Y-51066301D02*
X54836301Y-48163699D01*
D54*
X39500000Y-43000000D02*
X40500000Y-44000000D01*
D56*
X45220000Y-41000000D02*
X45220000Y-41280000D01*
X53000254Y-41400050D02*
X52200152Y-42200152D01*
X41830000Y-28610000D02*
X40890000Y-28610000D01*
X38252449Y-52000000D02*
X39342393Y-53089944D01*
X41830000Y-27319987D02*
X41830000Y-28610000D01*
X53000000Y-43000000D02*
X53719634Y-43000000D01*
D54*
X31280000Y-36500000D02*
X33500000Y-36500000D01*
X41500000Y-42500000D02*
X42000000Y-42500000D01*
D56*
X40890000Y-28610000D02*
X40500000Y-29000000D01*
D54*
X42547320Y-35249555D02*
X44000000Y-35249555D01*
D56*
X42660020Y-26489967D02*
X41830000Y-27319987D01*
D54*
X39500000Y-42749301D02*
X39500000Y-43000000D01*
D56*
X35700000Y-49020381D02*
X35700000Y-51750000D01*
X41830000Y-28610000D02*
X42720000Y-29500000D01*
D54*
X45299555Y-35249555D02*
X45550000Y-35500000D01*
X39500000Y-42749301D02*
X39500000Y-45220000D01*
X35452680Y-36250318D02*
X31529682Y-36250318D01*
D56*
X53109870Y-48500000D02*
X53109870Y-49390130D01*
X52200152Y-42200152D02*
X53000000Y-43000000D01*
D54*
X31529682Y-36250318D02*
X31280000Y-36500000D01*
D56*
X54836301Y-48163699D02*
X55500000Y-47500000D01*
D54*
X44000000Y-35249555D02*
X45299555Y-35249555D01*
D56*
X32827320Y-41047320D02*
X36159550Y-41047320D01*
X33499619Y-46820000D02*
X35700000Y-49020381D01*
X55230000Y-51460000D02*
X54836301Y-51066301D01*
X35700000Y-51750000D02*
X35450000Y-52000000D01*
X46675000Y-36625000D02*
X45550000Y-35500000D01*
X45220000Y-41280000D02*
X44500000Y-42000000D01*
X34860000Y-58500000D02*
X34500000Y-58500000D01*
X49180000Y-36500000D02*
X49055000Y-36625000D01*
D54*
X39749301Y-41047320D02*
X39749301Y-42500000D01*
D56*
X53719633Y-41400050D02*
X53000254Y-41400050D01*
X32390000Y-40610000D02*
X32827320Y-41047320D01*
X34457235Y-58457235D02*
X20773817Y-58457235D01*
X53109870Y-48000000D02*
X53109870Y-48500000D01*
X53109870Y-49390130D02*
X52500000Y-50000000D01*
D54*
X39749301Y-42500000D02*
X39500000Y-42749301D01*
D56*
X50880670Y-42200152D02*
X52200152Y-42200152D01*
D54*
X40750064Y-41047320D02*
X40750064Y-41750064D01*
D56*
X49055000Y-36625000D02*
X46675000Y-36625000D01*
X31280000Y-39500000D02*
X32390000Y-40610000D01*
X34500000Y-58500000D02*
X34457235Y-58457235D01*
X35450000Y-52000000D02*
X38252449Y-52000000D01*
X53609870Y-47500000D02*
X53109870Y-48000000D01*
X55500000Y-47500000D02*
X53609870Y-47500000D01*
X49180000Y-35000000D02*
X49180000Y-36500000D01*
D54*
X40750064Y-41750064D02*
X41500000Y-42500000D01*
D56*
X53609870Y-47500000D02*
X53109870Y-47000000D01*
X34860000Y-57000000D02*
X34860000Y-58500000D01*
%TO.N,/RFO_OUT*%
D52*
X39000000Y-30000000D02*
X37440056Y-30000000D01*
X37440056Y-30000000D02*
X36820040Y-30620016D01*
X43500000Y-30500000D02*
X39500000Y-30500000D01*
X39500000Y-30500000D02*
X39000000Y-30000000D01*
X43470028Y-30470028D02*
X43500000Y-30500000D01*
%TO.N,/RF_ANT_SW*%
X36149987Y-24839980D02*
X36149987Y-25839980D01*
X39324987Y-27164980D02*
X37474987Y-27164980D01*
X40149987Y-26339980D02*
X39324987Y-27164980D01*
X37474987Y-27164980D02*
X36149987Y-25839980D01*
%TO.N,/I2C1_SDA*%
D53*
X50000000Y-35820000D02*
X50000000Y-36796938D01*
X22825938Y-52819079D02*
X29680921Y-52819079D01*
X49146938Y-37650000D02*
X46850000Y-37650000D01*
X52000000Y-36180000D02*
X50820000Y-35000000D01*
X29680921Y-52819079D02*
X30000000Y-52500000D01*
X50820000Y-35000000D02*
X50000000Y-35820000D01*
X50000000Y-36796938D02*
X49146938Y-37650000D01*
X50880669Y-41400050D02*
X51751282Y-41400050D01*
X52000000Y-37000000D02*
X52000000Y-36180000D01*
X51751282Y-41400050D02*
X53500000Y-39651332D01*
X46850000Y-37650000D02*
X46500000Y-38000000D01*
X53500000Y-38500000D02*
X52000000Y-37000000D01*
X53500000Y-39651332D02*
X53500000Y-38500000D01*
X46250699Y-38249301D02*
X42547320Y-38249301D01*
X46500000Y-38000000D02*
X46250699Y-38249301D01*
%TO.N,/OSC_IN*%
D55*
X34500000Y-34362180D02*
X33762909Y-33625089D01*
X32025025Y-33625089D02*
X31700025Y-33950089D01*
X33762909Y-33625089D02*
X32025025Y-33625089D01*
X34852680Y-35249555D02*
X34500000Y-34896875D01*
X32000203Y-33950089D02*
X31700025Y-33950089D01*
X35452680Y-35249555D02*
X34852680Y-35249555D01*
X34500000Y-34896875D02*
X34500000Y-34362180D01*
%TO.N,/OSC_OUT*%
X31000000Y-35749936D02*
X30299975Y-35049911D01*
X35452680Y-35749936D02*
X31000000Y-35749936D01*
%TO.N,Net-(U3-CFG1)*%
D53*
X45280000Y-54600000D02*
X44860076Y-54180076D01*
X44860076Y-54180076D02*
X41657607Y-54180076D01*
%TO.N,/SYS_RAW*%
D54*
X38550000Y-59500000D02*
X36276996Y-59500000D01*
X39342393Y-55180076D02*
X40000000Y-55837683D01*
X41000000Y-55837683D02*
X41657607Y-55180076D01*
X37096920Y-55180076D02*
X39342393Y-55180076D01*
D56*
X45550000Y-56500000D02*
X44319954Y-55269954D01*
D54*
X46800000Y-57750000D02*
X45550000Y-56500000D01*
X40000000Y-55837683D02*
X41000000Y-55837683D01*
X36276996Y-59500000D02*
X35775000Y-58998004D01*
X35775000Y-56501996D02*
X37096920Y-55180076D01*
X51000000Y-58550000D02*
X50200000Y-57750000D01*
X35775000Y-58998004D02*
X35775000Y-56501996D01*
X54119000Y-58770000D02*
X51220000Y-58770000D01*
D56*
X44319954Y-55269954D02*
X41657607Y-55269954D01*
D54*
X38550000Y-59750000D02*
X38550000Y-59500000D01*
X50200000Y-57750000D02*
X46800000Y-57750000D01*
X51220000Y-58770000D02*
X51000000Y-58550000D01*
X38550000Y-59500000D02*
X38550000Y-59250000D01*
%TO.N,Net-(U3-CFG2)*%
D53*
X45280000Y-53100000D02*
X44700051Y-53679949D01*
X44700051Y-53679949D02*
X41657607Y-53679949D01*
%TO.N,Net-(U3-CFG3)*%
X43699924Y-53180076D02*
X45280000Y-51600000D01*
X41657607Y-53180076D02*
X43699924Y-53180076D01*
%TO.N,Net-(U3-LX2)*%
X38439889Y-53350076D02*
X38769762Y-53679949D01*
X38769762Y-53679949D02*
X39342393Y-53679949D01*
X33157607Y-54700076D02*
X34507607Y-53350076D01*
X34507607Y-53350076D02*
X38439889Y-53350076D01*
%TO.N,Net-(U3-LX1)*%
X35157607Y-54700076D02*
X39322266Y-54700076D01*
X39322266Y-54700076D02*
X39342393Y-54679949D01*
%TO.N,Net-(U.FL1-Pin_1)*%
D52*
X35149987Y-24529981D02*
X36179968Y-23500000D01*
X38810007Y-23500000D02*
X38750000Y-23439993D01*
X37000000Y-23500000D02*
X38000000Y-23500000D01*
X38810007Y-23500000D02*
X40149987Y-24839980D01*
X35149987Y-24839980D02*
X35149987Y-24529981D01*
X36179968Y-23500000D02*
X37000000Y-23500000D01*
X38000000Y-23500000D02*
X38810007Y-23500000D01*
X38750000Y-23439993D02*
X38750000Y-20500000D01*
%TO.N,Net-(U2-ISET)*%
D53*
X40750000Y-60950000D02*
X42130000Y-60950000D01*
X42130000Y-60950000D02*
X45680000Y-64500000D01*
%TO.N,/CHARGER_CHG_N*%
X38500000Y-58750000D02*
X36750000Y-58750000D01*
X36750000Y-58750000D02*
X36500000Y-58500000D01*
%TO.N,/VDDA*%
D54*
X36500000Y-44000000D02*
X36500000Y-45220000D01*
X38250699Y-42249301D02*
X36500000Y-44000000D01*
X35001017Y-45218983D02*
X35000000Y-45220000D01*
D53*
X36500000Y-45220000D02*
X33539619Y-45220000D01*
D54*
X38250699Y-41047320D02*
X38250699Y-42249301D01*
D56*
X35000000Y-45220000D02*
X35025636Y-45194364D01*
D53*
X36500000Y-45220000D02*
X36500000Y-45177585D01*
X33539619Y-45220000D02*
X33499619Y-45180000D01*
%TO.N,/VIN_SOLAR*%
D56*
X37117450Y-64167526D02*
X38000000Y-65050076D01*
X39875000Y-69375000D02*
X39875000Y-66925076D01*
X41832607Y-66750076D02*
X41657607Y-66925076D01*
X38000000Y-65050076D02*
X38000000Y-65000000D01*
X41657607Y-66925076D02*
X39875000Y-66925076D01*
X39875000Y-66925076D02*
X38000000Y-65050076D01*
X41500000Y-71000000D02*
X39875000Y-69375000D01*
X43657607Y-66750076D02*
X41832607Y-66750076D01*
X28500000Y-64167526D02*
X37117450Y-64167526D01*
X39175000Y-63825000D02*
X39175000Y-60950000D01*
X38000000Y-65000000D02*
X39175000Y-63825000D01*
%TO.N,/BAT_RAW*%
X52507474Y-61675000D02*
X46725000Y-61675000D01*
X41615000Y-59500000D02*
X41450000Y-59665000D01*
D54*
X41450000Y-59250000D02*
X41450000Y-59750000D01*
D56*
X46725000Y-61675000D02*
X45550000Y-60500000D01*
X45550000Y-60500000D02*
X44550000Y-59500000D01*
X55000000Y-64167526D02*
X52507474Y-61675000D01*
X44550000Y-59500000D02*
X41615000Y-59500000D01*
%TO.N,Net-(U2-ILIM)*%
D54*
X34820000Y-62500000D02*
X36300000Y-62500000D01*
X36300000Y-62500000D02*
X38550000Y-60250000D01*
%TO.N,/RFO_IN*%
D52*
X37160147Y-32000000D02*
X37249936Y-32089789D01*
X37249936Y-32089789D02*
X37249936Y-33952680D01*
%TO.N,/RFI_N_OUT*%
X37749936Y-32120142D02*
X37749936Y-33952680D01*
X37870078Y-32000000D02*
X37749936Y-32120142D01*
%TO.N,/RFI_P_OUT*%
X38500000Y-32000000D02*
X38500000Y-32500000D01*
X38249936Y-32750064D02*
X38249936Y-33952680D01*
X38500000Y-32500000D02*
X38249936Y-32750064D01*
%TO.N,/RFI_IN*%
X43500000Y-31500000D02*
X39379984Y-31500000D01*
X39379984Y-31500000D02*
X38500000Y-30620016D01*
%TO.N,/PH3-BOOT0*%
D54*
X43000000Y-32000000D02*
X39500000Y-32000000D01*
X39500000Y-32000000D02*
X39000000Y-32500000D01*
X44085000Y-33085000D02*
X45415000Y-33085000D01*
X38750064Y-32921688D02*
X38750064Y-33952680D01*
X45415000Y-33085000D02*
X46500000Y-32000000D01*
X43500000Y-32500000D02*
X44085000Y-33085000D01*
X43500000Y-32500000D02*
X43000000Y-32000000D01*
X39000000Y-32500000D02*
X39000000Y-32671752D01*
X39000000Y-32671752D02*
X38750064Y-32921688D01*
%TO.N,/I2C1_SCL*%
D53*
X53000000Y-39500000D02*
X53000000Y-38680000D01*
X44122668Y-38749682D02*
X45920000Y-40547014D01*
X45920000Y-40580000D02*
X45920000Y-42420000D01*
X50000000Y-38000000D02*
X50820000Y-37180000D01*
X50820000Y-37180000D02*
X50820000Y-36500000D01*
X47500000Y-44000000D02*
X47500000Y-49000000D01*
X22141897Y-54698465D02*
X29801535Y-54698465D01*
X47000000Y-49500000D02*
X45500000Y-49500000D01*
X48500000Y-38000000D02*
X50000000Y-38000000D01*
X29801535Y-54698465D02*
X30000000Y-54500000D01*
X45500000Y-49500000D02*
X44000000Y-51000000D01*
X51899796Y-40600204D02*
X53000000Y-39500000D01*
X53000000Y-38680000D02*
X50820000Y-36500000D01*
X47500000Y-49000000D02*
X47000000Y-49500000D01*
X50880670Y-40600204D02*
X51899796Y-40600204D01*
X42547320Y-38749682D02*
X44122668Y-38749682D01*
X45920000Y-42420000D02*
X47500000Y-44000000D01*
X45920000Y-40580000D02*
X48500000Y-38000000D01*
X45920000Y-40547014D02*
X45920000Y-40580000D01*
%TO.N,/SPI1_SCK*%
X26560306Y-50939694D02*
X28250000Y-49250000D01*
X41750064Y-33952680D02*
X41750064Y-33577536D01*
X41750064Y-33577536D02*
X42111287Y-33216313D01*
X42111287Y-33216313D02*
X43000000Y-33216313D01*
X23509978Y-50939694D02*
X26560306Y-50939694D01*
%TO.N,/SPI1_MISO*%
X41249936Y-33582690D02*
X42166313Y-32666313D01*
X35000000Y-43500000D02*
X34000000Y-43500000D01*
X41249936Y-33952680D02*
X41249936Y-33582690D01*
X34000000Y-43500000D02*
X33500000Y-43000000D01*
%TO.N,/SPI1_MOSI*%
X40750064Y-33249936D02*
X41000000Y-33000000D01*
X40750064Y-33952680D02*
X40750064Y-33249936D01*
%TO.N,/EXP_SPI_CS0*%
X28760563Y-48500000D02*
X25562099Y-45301536D01*
X32000000Y-48500000D02*
X28760563Y-48500000D01*
X43250826Y-34749174D02*
X44000000Y-34000000D01*
X42547320Y-34749174D02*
X43250826Y-34749174D01*
%TO.N,/EXP_INT_WAKE*%
X31512592Y-43422152D02*
X26246139Y-43422152D01*
X43248920Y-37251080D02*
X43500000Y-37000000D01*
X35450000Y-42450000D02*
X32484744Y-42450000D01*
X36485992Y-42575000D02*
X35575000Y-42575000D01*
X42547320Y-37251080D02*
X43248920Y-37251080D01*
X35575000Y-42575000D02*
X35450000Y-42450000D01*
X32484744Y-42450000D02*
X31512592Y-43422152D01*
%TO.N,/EXP_GPIO_CS1*%
X26930180Y-41542768D02*
X28957232Y-41542768D01*
X40249936Y-33952680D02*
X40249936Y-32750064D01*
X28957232Y-41542768D02*
X29000000Y-41500000D01*
%TO.N,/SMPS_1V55*%
X34249301Y-36750699D02*
X32500000Y-38500000D01*
X42000000Y-46500000D02*
X42000000Y-43797638D01*
D54*
X28995000Y-36963342D02*
X28995000Y-34005000D01*
D53*
X30531658Y-38500000D02*
X28995000Y-36963342D01*
D54*
X29774911Y-33225089D02*
X33928595Y-33225089D01*
D53*
X32500000Y-38500000D02*
X30531658Y-38500000D01*
X35452680Y-36750699D02*
X34249301Y-36750699D01*
X42000000Y-43797638D02*
X40249682Y-42047320D01*
D54*
X38780000Y-46000000D02*
X38000000Y-45220000D01*
D53*
X38780000Y-46000000D02*
X41500000Y-46000000D01*
D54*
X28995000Y-34005000D02*
X29774911Y-33225089D01*
X33928595Y-33225089D02*
X35452680Y-34749174D01*
D53*
X42000000Y-46500000D02*
X42000000Y-50500000D01*
X29015829Y-37984171D02*
X29000000Y-38000000D01*
X41500000Y-46000000D02*
X42000000Y-46500000D01*
X28995000Y-36963342D02*
X29015829Y-36984171D01*
D54*
X40249682Y-41047320D02*
X40249682Y-42047320D01*
D53*
X29015829Y-36984171D02*
X29015829Y-37984171D01*
%TO.N,Net-(JP_TMR_DISABLE1-A)*%
X40180000Y-62500000D02*
X40180000Y-62680000D01*
X40180000Y-62680000D02*
X41000000Y-63500000D01*
X41000000Y-63500000D02*
X41000000Y-64500000D01*
X39750000Y-60700000D02*
X39750000Y-62070000D01*
X39750000Y-62070000D02*
X40180000Y-62500000D01*
%TO.N,Net-(U2-TS)*%
X43250000Y-60250000D02*
X41400000Y-60250000D01*
X45680000Y-63000000D02*
X45680000Y-62680000D01*
X45680000Y-62680000D02*
X43250000Y-60250000D01*
%TO.N,/PC14-OSC32_IN*%
D55*
X37249936Y-41047320D02*
X37249936Y-41443840D01*
X36693776Y-42000000D02*
X30750000Y-42000000D01*
X37249936Y-41443840D02*
X36693776Y-42000000D01*
%TO.N,/PC15-OSC32_OUT*%
X37750318Y-41047320D02*
X37750318Y-42183996D01*
X37750318Y-42183996D02*
X35684314Y-44250000D01*
X31500000Y-44250000D02*
X35684314Y-44250000D01*
%TO.N,/NRST*%
D53*
X49500000Y-52000000D02*
X49280000Y-52000000D01*
X39249936Y-33952680D02*
X39249936Y-33250064D01*
D54*
X48500000Y-52780000D02*
X55180000Y-52780000D01*
D53*
X49280000Y-52000000D02*
X48500000Y-52780000D01*
X39249936Y-33250064D02*
X39500000Y-33000000D01*
D54*
X55180000Y-52780000D02*
X55230000Y-52730000D01*
%TO.N,/SWDIO*%
D53*
X35452680Y-40250826D02*
X34250826Y-40250826D01*
X58040000Y-53000000D02*
X58500000Y-53000000D01*
X56500000Y-51460000D02*
X58040000Y-53000000D01*
%TO.N,/SWCLK*%
D54*
X56500000Y-52730000D02*
X57230000Y-52730000D01*
X57230000Y-52730000D02*
X58500000Y-54000000D01*
D53*
X38751080Y-41047320D02*
X38751080Y-43751080D01*
%TO.N,/SWO*%
X43249174Y-40250826D02*
X44000000Y-39500000D01*
X57056775Y-54000000D02*
X57606775Y-54550000D01*
X59050000Y-52550000D02*
X58500000Y-52000000D01*
X56500000Y-54000000D02*
X57056775Y-54000000D01*
X58727818Y-54550000D02*
X59050000Y-54227818D01*
X57606775Y-54550000D02*
X58727818Y-54550000D01*
X42547320Y-40250826D02*
X43249174Y-40250826D01*
X59050000Y-54227818D02*
X59050000Y-52550000D01*
%TO.N,Net-(U2-CE#)*%
X41500000Y-58750000D02*
X45430000Y-58750000D01*
X45430000Y-58750000D02*
X45680000Y-58500000D01*
%TO.N,/CHARGER_PGOOD_N*%
X39750000Y-57625001D02*
X39750000Y-58300000D01*
X39124999Y-57000000D02*
X39750000Y-57625001D01*
X36500000Y-57000000D02*
X39124999Y-57000000D01*
%TO.N,Net-(U1-VLXSMPS)*%
D54*
X41250445Y-41047320D02*
X41250445Y-41467310D01*
X41250445Y-41467310D02*
X41555455Y-41772320D01*
D53*
X46000000Y-46500000D02*
X46000000Y-45500000D01*
X46000000Y-45500000D02*
X42272320Y-41772320D01*
D54*
X41555455Y-41772320D02*
X42272320Y-41772320D01*
%TD*%
M02*
