%TF.GenerationSoftware,KiCad,Pcbnew,10.0.3*%
%TF.CreationDate,2026-05-20T09:56:52+02:00*%
%TF.ProjectId,vesta,76657374-612e-46b6-9963-61645f706362,1*%
%TF.SameCoordinates,Original*%
%TF.FileFunction,Paste,Top*%
%TF.FilePolarity,Positive*%
%FSLAX46Y46*%
G04 Gerber Fmt 4.6, Leading zero omitted, Abs format (unit mm)*
G04 Created by KiCad (PCBNEW 10.0.3) date 2026-05-20 09:56:52*
%MOMM*%
%LPD*%
G01*
G04 APERTURE LIST*
G04 Aperture macros list*
%AMRoundRect*
0 Rectangle with rounded corners*
0 $1 Rounding radius*
0 $2 $3 $4 $5 $6 $7 $8 $9 X,Y pos of 4 corners*
0 Add a 4 corners polygon primitive as box body*
4,1,4,$2,$3,$4,$5,$6,$7,$8,$9,$2,$3,0*
0 Add four circle primitives for the rounded corners*
1,1,$1+$1,$2,$3*
1,1,$1+$1,$4,$5*
1,1,$1+$1,$6,$7*
1,1,$1+$1,$8,$9*
0 Add four rect primitives between the rounded corners*
20,1,$1+$1,$2,$3,$4,$5,0*
20,1,$1+$1,$4,$5,$6,$7,0*
20,1,$1+$1,$6,$7,$8,$9,0*
20,1,$1+$1,$8,$9,$2,$3,0*%
%AMFreePoly0*
4,1,6,0.850000,-0.850000,-0.850000,-0.850000,-0.850000,0.425000,-0.425000,0.850000,0.850000,0.850000,0.850000,-0.850000,0.850000,-0.850000,$1*%
G04 Aperture macros list end*
%ADD10R,0.780010X0.350013*%
%ADD11RoundRect,0.140000X-0.140000X-0.170000X0.140000X-0.170000X0.140000X0.170000X-0.140000X0.170000X0*%
%ADD12RoundRect,0.225000X0.225000X0.250000X-0.225000X0.250000X-0.225000X-0.250000X0.225000X-0.250000X0*%
%ADD13RoundRect,0.200000X0.200000X0.275000X-0.200000X0.275000X-0.200000X-0.275000X0.200000X-0.275000X0*%
%ADD14R,0.900000X0.800000*%
%ADD15R,0.664999X0.280010*%
%ADD16R,1.200000X2.000000*%
%ADD17RoundRect,0.140000X0.140000X0.170000X-0.140000X0.170000X-0.140000X-0.170000X0.140000X-0.170000X0*%
%ADD18RoundRect,0.250000X0.275000X0.250000X-0.275000X0.250000X-0.275000X-0.250000X0.275000X-0.250000X0*%
%ADD19RoundRect,0.250000X0.850000X0.275000X-0.850000X0.275000X-0.850000X-0.275000X0.850000X-0.275000X0*%
%ADD20RoundRect,0.225000X-0.250000X0.225000X-0.250000X-0.225000X0.250000X-0.225000X0.250000X0.225000X0*%
%ADD21RoundRect,0.200000X-0.200000X-0.275000X0.200000X-0.275000X0.200000X0.275000X-0.200000X0.275000X0*%
%ADD22RoundRect,0.200000X-0.275000X0.200000X-0.275000X-0.200000X0.275000X-0.200000X0.275000X0.200000X0*%
%ADD23RoundRect,0.225000X0.250000X-0.225000X0.250000X0.225000X-0.250000X0.225000X-0.250000X-0.225000X0*%
%ADD24RoundRect,0.250000X-0.250000X-0.475000X0.250000X-0.475000X0.250000X0.475000X-0.250000X0.475000X0*%
%ADD25O,0.204013X0.204013*%
%ADD26RoundRect,0.225000X-0.225000X-0.250000X0.225000X-0.250000X0.225000X0.250000X-0.225000X0.250000X0*%
%ADD27R,0.889002X0.448006*%
%ADD28RoundRect,0.225000X0.375000X-0.225000X0.375000X0.225000X-0.375000X0.225000X-0.375000X-0.225000X0*%
%ADD29RoundRect,0.250000X0.250000X0.475000X-0.250000X0.475000X-0.250000X-0.475000X0.250000X-0.475000X0*%
%ADD30RoundRect,0.250000X-0.650000X-0.250000X0.650000X-0.250000X0.650000X0.250000X-0.650000X0.250000X0*%
%ADD31RoundRect,0.250000X0.475000X-0.250000X0.475000X0.250000X-0.475000X0.250000X-0.475000X-0.250000X0*%
%ADD32R,0.800000X2.200000*%
%ADD33O,0.850000X0.280000*%
%ADD34O,0.280000X0.850000*%
%ADD35FreePoly0,180.000000*%
%ADD36R,2.124003X4.220015*%
%ADD37O,0.900000X0.280010*%
%ADD38O,0.280010X0.900000*%
%ADD39R,5.600000X5.600000*%
G04 APERTURE END LIST*
D10*
%TO.C,U6*%
X44339980Y-26489967D03*
X44339980Y-25839980D03*
X44339980Y-25189993D03*
X42660020Y-25189993D03*
X42660020Y-25839980D03*
X42660020Y-26489967D03*
%TD*%
D11*
%TO.C,C16*%
X43500000Y-30500000D03*
X44500000Y-30500000D03*
%TD*%
D12*
%TO.C,C20*%
X40149987Y-26339980D03*
X38599987Y-26339980D03*
%TD*%
%TO.C,C10*%
X31280000Y-39500000D03*
X29720000Y-39500000D03*
%TD*%
D13*
%TO.C,R15*%
X50820000Y-35000000D03*
X49180000Y-35000000D03*
%TD*%
D14*
%TO.C,X2*%
X31700025Y-33950089D03*
X30299975Y-33950089D03*
X30299975Y-35049911D03*
X31700025Y-35049911D03*
%TD*%
D13*
%TO.C,R10*%
X46920000Y-54600000D03*
X45280000Y-54600000D03*
%TD*%
D15*
%TO.C,U3*%
X41657607Y-55180076D03*
X41657607Y-54679949D03*
X41657607Y-54180076D03*
X41657607Y-53679949D03*
X41657607Y-53180076D03*
X39342393Y-53180076D03*
X39342393Y-53679949D03*
X39342393Y-54180076D03*
X39342393Y-54679949D03*
X39342393Y-55180076D03*
D16*
X40499873Y-54180076D03*
%TD*%
D17*
%TO.C,C18*%
X36149987Y-25839980D03*
X35149987Y-25839980D03*
%TD*%
D13*
%TO.C,R9*%
X46920000Y-53100000D03*
X45280000Y-53100000D03*
%TD*%
D18*
%TO.C,U.FL1*%
X38750000Y-20500000D03*
D19*
X40250000Y-22000000D03*
X40250000Y-19000000D03*
%TD*%
D12*
%TO.C,C19*%
X44280000Y-29500000D03*
X42720000Y-29500000D03*
%TD*%
D13*
%TO.C,R2*%
X47320000Y-64500000D03*
X45680000Y-64500000D03*
%TD*%
D20*
%TO.C,C11*%
X39500000Y-45220000D03*
X39500000Y-46780000D03*
%TD*%
D21*
%TO.C,R5*%
X34860000Y-58500000D03*
X36500000Y-58500000D03*
%TD*%
D22*
%TO.C,R14*%
X33499619Y-45180000D03*
X33499619Y-46820000D03*
%TD*%
D23*
%TO.C,C2*%
X41657607Y-68475076D03*
X41657607Y-66925076D03*
%TD*%
D24*
%TO.C,C6*%
X33550000Y-52000000D03*
X35450000Y-52000000D03*
%TD*%
D21*
%TO.C,R1*%
X33180000Y-62500000D03*
X34820000Y-62500000D03*
%TD*%
D25*
%TO.C,FL1*%
X37160147Y-32000000D03*
X37870078Y-32000000D03*
X38500000Y-32000000D03*
X36820040Y-31225045D03*
X37660020Y-31310135D03*
X36820040Y-30620016D03*
X37660020Y-30620016D03*
X38500000Y-30620016D03*
%TD*%
D12*
%TO.C,C23*%
X53109870Y-48500000D03*
X51549870Y-48500000D03*
%TD*%
D20*
%TO.C,C8*%
X35000000Y-45220000D03*
X35000000Y-46780000D03*
%TD*%
D26*
%TO.C,C12*%
X45220000Y-41000000D03*
X46780000Y-41000000D03*
%TD*%
D17*
%TO.C,R11*%
X44500000Y-32500000D03*
X43500000Y-32500000D03*
%TD*%
D13*
%TO.C,R12*%
X44320000Y-28000000D03*
X42680000Y-28000000D03*
%TD*%
D20*
%TO.C,C7*%
X38000000Y-45220000D03*
X38000000Y-46780000D03*
%TD*%
D27*
%TO.C,U4*%
X50880669Y-42999998D03*
X50880670Y-42200152D03*
X50880669Y-41400050D03*
X50880670Y-40600204D03*
X53719633Y-40600203D03*
X53719633Y-41400050D03*
X53719634Y-42200152D03*
X53719634Y-43000000D03*
%TD*%
D11*
%TO.C,R13*%
X35149987Y-24839980D03*
X36149987Y-24839980D03*
%TD*%
D12*
%TO.C,C21*%
X40149987Y-24839980D03*
X38599987Y-24839980D03*
%TD*%
D13*
%TO.C,R3*%
X47320000Y-63000000D03*
X45680000Y-63000000D03*
%TD*%
D28*
%TO.C,D1*%
X38000000Y-68350076D03*
X38000000Y-65050076D03*
%TD*%
D29*
%TO.C,C5*%
X47450000Y-56500000D03*
X45550000Y-56500000D03*
%TD*%
D20*
%TO.C,C9*%
X36500000Y-45220000D03*
X36500000Y-46780000D03*
%TD*%
D24*
%TO.C,C14*%
X45550000Y-35500000D03*
X47450000Y-35500000D03*
%TD*%
D30*
%TO.C,X1*%
X31500000Y-41750000D03*
X31500000Y-44250000D03*
%TD*%
D23*
%TO.C,C15*%
X48500000Y-52780000D03*
X48500000Y-51220000D03*
%TD*%
D31*
%TO.C,C4*%
X51000000Y-60450000D03*
X51000000Y-58550000D03*
%TD*%
D32*
%TO.C,L1*%
X35157607Y-54700076D03*
X33157607Y-54700076D03*
%TD*%
D33*
%TO.C,U2*%
X41500000Y-60250189D03*
X41500000Y-59750000D03*
X41500000Y-59250191D03*
X41500000Y-58750000D03*
D34*
X40750000Y-58000000D03*
X40249809Y-58000000D03*
X39750000Y-58000000D03*
X39249811Y-58000000D03*
D33*
X38500000Y-58750000D03*
X38500000Y-59250191D03*
X38500000Y-59750000D03*
X38500000Y-60250189D03*
D34*
X39249811Y-61000000D03*
X39750000Y-61000000D03*
X40249809Y-61000000D03*
X40750000Y-61000000D03*
D35*
X39999873Y-59500127D03*
%TD*%
D21*
%TO.C,R7*%
X40180000Y-62500000D03*
X41820000Y-62500000D03*
%TD*%
D24*
%TO.C,C3*%
X45550000Y-60500000D03*
X47450000Y-60500000D03*
%TD*%
D12*
%TO.C,C13*%
X31280000Y-36500000D03*
X29720000Y-36500000D03*
%TD*%
D13*
%TO.C,R4*%
X47320000Y-58500000D03*
X45680000Y-58500000D03*
%TD*%
%TO.C,R16*%
X50820000Y-36500000D03*
X49180000Y-36500000D03*
%TD*%
D31*
%TO.C,C1*%
X43657607Y-68650076D03*
X43657607Y-66750076D03*
%TD*%
D12*
%TO.C,C22*%
X53109870Y-47000000D03*
X51549870Y-47000000D03*
%TD*%
D36*
%TO.C,L3*%
X46000000Y-46500000D03*
X42000000Y-46500000D03*
%TD*%
D37*
%TO.C,U1*%
X42547320Y-40250826D03*
X42547320Y-39750445D03*
X42547320Y-39250064D03*
X42547320Y-38749682D03*
X42547320Y-38249301D03*
X42547320Y-37748920D03*
X42547320Y-37251080D03*
X42547320Y-36750699D03*
X42547320Y-36250318D03*
X42547320Y-35749936D03*
X42547320Y-35249555D03*
X42547320Y-34749174D03*
D38*
X41750064Y-33952680D03*
X41249936Y-33952680D03*
X40750064Y-33952680D03*
X40249936Y-33952680D03*
X39750064Y-33952680D03*
X39249936Y-33952680D03*
X38750064Y-33952680D03*
X38249936Y-33952680D03*
X37750064Y-33952680D03*
X37249936Y-33952680D03*
X36750064Y-33952680D03*
X36249936Y-33952680D03*
D37*
X35452680Y-34749174D03*
X35452680Y-35249555D03*
X35452680Y-35749936D03*
X35452680Y-36250318D03*
X35452680Y-36750699D03*
X35452680Y-37251080D03*
X35452680Y-37748920D03*
X35452680Y-38249301D03*
X35452680Y-38749682D03*
X35452680Y-39250064D03*
X35452680Y-39750445D03*
X35452680Y-40250826D03*
D38*
X36249174Y-41047320D03*
X36749555Y-41047320D03*
X37249936Y-41047320D03*
X37750318Y-41047320D03*
X38250699Y-41047320D03*
X38751080Y-41047320D03*
X39248920Y-41047320D03*
X39749301Y-41047320D03*
X40249682Y-41047320D03*
X40750064Y-41047320D03*
X41250445Y-41047320D03*
X41750826Y-41047320D03*
D39*
X39000000Y-37500000D03*
%TD*%
D21*
%TO.C,R6*%
X34860000Y-57000000D03*
X36500000Y-57000000D03*
%TD*%
D11*
%TO.C,C17*%
X43500000Y-31500000D03*
X44500000Y-31500000D03*
%TD*%
D13*
%TO.C,R8*%
X46920000Y-51600000D03*
X45280000Y-51600000D03*
%TD*%
M02*
