%TF.GenerationSoftware,KiCad,Pcbnew,10.0.3*%
%TF.CreationDate,2026-05-20T09:56:52+02:00*%
%TF.ProjectId,vesta,76657374-612e-46b6-9963-61645f706362,1*%
%TF.SameCoordinates,Original*%
%TF.FileFunction,Copper,L3,Inr*%
%TF.FilePolarity,Positive*%
%FSLAX46Y46*%
G04 Gerber Fmt 4.6, Leading zero omitted, Abs format (unit mm)*
G04 Created by KiCad (PCBNEW 10.0.3) date 2026-05-20 09:56:52*
%MOMM*%
%LPD*%
G01*
G04 APERTURE LIST*
G04 Aperture macros list*
%AMRotRect*
0 Rectangle, with rotation*
0 The origin of the aperture is its center*
0 $1 length*
0 $2 width*
0 $3 Rotation angle, in degrees counterclockwise*
0 Add horizontal line*
21,1,$1,$2,0,0,$3*%
G04 Aperture macros list end*
%TA.AperFunction,ComponentPad*%
%ADD10R,1.524003X1.524003*%
%TD*%
%TA.AperFunction,ComponentPad*%
%ADD11O,1.524003X1.524003*%
%TD*%
%TA.AperFunction,ComponentPad*%
%ADD12RotRect,1.350000X1.350000X160.000000*%
%TD*%
%TA.AperFunction,ComponentPad*%
%ADD13C,1.350000*%
%TD*%
%TA.AperFunction,ViaPad*%
%ADD14C,0.600000*%
%TD*%
%TA.AperFunction,ViaPad*%
%ADD15C,0.900000*%
%TD*%
%TA.AperFunction,Conductor*%
%ADD16C,0.200000*%
%TD*%
G04 APERTURE END LIST*
D10*
%TO.N,/BAT_RAW*%
%TO.C,BATTERY1*%
X55000000Y-64167526D03*
D11*
%TO.N,GND*%
X53000000Y-64167526D03*
%TD*%
D12*
%TO.N,/3V3_SYS*%
%TO.C,J_EXP1*%
X20773817Y-58457235D03*
D13*
%TO.N,GND*%
X21457858Y-56577849D03*
%TO.N,/I2C1_SCL*%
X22141897Y-54698465D03*
%TO.N,/I2C1_SDA*%
X22825938Y-52819079D03*
%TO.N,/SPI1_SCK*%
X23509978Y-50939694D03*
%TO.N,/SPI1_MISO*%
X24194019Y-49060308D03*
%TO.N,/SPI1_MOSI*%
X24878059Y-47180925D03*
%TO.N,/EXP_SPI_CS0*%
X25562099Y-45301536D03*
%TO.N,/EXP_INT_WAKE*%
X26246139Y-43422152D03*
%TO.N,/EXP_GPIO_CS1*%
X26930180Y-41542768D03*
%TD*%
D10*
%TO.N,/VIN_SOLAR*%
%TO.C,J1*%
X28500000Y-64167526D03*
D11*
%TO.N,GND*%
X26500000Y-64167526D03*
%TD*%
D10*
%TO.N,/VIN_SOLAR*%
%TO.C,J2*%
X41500000Y-71000000D03*
D11*
%TO.N,GND*%
X39500000Y-71000000D03*
%TD*%
D14*
%TO.N,GND*%
X45500000Y-26000000D03*
X43000000Y-41500000D03*
X41000000Y-56500000D03*
X35500000Y-31500000D03*
X50360000Y-49360000D03*
X28000000Y-39000000D03*
X45500000Y-28000000D03*
D15*
X47000000Y-42500000D03*
D14*
X33000000Y-35000000D03*
X54500000Y-61500000D03*
X37500000Y-24500000D03*
X40499873Y-49500000D03*
X47500000Y-30500000D03*
X43500000Y-22000000D03*
X32000000Y-37500000D03*
%TO.N,/RF_SW_CTRL*%
X44000000Y-24000000D03*
X34000000Y-38500000D03*
%TO.N,/3V3_SYS*%
X33500000Y-36500000D03*
X42000000Y-42500000D03*
X40500000Y-29000000D03*
D15*
X52500000Y-50000000D03*
X52200152Y-42200152D03*
D14*
X35700000Y-49020381D03*
X40500000Y-44000000D03*
X44500000Y-42000000D03*
X32390000Y-40610000D03*
X44000000Y-35249555D03*
%TO.N,/I2C1_SDA*%
X30000000Y-52500000D03*
X46500000Y-38000000D03*
%TO.N,/I2C1_SCL*%
X30000000Y-54500000D03*
X44000000Y-51000000D03*
%TO.N,/SPI1_SCK*%
X28250000Y-49250000D03*
X43000000Y-33216313D03*
%TO.N,/SPI1_MISO*%
X33500000Y-43000000D03*
X33500000Y-43000000D03*
X33500000Y-43000000D03*
X33500000Y-43000000D03*
X35000000Y-43500000D03*
X42166313Y-32666313D03*
%TO.N,/SPI1_MOSI*%
X41000000Y-33000000D03*
%TO.N,/EXP_SPI_CS0*%
X32000000Y-48500000D03*
X44000000Y-34000000D03*
X44000000Y-34000000D03*
%TO.N,/EXP_INT_WAKE*%
X36485992Y-42575000D03*
X43500000Y-37000000D03*
%TO.N,/EXP_GPIO_CS1*%
X29000000Y-41500000D03*
X40249936Y-32750064D03*
%TO.N,/SMPS_1V55*%
X29000000Y-38000000D03*
X42000000Y-50500000D03*
%TO.N,/NRST*%
X49500000Y-52000000D03*
X39500000Y-33000000D03*
%TO.N,/SWDIO*%
X58500000Y-53000000D03*
X34250826Y-40250826D03*
%TO.N,/SWCLK*%
X38751080Y-43751080D03*
X58500000Y-54000000D03*
%TO.N,/SWO*%
X44000000Y-39500000D03*
X58500000Y-52000000D03*
%TD*%
%TO.N,/SMPS_1V55*%
D16*
X42000000Y-50500000D02*
X40222182Y-50500000D01*
X40222182Y-50500000D02*
X29000000Y-39277818D01*
X29000000Y-39277818D02*
X29000000Y-38000000D01*
%TO.N,/SWDIO*%
X54450000Y-47500000D02*
X57500000Y-50550000D01*
X34550000Y-40550000D02*
X34250826Y-40250826D01*
X51650000Y-47150000D02*
X52000000Y-47500000D01*
X57500000Y-52000000D02*
X58500000Y-53000000D01*
X38500000Y-40550000D02*
X34550000Y-40550000D01*
X52000000Y-47500000D02*
X54450000Y-47500000D01*
X45100000Y-47150000D02*
X38500000Y-40550000D01*
X57500000Y-50550000D02*
X57500000Y-52000000D01*
X51650000Y-47150000D02*
X45100000Y-47150000D01*
%TD*%
%TA.AperFunction,Conductor*%
%TO.N,/3V3_SYS*%
G36*
X40513129Y-17957568D02*
G01*
X40523600Y-17958296D01*
X40960657Y-18007378D01*
X40971140Y-18009012D01*
X41403509Y-18095565D01*
X41413792Y-18098086D01*
X41842240Y-18222779D01*
X41852179Y-18226134D01*
X41996623Y-18281815D01*
X42277600Y-18390128D01*
X42287042Y-18394225D01*
X42711342Y-18599684D01*
X42717968Y-18603143D01*
X42927242Y-18720618D01*
X42931456Y-18723094D01*
X43142753Y-18852963D01*
X43146771Y-18855542D01*
X43356738Y-18996107D01*
X43360564Y-18998774D01*
X43571127Y-19151621D01*
X43574796Y-19154390D01*
X43628840Y-19196768D01*
X43784496Y-19318823D01*
X43787963Y-19321645D01*
X43987421Y-19490035D01*
X44008821Y-19513400D01*
X44392819Y-20058838D01*
X44395287Y-20062479D01*
X44980454Y-20959655D01*
X44982284Y-20962546D01*
X45709796Y-22148233D01*
X45711295Y-22150744D01*
X46547104Y-23587888D01*
X46548363Y-23590104D01*
X47452981Y-25222568D01*
X47473691Y-25259940D01*
X47474786Y-25261960D01*
X47592806Y-25484612D01*
X48477253Y-27153178D01*
X48478220Y-27155040D01*
X49549104Y-29260688D01*
X49549965Y-29262414D01*
X49848147Y-29871995D01*
X50682630Y-31577948D01*
X50682631Y-31577949D01*
X50683396Y-31579541D01*
X50952770Y-32150924D01*
X51872723Y-34102280D01*
X51873422Y-34103789D01*
X53115081Y-36831804D01*
X53115717Y-36833225D01*
X54406187Y-39765619D01*
X54406769Y-39766963D01*
X55743037Y-42903402D01*
X55743572Y-42904677D01*
X57122972Y-46245148D01*
X57123465Y-46246361D01*
X58543684Y-49791300D01*
X58544140Y-49792456D01*
X59066356Y-51134744D01*
X59072318Y-51204358D01*
X59039697Y-51266145D01*
X58978850Y-51300487D01*
X58909095Y-51296481D01*
X58888483Y-51286115D01*
X58888338Y-51286387D01*
X58882969Y-51283517D01*
X58735831Y-51222570D01*
X58735823Y-51222568D01*
X58579634Y-51191500D01*
X58579630Y-51191500D01*
X58420370Y-51191500D01*
X58420365Y-51191500D01*
X58258194Y-51223758D01*
X58257718Y-51221366D01*
X58198561Y-51221861D01*
X58139469Y-51184579D01*
X58109914Y-51121268D01*
X58108500Y-51102596D01*
X58108500Y-50469891D01*
X58108500Y-50469889D01*
X58067032Y-50315128D01*
X58048781Y-50283517D01*
X57986923Y-50176375D01*
X57986918Y-50176369D01*
X54823629Y-47013080D01*
X54823627Y-47013078D01*
X54684873Y-46932968D01*
X54607491Y-46912234D01*
X54607490Y-46912233D01*
X54550844Y-46897055D01*
X54530111Y-46891500D01*
X54530110Y-46891500D01*
X52303411Y-46891500D01*
X52236372Y-46871815D01*
X52215730Y-46855181D01*
X52023629Y-46663080D01*
X52023627Y-46663078D01*
X51884873Y-46582968D01*
X51801528Y-46560636D01*
X51801527Y-46560635D01*
X51749246Y-46546627D01*
X51730111Y-46541500D01*
X51730110Y-46541500D01*
X45403411Y-46541500D01*
X45336372Y-46521815D01*
X45315730Y-46505181D01*
X41216140Y-42405591D01*
X46041500Y-42405591D01*
X46041500Y-42594408D01*
X46078332Y-42779576D01*
X46078334Y-42779584D01*
X46150586Y-42954017D01*
X46150591Y-42954026D01*
X46255483Y-43111007D01*
X46255486Y-43111011D01*
X46388988Y-43244513D01*
X46388992Y-43244516D01*
X46545973Y-43349408D01*
X46545982Y-43349413D01*
X46553266Y-43352430D01*
X46720416Y-43421666D01*
X46905591Y-43458499D01*
X46905595Y-43458500D01*
X46905596Y-43458500D01*
X47094405Y-43458500D01*
X47094406Y-43458499D01*
X47279584Y-43421666D01*
X47454020Y-43349412D01*
X47611008Y-43244516D01*
X47744516Y-43111008D01*
X47849412Y-42954020D01*
X47921666Y-42779584D01*
X47958500Y-42594404D01*
X47958500Y-42405596D01*
X47921666Y-42220416D01*
X47849412Y-42045980D01*
X47849411Y-42045979D01*
X47849408Y-42045973D01*
X47744516Y-41888992D01*
X47744513Y-41888988D01*
X47611011Y-41755486D01*
X47611007Y-41755483D01*
X47454026Y-41650591D01*
X47454017Y-41650586D01*
X47279584Y-41578334D01*
X47279576Y-41578332D01*
X47094408Y-41541500D01*
X47094404Y-41541500D01*
X46905596Y-41541500D01*
X46905591Y-41541500D01*
X46720423Y-41578332D01*
X46720415Y-41578334D01*
X46545982Y-41650586D01*
X46545973Y-41650591D01*
X46388992Y-41755483D01*
X46388988Y-41755486D01*
X46255486Y-41888988D01*
X46255483Y-41888992D01*
X46150591Y-42045973D01*
X46150586Y-42045982D01*
X46078334Y-42220415D01*
X46078332Y-42220423D01*
X46041500Y-42405591D01*
X41216140Y-42405591D01*
X40230914Y-41420365D01*
X42191500Y-41420365D01*
X42191500Y-41579634D01*
X42222568Y-41735823D01*
X42222570Y-41735831D01*
X42283517Y-41882969D01*
X42371995Y-42015387D01*
X42372001Y-42015394D01*
X42484605Y-42127998D01*
X42484612Y-42128004D01*
X42617030Y-42216482D01*
X42617031Y-42216482D01*
X42617032Y-42216483D01*
X42764169Y-42277430D01*
X42920365Y-42308499D01*
X42920369Y-42308500D01*
X42920370Y-42308500D01*
X43079631Y-42308500D01*
X43079632Y-42308499D01*
X43124243Y-42299626D01*
X43233536Y-42277887D01*
X43234584Y-42277677D01*
X43235831Y-42277430D01*
X43382968Y-42216483D01*
X43515389Y-42128003D01*
X43628003Y-42015389D01*
X43716483Y-41882968D01*
X43777430Y-41735831D01*
X43808500Y-41579630D01*
X43808500Y-41420370D01*
X43777430Y-41264169D01*
X43716483Y-41117032D01*
X43697393Y-41088462D01*
X43628004Y-40984612D01*
X43627998Y-40984605D01*
X43515394Y-40872001D01*
X43515387Y-40871995D01*
X43382969Y-40783517D01*
X43235831Y-40722570D01*
X43235823Y-40722568D01*
X43079634Y-40691500D01*
X43079630Y-40691500D01*
X42920370Y-40691500D01*
X42920365Y-40691500D01*
X42764176Y-40722568D01*
X42764168Y-40722570D01*
X42617030Y-40783517D01*
X42484612Y-40871995D01*
X42484605Y-40872001D01*
X42372001Y-40984605D01*
X42371995Y-40984612D01*
X42283517Y-41117030D01*
X42222570Y-41264168D01*
X42222568Y-41264176D01*
X42191500Y-41420365D01*
X40230914Y-41420365D01*
X38873629Y-40063080D01*
X38873627Y-40063078D01*
X38790345Y-40014995D01*
X38734874Y-39982968D01*
X38587974Y-39943607D01*
X38587974Y-39943606D01*
X38587971Y-39943606D01*
X38580113Y-39941500D01*
X38580111Y-39941500D01*
X35080667Y-39941500D01*
X35013628Y-39921815D01*
X34971103Y-39872739D01*
X34970182Y-39873232D01*
X34968010Y-39869169D01*
X34967873Y-39869011D01*
X34967641Y-39868478D01*
X34967308Y-39867856D01*
X34878830Y-39735438D01*
X34878824Y-39735431D01*
X34766220Y-39622827D01*
X34766213Y-39622821D01*
X34633797Y-39534344D01*
X34620506Y-39528839D01*
X34620504Y-39528838D01*
X34486657Y-39473396D01*
X34486649Y-39473394D01*
X34398504Y-39455861D01*
X34336593Y-39423476D01*
X34334821Y-39420365D01*
X43191500Y-39420365D01*
X43191500Y-39579634D01*
X43222568Y-39735823D01*
X43222570Y-39735831D01*
X43283517Y-39882969D01*
X43371995Y-40015387D01*
X43372001Y-40015394D01*
X43484605Y-40127998D01*
X43484612Y-40128004D01*
X43617030Y-40216482D01*
X43617031Y-40216482D01*
X43617032Y-40216483D01*
X43764169Y-40277430D01*
X43920365Y-40308499D01*
X43920369Y-40308500D01*
X43920370Y-40308500D01*
X44079631Y-40308500D01*
X44079632Y-40308499D01*
X44235831Y-40277430D01*
X44382968Y-40216483D01*
X44515389Y-40128003D01*
X44628003Y-40015389D01*
X44716483Y-39882968D01*
X44777430Y-39735831D01*
X44808500Y-39579630D01*
X44808500Y-39420370D01*
X44777430Y-39264169D01*
X44716483Y-39117032D01*
X44716482Y-39117030D01*
X44716482Y-39117029D01*
X44641984Y-39005535D01*
X44641983Y-39005534D01*
X44628001Y-38984608D01*
X44586995Y-38943602D01*
X48499500Y-38943602D01*
X48499500Y-44556397D01*
X48524594Y-44666342D01*
X48524596Y-44666348D01*
X48524597Y-44666350D01*
X48534859Y-44687659D01*
X48536067Y-44692167D01*
X48541870Y-44702219D01*
X48543884Y-44706400D01*
X48543884Y-44706401D01*
X48573532Y-44767967D01*
X48590552Y-44789310D01*
X48596350Y-44796580D01*
X48601612Y-44805694D01*
X48611522Y-44815604D01*
X48615859Y-44821042D01*
X48615863Y-44821047D01*
X48643850Y-44856142D01*
X48643851Y-44856143D01*
X48643852Y-44856144D01*
X48643854Y-44856146D01*
X48678951Y-44884135D01*
X48678950Y-44884135D01*
X48684395Y-44888477D01*
X48694306Y-44898388D01*
X48703425Y-44903653D01*
X48732033Y-44926467D01*
X48732036Y-44926468D01*
X48732037Y-44926469D01*
X48793591Y-44956112D01*
X48793592Y-44956112D01*
X48797778Y-44958128D01*
X48807833Y-44963933D01*
X48812340Y-44965140D01*
X48833650Y-44975403D01*
X48943607Y-45000500D01*
X54565890Y-45000500D01*
X54565892Y-45000500D01*
X54693186Y-44966392D01*
X54807314Y-44900500D01*
X54825985Y-44881828D01*
X54829114Y-44879818D01*
X54836361Y-44871452D01*
X54900500Y-44807314D01*
X54917595Y-44777703D01*
X54922790Y-44771710D01*
X54929345Y-44757351D01*
X54966392Y-44693186D01*
X54977382Y-44652167D01*
X54982213Y-44641591D01*
X54984522Y-44625520D01*
X55000500Y-44565892D01*
X55000500Y-44514403D01*
X55002571Y-44500000D01*
X55000500Y-44485596D01*
X55000500Y-44434109D01*
X55000499Y-44434105D01*
X54991043Y-44398814D01*
X54984523Y-44374483D01*
X54982213Y-44358409D01*
X54977383Y-44347833D01*
X54966392Y-44306814D01*
X54932308Y-44247778D01*
X54929350Y-44242656D01*
X54922790Y-44228290D01*
X54917593Y-44222292D01*
X54914239Y-44216483D01*
X54900500Y-44192686D01*
X54836370Y-44128556D01*
X54829114Y-44120182D01*
X54825985Y-44118171D01*
X54807316Y-44099502D01*
X54807314Y-44099500D01*
X54750250Y-44066554D01*
X54693187Y-44033608D01*
X54625184Y-44015387D01*
X54565892Y-43999500D01*
X54565891Y-43999500D01*
X50006963Y-43999500D01*
X49993078Y-43998720D01*
X49906679Y-43988984D01*
X49888468Y-43985538D01*
X49877049Y-43982478D01*
X49868192Y-43979746D01*
X49796462Y-43954648D01*
X49771442Y-43942599D01*
X49700395Y-43897956D01*
X49678687Y-43880644D01*
X49619355Y-43821312D01*
X49602046Y-43799610D01*
X49557393Y-43728545D01*
X49545353Y-43703543D01*
X49520251Y-43631804D01*
X49517520Y-43622949D01*
X49514458Y-43611523D01*
X49511015Y-43593326D01*
X49501280Y-43506921D01*
X49500500Y-43493038D01*
X49500500Y-40006960D01*
X49501280Y-39993077D01*
X49506854Y-39943606D01*
X49511016Y-39906670D01*
X49514455Y-39888487D01*
X49517528Y-39877020D01*
X49520246Y-39868210D01*
X49545355Y-39796452D01*
X49557391Y-39771457D01*
X49602049Y-39700386D01*
X49619352Y-39678690D01*
X49678690Y-39619352D01*
X49700386Y-39602049D01*
X49771457Y-39557391D01*
X49796452Y-39545355D01*
X49868210Y-39520246D01*
X49877020Y-39517528D01*
X49888487Y-39514455D01*
X49906670Y-39511016D01*
X49993078Y-39501279D01*
X50006960Y-39500500D01*
X51565890Y-39500500D01*
X51565892Y-39500500D01*
X51693186Y-39466392D01*
X51807314Y-39400500D01*
X51825985Y-39381828D01*
X51829114Y-39379818D01*
X51836361Y-39371452D01*
X51900500Y-39307314D01*
X51917595Y-39277703D01*
X51922790Y-39271710D01*
X51929345Y-39257351D01*
X51966392Y-39193186D01*
X51977382Y-39152167D01*
X51982213Y-39141591D01*
X51984522Y-39125520D01*
X52000500Y-39065892D01*
X52000500Y-39014403D01*
X52002571Y-39000000D01*
X52000500Y-38985596D01*
X52000500Y-38934109D01*
X52000499Y-38934105D01*
X51996819Y-38920370D01*
X51984523Y-38874483D01*
X51982213Y-38858409D01*
X51977383Y-38847833D01*
X51966392Y-38806814D01*
X51932308Y-38747778D01*
X51929350Y-38742656D01*
X51922790Y-38728290D01*
X51917593Y-38722292D01*
X51914239Y-38716483D01*
X51900500Y-38692686D01*
X51836370Y-38628556D01*
X51829114Y-38620182D01*
X51825985Y-38618171D01*
X51807316Y-38599502D01*
X51807314Y-38599500D01*
X51721519Y-38549966D01*
X51693187Y-38533608D01*
X51616365Y-38513024D01*
X51565892Y-38499500D01*
X51500207Y-38499500D01*
X49000500Y-38499500D01*
X49000000Y-38499500D01*
X48943607Y-38499500D01*
X48943602Y-38499500D01*
X48833649Y-38524596D01*
X48822804Y-38529819D01*
X48812332Y-38534861D01*
X48807833Y-38536067D01*
X48797802Y-38541857D01*
X48793614Y-38543875D01*
X48732033Y-38573532D01*
X48732032Y-38573532D01*
X48710684Y-38590557D01*
X48710682Y-38590559D01*
X48703417Y-38596351D01*
X48694306Y-38601612D01*
X48684411Y-38611506D01*
X48678958Y-38615855D01*
X48678955Y-38615859D01*
X48643853Y-38643853D01*
X48615859Y-38678955D01*
X48611513Y-38684404D01*
X48601612Y-38694306D01*
X48596350Y-38703419D01*
X48590559Y-38710682D01*
X48590557Y-38710682D01*
X48590557Y-38710684D01*
X48573532Y-38732032D01*
X48573532Y-38732033D01*
X48543877Y-38793607D01*
X48543878Y-38793608D01*
X48541858Y-38797802D01*
X48536067Y-38807833D01*
X48534861Y-38812331D01*
X48529819Y-38822803D01*
X48529819Y-38822804D01*
X48524596Y-38833649D01*
X48499500Y-38943602D01*
X44586995Y-38943602D01*
X44515394Y-38872001D01*
X44515387Y-38871995D01*
X44382969Y-38783517D01*
X44235831Y-38722570D01*
X44235823Y-38722568D01*
X44079634Y-38691500D01*
X44079630Y-38691500D01*
X43920370Y-38691500D01*
X43920365Y-38691500D01*
X43764176Y-38722568D01*
X43764168Y-38722570D01*
X43617030Y-38783517D01*
X43484612Y-38871995D01*
X43484605Y-38872001D01*
X43372001Y-38984605D01*
X43371995Y-38984612D01*
X43283517Y-39117030D01*
X43222570Y-39264168D01*
X43222568Y-39264176D01*
X43191500Y-39420365D01*
X34334821Y-39420365D01*
X34302019Y-39362761D01*
X34305758Y-39292991D01*
X34346624Y-39236319D01*
X34375245Y-39219682D01*
X34382968Y-39216483D01*
X34515389Y-39128003D01*
X34628003Y-39015389D01*
X34716483Y-38882968D01*
X34777430Y-38735831D01*
X34808500Y-38579630D01*
X34808500Y-38420370D01*
X34777430Y-38264169D01*
X34716483Y-38117032D01*
X34648571Y-38015394D01*
X34628004Y-37984612D01*
X34627998Y-37984605D01*
X34563758Y-37920365D01*
X45691500Y-37920365D01*
X45691500Y-38079634D01*
X45722568Y-38235823D01*
X45722570Y-38235831D01*
X45783517Y-38382969D01*
X45871995Y-38515387D01*
X45872001Y-38515394D01*
X45984605Y-38627998D01*
X45984612Y-38628004D01*
X46117030Y-38716482D01*
X46117031Y-38716482D01*
X46117032Y-38716483D01*
X46264169Y-38777430D01*
X46411889Y-38806813D01*
X46420365Y-38808499D01*
X46420369Y-38808500D01*
X46420370Y-38808500D01*
X46579631Y-38808500D01*
X46579632Y-38808499D01*
X46735831Y-38777430D01*
X46882968Y-38716483D01*
X47015389Y-38628003D01*
X47128003Y-38515389D01*
X47216483Y-38382968D01*
X47277430Y-38235831D01*
X47308500Y-38079630D01*
X47308500Y-37920370D01*
X47277430Y-37764169D01*
X47216483Y-37617032D01*
X47148571Y-37515394D01*
X47128004Y-37484612D01*
X47127998Y-37484605D01*
X47015394Y-37372001D01*
X47015387Y-37371995D01*
X46882969Y-37283517D01*
X46735831Y-37222570D01*
X46735823Y-37222568D01*
X46579634Y-37191500D01*
X46579630Y-37191500D01*
X46420370Y-37191500D01*
X46420365Y-37191500D01*
X46264176Y-37222568D01*
X46264168Y-37222570D01*
X46117030Y-37283517D01*
X45984612Y-37371995D01*
X45984605Y-37372001D01*
X45872001Y-37484605D01*
X45871995Y-37484612D01*
X45783517Y-37617030D01*
X45722570Y-37764168D01*
X45722568Y-37764176D01*
X45691500Y-37920365D01*
X34563758Y-37920365D01*
X34515394Y-37872001D01*
X34515387Y-37871995D01*
X34382969Y-37783517D01*
X34235831Y-37722570D01*
X34235823Y-37722568D01*
X34079634Y-37691500D01*
X34079630Y-37691500D01*
X33920370Y-37691500D01*
X33920365Y-37691500D01*
X33764176Y-37722568D01*
X33764168Y-37722570D01*
X33617030Y-37783517D01*
X33484612Y-37871995D01*
X33484605Y-37872001D01*
X33372001Y-37984605D01*
X33371995Y-37984612D01*
X33283517Y-38117030D01*
X33222570Y-38264168D01*
X33222568Y-38264176D01*
X33191500Y-38420365D01*
X33191500Y-38579634D01*
X33222568Y-38735823D01*
X33222570Y-38735831D01*
X33283517Y-38882969D01*
X33371995Y-39015387D01*
X33372001Y-39015394D01*
X33484605Y-39127998D01*
X33484612Y-39128004D01*
X33617030Y-39216482D01*
X33617031Y-39216482D01*
X33617032Y-39216483D01*
X33764169Y-39277430D01*
X33852323Y-39294964D01*
X33914231Y-39327348D01*
X33948806Y-39388063D01*
X33945067Y-39457833D01*
X33904201Y-39514505D01*
X33875590Y-39531139D01*
X33867860Y-39534341D01*
X33867856Y-39534343D01*
X33735438Y-39622821D01*
X33735431Y-39622827D01*
X33622827Y-39735431D01*
X33622821Y-39735438D01*
X33534343Y-39867856D01*
X33473396Y-40014994D01*
X33473394Y-40015002D01*
X33442326Y-40171191D01*
X33442326Y-40330460D01*
X33473394Y-40486649D01*
X33473396Y-40486657D01*
X33534343Y-40633795D01*
X33622821Y-40766213D01*
X33622827Y-40766220D01*
X33735431Y-40878824D01*
X33735438Y-40878830D01*
X33867856Y-40967308D01*
X33867857Y-40967308D01*
X33867858Y-40967309D01*
X34014995Y-41028256D01*
X34171191Y-41059325D01*
X34171195Y-41059326D01*
X34171196Y-41059326D01*
X34181952Y-41059326D01*
X34243951Y-41075938D01*
X34315127Y-41117032D01*
X34392508Y-41137766D01*
X34469889Y-41158500D01*
X34469890Y-41158500D01*
X34630110Y-41158500D01*
X38196589Y-41158500D01*
X38263628Y-41178185D01*
X38284270Y-41194819D01*
X44726373Y-47636922D01*
X44820905Y-47691500D01*
X44865128Y-47717032D01*
X45019889Y-47758500D01*
X45019890Y-47758500D01*
X45180111Y-47758500D01*
X51346589Y-47758500D01*
X51413628Y-47778185D01*
X51434270Y-47794819D01*
X51626367Y-47986917D01*
X51626369Y-47986918D01*
X51626373Y-47986922D01*
X51629109Y-47988501D01*
X51629121Y-47988514D01*
X51629124Y-47988510D01*
X51765128Y-48067032D01*
X51919889Y-48108500D01*
X51919890Y-48108500D01*
X52080110Y-48108500D01*
X54146589Y-48108500D01*
X54213628Y-48128185D01*
X54234270Y-48144819D01*
X55468913Y-49379462D01*
X55502398Y-49440785D01*
X55497414Y-49510477D01*
X55455542Y-49566410D01*
X55450123Y-49570245D01*
X55389580Y-49610698D01*
X55389576Y-49610701D01*
X55285701Y-49714576D01*
X55285698Y-49714580D01*
X55204083Y-49836724D01*
X55204078Y-49836733D01*
X55147861Y-49972455D01*
X55147858Y-49972465D01*
X55119200Y-50116540D01*
X55119200Y-50263459D01*
X55147858Y-50407534D01*
X55147860Y-50407542D01*
X55153173Y-50420369D01*
X55204078Y-50543266D01*
X55204083Y-50543275D01*
X55285698Y-50665419D01*
X55285701Y-50665423D01*
X55389576Y-50769298D01*
X55389580Y-50769301D01*
X55511724Y-50850916D01*
X55511733Y-50850921D01*
X55536800Y-50861304D01*
X55647458Y-50907140D01*
X55791540Y-50935799D01*
X55791544Y-50935800D01*
X55791545Y-50935800D01*
X55938456Y-50935800D01*
X55938457Y-50935799D01*
X56082542Y-50907140D01*
X56218269Y-50850920D01*
X56340420Y-50769301D01*
X56444301Y-50665420D01*
X56484755Y-50604877D01*
X56538367Y-50560072D01*
X56607692Y-50551365D01*
X56670720Y-50581519D01*
X56675538Y-50586087D01*
X56855181Y-50765730D01*
X56888666Y-50827053D01*
X56891500Y-50853411D01*
X56891500Y-51919890D01*
X56891500Y-52080110D01*
X56901393Y-52117030D01*
X56932968Y-52234874D01*
X56949882Y-52264169D01*
X57013078Y-52373627D01*
X57013080Y-52373629D01*
X57658053Y-53018602D01*
X57691538Y-53079925D01*
X57691989Y-53082092D01*
X57722568Y-53235823D01*
X57722570Y-53235831D01*
X57739801Y-53277431D01*
X57783517Y-53382968D01*
X57815683Y-53431108D01*
X57815684Y-53431110D01*
X57836561Y-53497788D01*
X57818076Y-53565168D01*
X57815684Y-53568890D01*
X57783516Y-53617033D01*
X57722570Y-53764168D01*
X57722568Y-53764176D01*
X57691500Y-53920365D01*
X57691500Y-54079634D01*
X57722568Y-54235823D01*
X57722570Y-54235831D01*
X57783517Y-54382969D01*
X57871995Y-54515387D01*
X57872001Y-54515394D01*
X57984605Y-54627998D01*
X57984612Y-54628004D01*
X58117030Y-54716482D01*
X58117031Y-54716482D01*
X58117032Y-54716483D01*
X58264169Y-54777430D01*
X58420365Y-54808499D01*
X58420369Y-54808500D01*
X58420370Y-54808500D01*
X58579631Y-54808500D01*
X58579632Y-54808499D01*
X58735831Y-54777430D01*
X58882968Y-54716483D01*
X59015389Y-54628003D01*
X59128003Y-54515389D01*
X59216483Y-54382968D01*
X59277430Y-54235831D01*
X59308500Y-54079630D01*
X59308500Y-53920370D01*
X59277430Y-53764169D01*
X59216483Y-53617032D01*
X59216481Y-53617029D01*
X59216478Y-53617023D01*
X59184317Y-53568892D01*
X59163438Y-53502215D01*
X59181922Y-53434834D01*
X59184317Y-53431108D01*
X59216478Y-53382976D01*
X59216479Y-53382973D01*
X59216483Y-53382968D01*
X59277430Y-53235831D01*
X59308500Y-53079630D01*
X59308500Y-52920370D01*
X59277430Y-52764169D01*
X59216483Y-52617032D01*
X59216481Y-52617029D01*
X59216478Y-52617023D01*
X59184317Y-52568892D01*
X59180813Y-52557702D01*
X59173361Y-52548651D01*
X59170563Y-52524970D01*
X59163438Y-52502215D01*
X59166331Y-52489145D01*
X59165164Y-52479264D01*
X59172730Y-52460239D01*
X59175958Y-52445661D01*
X59179641Y-52438105D01*
X59216483Y-52382968D01*
X59272771Y-52247077D01*
X59274420Y-52243696D01*
X59295513Y-52220558D01*
X59315160Y-52196179D01*
X59318863Y-52194946D01*
X59321492Y-52192063D01*
X59351746Y-52184001D01*
X59381454Y-52174114D01*
X59385234Y-52175078D01*
X59389006Y-52174074D01*
X59418817Y-52183650D01*
X59449153Y-52191393D01*
X59451812Y-52194249D01*
X59455528Y-52195443D01*
X59475424Y-52219610D01*
X59496764Y-52242530D01*
X59499649Y-52249034D01*
X59499937Y-52249384D01*
X59499985Y-52249791D01*
X59501442Y-52253076D01*
X60003098Y-53542517D01*
X60003418Y-53543346D01*
X60744048Y-55488202D01*
X60744252Y-55488742D01*
X61491105Y-57477732D01*
X61498991Y-57523954D01*
X61482088Y-58320112D01*
X61482001Y-58322810D01*
X61482001Y-58322814D01*
X61474065Y-58507116D01*
X61473929Y-58509673D01*
X61427746Y-59233912D01*
X61427538Y-59236681D01*
X61411729Y-59419903D01*
X61411490Y-59422379D01*
X61334532Y-60144740D01*
X61334198Y-60147568D01*
X61310660Y-60328876D01*
X61310326Y-60331269D01*
X61202593Y-61050963D01*
X61202126Y-61053846D01*
X61171059Y-61232532D01*
X61170636Y-61234837D01*
X61032163Y-61950831D01*
X61031559Y-61953763D01*
X60993223Y-62129160D01*
X60992718Y-62131374D01*
X60823512Y-62842815D01*
X60822766Y-62845787D01*
X60777535Y-63017049D01*
X60776955Y-63019171D01*
X60577034Y-63725167D01*
X60576141Y-63728174D01*
X60524368Y-63894805D01*
X60523719Y-63896831D01*
X60293149Y-64596333D01*
X60292105Y-64599368D01*
X60234333Y-64760489D01*
X60233624Y-64762418D01*
X59972336Y-65454787D01*
X59971137Y-65457841D01*
X59907940Y-65612763D01*
X59907176Y-65614593D01*
X59615198Y-66298859D01*
X59613840Y-66301926D01*
X59545907Y-66449910D01*
X59545097Y-66451640D01*
X59222350Y-67127063D01*
X59220830Y-67130133D01*
X59148927Y-67270502D01*
X59148077Y-67272132D01*
X58794552Y-67937773D01*
X58792868Y-67940838D01*
X58717759Y-68073113D01*
X58716876Y-68074643D01*
X58332507Y-68729644D01*
X58330656Y-68732697D01*
X58253401Y-68856068D01*
X58252492Y-68857498D01*
X57837087Y-69501145D01*
X57835068Y-69504174D01*
X57756691Y-69618127D01*
X57755762Y-69619459D01*
X57309176Y-70250890D01*
X57306986Y-70253890D01*
X57228747Y-70357767D01*
X57227807Y-70358999D01*
X56749746Y-70977479D01*
X56747385Y-70980439D01*
X56670622Y-71073719D01*
X56669676Y-71074855D01*
X56159757Y-71679649D01*
X56157225Y-71682559D01*
X56083611Y-71764552D01*
X56082666Y-71765593D01*
X55540337Y-72356042D01*
X55537632Y-72358894D01*
X55468807Y-72429216D01*
X55467869Y-72430164D01*
X54892576Y-73005457D01*
X54889701Y-73008241D01*
X54827903Y-73066173D01*
X54826978Y-73067032D01*
X54217635Y-73626715D01*
X54214588Y-73629422D01*
X54162094Y-73674549D01*
X54161190Y-73675319D01*
X53516825Y-74218602D01*
X53513610Y-74221221D01*
X53472967Y-74253226D01*
X53472086Y-74253914D01*
X52791302Y-74780135D01*
X52787918Y-74782660D01*
X52762605Y-74800884D01*
X52761757Y-74801489D01*
X52042488Y-75310201D01*
X52038941Y-75312619D01*
X52032550Y-75316815D01*
X52031736Y-75317345D01*
X51274551Y-75806026D01*
X51270068Y-75808786D01*
X50487468Y-76268033D01*
X50482873Y-76270600D01*
X49681485Y-76696221D01*
X49676785Y-76698591D01*
X48858039Y-77089825D01*
X48853242Y-77091993D01*
X48018658Y-77448113D01*
X48013774Y-77450076D01*
X47164783Y-77770471D01*
X47159819Y-77772224D01*
X46298057Y-78056278D01*
X46293024Y-78057820D01*
X45419926Y-78305059D01*
X45414832Y-78306385D01*
X44532059Y-78516340D01*
X44526913Y-78517449D01*
X43636027Y-78689747D01*
X43630839Y-78690637D01*
X42733410Y-78824975D01*
X42728189Y-78825643D01*
X41825916Y-78921767D01*
X41820671Y-78922214D01*
X40915082Y-78979961D01*
X40909823Y-78980184D01*
X40002632Y-78999444D01*
X39997368Y-78999444D01*
X39090176Y-78980184D01*
X39084917Y-78979961D01*
X38179328Y-78922214D01*
X38174083Y-78921767D01*
X37271810Y-78825643D01*
X37266589Y-78824975D01*
X36369160Y-78690637D01*
X36363972Y-78689747D01*
X35473086Y-78517449D01*
X35467940Y-78516340D01*
X34585167Y-78306385D01*
X34580073Y-78305059D01*
X33706975Y-78057820D01*
X33701942Y-78056278D01*
X32840180Y-77772224D01*
X32835216Y-77770471D01*
X32396602Y-77604945D01*
X31986213Y-77450071D01*
X31981353Y-77448118D01*
X31146757Y-77091993D01*
X31141960Y-77089825D01*
X30323214Y-76698591D01*
X30318514Y-76696221D01*
X29517126Y-76270600D01*
X29512531Y-76268033D01*
X28729931Y-75808786D01*
X28725448Y-75806026D01*
X27968211Y-75317312D01*
X27967448Y-75316815D01*
X27961038Y-75312606D01*
X27957527Y-75310212D01*
X27673006Y-75108982D01*
X27238241Y-74801489D01*
X27237393Y-74800884D01*
X27227669Y-74793883D01*
X27212056Y-74782642D01*
X27208713Y-74780147D01*
X26527912Y-74253914D01*
X26527031Y-74253226D01*
X26486388Y-74221221D01*
X26483173Y-74218602D01*
X25838808Y-73675319D01*
X25837904Y-73674549D01*
X25785410Y-73629422D01*
X25782363Y-73626715D01*
X25173020Y-73067032D01*
X25172095Y-73066173D01*
X25110297Y-73008241D01*
X25107422Y-73005457D01*
X24532129Y-72430164D01*
X24531191Y-72429216D01*
X24462366Y-72358894D01*
X24459661Y-72356042D01*
X23917278Y-71765533D01*
X23916447Y-71764618D01*
X23842755Y-71682538D01*
X23840260Y-71679671D01*
X23330256Y-71074775D01*
X23329447Y-71073804D01*
X23252588Y-70980408D01*
X23250271Y-70977503D01*
X23190371Y-70900009D01*
X38229499Y-70900009D01*
X38229499Y-71099990D01*
X38260783Y-71297511D01*
X38322578Y-71487700D01*
X38322579Y-71487703D01*
X38413370Y-71665888D01*
X38530916Y-71827676D01*
X38672324Y-71969084D01*
X38834112Y-72086630D01*
X38909933Y-72125263D01*
X39012296Y-72177420D01*
X39012299Y-72177421D01*
X39107393Y-72208318D01*
X39202490Y-72239217D01*
X39400009Y-72270501D01*
X39400010Y-72270501D01*
X39599990Y-72270501D01*
X39599991Y-72270501D01*
X39797510Y-72239217D01*
X39987703Y-72177420D01*
X40165888Y-72086630D01*
X40183535Y-72073808D01*
X40249339Y-72050328D01*
X40317394Y-72066153D01*
X40355686Y-72099814D01*
X40374737Y-72125263D01*
X40491794Y-72212891D01*
X40628797Y-72263991D01*
X40656048Y-72266920D01*
X40689343Y-72270501D01*
X40689360Y-72270502D01*
X42310640Y-72270502D01*
X42310656Y-72270501D01*
X42337694Y-72267593D01*
X42371203Y-72263991D01*
X42508206Y-72212891D01*
X42625263Y-72125263D01*
X42712891Y-72008206D01*
X42763991Y-71871203D01*
X42767593Y-71837694D01*
X42770501Y-71810656D01*
X42770502Y-71810639D01*
X42770502Y-70189360D01*
X42770501Y-70189343D01*
X42767159Y-70158268D01*
X42763991Y-70128797D01*
X42712891Y-69991794D01*
X42625263Y-69874737D01*
X42508206Y-69787109D01*
X42371205Y-69736009D01*
X42310656Y-69729498D01*
X42310640Y-69729498D01*
X40689360Y-69729498D01*
X40689343Y-69729498D01*
X40628795Y-69736009D01*
X40628793Y-69736009D01*
X40491793Y-69787109D01*
X40374735Y-69874738D01*
X40355685Y-69900186D01*
X40299750Y-69942056D01*
X40230059Y-69947039D01*
X40183533Y-69926190D01*
X40165889Y-69913370D01*
X39987703Y-69822579D01*
X39987700Y-69822578D01*
X39797511Y-69760783D01*
X39641093Y-69736009D01*
X39599991Y-69729499D01*
X39400009Y-69729499D01*
X39358907Y-69736009D01*
X39202488Y-69760783D01*
X39012299Y-69822578D01*
X39012296Y-69822579D01*
X38834111Y-69913370D01*
X38741805Y-69980434D01*
X38672324Y-70030916D01*
X38672322Y-70030918D01*
X38672321Y-70030918D01*
X38530918Y-70172321D01*
X38530918Y-70172322D01*
X38530916Y-70172324D01*
X38518551Y-70189343D01*
X38413370Y-70334111D01*
X38322579Y-70512296D01*
X38322578Y-70512299D01*
X38260783Y-70702488D01*
X38229499Y-70900009D01*
X23190371Y-70900009D01*
X22772180Y-70358985D01*
X22771251Y-70357767D01*
X22753434Y-70334111D01*
X22692978Y-70253844D01*
X22690857Y-70250938D01*
X22244189Y-69619392D01*
X22243351Y-69618191D01*
X22164930Y-69504174D01*
X22162911Y-69501145D01*
X22077885Y-69369402D01*
X21747461Y-68857428D01*
X21746683Y-68856204D01*
X21669304Y-68732634D01*
X21667511Y-68729677D01*
X21283122Y-68074643D01*
X21282239Y-68073113D01*
X21207130Y-67940838D01*
X21205446Y-67937773D01*
X20851921Y-67272132D01*
X20851125Y-67270607D01*
X20779123Y-67130042D01*
X20777678Y-67127125D01*
X20454883Y-66451603D01*
X20454132Y-66449999D01*
X20386114Y-66301828D01*
X20384831Y-66298930D01*
X20092790Y-65614518D01*
X20092087Y-65612834D01*
X20028832Y-65457767D01*
X20027691Y-65454862D01*
X19766366Y-64762396D01*
X19765665Y-64760489D01*
X19707893Y-64599368D01*
X19706849Y-64596333D01*
X19598465Y-64267517D01*
X19532547Y-64067535D01*
X25229499Y-64067535D01*
X25229499Y-64267516D01*
X25260783Y-64465037D01*
X25322578Y-64655226D01*
X25322579Y-64655229D01*
X25413370Y-64833414D01*
X25530916Y-64995202D01*
X25672324Y-65136610D01*
X25834112Y-65254156D01*
X25909933Y-65292789D01*
X26012296Y-65344946D01*
X26012299Y-65344947D01*
X26107393Y-65375844D01*
X26202490Y-65406743D01*
X26400009Y-65438027D01*
X26400010Y-65438027D01*
X26599990Y-65438027D01*
X26599991Y-65438027D01*
X26797510Y-65406743D01*
X26987703Y-65344946D01*
X27165888Y-65254156D01*
X27183535Y-65241334D01*
X27249339Y-65217854D01*
X27317394Y-65233679D01*
X27355686Y-65267340D01*
X27374737Y-65292789D01*
X27491794Y-65380417D01*
X27628797Y-65431517D01*
X27656048Y-65434446D01*
X27689343Y-65438027D01*
X27689360Y-65438028D01*
X29310640Y-65438028D01*
X29310656Y-65438027D01*
X29337694Y-65435119D01*
X29371203Y-65431517D01*
X29508206Y-65380417D01*
X29625263Y-65292789D01*
X29712891Y-65175732D01*
X29763991Y-65038729D01*
X29767593Y-65005220D01*
X29770501Y-64978182D01*
X29770502Y-64978165D01*
X29770502Y-64067535D01*
X51729499Y-64067535D01*
X51729499Y-64267516D01*
X51760783Y-64465037D01*
X51822578Y-64655226D01*
X51822579Y-64655229D01*
X51913370Y-64833414D01*
X52030916Y-64995202D01*
X52172324Y-65136610D01*
X52334112Y-65254156D01*
X52409933Y-65292789D01*
X52512296Y-65344946D01*
X52512299Y-65344947D01*
X52607393Y-65375844D01*
X52702490Y-65406743D01*
X52900009Y-65438027D01*
X52900010Y-65438027D01*
X53099990Y-65438027D01*
X53099991Y-65438027D01*
X53297510Y-65406743D01*
X53487703Y-65344946D01*
X53665888Y-65254156D01*
X53683535Y-65241334D01*
X53749339Y-65217854D01*
X53817394Y-65233679D01*
X53855686Y-65267340D01*
X53874737Y-65292789D01*
X53991794Y-65380417D01*
X54128797Y-65431517D01*
X54156048Y-65434446D01*
X54189343Y-65438027D01*
X54189360Y-65438028D01*
X55810640Y-65438028D01*
X55810656Y-65438027D01*
X55837694Y-65435119D01*
X55871203Y-65431517D01*
X56008206Y-65380417D01*
X56125263Y-65292789D01*
X56212891Y-65175732D01*
X56263991Y-65038729D01*
X56267593Y-65005220D01*
X56270501Y-64978182D01*
X56270502Y-64978165D01*
X56270502Y-63356886D01*
X56270501Y-63356869D01*
X56267159Y-63325794D01*
X56263991Y-63296323D01*
X56212891Y-63159320D01*
X56125263Y-63042263D01*
X56008206Y-62954635D01*
X55871205Y-62903535D01*
X55810656Y-62897024D01*
X55810640Y-62897024D01*
X54189360Y-62897024D01*
X54189343Y-62897024D01*
X54128795Y-62903535D01*
X54128793Y-62903535D01*
X53991793Y-62954635D01*
X53874735Y-63042264D01*
X53855685Y-63067712D01*
X53799750Y-63109582D01*
X53730059Y-63114565D01*
X53683533Y-63093716D01*
X53665889Y-63080896D01*
X53487703Y-62990105D01*
X53487700Y-62990104D01*
X53297511Y-62928309D01*
X53141093Y-62903535D01*
X53099991Y-62897025D01*
X52900009Y-62897025D01*
X52858907Y-62903535D01*
X52702488Y-62928309D01*
X52512299Y-62990104D01*
X52512296Y-62990105D01*
X52334111Y-63080896D01*
X52241805Y-63147960D01*
X52172324Y-63198442D01*
X52172322Y-63198444D01*
X52172321Y-63198444D01*
X52030918Y-63339847D01*
X52030918Y-63339848D01*
X52030916Y-63339850D01*
X52018551Y-63356869D01*
X51913370Y-63501637D01*
X51822579Y-63679822D01*
X51822578Y-63679825D01*
X51760783Y-63870014D01*
X51729499Y-64067535D01*
X29770502Y-64067535D01*
X29770502Y-63356886D01*
X29770501Y-63356869D01*
X29767159Y-63325794D01*
X29763991Y-63296323D01*
X29712891Y-63159320D01*
X29625263Y-63042263D01*
X29508206Y-62954635D01*
X29371205Y-62903535D01*
X29310656Y-62897024D01*
X29310640Y-62897024D01*
X27689360Y-62897024D01*
X27689343Y-62897024D01*
X27628795Y-62903535D01*
X27628793Y-62903535D01*
X27491793Y-62954635D01*
X27374735Y-63042264D01*
X27355685Y-63067712D01*
X27299750Y-63109582D01*
X27230059Y-63114565D01*
X27183533Y-63093716D01*
X27165889Y-63080896D01*
X26987703Y-62990105D01*
X26987700Y-62990104D01*
X26797511Y-62928309D01*
X26641093Y-62903535D01*
X26599991Y-62897025D01*
X26400009Y-62897025D01*
X26358907Y-62903535D01*
X26202488Y-62928309D01*
X26012299Y-62990104D01*
X26012296Y-62990105D01*
X25834111Y-63080896D01*
X25741805Y-63147960D01*
X25672324Y-63198442D01*
X25672322Y-63198444D01*
X25672321Y-63198444D01*
X25530918Y-63339847D01*
X25530918Y-63339848D01*
X25530916Y-63339850D01*
X25518551Y-63356869D01*
X25413370Y-63501637D01*
X25322579Y-63679822D01*
X25322578Y-63679825D01*
X25260783Y-63870014D01*
X25229499Y-64067535D01*
X19532547Y-64067535D01*
X19476260Y-63896774D01*
X19475647Y-63894859D01*
X19423850Y-63728151D01*
X19422964Y-63725167D01*
X19223004Y-63019028D01*
X19222503Y-63017197D01*
X19177221Y-62845746D01*
X19176496Y-62842857D01*
X19007267Y-62131319D01*
X19006787Y-62129216D01*
X18968414Y-61953641D01*
X18967860Y-61950952D01*
X18865244Y-61420365D01*
X53691500Y-61420365D01*
X53691500Y-61579634D01*
X53722568Y-61735823D01*
X53722570Y-61735831D01*
X53783517Y-61882969D01*
X53871995Y-62015387D01*
X53872001Y-62015394D01*
X53984605Y-62127998D01*
X53984612Y-62128004D01*
X54117030Y-62216482D01*
X54117031Y-62216482D01*
X54117032Y-62216483D01*
X54264169Y-62277430D01*
X54420365Y-62308499D01*
X54420369Y-62308500D01*
X54420370Y-62308500D01*
X54579631Y-62308500D01*
X54579632Y-62308499D01*
X54735831Y-62277430D01*
X54882968Y-62216483D01*
X55015389Y-62128003D01*
X55128003Y-62015389D01*
X55216483Y-61882968D01*
X55277430Y-61735831D01*
X55308500Y-61579630D01*
X55308500Y-61420370D01*
X55277430Y-61264169D01*
X55216483Y-61117032D01*
X55174214Y-61053772D01*
X55128004Y-60984612D01*
X55127998Y-60984605D01*
X55015394Y-60872001D01*
X55015387Y-60871995D01*
X54882969Y-60783517D01*
X54735831Y-60722570D01*
X54735823Y-60722568D01*
X54579634Y-60691500D01*
X54579630Y-60691500D01*
X54420370Y-60691500D01*
X54420365Y-60691500D01*
X54264176Y-60722568D01*
X54264168Y-60722570D01*
X54117030Y-60783517D01*
X53984612Y-60871995D01*
X53984605Y-60872001D01*
X53872001Y-60984605D01*
X53871995Y-60984612D01*
X53783517Y-61117030D01*
X53722570Y-61264168D01*
X53722568Y-61264176D01*
X53691500Y-61420365D01*
X18865244Y-61420365D01*
X18829350Y-61234772D01*
X18828951Y-61232600D01*
X18797860Y-61053772D01*
X18797416Y-61051035D01*
X18689652Y-60331127D01*
X18689358Y-60329021D01*
X18665796Y-60147536D01*
X18665466Y-60144740D01*
X18588497Y-59422272D01*
X18588279Y-59420008D01*
X18572453Y-59236596D01*
X18572258Y-59233999D01*
X18544121Y-58792745D01*
X19408105Y-58792745D01*
X19409245Y-58936513D01*
X19409246Y-58936520D01*
X19450846Y-59074144D01*
X19450846Y-59074145D01*
X19529534Y-59194477D01*
X19529537Y-59194481D01*
X19638940Y-59287769D01*
X19692705Y-59314150D01*
X20137019Y-59475868D01*
X20432050Y-58665278D01*
X20453737Y-58702841D01*
X20528211Y-58777315D01*
X20619423Y-58829976D01*
X20721156Y-58857235D01*
X20826478Y-58857235D01*
X20901598Y-58837106D01*
X20606866Y-59646878D01*
X21051173Y-59808594D01*
X21109328Y-59822945D01*
X21253095Y-59821806D01*
X21253102Y-59821805D01*
X21390726Y-59780205D01*
X21390727Y-59780205D01*
X21511059Y-59701517D01*
X21511063Y-59701514D01*
X21604351Y-59592111D01*
X21630732Y-59538346D01*
X21792450Y-59094031D01*
X20981862Y-58799000D01*
X21019423Y-58777315D01*
X21093897Y-58702841D01*
X21146558Y-58611629D01*
X21173817Y-58509896D01*
X21173817Y-58404574D01*
X21153688Y-58329452D01*
X21963460Y-58624184D01*
X22125176Y-58179878D01*
X22139528Y-58121724D01*
X22138388Y-57977956D01*
X22138387Y-57977949D01*
X22096787Y-57840325D01*
X22096787Y-57840324D01*
X22044448Y-57760286D01*
X22024233Y-57693405D01*
X22043385Y-57626212D01*
X22075345Y-57592103D01*
X22078138Y-57590073D01*
X22078147Y-57590069D01*
X22228857Y-57480573D01*
X22360582Y-57348848D01*
X22470078Y-57198138D01*
X22554651Y-57032155D01*
X22612217Y-56854986D01*
X22631089Y-56735831D01*
X22641358Y-56670998D01*
X22641358Y-56484698D01*
X22633277Y-56433675D01*
X22631169Y-56420365D01*
X40191500Y-56420365D01*
X40191500Y-56579634D01*
X40222568Y-56735823D01*
X40222570Y-56735831D01*
X40283517Y-56882969D01*
X40371995Y-57015387D01*
X40372001Y-57015394D01*
X40484605Y-57127998D01*
X40484612Y-57128004D01*
X40617030Y-57216482D01*
X40617031Y-57216482D01*
X40617032Y-57216483D01*
X40764169Y-57277430D01*
X40920365Y-57308499D01*
X40920369Y-57308500D01*
X40920370Y-57308500D01*
X41079631Y-57308500D01*
X41079632Y-57308499D01*
X41235831Y-57277430D01*
X41382968Y-57216483D01*
X41515389Y-57128003D01*
X41628003Y-57015389D01*
X41716483Y-56882968D01*
X41777430Y-56735831D01*
X41808500Y-56579630D01*
X41808500Y-56420370D01*
X41777430Y-56264169D01*
X41716483Y-56117032D01*
X41629693Y-55987141D01*
X41628004Y-55984612D01*
X41627998Y-55984605D01*
X41515394Y-55872001D01*
X41515387Y-55871995D01*
X41382969Y-55783517D01*
X41235831Y-55722570D01*
X41235823Y-55722568D01*
X41079634Y-55691500D01*
X41079630Y-55691500D01*
X40920370Y-55691500D01*
X40920365Y-55691500D01*
X40764176Y-55722568D01*
X40764168Y-55722570D01*
X40617030Y-55783517D01*
X40484612Y-55871995D01*
X40484605Y-55872001D01*
X40372001Y-55984605D01*
X40371995Y-55984612D01*
X40283517Y-56117030D01*
X40222570Y-56264168D01*
X40222568Y-56264176D01*
X40191500Y-56420365D01*
X22631169Y-56420365D01*
X22612217Y-56300711D01*
X22594410Y-56245908D01*
X22554651Y-56123543D01*
X22554648Y-56123539D01*
X22554648Y-56123536D01*
X22485149Y-55987138D01*
X22482954Y-55982832D01*
X22470058Y-55914164D01*
X22496334Y-55849423D01*
X22553440Y-55809165D01*
X22555065Y-55808624D01*
X22596203Y-55795258D01*
X22762186Y-55710685D01*
X22912896Y-55601189D01*
X23044621Y-55469464D01*
X23154117Y-55318754D01*
X23238690Y-55152771D01*
X23296256Y-54975602D01*
X23305581Y-54916724D01*
X23325397Y-54791614D01*
X23325397Y-54605315D01*
X23298212Y-54433676D01*
X23297599Y-54429812D01*
X23296256Y-54421328D01*
X23295943Y-54420365D01*
X29191500Y-54420365D01*
X29191500Y-54579634D01*
X29222568Y-54735823D01*
X29222570Y-54735831D01*
X29283517Y-54882969D01*
X29371995Y-55015387D01*
X29372001Y-55015394D01*
X29484605Y-55127998D01*
X29484612Y-55128004D01*
X29617030Y-55216482D01*
X29617031Y-55216482D01*
X29617032Y-55216483D01*
X29764169Y-55277430D01*
X29920365Y-55308499D01*
X29920369Y-55308500D01*
X29920370Y-55308500D01*
X30079631Y-55308500D01*
X30079632Y-55308499D01*
X30235831Y-55277430D01*
X30382968Y-55216483D01*
X30412815Y-55196540D01*
X54103200Y-55196540D01*
X54103200Y-55343459D01*
X54130570Y-55481057D01*
X54131860Y-55487542D01*
X54132357Y-55488742D01*
X54188078Y-55623266D01*
X54188083Y-55623275D01*
X54269698Y-55745419D01*
X54269701Y-55745423D01*
X54373576Y-55849298D01*
X54373580Y-55849301D01*
X54495724Y-55930916D01*
X54495730Y-55930919D01*
X54495731Y-55930920D01*
X54631458Y-55987140D01*
X54775540Y-56015799D01*
X54775544Y-56015800D01*
X54775545Y-56015800D01*
X54922456Y-56015800D01*
X54922457Y-56015799D01*
X55066542Y-55987140D01*
X55202269Y-55930920D01*
X55324420Y-55849301D01*
X55428301Y-55745420D01*
X55509920Y-55623269D01*
X55566140Y-55487542D01*
X55594800Y-55343455D01*
X55594800Y-55196545D01*
X55594799Y-55196540D01*
X56135200Y-55196540D01*
X56135200Y-55343459D01*
X56162570Y-55481057D01*
X56163860Y-55487542D01*
X56164357Y-55488742D01*
X56220078Y-55623266D01*
X56220083Y-55623275D01*
X56301698Y-55745419D01*
X56301701Y-55745423D01*
X56405576Y-55849298D01*
X56405580Y-55849301D01*
X56527724Y-55930916D01*
X56527730Y-55930919D01*
X56527731Y-55930920D01*
X56663458Y-55987140D01*
X56807540Y-56015799D01*
X56807544Y-56015800D01*
X56807545Y-56015800D01*
X56954456Y-56015800D01*
X56954457Y-56015799D01*
X57098542Y-55987140D01*
X57234269Y-55930920D01*
X57356420Y-55849301D01*
X57460301Y-55745420D01*
X57541920Y-55623269D01*
X57598140Y-55487542D01*
X57626800Y-55343455D01*
X57626800Y-55196545D01*
X57598140Y-55052458D01*
X57541920Y-54916731D01*
X57541919Y-54916730D01*
X57541916Y-54916724D01*
X57460301Y-54794580D01*
X57460298Y-54794576D01*
X57356423Y-54690701D01*
X57356419Y-54690698D01*
X57234275Y-54609083D01*
X57234266Y-54609078D01*
X57098544Y-54552861D01*
X57098545Y-54552861D01*
X57098542Y-54552860D01*
X57098538Y-54552859D01*
X57098534Y-54552858D01*
X56954459Y-54524200D01*
X56954455Y-54524200D01*
X56807545Y-54524200D01*
X56807540Y-54524200D01*
X56663465Y-54552858D01*
X56663455Y-54552861D01*
X56527733Y-54609078D01*
X56527724Y-54609083D01*
X56405580Y-54690698D01*
X56405576Y-54690701D01*
X56301701Y-54794576D01*
X56301698Y-54794580D01*
X56220083Y-54916724D01*
X56220078Y-54916733D01*
X56163861Y-55052455D01*
X56163858Y-55052465D01*
X56135200Y-55196540D01*
X55594799Y-55196540D01*
X55566140Y-55052458D01*
X55509920Y-54916731D01*
X55509919Y-54916730D01*
X55509916Y-54916724D01*
X55428301Y-54794580D01*
X55428298Y-54794576D01*
X55324423Y-54690701D01*
X55324419Y-54690698D01*
X55202275Y-54609083D01*
X55202266Y-54609078D01*
X55066544Y-54552861D01*
X55066545Y-54552861D01*
X55066542Y-54552860D01*
X55066538Y-54552859D01*
X55066534Y-54552858D01*
X54922459Y-54524200D01*
X54922455Y-54524200D01*
X54775545Y-54524200D01*
X54775540Y-54524200D01*
X54631465Y-54552858D01*
X54631455Y-54552861D01*
X54495733Y-54609078D01*
X54495724Y-54609083D01*
X54373580Y-54690698D01*
X54373576Y-54690701D01*
X54269701Y-54794576D01*
X54269698Y-54794580D01*
X54188083Y-54916724D01*
X54188078Y-54916733D01*
X54131861Y-55052455D01*
X54131858Y-55052465D01*
X54103200Y-55196540D01*
X30412815Y-55196540D01*
X30515389Y-55128003D01*
X30515394Y-55127998D01*
X30540621Y-55102772D01*
X30627998Y-55015394D01*
X30628003Y-55015389D01*
X30716483Y-54882968D01*
X30777430Y-54735831D01*
X30808500Y-54579630D01*
X30808500Y-54420370D01*
X30777430Y-54264169D01*
X30716483Y-54117032D01*
X30707405Y-54103446D01*
X30628004Y-53984612D01*
X30627998Y-53984605D01*
X30515394Y-53872001D01*
X30515387Y-53871995D01*
X30382969Y-53783517D01*
X30235831Y-53722570D01*
X30235823Y-53722568D01*
X30079634Y-53691500D01*
X30079630Y-53691500D01*
X29920370Y-53691500D01*
X29920365Y-53691500D01*
X29764176Y-53722568D01*
X29764168Y-53722570D01*
X29617030Y-53783517D01*
X29484612Y-53871995D01*
X29484605Y-53872001D01*
X29372001Y-53984605D01*
X29371995Y-53984612D01*
X29283517Y-54117030D01*
X29222570Y-54264168D01*
X29222568Y-54264176D01*
X29191500Y-54420365D01*
X23295943Y-54420365D01*
X23238690Y-54244159D01*
X23238688Y-54244156D01*
X23238688Y-54244154D01*
X23166993Y-54103446D01*
X23154097Y-54034777D01*
X23180373Y-53970036D01*
X23237480Y-53929779D01*
X23238948Y-53929289D01*
X23280244Y-53915872D01*
X23446227Y-53831299D01*
X23596937Y-53721803D01*
X23728662Y-53590078D01*
X23838158Y-53439368D01*
X23922731Y-53273385D01*
X23980297Y-53096216D01*
X23993098Y-53015394D01*
X24009438Y-52912228D01*
X24009438Y-52725929D01*
X23992188Y-52617023D01*
X23980297Y-52541942D01*
X23940794Y-52420365D01*
X29191500Y-52420365D01*
X29191500Y-52579634D01*
X29222568Y-52735823D01*
X29222570Y-52735831D01*
X29283517Y-52882969D01*
X29371995Y-53015387D01*
X29372001Y-53015394D01*
X29484605Y-53127998D01*
X29484612Y-53128004D01*
X29617030Y-53216482D01*
X29617031Y-53216482D01*
X29617032Y-53216483D01*
X29764169Y-53277430D01*
X29920365Y-53308499D01*
X29920369Y-53308500D01*
X29920370Y-53308500D01*
X30079631Y-53308500D01*
X30079632Y-53308499D01*
X30235831Y-53277430D01*
X30382968Y-53216483D01*
X30515389Y-53128003D01*
X30628003Y-53015389D01*
X30716483Y-52882968D01*
X30777430Y-52735831D01*
X30808500Y-52579630D01*
X30808500Y-52420370D01*
X30777430Y-52264169D01*
X30716483Y-52117032D01*
X30703506Y-52097611D01*
X30628004Y-51984612D01*
X30627998Y-51984605D01*
X30563758Y-51920365D01*
X48691500Y-51920365D01*
X48691500Y-52079634D01*
X48722568Y-52235823D01*
X48722570Y-52235831D01*
X48783517Y-52382969D01*
X48871995Y-52515387D01*
X48872001Y-52515394D01*
X48984605Y-52627998D01*
X48984612Y-52628004D01*
X49117030Y-52716482D01*
X49117031Y-52716482D01*
X49117032Y-52716483D01*
X49264169Y-52777430D01*
X49420365Y-52808499D01*
X49420369Y-52808500D01*
X49420370Y-52808500D01*
X49579631Y-52808500D01*
X49579632Y-52808499D01*
X49735831Y-52777430D01*
X49882968Y-52716483D01*
X50015389Y-52628003D01*
X50128003Y-52515389D01*
X50216483Y-52382968D01*
X50277430Y-52235831D01*
X50308500Y-52079630D01*
X50308500Y-51920370D01*
X50277430Y-51764169D01*
X50216483Y-51617032D01*
X50178364Y-51559983D01*
X50128004Y-51484612D01*
X50127998Y-51484605D01*
X50015394Y-51372001D01*
X50015387Y-51371995D01*
X49882969Y-51283517D01*
X49735831Y-51222570D01*
X49735823Y-51222568D01*
X49579634Y-51191500D01*
X49579630Y-51191500D01*
X49420370Y-51191500D01*
X49420365Y-51191500D01*
X49264176Y-51222568D01*
X49264168Y-51222570D01*
X49117030Y-51283517D01*
X48984612Y-51371995D01*
X48984605Y-51372001D01*
X48872001Y-51484605D01*
X48871995Y-51484612D01*
X48783517Y-51617030D01*
X48722570Y-51764168D01*
X48722568Y-51764176D01*
X48691500Y-51920365D01*
X30563758Y-51920365D01*
X30515394Y-51872001D01*
X30515387Y-51871995D01*
X30382969Y-51783517D01*
X30235831Y-51722570D01*
X30235823Y-51722568D01*
X30079634Y-51691500D01*
X30079630Y-51691500D01*
X29920370Y-51691500D01*
X29920365Y-51691500D01*
X29764176Y-51722568D01*
X29764168Y-51722570D01*
X29617030Y-51783517D01*
X29484612Y-51871995D01*
X29484605Y-51872001D01*
X29372001Y-51984605D01*
X29371995Y-51984612D01*
X29283517Y-52117030D01*
X29222570Y-52264168D01*
X29222568Y-52264176D01*
X29191500Y-52420365D01*
X23940794Y-52420365D01*
X23922731Y-52364773D01*
X23851033Y-52224060D01*
X23838138Y-52155392D01*
X23864414Y-52090652D01*
X23921520Y-52050394D01*
X23923145Y-52049853D01*
X23964284Y-52036487D01*
X24130267Y-51951914D01*
X24280977Y-51842418D01*
X24412702Y-51710693D01*
X24522198Y-51559983D01*
X24606771Y-51394000D01*
X24664337Y-51216831D01*
X24664392Y-51216482D01*
X24693478Y-51032843D01*
X24693478Y-50846544D01*
X24664337Y-50662556D01*
X24606769Y-50485383D01*
X24535074Y-50344675D01*
X24522178Y-50276006D01*
X24548454Y-50211265D01*
X24605561Y-50171008D01*
X24607029Y-50170518D01*
X24648325Y-50157101D01*
X24814308Y-50072528D01*
X24965018Y-49963032D01*
X25096743Y-49831307D01*
X25206239Y-49680597D01*
X25290812Y-49514614D01*
X25348378Y-49337445D01*
X25352962Y-49308500D01*
X25374841Y-49170365D01*
X27441500Y-49170365D01*
X27441500Y-49329634D01*
X27472568Y-49485823D01*
X27472570Y-49485831D01*
X27533517Y-49632969D01*
X27621995Y-49765387D01*
X27622001Y-49765394D01*
X27734605Y-49877998D01*
X27734612Y-49878004D01*
X27867030Y-49966482D01*
X27867031Y-49966482D01*
X27867032Y-49966483D01*
X28014169Y-50027430D01*
X28170365Y-50058499D01*
X28170369Y-50058500D01*
X28170370Y-50058500D01*
X28329631Y-50058500D01*
X28329632Y-50058499D01*
X28485831Y-50027430D01*
X28632968Y-49966483D01*
X28765389Y-49878003D01*
X28878003Y-49765389D01*
X28966483Y-49632968D01*
X29027430Y-49485831D01*
X29058500Y-49329630D01*
X29058500Y-49170370D01*
X29027430Y-49014169D01*
X28966483Y-48867032D01*
X28910449Y-48783171D01*
X28878004Y-48734612D01*
X28877998Y-48734605D01*
X28765394Y-48622001D01*
X28765387Y-48621995D01*
X28632969Y-48533517D01*
X28621675Y-48528839D01*
X28485831Y-48472570D01*
X28485823Y-48472568D01*
X28329634Y-48441500D01*
X28329630Y-48441500D01*
X28170370Y-48441500D01*
X28170365Y-48441500D01*
X28014176Y-48472568D01*
X28014168Y-48472570D01*
X27867030Y-48533517D01*
X27734612Y-48621995D01*
X27734605Y-48622001D01*
X27622001Y-48734605D01*
X27621995Y-48734612D01*
X27533517Y-48867030D01*
X27472570Y-49014168D01*
X27472568Y-49014176D01*
X27441500Y-49170365D01*
X25374841Y-49170365D01*
X25377518Y-49153460D01*
X25377519Y-49153454D01*
X25377519Y-48967158D01*
X25348378Y-48783170D01*
X25290810Y-48605997D01*
X25244668Y-48515440D01*
X25219115Y-48465291D01*
X25210678Y-48420365D01*
X31191500Y-48420365D01*
X31191500Y-48579634D01*
X31222568Y-48735823D01*
X31222570Y-48735831D01*
X31283517Y-48882969D01*
X31371995Y-49015387D01*
X31372001Y-49015394D01*
X31484605Y-49127998D01*
X31484612Y-49128004D01*
X31617030Y-49216482D01*
X31617031Y-49216482D01*
X31617032Y-49216483D01*
X31764169Y-49277430D01*
X31920365Y-49308499D01*
X31920369Y-49308500D01*
X31920370Y-49308500D01*
X32079631Y-49308500D01*
X32079632Y-49308499D01*
X32235831Y-49277430D01*
X32382968Y-49216483D01*
X32515389Y-49128003D01*
X32628003Y-49015389D01*
X32716483Y-48882968D01*
X32777430Y-48735831D01*
X32808500Y-48579630D01*
X32808500Y-48420370D01*
X32777430Y-48264169D01*
X32716483Y-48117032D01*
X32710781Y-48108499D01*
X32628004Y-47984612D01*
X32627998Y-47984605D01*
X32515394Y-47872001D01*
X32515387Y-47871995D01*
X32382969Y-47783517D01*
X32235831Y-47722570D01*
X32235823Y-47722568D01*
X32079634Y-47691500D01*
X32079630Y-47691500D01*
X31920370Y-47691500D01*
X31920365Y-47691500D01*
X31764176Y-47722568D01*
X31764168Y-47722570D01*
X31617030Y-47783517D01*
X31484612Y-47871995D01*
X31484605Y-47872001D01*
X31372001Y-47984605D01*
X31371995Y-47984612D01*
X31283517Y-48117030D01*
X31222570Y-48264168D01*
X31222568Y-48264176D01*
X31191500Y-48420365D01*
X25210678Y-48420365D01*
X25206220Y-48396623D01*
X25232496Y-48331883D01*
X25289602Y-48291625D01*
X25291227Y-48291084D01*
X25332365Y-48277718D01*
X25498348Y-48193145D01*
X25649058Y-48083649D01*
X25780783Y-47951924D01*
X25890279Y-47801214D01*
X25974852Y-47635231D01*
X26032418Y-47458062D01*
X26061559Y-47274074D01*
X26061559Y-47087775D01*
X26032418Y-46903787D01*
X26014611Y-46848984D01*
X25974852Y-46726619D01*
X25974849Y-46726615D01*
X25974849Y-46726612D01*
X25903154Y-46585905D01*
X25890257Y-46517235D01*
X25916533Y-46452495D01*
X25973639Y-46412237D01*
X25975268Y-46411695D01*
X26016405Y-46398329D01*
X26182388Y-46313756D01*
X26333098Y-46204260D01*
X26464823Y-46072535D01*
X26574319Y-45921825D01*
X26658892Y-45755842D01*
X26716458Y-45578673D01*
X26745599Y-45394685D01*
X26745599Y-45208386D01*
X26716458Y-45024398D01*
X26679107Y-44909445D01*
X26658892Y-44847230D01*
X26658889Y-44847226D01*
X26658889Y-44847223D01*
X26587196Y-44706520D01*
X26574299Y-44637851D01*
X26600575Y-44573110D01*
X26657681Y-44532852D01*
X26659306Y-44532311D01*
X26700445Y-44518945D01*
X26866428Y-44434372D01*
X27017138Y-44324876D01*
X27148863Y-44193151D01*
X27258359Y-44042441D01*
X27342932Y-43876458D01*
X27400498Y-43699289D01*
X27405715Y-43666350D01*
X27429639Y-43515301D01*
X27429639Y-43329002D01*
X27400498Y-43145014D01*
X27348379Y-42984611D01*
X27342932Y-42967846D01*
X27342930Y-42967843D01*
X27342930Y-42967841D01*
X27271236Y-42827135D01*
X27258340Y-42758466D01*
X27284616Y-42693725D01*
X27341723Y-42653468D01*
X27343348Y-42652927D01*
X27384486Y-42639561D01*
X27550469Y-42554988D01*
X27701179Y-42445492D01*
X27832904Y-42313767D01*
X27942400Y-42163057D01*
X28026973Y-41997074D01*
X28057023Y-41904589D01*
X28096459Y-41846916D01*
X28160818Y-41819717D01*
X28229664Y-41831631D01*
X28280102Y-41877922D01*
X28280132Y-41877903D01*
X28280212Y-41878024D01*
X28281140Y-41878875D01*
X28283181Y-41882466D01*
X28371995Y-42015387D01*
X28372001Y-42015394D01*
X28484605Y-42127998D01*
X28484612Y-42128004D01*
X28617030Y-42216482D01*
X28617031Y-42216482D01*
X28617032Y-42216483D01*
X28764169Y-42277430D01*
X28920365Y-42308499D01*
X28920369Y-42308500D01*
X28920370Y-42308500D01*
X29079631Y-42308500D01*
X29079632Y-42308499D01*
X29235831Y-42277430D01*
X29382968Y-42216483D01*
X29515389Y-42128003D01*
X29628003Y-42015389D01*
X29716483Y-41882968D01*
X29777430Y-41735831D01*
X29808500Y-41579630D01*
X29808500Y-41420370D01*
X29777430Y-41264169D01*
X29769653Y-41245395D01*
X29762185Y-41175928D01*
X29793460Y-41113449D01*
X29853548Y-41077796D01*
X29923373Y-41080289D01*
X29971896Y-41110263D01*
X39848555Y-50986922D01*
X39987309Y-51067032D01*
X40034326Y-51079630D01*
X40142071Y-51108500D01*
X40142072Y-51108500D01*
X40302292Y-51108500D01*
X41417808Y-51108500D01*
X41484847Y-51128185D01*
X41486698Y-51129398D01*
X41617030Y-51216482D01*
X41617031Y-51216482D01*
X41617032Y-51216483D01*
X41764169Y-51277430D01*
X41880086Y-51300487D01*
X41920365Y-51308499D01*
X41920369Y-51308500D01*
X41920370Y-51308500D01*
X42079631Y-51308500D01*
X42079632Y-51308499D01*
X42235831Y-51277430D01*
X42382968Y-51216483D01*
X42515389Y-51128003D01*
X42628003Y-51015389D01*
X42691495Y-50920365D01*
X43191500Y-50920365D01*
X43191500Y-51079634D01*
X43222568Y-51235823D01*
X43222570Y-51235831D01*
X43283517Y-51382969D01*
X43371995Y-51515387D01*
X43372001Y-51515394D01*
X43484605Y-51627998D01*
X43484612Y-51628004D01*
X43617030Y-51716482D01*
X43617031Y-51716482D01*
X43617032Y-51716483D01*
X43764169Y-51777430D01*
X43912110Y-51806857D01*
X43920365Y-51808499D01*
X43920369Y-51808500D01*
X43920370Y-51808500D01*
X44079631Y-51808500D01*
X44079632Y-51808499D01*
X44105191Y-51803415D01*
X44159261Y-51792661D01*
X44191597Y-51786228D01*
X44235831Y-51777430D01*
X44382968Y-51716483D01*
X44515389Y-51628003D01*
X44628003Y-51515389D01*
X44716483Y-51382968D01*
X44777430Y-51235831D01*
X44808500Y-51079630D01*
X44808500Y-50920370D01*
X44777430Y-50764169D01*
X44716483Y-50617032D01*
X44708361Y-50604877D01*
X44628004Y-50484612D01*
X44627998Y-50484605D01*
X44515394Y-50372001D01*
X44515387Y-50371995D01*
X44382969Y-50283517D01*
X44235831Y-50222570D01*
X44235823Y-50222568D01*
X44079634Y-50191500D01*
X44079630Y-50191500D01*
X43920370Y-50191500D01*
X43920365Y-50191500D01*
X43764176Y-50222568D01*
X43764168Y-50222570D01*
X43617030Y-50283517D01*
X43484612Y-50371995D01*
X43484605Y-50372001D01*
X43372001Y-50484605D01*
X43371995Y-50484612D01*
X43283517Y-50617030D01*
X43222570Y-50764168D01*
X43222568Y-50764176D01*
X43191500Y-50920365D01*
X42691495Y-50920365D01*
X42716483Y-50882968D01*
X42729758Y-50850921D01*
X42750001Y-50802049D01*
X42777430Y-50735831D01*
X42808500Y-50579630D01*
X42808500Y-50420370D01*
X42777430Y-50264169D01*
X42716483Y-50117032D01*
X42716154Y-50116540D01*
X42628004Y-49984612D01*
X42627998Y-49984605D01*
X42515394Y-49872001D01*
X42515387Y-49871995D01*
X42382969Y-49783517D01*
X42235831Y-49722570D01*
X42235823Y-49722568D01*
X42079634Y-49691500D01*
X42079630Y-49691500D01*
X41920370Y-49691500D01*
X41920365Y-49691500D01*
X41764176Y-49722568D01*
X41764168Y-49722570D01*
X41617030Y-49783517D01*
X41617029Y-49783517D01*
X41486698Y-49870602D01*
X41468653Y-49876252D01*
X41452743Y-49886477D01*
X41421781Y-49890928D01*
X41420021Y-49891480D01*
X41417808Y-49891500D01*
X41397276Y-49891500D01*
X41330237Y-49871815D01*
X41284482Y-49819011D01*
X41274538Y-49749853D01*
X41276317Y-49741846D01*
X41276115Y-49741806D01*
X41308372Y-49579634D01*
X41308373Y-49579631D01*
X41308373Y-49420369D01*
X41308372Y-49420365D01*
X41284126Y-49298469D01*
X41280525Y-49280365D01*
X49551500Y-49280365D01*
X49551500Y-49439634D01*
X49582568Y-49595823D01*
X49582570Y-49595831D01*
X49643517Y-49742969D01*
X49731995Y-49875387D01*
X49732001Y-49875394D01*
X49844605Y-49987998D01*
X49844612Y-49988004D01*
X49977030Y-50076482D01*
X49977031Y-50076482D01*
X49977032Y-50076483D01*
X50124169Y-50137430D01*
X50280365Y-50168499D01*
X50280369Y-50168500D01*
X50280370Y-50168500D01*
X50439631Y-50168500D01*
X50439632Y-50168499D01*
X50595831Y-50137430D01*
X50742968Y-50076483D01*
X50875389Y-49988003D01*
X50988003Y-49875389D01*
X51076483Y-49742968D01*
X51137430Y-49595831D01*
X51168500Y-49439630D01*
X51168500Y-49280370D01*
X51137430Y-49124169D01*
X51076483Y-48977032D01*
X51069889Y-48967164D01*
X50988004Y-48844612D01*
X50987998Y-48844605D01*
X50875394Y-48732001D01*
X50875387Y-48731995D01*
X50742969Y-48643517D01*
X50595831Y-48582570D01*
X50595823Y-48582568D01*
X50439634Y-48551500D01*
X50439630Y-48551500D01*
X50280370Y-48551500D01*
X50280365Y-48551500D01*
X50124176Y-48582568D01*
X50124168Y-48582570D01*
X49977030Y-48643517D01*
X49844612Y-48731995D01*
X49844605Y-48732001D01*
X49732001Y-48844605D01*
X49731995Y-48844612D01*
X49643517Y-48977030D01*
X49582570Y-49124168D01*
X49582568Y-49124176D01*
X49551500Y-49280365D01*
X41280525Y-49280365D01*
X41277304Y-49264175D01*
X41277303Y-49264169D01*
X41216356Y-49117032D01*
X41201664Y-49095044D01*
X41127877Y-48984612D01*
X41127871Y-48984605D01*
X41015267Y-48872001D01*
X41015260Y-48871995D01*
X40882842Y-48783517D01*
X40735704Y-48722570D01*
X40735696Y-48722568D01*
X40579507Y-48691500D01*
X40579503Y-48691500D01*
X40420243Y-48691500D01*
X40420238Y-48691500D01*
X40264049Y-48722568D01*
X40264041Y-48722570D01*
X40116903Y-48783517D01*
X39984485Y-48871995D01*
X39984478Y-48872001D01*
X39871874Y-48984605D01*
X39833836Y-49041533D01*
X39780223Y-49086337D01*
X39710898Y-49095044D01*
X39647871Y-49064889D01*
X39643053Y-49060322D01*
X35086528Y-44503797D01*
X35053043Y-44442474D01*
X35058027Y-44372782D01*
X35099899Y-44316849D01*
X35150015Y-44294499D01*
X35235831Y-44277430D01*
X35382968Y-44216483D01*
X35515389Y-44128003D01*
X35628003Y-44015389D01*
X35716483Y-43882968D01*
X35777430Y-43735831D01*
X35790237Y-43671445D01*
X37942580Y-43671445D01*
X37942580Y-43830714D01*
X37973648Y-43986903D01*
X37973650Y-43986911D01*
X38034597Y-44134049D01*
X38123075Y-44266467D01*
X38123081Y-44266474D01*
X38235685Y-44379078D01*
X38235692Y-44379084D01*
X38368110Y-44467562D01*
X38368111Y-44467562D01*
X38368112Y-44467563D01*
X38515249Y-44528510D01*
X38655428Y-44556393D01*
X38671445Y-44559579D01*
X38671449Y-44559580D01*
X38671450Y-44559580D01*
X38830711Y-44559580D01*
X38830712Y-44559579D01*
X38986911Y-44528510D01*
X39134048Y-44467563D01*
X39266469Y-44379083D01*
X39379083Y-44266469D01*
X39467563Y-44134048D01*
X39528510Y-43986911D01*
X39559580Y-43830710D01*
X39559580Y-43671450D01*
X39528510Y-43515249D01*
X39467563Y-43368112D01*
X39457085Y-43352431D01*
X39379084Y-43235692D01*
X39379078Y-43235685D01*
X39266474Y-43123081D01*
X39266467Y-43123075D01*
X39134049Y-43034597D01*
X38986911Y-42973650D01*
X38986903Y-42973648D01*
X38830714Y-42942580D01*
X38830710Y-42942580D01*
X38671450Y-42942580D01*
X38671445Y-42942580D01*
X38515256Y-42973648D01*
X38515248Y-42973650D01*
X38368110Y-43034597D01*
X38235692Y-43123075D01*
X38235685Y-43123081D01*
X38123081Y-43235685D01*
X38123075Y-43235692D01*
X38034597Y-43368110D01*
X37973650Y-43515248D01*
X37973648Y-43515256D01*
X37942580Y-43671445D01*
X35790237Y-43671445D01*
X35796260Y-43641167D01*
X35802231Y-43611149D01*
X35808500Y-43579630D01*
X35808500Y-43420370D01*
X35792191Y-43338378D01*
X35798418Y-43268787D01*
X35841281Y-43213610D01*
X35907171Y-43190365D01*
X35975168Y-43206433D01*
X35982698Y-43211085D01*
X36103022Y-43291482D01*
X36103023Y-43291482D01*
X36103024Y-43291483D01*
X36250161Y-43352430D01*
X36406357Y-43383499D01*
X36406361Y-43383500D01*
X36406362Y-43383500D01*
X36565623Y-43383500D01*
X36565624Y-43383499D01*
X36721823Y-43352430D01*
X36868960Y-43291483D01*
X37001381Y-43203003D01*
X37113995Y-43090389D01*
X37202475Y-42957968D01*
X37263422Y-42810831D01*
X37294492Y-42654630D01*
X37294492Y-42495370D01*
X37263422Y-42339169D01*
X37202475Y-42192032D01*
X37159693Y-42128004D01*
X37113996Y-42059612D01*
X37113990Y-42059605D01*
X37001386Y-41947001D01*
X37001379Y-41946995D01*
X36868961Y-41858517D01*
X36721823Y-41797570D01*
X36721815Y-41797568D01*
X36565626Y-41766500D01*
X36565622Y-41766500D01*
X36406362Y-41766500D01*
X36406357Y-41766500D01*
X36250168Y-41797568D01*
X36250160Y-41797570D01*
X36103022Y-41858517D01*
X35970604Y-41946995D01*
X35970597Y-41947001D01*
X35857993Y-42059605D01*
X35857987Y-42059612D01*
X35769509Y-42192030D01*
X35708562Y-42339168D01*
X35708560Y-42339176D01*
X35677492Y-42495365D01*
X35677492Y-42495369D01*
X35677492Y-42495370D01*
X35677492Y-42654630D01*
X35685945Y-42697127D01*
X35693801Y-42736621D01*
X35687573Y-42806213D01*
X35644709Y-42861390D01*
X35578819Y-42884634D01*
X35510822Y-42868566D01*
X35503293Y-42863915D01*
X35382966Y-42783515D01*
X35235831Y-42722570D01*
X35235823Y-42722568D01*
X35079634Y-42691500D01*
X35079630Y-42691500D01*
X34920370Y-42691500D01*
X34920365Y-42691500D01*
X34764176Y-42722568D01*
X34764168Y-42722570D01*
X34617030Y-42783517D01*
X34479546Y-42875381D01*
X34478855Y-42874347D01*
X34420525Y-42899105D01*
X34351660Y-42887297D01*
X34300111Y-42840133D01*
X34284582Y-42800128D01*
X34277430Y-42764169D01*
X34216483Y-42617032D01*
X34201366Y-42594408D01*
X34128004Y-42484612D01*
X34127998Y-42484605D01*
X34015394Y-42372001D01*
X34015387Y-42371995D01*
X33882969Y-42283517D01*
X33735831Y-42222570D01*
X33735823Y-42222568D01*
X33579634Y-42191500D01*
X33579630Y-42191500D01*
X33420370Y-42191500D01*
X33420365Y-42191500D01*
X33264176Y-42222568D01*
X33264168Y-42222570D01*
X33117031Y-42283517D01*
X33051309Y-42327430D01*
X32984632Y-42348307D01*
X32917252Y-42329822D01*
X32894739Y-42312008D01*
X29644819Y-39062088D01*
X29611334Y-39000765D01*
X29608500Y-38974407D01*
X29608500Y-38582191D01*
X29628185Y-38515152D01*
X29629357Y-38513361D01*
X29716483Y-38382968D01*
X29777430Y-38235831D01*
X29808500Y-38079630D01*
X29808500Y-37920370D01*
X29777430Y-37764169D01*
X29716483Y-37617032D01*
X29628003Y-37484611D01*
X29628002Y-37484610D01*
X29628000Y-37484607D01*
X29563758Y-37420365D01*
X31191500Y-37420365D01*
X31191500Y-37579634D01*
X31222568Y-37735823D01*
X31222570Y-37735831D01*
X31283517Y-37882969D01*
X31371995Y-38015387D01*
X31372001Y-38015394D01*
X31484605Y-38127998D01*
X31484612Y-38128004D01*
X31617030Y-38216482D01*
X31617031Y-38216482D01*
X31617032Y-38216483D01*
X31764169Y-38277430D01*
X31920365Y-38308499D01*
X31920369Y-38308500D01*
X31920370Y-38308500D01*
X32079631Y-38308500D01*
X32079632Y-38308499D01*
X32235831Y-38277430D01*
X32382968Y-38216483D01*
X32515389Y-38128003D01*
X32628003Y-38015389D01*
X32716483Y-37882968D01*
X32777430Y-37735831D01*
X32808500Y-37579630D01*
X32808500Y-37420370D01*
X32777430Y-37264169D01*
X32716483Y-37117032D01*
X32628003Y-36984611D01*
X32628002Y-36984610D01*
X32628000Y-36984607D01*
X32563758Y-36920365D01*
X42691500Y-36920365D01*
X42691500Y-37079634D01*
X42722568Y-37235823D01*
X42722570Y-37235831D01*
X42783517Y-37382969D01*
X42871995Y-37515387D01*
X42872001Y-37515394D01*
X42984605Y-37627998D01*
X42984612Y-37628004D01*
X43117030Y-37716482D01*
X43117031Y-37716482D01*
X43117032Y-37716483D01*
X43264169Y-37777430D01*
X43420365Y-37808499D01*
X43420369Y-37808500D01*
X43420370Y-37808500D01*
X43579631Y-37808500D01*
X43579632Y-37808499D01*
X43605191Y-37803415D01*
X43659261Y-37792661D01*
X43691597Y-37786228D01*
X43735831Y-37777430D01*
X43882968Y-37716483D01*
X44015389Y-37628003D01*
X44128003Y-37515389D01*
X44216483Y-37382968D01*
X44277430Y-37235831D01*
X44308500Y-37079630D01*
X44308500Y-36920370D01*
X44277430Y-36764169D01*
X44216483Y-36617032D01*
X44128003Y-36484611D01*
X44127998Y-36484605D01*
X44015394Y-36372001D01*
X44015387Y-36371995D01*
X43882969Y-36283517D01*
X43735831Y-36222570D01*
X43735823Y-36222568D01*
X43579634Y-36191500D01*
X43579630Y-36191500D01*
X43420370Y-36191500D01*
X43420365Y-36191500D01*
X43264176Y-36222568D01*
X43264168Y-36222570D01*
X43117030Y-36283517D01*
X42984612Y-36371995D01*
X42984605Y-36372001D01*
X42872001Y-36484605D01*
X42871995Y-36484612D01*
X42783517Y-36617030D01*
X42722570Y-36764168D01*
X42722568Y-36764176D01*
X42691500Y-36920365D01*
X32563758Y-36920365D01*
X32515394Y-36872001D01*
X32515387Y-36871995D01*
X32382969Y-36783517D01*
X32235831Y-36722570D01*
X32235823Y-36722568D01*
X32079634Y-36691500D01*
X32079630Y-36691500D01*
X31920370Y-36691500D01*
X31920365Y-36691500D01*
X31764176Y-36722568D01*
X31764168Y-36722570D01*
X31617030Y-36783517D01*
X31484612Y-36871995D01*
X31484605Y-36872001D01*
X31372001Y-36984605D01*
X31371995Y-36984612D01*
X31283517Y-37117030D01*
X31222570Y-37264168D01*
X31222568Y-37264176D01*
X31191500Y-37420365D01*
X29563758Y-37420365D01*
X29515394Y-37372001D01*
X29515387Y-37371995D01*
X29382969Y-37283517D01*
X29235831Y-37222570D01*
X29235823Y-37222568D01*
X29079634Y-37191500D01*
X29079630Y-37191500D01*
X28920370Y-37191500D01*
X28920365Y-37191500D01*
X28764176Y-37222568D01*
X28764168Y-37222570D01*
X28617030Y-37283517D01*
X28484612Y-37371995D01*
X28484605Y-37372001D01*
X28372001Y-37484605D01*
X28371995Y-37484612D01*
X28283517Y-37617030D01*
X28222570Y-37764168D01*
X28222568Y-37764176D01*
X28191500Y-37920365D01*
X28191500Y-38067500D01*
X28171815Y-38134539D01*
X28119011Y-38180294D01*
X28067500Y-38191500D01*
X27920365Y-38191500D01*
X27764176Y-38222568D01*
X27764168Y-38222570D01*
X27617030Y-38283517D01*
X27484612Y-38371995D01*
X27484605Y-38372001D01*
X27372001Y-38484605D01*
X27371995Y-38484612D01*
X27283517Y-38617030D01*
X27222570Y-38764168D01*
X27222568Y-38764176D01*
X27191500Y-38920365D01*
X27191500Y-39079634D01*
X27222568Y-39235823D01*
X27222570Y-39235831D01*
X27283517Y-39382969D01*
X27371995Y-39515387D01*
X27372001Y-39515394D01*
X27484605Y-39627998D01*
X27484612Y-39628004D01*
X27617030Y-39716482D01*
X27617031Y-39716482D01*
X27617032Y-39716483D01*
X27764169Y-39777430D01*
X27920365Y-39808499D01*
X27920369Y-39808500D01*
X27920370Y-39808500D01*
X28079631Y-39808500D01*
X28079632Y-39808499D01*
X28235831Y-39777430D01*
X28382968Y-39716483D01*
X28415337Y-39694855D01*
X28482014Y-39673977D01*
X28549394Y-39692461D01*
X28571909Y-39710276D01*
X29389736Y-40528103D01*
X29423221Y-40589426D01*
X29418237Y-40659118D01*
X29376365Y-40715051D01*
X29310901Y-40739468D01*
X29254604Y-40730346D01*
X29249840Y-40728373D01*
X29235831Y-40722570D01*
X29235827Y-40722569D01*
X29235823Y-40722568D01*
X29079634Y-40691500D01*
X29079630Y-40691500D01*
X28920370Y-40691500D01*
X28920365Y-40691500D01*
X28764176Y-40722568D01*
X28764168Y-40722570D01*
X28617030Y-40783517D01*
X28484612Y-40871995D01*
X28484605Y-40872001D01*
X28372001Y-40984605D01*
X28371995Y-40984612D01*
X28283517Y-41117030D01*
X28283514Y-41117034D01*
X28273574Y-41141032D01*
X28229731Y-41195434D01*
X28163436Y-41217496D01*
X28095737Y-41200214D01*
X28048129Y-41149075D01*
X28041087Y-41131900D01*
X28026973Y-41088462D01*
X27942400Y-40922479D01*
X27832904Y-40771769D01*
X27701179Y-40640044D01*
X27550469Y-40530548D01*
X27544587Y-40527551D01*
X27384490Y-40445976D01*
X27207317Y-40388408D01*
X27023329Y-40359268D01*
X27023324Y-40359268D01*
X26837036Y-40359268D01*
X26837031Y-40359268D01*
X26653042Y-40388408D01*
X26475869Y-40445976D01*
X26309894Y-40530546D01*
X26159178Y-40640046D01*
X26027458Y-40771766D01*
X25917958Y-40922482D01*
X25833388Y-41088457D01*
X25775820Y-41265630D01*
X25746680Y-41449618D01*
X25746680Y-41635917D01*
X25775820Y-41819905D01*
X25833388Y-41997078D01*
X25888873Y-42105971D01*
X25900096Y-42127998D01*
X25905083Y-42137784D01*
X25917979Y-42206453D01*
X25891703Y-42271193D01*
X25834597Y-42311451D01*
X25832967Y-42311993D01*
X25791833Y-42325359D01*
X25791827Y-42325361D01*
X25625853Y-42409930D01*
X25625850Y-42409931D01*
X25625850Y-42409932D01*
X25576905Y-42445492D01*
X25475137Y-42519430D01*
X25343417Y-42651150D01*
X25312485Y-42693725D01*
X25235183Y-42800124D01*
X25233917Y-42801866D01*
X25149347Y-42967841D01*
X25091779Y-43145014D01*
X25062639Y-43329002D01*
X25062639Y-43515301D01*
X25091779Y-43699289D01*
X25149347Y-43876462D01*
X25186835Y-43950034D01*
X25220135Y-44015389D01*
X25221042Y-44017168D01*
X25233938Y-44085837D01*
X25207662Y-44150577D01*
X25150556Y-44190835D01*
X25148877Y-44191393D01*
X25107792Y-44204742D01*
X24941813Y-44289314D01*
X24941810Y-44289315D01*
X24941810Y-44289316D01*
X24892865Y-44324876D01*
X24791097Y-44398814D01*
X24659377Y-44530534D01*
X24659375Y-44530537D01*
X24563739Y-44662171D01*
X24549877Y-44681250D01*
X24465307Y-44847225D01*
X24407739Y-45024398D01*
X24378599Y-45208386D01*
X24378599Y-45394685D01*
X24407739Y-45578673D01*
X24465307Y-45755846D01*
X24537004Y-45896557D01*
X24549900Y-45965226D01*
X24523624Y-46029967D01*
X24466517Y-46070224D01*
X24464887Y-46070766D01*
X24459439Y-46072537D01*
X24423748Y-46084133D01*
X24257773Y-46168703D01*
X24107057Y-46278203D01*
X23975337Y-46409923D01*
X23865837Y-46560639D01*
X23781267Y-46726614D01*
X23723699Y-46903787D01*
X23694559Y-47087775D01*
X23694559Y-47274074D01*
X23723699Y-47458062D01*
X23781267Y-47635235D01*
X23852961Y-47775940D01*
X23865857Y-47844609D01*
X23839581Y-47909350D01*
X23782474Y-47949607D01*
X23780797Y-47950165D01*
X23739711Y-47963515D01*
X23573733Y-48048086D01*
X23423017Y-48157586D01*
X23291297Y-48289306D01*
X23257893Y-48335284D01*
X23196076Y-48420369D01*
X23181797Y-48440022D01*
X23097227Y-48605997D01*
X23039659Y-48783170D01*
X23010519Y-48967158D01*
X23010519Y-49153457D01*
X23039659Y-49337445D01*
X23097227Y-49514618D01*
X23168922Y-49655326D01*
X23181818Y-49723996D01*
X23155542Y-49788736D01*
X23098435Y-49828993D01*
X23096805Y-49829535D01*
X23055672Y-49842901D01*
X23055666Y-49842903D01*
X22889692Y-49927472D01*
X22889689Y-49927473D01*
X22889689Y-49927474D01*
X22835997Y-49966483D01*
X22738976Y-50036972D01*
X22607256Y-50168692D01*
X22601676Y-50176372D01*
X22500866Y-50315128D01*
X22497756Y-50319408D01*
X22413186Y-50485383D01*
X22355618Y-50662556D01*
X22326478Y-50846544D01*
X22326478Y-51032843D01*
X22355618Y-51216831D01*
X22413186Y-51394004D01*
X22484881Y-51534711D01*
X22497777Y-51603380D01*
X22471501Y-51668121D01*
X22414394Y-51708378D01*
X22412716Y-51708936D01*
X22371631Y-51722285D01*
X22205652Y-51806857D01*
X22205649Y-51806858D01*
X22205649Y-51806859D01*
X22156710Y-51842415D01*
X22054936Y-51916357D01*
X21923216Y-52048077D01*
X21923214Y-52048080D01*
X21818606Y-52192063D01*
X21813716Y-52198793D01*
X21729146Y-52364768D01*
X21671578Y-52541941D01*
X21642438Y-52725929D01*
X21642438Y-52912228D01*
X21671578Y-53096216D01*
X21729146Y-53273389D01*
X21800841Y-53414097D01*
X21813737Y-53482767D01*
X21787461Y-53547507D01*
X21730354Y-53587764D01*
X21728724Y-53588306D01*
X21687591Y-53601672D01*
X21687585Y-53601674D01*
X21521611Y-53686243D01*
X21370895Y-53795743D01*
X21239175Y-53927463D01*
X21129675Y-54078179D01*
X21045105Y-54244154D01*
X20987537Y-54421327D01*
X20958397Y-54605315D01*
X20958397Y-54791614D01*
X20987537Y-54975602D01*
X21045105Y-55152775D01*
X21116800Y-55293482D01*
X21129696Y-55362151D01*
X21103420Y-55426892D01*
X21046313Y-55467149D01*
X21044686Y-55467690D01*
X21028089Y-55473083D01*
X21003547Y-55481057D01*
X20837572Y-55565627D01*
X20837569Y-55565628D01*
X20837569Y-55565629D01*
X20788624Y-55601189D01*
X20686856Y-55675127D01*
X20555136Y-55806847D01*
X20445636Y-55957563D01*
X20361066Y-56123538D01*
X20303498Y-56300711D01*
X20274358Y-56484699D01*
X20274358Y-56670998D01*
X20303499Y-56854987D01*
X20303499Y-56854990D01*
X20333900Y-56948552D01*
X20335895Y-57018393D01*
X20299815Y-57078226D01*
X20251849Y-57105566D01*
X20156905Y-57134265D01*
X20036574Y-57212952D01*
X20036570Y-57212955D01*
X19943282Y-57322358D01*
X19916900Y-57376123D01*
X19755182Y-57820438D01*
X20565772Y-58115468D01*
X20528211Y-58137155D01*
X20453737Y-58211629D01*
X20401076Y-58302841D01*
X20373817Y-58404574D01*
X20373817Y-58509896D01*
X20393945Y-58585016D01*
X19584172Y-58290284D01*
X19422459Y-58734588D01*
X19422456Y-58734595D01*
X19408105Y-58792745D01*
X18544121Y-58792745D01*
X18526060Y-58509515D01*
X18525941Y-58507274D01*
X18517993Y-58322710D01*
X18517913Y-58320215D01*
X18501007Y-57523949D01*
X18508891Y-57477738D01*
X19255862Y-55488434D01*
X19996632Y-53543209D01*
X19996858Y-53542626D01*
X21455911Y-49792320D01*
X21456266Y-49791420D01*
X22876546Y-46246327D01*
X22877026Y-46245148D01*
X22893910Y-46204260D01*
X24256469Y-42904573D01*
X24256974Y-42903371D01*
X24309716Y-42779576D01*
X25593242Y-39766931D01*
X25593765Y-39765723D01*
X26884327Y-36833120D01*
X26884870Y-36831908D01*
X27754911Y-34920365D01*
X32191500Y-34920365D01*
X32191500Y-35079634D01*
X32222568Y-35235823D01*
X32222570Y-35235831D01*
X32283517Y-35382969D01*
X32371995Y-35515387D01*
X32372001Y-35515394D01*
X32484605Y-35627998D01*
X32484612Y-35628004D01*
X32617030Y-35716482D01*
X32617031Y-35716482D01*
X32617032Y-35716483D01*
X32764169Y-35777430D01*
X32920365Y-35808499D01*
X32920369Y-35808500D01*
X32920370Y-35808500D01*
X33079631Y-35808500D01*
X33079632Y-35808499D01*
X33235831Y-35777430D01*
X33382968Y-35716483D01*
X33515389Y-35628003D01*
X33628003Y-35515389D01*
X33716483Y-35382968D01*
X33777430Y-35235831D01*
X33808500Y-35079630D01*
X33808500Y-34920370D01*
X33777430Y-34764169D01*
X33716483Y-34617032D01*
X33648571Y-34515394D01*
X33628004Y-34484612D01*
X33627998Y-34484605D01*
X33515394Y-34372001D01*
X33515387Y-34371995D01*
X33382969Y-34283517D01*
X33235831Y-34222570D01*
X33235823Y-34222568D01*
X33079634Y-34191500D01*
X33079630Y-34191500D01*
X32920370Y-34191500D01*
X32920365Y-34191500D01*
X32764176Y-34222568D01*
X32764168Y-34222570D01*
X32617030Y-34283517D01*
X32484612Y-34371995D01*
X32484605Y-34372001D01*
X32372001Y-34484605D01*
X32371995Y-34484612D01*
X32283517Y-34617030D01*
X32222570Y-34764168D01*
X32222568Y-34764176D01*
X32191500Y-34920365D01*
X27754911Y-34920365D01*
X28126625Y-34103681D01*
X28127275Y-34102280D01*
X28684481Y-32920365D01*
X38691500Y-32920365D01*
X38691500Y-33079634D01*
X38722568Y-33235823D01*
X38722570Y-33235831D01*
X38783517Y-33382969D01*
X38871995Y-33515387D01*
X38872001Y-33515394D01*
X38984605Y-33627998D01*
X38984612Y-33628004D01*
X39117030Y-33716482D01*
X39117031Y-33716482D01*
X39117032Y-33716483D01*
X39264169Y-33777430D01*
X39420365Y-33808499D01*
X39420369Y-33808500D01*
X39420370Y-33808500D01*
X39579631Y-33808500D01*
X39579632Y-33808499D01*
X39735831Y-33777430D01*
X39882968Y-33716483D01*
X40015389Y-33628003D01*
X40052142Y-33591249D01*
X40113463Y-33557764D01*
X40139811Y-33554930D01*
X40152030Y-33554928D01*
X40170306Y-33558564D01*
X40329566Y-33558564D01*
X40347934Y-33554910D01*
X40360142Y-33554909D01*
X40382422Y-33561448D01*
X40405552Y-33563518D01*
X40418595Y-33572066D01*
X40427184Y-33574587D01*
X40433417Y-33581779D01*
X40447835Y-33591228D01*
X40484605Y-33627998D01*
X40484612Y-33628004D01*
X40617030Y-33716482D01*
X40617031Y-33716482D01*
X40617032Y-33716483D01*
X40764169Y-33777430D01*
X40920365Y-33808499D01*
X40920369Y-33808500D01*
X40920370Y-33808500D01*
X41079631Y-33808500D01*
X41079632Y-33808499D01*
X41235831Y-33777430D01*
X41382968Y-33716483D01*
X41515389Y-33628003D01*
X41628003Y-33515389D01*
X41674530Y-33445754D01*
X41728139Y-33400951D01*
X41797464Y-33392242D01*
X41825083Y-33400084D01*
X41930482Y-33443743D01*
X42086678Y-33474812D01*
X42086682Y-33474813D01*
X42086683Y-33474813D01*
X42149106Y-33474813D01*
X42216145Y-33494498D01*
X42261900Y-33547302D01*
X42263667Y-33551360D01*
X42283517Y-33599282D01*
X42371995Y-33731700D01*
X42372001Y-33731707D01*
X42484605Y-33844311D01*
X42484612Y-33844317D01*
X42617030Y-33932795D01*
X42617031Y-33932795D01*
X42617032Y-33932796D01*
X42764169Y-33993743D01*
X42920365Y-34024812D01*
X42920369Y-34024813D01*
X43078832Y-34024813D01*
X43145871Y-34044498D01*
X43191626Y-34097302D01*
X43200449Y-34124622D01*
X43222568Y-34235823D01*
X43222570Y-34235831D01*
X43283517Y-34382969D01*
X43371995Y-34515387D01*
X43372001Y-34515394D01*
X43484605Y-34627998D01*
X43484612Y-34628004D01*
X43617030Y-34716482D01*
X43617031Y-34716482D01*
X43617032Y-34716483D01*
X43764169Y-34777430D01*
X43920365Y-34808499D01*
X43920369Y-34808500D01*
X43920370Y-34808500D01*
X44079631Y-34808500D01*
X44079632Y-34808499D01*
X44235831Y-34777430D01*
X44382968Y-34716483D01*
X44515389Y-34628003D01*
X44628003Y-34515389D01*
X44716483Y-34382968D01*
X44777430Y-34235831D01*
X44808500Y-34079630D01*
X44808500Y-33920370D01*
X44777430Y-33764169D01*
X44716483Y-33617032D01*
X44704622Y-33599281D01*
X44628004Y-33484612D01*
X44627998Y-33484605D01*
X44515394Y-33372001D01*
X44515387Y-33371995D01*
X44382969Y-33283517D01*
X44235831Y-33222570D01*
X44235823Y-33222568D01*
X44079634Y-33191500D01*
X44079630Y-33191500D01*
X43921168Y-33191500D01*
X43854129Y-33171815D01*
X43808374Y-33119011D01*
X43799551Y-33091691D01*
X43777431Y-32980489D01*
X43777430Y-32980482D01*
X43716483Y-32833345D01*
X43670266Y-32764176D01*
X43628004Y-32700925D01*
X43627998Y-32700918D01*
X43515394Y-32588314D01*
X43515387Y-32588308D01*
X43382969Y-32499830D01*
X43235831Y-32438883D01*
X43235823Y-32438881D01*
X43079634Y-32407813D01*
X43079630Y-32407813D01*
X43017207Y-32407813D01*
X42950168Y-32388128D01*
X42904413Y-32335324D01*
X42902646Y-32331266D01*
X42882795Y-32283343D01*
X42794317Y-32150925D01*
X42794311Y-32150918D01*
X42681707Y-32038314D01*
X42681700Y-32038308D01*
X42549282Y-31949830D01*
X42402144Y-31888883D01*
X42402136Y-31888881D01*
X42245947Y-31857813D01*
X42245943Y-31857813D01*
X42086683Y-31857813D01*
X42086678Y-31857813D01*
X41930489Y-31888881D01*
X41930481Y-31888883D01*
X41783343Y-31949830D01*
X41650925Y-32038308D01*
X41650918Y-32038314D01*
X41538314Y-32150918D01*
X41491782Y-32220558D01*
X41438169Y-32265362D01*
X41368844Y-32274069D01*
X41341227Y-32266227D01*
X41235831Y-32222570D01*
X41235823Y-32222568D01*
X41079634Y-32191500D01*
X41079630Y-32191500D01*
X40920370Y-32191500D01*
X40913969Y-32192773D01*
X40844378Y-32186544D01*
X40802099Y-32158835D01*
X40765323Y-32122059D01*
X40632905Y-32033581D01*
X40485767Y-31972634D01*
X40485759Y-31972632D01*
X40329570Y-31941564D01*
X40329566Y-31941564D01*
X40170306Y-31941564D01*
X40170301Y-31941564D01*
X40014112Y-31972632D01*
X40014104Y-31972634D01*
X39866966Y-32033581D01*
X39734552Y-32122057D01*
X39734543Y-32122064D01*
X39697790Y-32158816D01*
X39636466Y-32192300D01*
X39585926Y-32192752D01*
X39579630Y-32191500D01*
X39420370Y-32191500D01*
X39420365Y-32191500D01*
X39264176Y-32222568D01*
X39264168Y-32222570D01*
X39117030Y-32283517D01*
X38984612Y-32371995D01*
X38984605Y-32372001D01*
X38872001Y-32484605D01*
X38871995Y-32484612D01*
X38783517Y-32617030D01*
X38722570Y-32764168D01*
X38722568Y-32764176D01*
X38691500Y-32920365D01*
X28684481Y-32920365D01*
X29316657Y-31579426D01*
X29317279Y-31578129D01*
X29394451Y-31420365D01*
X34691500Y-31420365D01*
X34691500Y-31579634D01*
X34722568Y-31735823D01*
X34722570Y-31735831D01*
X34783517Y-31882969D01*
X34871995Y-32015387D01*
X34872001Y-32015394D01*
X34984605Y-32127998D01*
X34984612Y-32128004D01*
X35117030Y-32216482D01*
X35117031Y-32216482D01*
X35117032Y-32216483D01*
X35264169Y-32277430D01*
X35420365Y-32308499D01*
X35420369Y-32308500D01*
X35420370Y-32308500D01*
X35579631Y-32308500D01*
X35579632Y-32308499D01*
X35735831Y-32277430D01*
X35882968Y-32216483D01*
X36015389Y-32128003D01*
X36128003Y-32015389D01*
X36216483Y-31882968D01*
X36277430Y-31735831D01*
X36308500Y-31579630D01*
X36308500Y-31420370D01*
X36277430Y-31264169D01*
X36216483Y-31117032D01*
X36148571Y-31015394D01*
X36128004Y-30984612D01*
X36127998Y-30984605D01*
X36015394Y-30872001D01*
X36015387Y-30871995D01*
X35882969Y-30783517D01*
X35735831Y-30722570D01*
X35735823Y-30722568D01*
X35579634Y-30691500D01*
X35579630Y-30691500D01*
X35420370Y-30691500D01*
X35420365Y-30691500D01*
X35264176Y-30722568D01*
X35264168Y-30722570D01*
X35117030Y-30783517D01*
X34984612Y-30871995D01*
X34984605Y-30872001D01*
X34872001Y-30984605D01*
X34871995Y-30984612D01*
X34783517Y-31117030D01*
X34722570Y-31264168D01*
X34722568Y-31264176D01*
X34691500Y-31420365D01*
X29394451Y-31420365D01*
X29883611Y-30420365D01*
X46691500Y-30420365D01*
X46691500Y-30579634D01*
X46722568Y-30735823D01*
X46722570Y-30735831D01*
X46783517Y-30882969D01*
X46871995Y-31015387D01*
X46872001Y-31015394D01*
X46984605Y-31127998D01*
X46984612Y-31128004D01*
X47117030Y-31216482D01*
X47117031Y-31216482D01*
X47117032Y-31216483D01*
X47264169Y-31277430D01*
X47420365Y-31308499D01*
X47420369Y-31308500D01*
X47420370Y-31308500D01*
X47579631Y-31308500D01*
X47579632Y-31308499D01*
X47735831Y-31277430D01*
X47882968Y-31216483D01*
X48015389Y-31128003D01*
X48128003Y-31015389D01*
X48216483Y-30882968D01*
X48277430Y-30735831D01*
X48308500Y-30579630D01*
X48308500Y-30420370D01*
X48277430Y-30264169D01*
X48216483Y-30117032D01*
X48128003Y-29984611D01*
X48127998Y-29984605D01*
X48015394Y-29872001D01*
X48015387Y-29871995D01*
X47882969Y-29783517D01*
X47735831Y-29722570D01*
X47735823Y-29722568D01*
X47579634Y-29691500D01*
X47579630Y-29691500D01*
X47420370Y-29691500D01*
X47420365Y-29691500D01*
X47264176Y-29722568D01*
X47264168Y-29722570D01*
X47117030Y-29783517D01*
X46984612Y-29871995D01*
X46984605Y-29872001D01*
X46872001Y-29984605D01*
X46871995Y-29984612D01*
X46783517Y-30117030D01*
X46722570Y-30264168D01*
X46722568Y-30264176D01*
X46691500Y-30420365D01*
X29883611Y-30420365D01*
X30450066Y-29262348D01*
X30450836Y-29260803D01*
X31132551Y-27920365D01*
X44691500Y-27920365D01*
X44691500Y-28079634D01*
X44722568Y-28235823D01*
X44722570Y-28235831D01*
X44783517Y-28382969D01*
X44871995Y-28515387D01*
X44872001Y-28515394D01*
X44984605Y-28627998D01*
X44984612Y-28628004D01*
X45117030Y-28716482D01*
X45117031Y-28716482D01*
X45117032Y-28716483D01*
X45264169Y-28777430D01*
X45420365Y-28808499D01*
X45420369Y-28808500D01*
X45420370Y-28808500D01*
X45579631Y-28808500D01*
X45579632Y-28808499D01*
X45735831Y-28777430D01*
X45882968Y-28716483D01*
X46015389Y-28628003D01*
X46128003Y-28515389D01*
X46216483Y-28382968D01*
X46277430Y-28235831D01*
X46308500Y-28079630D01*
X46308500Y-27920370D01*
X46277430Y-27764169D01*
X46216483Y-27617032D01*
X46128003Y-27484611D01*
X46127998Y-27484605D01*
X46015394Y-27372001D01*
X46015387Y-27371995D01*
X45882969Y-27283517D01*
X45735831Y-27222570D01*
X45735823Y-27222568D01*
X45579634Y-27191500D01*
X45579630Y-27191500D01*
X45420370Y-27191500D01*
X45420365Y-27191500D01*
X45264176Y-27222568D01*
X45264168Y-27222570D01*
X45117030Y-27283517D01*
X44984612Y-27371995D01*
X44984605Y-27372001D01*
X44872001Y-27484605D01*
X44871995Y-27484612D01*
X44783517Y-27617030D01*
X44722570Y-27764168D01*
X44722568Y-27764176D01*
X44691500Y-27920365D01*
X31132551Y-27920365D01*
X31521803Y-27154990D01*
X31522718Y-27153229D01*
X32176215Y-25920365D01*
X44691500Y-25920365D01*
X44691500Y-26079634D01*
X44722568Y-26235823D01*
X44722570Y-26235831D01*
X44783517Y-26382969D01*
X44871995Y-26515387D01*
X44872001Y-26515394D01*
X44984605Y-26627998D01*
X44984612Y-26628004D01*
X45117030Y-26716482D01*
X45117031Y-26716482D01*
X45117032Y-26716483D01*
X45264169Y-26777430D01*
X45420365Y-26808499D01*
X45420369Y-26808500D01*
X45420370Y-26808500D01*
X45579631Y-26808500D01*
X45579632Y-26808499D01*
X45735831Y-26777430D01*
X45882968Y-26716483D01*
X46015389Y-26628003D01*
X46128003Y-26515389D01*
X46216483Y-26382968D01*
X46277430Y-26235831D01*
X46308500Y-26079630D01*
X46308500Y-25920370D01*
X46277430Y-25764169D01*
X46216483Y-25617032D01*
X46128003Y-25484611D01*
X46127998Y-25484605D01*
X46015394Y-25372001D01*
X46015387Y-25371995D01*
X45882969Y-25283517D01*
X45735831Y-25222570D01*
X45735823Y-25222568D01*
X45579634Y-25191500D01*
X45579630Y-25191500D01*
X45420370Y-25191500D01*
X45420365Y-25191500D01*
X45264176Y-25222568D01*
X45264168Y-25222570D01*
X45117030Y-25283517D01*
X44984612Y-25371995D01*
X44984605Y-25372001D01*
X44872001Y-25484605D01*
X44871995Y-25484612D01*
X44783517Y-25617030D01*
X44722570Y-25764168D01*
X44722568Y-25764176D01*
X44691500Y-25920365D01*
X32176215Y-25920365D01*
X32525256Y-25261877D01*
X32526256Y-25260033D01*
X32991552Y-24420365D01*
X36691500Y-24420365D01*
X36691500Y-24579634D01*
X36722568Y-24735823D01*
X36722570Y-24735831D01*
X36783517Y-24882969D01*
X36871995Y-25015387D01*
X36872001Y-25015394D01*
X36984605Y-25127998D01*
X36984612Y-25128004D01*
X37117030Y-25216482D01*
X37117031Y-25216482D01*
X37117032Y-25216483D01*
X37264169Y-25277430D01*
X37420365Y-25308499D01*
X37420369Y-25308500D01*
X37420370Y-25308500D01*
X37579631Y-25308500D01*
X37579632Y-25308499D01*
X37735831Y-25277430D01*
X37882968Y-25216483D01*
X38015389Y-25128003D01*
X38128003Y-25015389D01*
X38216483Y-24882968D01*
X38277430Y-24735831D01*
X38308500Y-24579630D01*
X38308500Y-24420370D01*
X38277430Y-24264169D01*
X38216483Y-24117032D01*
X38128003Y-23984611D01*
X38128002Y-23984610D01*
X38128000Y-23984607D01*
X38063758Y-23920365D01*
X43191500Y-23920365D01*
X43191500Y-24079634D01*
X43222568Y-24235823D01*
X43222570Y-24235831D01*
X43283517Y-24382969D01*
X43371995Y-24515387D01*
X43372001Y-24515394D01*
X43484605Y-24627998D01*
X43484612Y-24628004D01*
X43617030Y-24716482D01*
X43617031Y-24716482D01*
X43617032Y-24716483D01*
X43764169Y-24777430D01*
X43920365Y-24808499D01*
X43920369Y-24808500D01*
X43920370Y-24808500D01*
X44079631Y-24808500D01*
X44079632Y-24808499D01*
X44235831Y-24777430D01*
X44382968Y-24716483D01*
X44515389Y-24628003D01*
X44628003Y-24515389D01*
X44716483Y-24382968D01*
X44777430Y-24235831D01*
X44808500Y-24079630D01*
X44808500Y-23920370D01*
X44777430Y-23764169D01*
X44716483Y-23617032D01*
X44698490Y-23590104D01*
X44628004Y-23484612D01*
X44627998Y-23484605D01*
X44515394Y-23372001D01*
X44515387Y-23371995D01*
X44382969Y-23283517D01*
X44235831Y-23222570D01*
X44235823Y-23222568D01*
X44079634Y-23191500D01*
X44079630Y-23191500D01*
X43920370Y-23191500D01*
X43920365Y-23191500D01*
X43764176Y-23222568D01*
X43764168Y-23222570D01*
X43617030Y-23283517D01*
X43484612Y-23371995D01*
X43484605Y-23372001D01*
X43372001Y-23484605D01*
X43371995Y-23484612D01*
X43283517Y-23617030D01*
X43222570Y-23764168D01*
X43222568Y-23764176D01*
X43191500Y-23920365D01*
X38063758Y-23920365D01*
X38015394Y-23872001D01*
X38015387Y-23871995D01*
X37882969Y-23783517D01*
X37735831Y-23722570D01*
X37735823Y-23722568D01*
X37579634Y-23691500D01*
X37579630Y-23691500D01*
X37420370Y-23691500D01*
X37420365Y-23691500D01*
X37264176Y-23722568D01*
X37264168Y-23722570D01*
X37117030Y-23783517D01*
X36984612Y-23871995D01*
X36984605Y-23872001D01*
X36872001Y-23984605D01*
X36871995Y-23984612D01*
X36783517Y-24117030D01*
X36722570Y-24264168D01*
X36722568Y-24264176D01*
X36691500Y-24420365D01*
X32991552Y-24420365D01*
X33451676Y-23590031D01*
X33452894Y-23587888D01*
X34288733Y-22150693D01*
X34290202Y-22148234D01*
X34290203Y-22148233D01*
X34430018Y-21920365D01*
X42691500Y-21920365D01*
X42691500Y-22079634D01*
X42722568Y-22235823D01*
X42722570Y-22235831D01*
X42783517Y-22382969D01*
X42871995Y-22515387D01*
X42872001Y-22515394D01*
X42984605Y-22627998D01*
X42984612Y-22628004D01*
X43117030Y-22716482D01*
X43117031Y-22716482D01*
X43117032Y-22716483D01*
X43264169Y-22777430D01*
X43420365Y-22808499D01*
X43420369Y-22808500D01*
X43420370Y-22808500D01*
X43579631Y-22808500D01*
X43579632Y-22808499D01*
X43735831Y-22777430D01*
X43882968Y-22716483D01*
X44015389Y-22628003D01*
X44128003Y-22515389D01*
X44216483Y-22382968D01*
X44277430Y-22235831D01*
X44308500Y-22079630D01*
X44308500Y-21920370D01*
X44277430Y-21764169D01*
X44216483Y-21617032D01*
X44128003Y-21484611D01*
X44127998Y-21484605D01*
X44015394Y-21372001D01*
X44015387Y-21371995D01*
X43882969Y-21283517D01*
X43735831Y-21222570D01*
X43735823Y-21222568D01*
X43579634Y-21191500D01*
X43579630Y-21191500D01*
X43420370Y-21191500D01*
X43420365Y-21191500D01*
X43264176Y-21222568D01*
X43264168Y-21222570D01*
X43117030Y-21283517D01*
X42984612Y-21371995D01*
X42984605Y-21372001D01*
X42872001Y-21484605D01*
X42871995Y-21484612D01*
X42783517Y-21617030D01*
X42722570Y-21764168D01*
X42722568Y-21764176D01*
X42691500Y-21920365D01*
X34430018Y-21920365D01*
X35017735Y-20962511D01*
X35019521Y-20959690D01*
X35604722Y-20062461D01*
X35607170Y-20058850D01*
X35990748Y-19514007D01*
X36013262Y-19489715D01*
X36081140Y-19433766D01*
X36086227Y-19429794D01*
X36401405Y-19196746D01*
X36407996Y-19192197D01*
X36811900Y-18932454D01*
X36818907Y-18928269D01*
X37260547Y-18683908D01*
X37268005Y-18680107D01*
X37726017Y-18465915D01*
X37734034Y-18462505D01*
X38197568Y-18284319D01*
X38206143Y-18281378D01*
X38669331Y-18141288D01*
X38678428Y-18138911D01*
X39137991Y-18037367D01*
X39147607Y-18035638D01*
X39601894Y-17972357D01*
X39611919Y-17971375D01*
X40060294Y-17945867D01*
X40070618Y-17945712D01*
X40513129Y-17957568D01*
G37*
%TD.AperFunction*%
%TD*%
M02*
