%TF.GenerationSoftware,KiCad,Pcbnew,10.0.3*%
%TF.CreationDate,2026-05-20T09:56:52+02:00*%
%TF.ProjectId,vesta,76657374-612e-46b6-9963-61645f706362,1*%
%TF.SameCoordinates,Original*%
%TF.FileFunction,Soldermask,Top*%
%TF.FilePolarity,Negative*%
%FSLAX46Y46*%
G04 Gerber Fmt 4.6, Leading zero omitted, Abs format (unit mm)*
G04 Created by KiCad (PCBNEW 10.0.3) date 2026-05-20 09:56:52*
%MOMM*%
%LPD*%
G01*
G04 APERTURE LIST*
G04 APERTURE END LIST*
G36*
X42262002Y-71762002D02*
G01*
X40737998Y-71762002D01*
X40737998Y-70237998D01*
X42262002Y-70237998D01*
X42262002Y-71762002D01*
G37*
G36*
X39721197Y-70270811D02*
G01*
X39859205Y-70327975D01*
X39983408Y-70410965D01*
X40089035Y-70516592D01*
X40172025Y-70640795D01*
X40229189Y-70778803D01*
X40258332Y-70925311D01*
X40258332Y-71074689D01*
X40229189Y-71221197D01*
X40172025Y-71359205D01*
X40089035Y-71483408D01*
X39983408Y-71589035D01*
X39859205Y-71672025D01*
X39721197Y-71729189D01*
X39574689Y-71758332D01*
X39425311Y-71758332D01*
X39278803Y-71729189D01*
X39140795Y-71672025D01*
X39016592Y-71589035D01*
X38910965Y-71483408D01*
X38827975Y-71359205D01*
X38770811Y-71221197D01*
X38741668Y-71074689D01*
X38741668Y-70925311D01*
X38770811Y-70778803D01*
X38827975Y-70640795D01*
X38910965Y-70516592D01*
X39016592Y-70410965D01*
X39140795Y-70327975D01*
X39278803Y-70270811D01*
X39425311Y-70241668D01*
X39574689Y-70241668D01*
X39721197Y-70270811D01*
G37*
G36*
X44137457Y-68151040D02*
G01*
X44187647Y-68156863D01*
X44204796Y-68164435D01*
X44228278Y-68169106D01*
X44253417Y-68185903D01*
X44273303Y-68194684D01*
X44286884Y-68208265D01*
X44309384Y-68223299D01*
X44324417Y-68245798D01*
X44337998Y-68259379D01*
X44346777Y-68279262D01*
X44363577Y-68304405D01*
X44368248Y-68327888D01*
X44375819Y-68345035D01*
X44381640Y-68395215D01*
X44382607Y-68400076D01*
X44382607Y-68900076D01*
X44381639Y-68904939D01*
X44375819Y-68955116D01*
X44368248Y-68972261D01*
X44363577Y-68995747D01*
X44346776Y-69020891D01*
X44337998Y-69040772D01*
X44324419Y-69054350D01*
X44309384Y-69076853D01*
X44286881Y-69091888D01*
X44273303Y-69105467D01*
X44253422Y-69114245D01*
X44228278Y-69131046D01*
X44204792Y-69135717D01*
X44187647Y-69143288D01*
X44137468Y-69149108D01*
X44132607Y-69150076D01*
X43182607Y-69150076D01*
X43177745Y-69149108D01*
X43127566Y-69143288D01*
X43110419Y-69135717D01*
X43086936Y-69131046D01*
X43061793Y-69114246D01*
X43041910Y-69105467D01*
X43028329Y-69091886D01*
X43005830Y-69076853D01*
X42990796Y-69054353D01*
X42977215Y-69040772D01*
X42968434Y-69020886D01*
X42951637Y-68995747D01*
X42946966Y-68972265D01*
X42939394Y-68955116D01*
X42933571Y-68904925D01*
X42932607Y-68900076D01*
X42932607Y-68400076D01*
X42933571Y-68395226D01*
X42939394Y-68345035D01*
X42946966Y-68327884D01*
X42951637Y-68304405D01*
X42968433Y-68279267D01*
X42977215Y-68259379D01*
X42990798Y-68245795D01*
X43005830Y-68223299D01*
X43028326Y-68208267D01*
X43041910Y-68194684D01*
X43061798Y-68185902D01*
X43086936Y-68169106D01*
X43110415Y-68164435D01*
X43127566Y-68156863D01*
X43177758Y-68151040D01*
X43182607Y-68150076D01*
X44132607Y-68150076D01*
X44137457Y-68151040D01*
G37*
G36*
X41912457Y-68026040D02*
G01*
X41956924Y-68031199D01*
X41972117Y-68037907D01*
X41993711Y-68042203D01*
X42016829Y-68057650D01*
X42034174Y-68065309D01*
X42046019Y-68077154D01*
X42066706Y-68090977D01*
X42080528Y-68111663D01*
X42092373Y-68123508D01*
X42100030Y-68140850D01*
X42115480Y-68163972D01*
X42119775Y-68185567D01*
X42126483Y-68200758D01*
X42131640Y-68245215D01*
X42132607Y-68250076D01*
X42132607Y-68700076D01*
X42131639Y-68704938D01*
X42126483Y-68749393D01*
X42119775Y-68764582D01*
X42115480Y-68786180D01*
X42100029Y-68809303D01*
X42092373Y-68826643D01*
X42080530Y-68838485D01*
X42066706Y-68859175D01*
X42046016Y-68872999D01*
X42034174Y-68884842D01*
X42016834Y-68892498D01*
X41993711Y-68907949D01*
X41972113Y-68912244D01*
X41956924Y-68918952D01*
X41912468Y-68924108D01*
X41907607Y-68925076D01*
X41407607Y-68925076D01*
X41402745Y-68924109D01*
X41358289Y-68918952D01*
X41343098Y-68912244D01*
X41321503Y-68907949D01*
X41298381Y-68892499D01*
X41281039Y-68884842D01*
X41269194Y-68872997D01*
X41248508Y-68859175D01*
X41234685Y-68838488D01*
X41222840Y-68826643D01*
X41215181Y-68809298D01*
X41199734Y-68786180D01*
X41195438Y-68764586D01*
X41188730Y-68749393D01*
X41183571Y-68704925D01*
X41182607Y-68700076D01*
X41182607Y-68250076D01*
X41183571Y-68245226D01*
X41188730Y-68200758D01*
X41195439Y-68185563D01*
X41199734Y-68163972D01*
X41215180Y-68140855D01*
X41222840Y-68123508D01*
X41234687Y-68111660D01*
X41248508Y-68090977D01*
X41269191Y-68077156D01*
X41281039Y-68065309D01*
X41298386Y-68057649D01*
X41321503Y-68042203D01*
X41343094Y-68037908D01*
X41358289Y-68031199D01*
X41402758Y-68026040D01*
X41407607Y-68025076D01*
X41907607Y-68025076D01*
X41912457Y-68026040D01*
G37*
G36*
X38379850Y-67901040D02*
G01*
X38424317Y-67906199D01*
X38439510Y-67912907D01*
X38461104Y-67917203D01*
X38484222Y-67932650D01*
X38501567Y-67940309D01*
X38513412Y-67952154D01*
X38534099Y-67965977D01*
X38547921Y-67986663D01*
X38559766Y-67998508D01*
X38567423Y-68015850D01*
X38582873Y-68038972D01*
X38587168Y-68060567D01*
X38593876Y-68075758D01*
X38599033Y-68120215D01*
X38600000Y-68125076D01*
X38600000Y-68575076D01*
X38599032Y-68579938D01*
X38593876Y-68624393D01*
X38587168Y-68639582D01*
X38582873Y-68661180D01*
X38567422Y-68684303D01*
X38559766Y-68701643D01*
X38547923Y-68713485D01*
X38534099Y-68734175D01*
X38513409Y-68747999D01*
X38501567Y-68759842D01*
X38484227Y-68767498D01*
X38461104Y-68782949D01*
X38439506Y-68787244D01*
X38424317Y-68793952D01*
X38379861Y-68799108D01*
X38375000Y-68800076D01*
X37625000Y-68800076D01*
X37620138Y-68799109D01*
X37575682Y-68793952D01*
X37560491Y-68787244D01*
X37538896Y-68782949D01*
X37515774Y-68767499D01*
X37498432Y-68759842D01*
X37486587Y-68747997D01*
X37465901Y-68734175D01*
X37452078Y-68713488D01*
X37440233Y-68701643D01*
X37432574Y-68684298D01*
X37417127Y-68661180D01*
X37412831Y-68639586D01*
X37406123Y-68624393D01*
X37400964Y-68579925D01*
X37400000Y-68575076D01*
X37400000Y-68125076D01*
X37400964Y-68120226D01*
X37406123Y-68075758D01*
X37412832Y-68060563D01*
X37417127Y-68038972D01*
X37432573Y-68015855D01*
X37440233Y-67998508D01*
X37452080Y-67986660D01*
X37465901Y-67965977D01*
X37486584Y-67952156D01*
X37498432Y-67940309D01*
X37515779Y-67932649D01*
X37538896Y-67917203D01*
X37560487Y-67912908D01*
X37575682Y-67906199D01*
X37620151Y-67901040D01*
X37625000Y-67900076D01*
X38375000Y-67900076D01*
X38379850Y-67901040D01*
G37*
G36*
X41912457Y-66476040D02*
G01*
X41956924Y-66481199D01*
X41972117Y-66487907D01*
X41993711Y-66492203D01*
X42016829Y-66507650D01*
X42034174Y-66515309D01*
X42046019Y-66527154D01*
X42066706Y-66540977D01*
X42080528Y-66561663D01*
X42092373Y-66573508D01*
X42100030Y-66590850D01*
X42115480Y-66613972D01*
X42119775Y-66635567D01*
X42126483Y-66650758D01*
X42131640Y-66695215D01*
X42132607Y-66700076D01*
X42132607Y-67150076D01*
X42131639Y-67154938D01*
X42126483Y-67199393D01*
X42119775Y-67214582D01*
X42115480Y-67236180D01*
X42100029Y-67259303D01*
X42092373Y-67276643D01*
X42080530Y-67288485D01*
X42066706Y-67309175D01*
X42046016Y-67322999D01*
X42034174Y-67334842D01*
X42016834Y-67342498D01*
X41993711Y-67357949D01*
X41972113Y-67362244D01*
X41956924Y-67368952D01*
X41912468Y-67374108D01*
X41907607Y-67375076D01*
X41407607Y-67375076D01*
X41402745Y-67374109D01*
X41358289Y-67368952D01*
X41343098Y-67362244D01*
X41321503Y-67357949D01*
X41298381Y-67342499D01*
X41281039Y-67334842D01*
X41269194Y-67322997D01*
X41248508Y-67309175D01*
X41234685Y-67288488D01*
X41222840Y-67276643D01*
X41215181Y-67259298D01*
X41199734Y-67236180D01*
X41195438Y-67214586D01*
X41188730Y-67199393D01*
X41183571Y-67154925D01*
X41182607Y-67150076D01*
X41182607Y-66700076D01*
X41183571Y-66695226D01*
X41188730Y-66650758D01*
X41195439Y-66635563D01*
X41199734Y-66613972D01*
X41215180Y-66590855D01*
X41222840Y-66573508D01*
X41234687Y-66561660D01*
X41248508Y-66540977D01*
X41269191Y-66527156D01*
X41281039Y-66515309D01*
X41298386Y-66507649D01*
X41321503Y-66492203D01*
X41343094Y-66487908D01*
X41358289Y-66481199D01*
X41402758Y-66476040D01*
X41407607Y-66475076D01*
X41907607Y-66475076D01*
X41912457Y-66476040D01*
G37*
G36*
X44137457Y-66251040D02*
G01*
X44187647Y-66256863D01*
X44204796Y-66264435D01*
X44228278Y-66269106D01*
X44253417Y-66285903D01*
X44273303Y-66294684D01*
X44286884Y-66308265D01*
X44309384Y-66323299D01*
X44324417Y-66345798D01*
X44337998Y-66359379D01*
X44346777Y-66379262D01*
X44363577Y-66404405D01*
X44368248Y-66427888D01*
X44375819Y-66445035D01*
X44381640Y-66495215D01*
X44382607Y-66500076D01*
X44382607Y-67000076D01*
X44381639Y-67004939D01*
X44375819Y-67055116D01*
X44368248Y-67072261D01*
X44363577Y-67095747D01*
X44346776Y-67120891D01*
X44337998Y-67140772D01*
X44324419Y-67154350D01*
X44309384Y-67176853D01*
X44286881Y-67191888D01*
X44273303Y-67205467D01*
X44253422Y-67214245D01*
X44228278Y-67231046D01*
X44204792Y-67235717D01*
X44187647Y-67243288D01*
X44137468Y-67249108D01*
X44132607Y-67250076D01*
X43182607Y-67250076D01*
X43177745Y-67249108D01*
X43127566Y-67243288D01*
X43110419Y-67235717D01*
X43086936Y-67231046D01*
X43061793Y-67214246D01*
X43041910Y-67205467D01*
X43028329Y-67191886D01*
X43005830Y-67176853D01*
X42990796Y-67154353D01*
X42977215Y-67140772D01*
X42968434Y-67120886D01*
X42951637Y-67095747D01*
X42946966Y-67072265D01*
X42939394Y-67055116D01*
X42933571Y-67004925D01*
X42932607Y-67000076D01*
X42932607Y-66500076D01*
X42933571Y-66495226D01*
X42939394Y-66445035D01*
X42946966Y-66427884D01*
X42951637Y-66404405D01*
X42968433Y-66379267D01*
X42977215Y-66359379D01*
X42990798Y-66345795D01*
X43005830Y-66323299D01*
X43028326Y-66308267D01*
X43041910Y-66294684D01*
X43061798Y-66285902D01*
X43086936Y-66269106D01*
X43110415Y-66264435D01*
X43127566Y-66256863D01*
X43177758Y-66251040D01*
X43182607Y-66250076D01*
X44132607Y-66250076D01*
X44137457Y-66251040D01*
G37*
G36*
X38379850Y-64601040D02*
G01*
X38424317Y-64606199D01*
X38439510Y-64612907D01*
X38461104Y-64617203D01*
X38484222Y-64632650D01*
X38501567Y-64640309D01*
X38513412Y-64652154D01*
X38534099Y-64665977D01*
X38547921Y-64686663D01*
X38559766Y-64698508D01*
X38567423Y-64715850D01*
X38582873Y-64738972D01*
X38587168Y-64760567D01*
X38593876Y-64775758D01*
X38599033Y-64820215D01*
X38600000Y-64825076D01*
X38600000Y-65275076D01*
X38599032Y-65279938D01*
X38593876Y-65324393D01*
X38587168Y-65339582D01*
X38582873Y-65361180D01*
X38567422Y-65384303D01*
X38559766Y-65401643D01*
X38547923Y-65413485D01*
X38534099Y-65434175D01*
X38513409Y-65447999D01*
X38501567Y-65459842D01*
X38484227Y-65467498D01*
X38461104Y-65482949D01*
X38439506Y-65487244D01*
X38424317Y-65493952D01*
X38379861Y-65499108D01*
X38375000Y-65500076D01*
X37625000Y-65500076D01*
X37620138Y-65499109D01*
X37575682Y-65493952D01*
X37560491Y-65487244D01*
X37538896Y-65482949D01*
X37515774Y-65467499D01*
X37498432Y-65459842D01*
X37486587Y-65447997D01*
X37465901Y-65434175D01*
X37452078Y-65413488D01*
X37440233Y-65401643D01*
X37432574Y-65384298D01*
X37417127Y-65361180D01*
X37412831Y-65339586D01*
X37406123Y-65324393D01*
X37400964Y-65279925D01*
X37400000Y-65275076D01*
X37400000Y-64825076D01*
X37400964Y-64820226D01*
X37406123Y-64775758D01*
X37412832Y-64760563D01*
X37417127Y-64738972D01*
X37432573Y-64715855D01*
X37440233Y-64698508D01*
X37452080Y-64686660D01*
X37465901Y-64665977D01*
X37486584Y-64652156D01*
X37498432Y-64640309D01*
X37515779Y-64632649D01*
X37538896Y-64617203D01*
X37560487Y-64612908D01*
X37575682Y-64606199D01*
X37620151Y-64601040D01*
X37625000Y-64600076D01*
X38375000Y-64600076D01*
X38379850Y-64601040D01*
G37*
G36*
X41503536Y-63746464D02*
G01*
X41504895Y-63749748D01*
X41506162Y-63750000D01*
X41793838Y-63750000D01*
X41795104Y-63749748D01*
X41796464Y-63746464D01*
X41800000Y-63745000D01*
X42300000Y-63745000D01*
X42303536Y-63746464D01*
X42304701Y-63749278D01*
X42361327Y-63749278D01*
X42365263Y-63749278D01*
X42366557Y-63749448D01*
X42492636Y-63783230D01*
X42493842Y-63783730D01*
X42497244Y-63785694D01*
X42497246Y-63785695D01*
X42603473Y-63847025D01*
X42603475Y-63847026D01*
X42606881Y-63848993D01*
X42607917Y-63849787D01*
X42700213Y-63942083D01*
X42701007Y-63943119D01*
X42766270Y-64056158D01*
X42766770Y-64057364D01*
X42800552Y-64183443D01*
X42800722Y-64184737D01*
X42800722Y-64245298D01*
X42803536Y-64246464D01*
X42805000Y-64250000D01*
X42805000Y-64750000D01*
X42803536Y-64753536D01*
X42800722Y-64754701D01*
X42800722Y-64815263D01*
X42800552Y-64816557D01*
X42766770Y-64942636D01*
X42766270Y-64943842D01*
X42701007Y-65056881D01*
X42700213Y-65057917D01*
X42607917Y-65150213D01*
X42606881Y-65151007D01*
X42493842Y-65216270D01*
X42492636Y-65216770D01*
X42366557Y-65250552D01*
X42365263Y-65250722D01*
X42304701Y-65250722D01*
X42303536Y-65253536D01*
X42300000Y-65255000D01*
X42288066Y-65255000D01*
X41811934Y-65255000D01*
X41800000Y-65255000D01*
X41796464Y-65253536D01*
X41795104Y-65250251D01*
X41793838Y-65250000D01*
X41506162Y-65250000D01*
X41504895Y-65250251D01*
X41503536Y-65253536D01*
X41500000Y-65255000D01*
X41488066Y-65255000D01*
X41011934Y-65255000D01*
X41000000Y-65255000D01*
X40996464Y-65253536D01*
X40995299Y-65250722D01*
X40938673Y-65250722D01*
X40934737Y-65250722D01*
X40933443Y-65250552D01*
X40807364Y-65216770D01*
X40806158Y-65216270D01*
X40693119Y-65151007D01*
X40692083Y-65150213D01*
X40599787Y-65057917D01*
X40598993Y-65056881D01*
X40573657Y-65012999D01*
X40535695Y-64947246D01*
X40535694Y-64947244D01*
X40533730Y-64943842D01*
X40533230Y-64942636D01*
X40499448Y-64816557D01*
X40499278Y-64815263D01*
X40499278Y-64754701D01*
X40496464Y-64753536D01*
X40495000Y-64750000D01*
X40495000Y-64250000D01*
X40496464Y-64246464D01*
X40499278Y-64245298D01*
X40499278Y-64184737D01*
X40499448Y-64183443D01*
X40533230Y-64057364D01*
X40533730Y-64056158D01*
X40535692Y-64052758D01*
X40535695Y-64052753D01*
X40597025Y-63946526D01*
X40597028Y-63946520D01*
X40598993Y-63943119D01*
X40599787Y-63942083D01*
X40692083Y-63849787D01*
X40693119Y-63848993D01*
X40696520Y-63847028D01*
X40696526Y-63847025D01*
X40802753Y-63785695D01*
X40802758Y-63785692D01*
X40806158Y-63783730D01*
X40807364Y-63783230D01*
X40933443Y-63749448D01*
X40934737Y-63749278D01*
X40995299Y-63749278D01*
X40996464Y-63746464D01*
X41000000Y-63745000D01*
X41500000Y-63745000D01*
X41503536Y-63746464D01*
G37*
G36*
X45884848Y-63987964D02*
G01*
X45932293Y-63993468D01*
X45948505Y-64000626D01*
X45971079Y-64005117D01*
X45995246Y-64021265D01*
X46013914Y-64029508D01*
X46026664Y-64042258D01*
X46048291Y-64056709D01*
X46062741Y-64078335D01*
X46075491Y-64091085D01*
X46083733Y-64109751D01*
X46099883Y-64133921D01*
X46104373Y-64156496D01*
X46111531Y-64172706D01*
X46117033Y-64220140D01*
X46118000Y-64225000D01*
X46118000Y-64775000D01*
X46117033Y-64779860D01*
X46111531Y-64827293D01*
X46104373Y-64843501D01*
X46099883Y-64866079D01*
X46083731Y-64890250D01*
X46075491Y-64908914D01*
X46062743Y-64921661D01*
X46048291Y-64943291D01*
X46026661Y-64957743D01*
X46013914Y-64970491D01*
X45995250Y-64978731D01*
X45971079Y-64994883D01*
X45948501Y-64999373D01*
X45932293Y-65006531D01*
X45884860Y-65012033D01*
X45880000Y-65013000D01*
X45480000Y-65013000D01*
X45475140Y-65012033D01*
X45427706Y-65006531D01*
X45411496Y-64999373D01*
X45388921Y-64994883D01*
X45364751Y-64978733D01*
X45346085Y-64970491D01*
X45333335Y-64957741D01*
X45311709Y-64943291D01*
X45297258Y-64921664D01*
X45284508Y-64908914D01*
X45276265Y-64890246D01*
X45260117Y-64866079D01*
X45255626Y-64843505D01*
X45248468Y-64827293D01*
X45242964Y-64779848D01*
X45242000Y-64775000D01*
X45242000Y-64225000D01*
X45242964Y-64220152D01*
X45248468Y-64172706D01*
X45255627Y-64156492D01*
X45260117Y-64133921D01*
X45276263Y-64109755D01*
X45284508Y-64091085D01*
X45297260Y-64078332D01*
X45311709Y-64056709D01*
X45333332Y-64042260D01*
X45346085Y-64029508D01*
X45364755Y-64021263D01*
X45388921Y-64005117D01*
X45411492Y-64000627D01*
X45427706Y-63993468D01*
X45475152Y-63987964D01*
X45480000Y-63987000D01*
X45880000Y-63987000D01*
X45884848Y-63987964D01*
G37*
G36*
X47524848Y-63987964D02*
G01*
X47572293Y-63993468D01*
X47588505Y-64000626D01*
X47611079Y-64005117D01*
X47635246Y-64021265D01*
X47653914Y-64029508D01*
X47666664Y-64042258D01*
X47688291Y-64056709D01*
X47702741Y-64078335D01*
X47715491Y-64091085D01*
X47723733Y-64109751D01*
X47739883Y-64133921D01*
X47744373Y-64156496D01*
X47751531Y-64172706D01*
X47757033Y-64220140D01*
X47758000Y-64225000D01*
X47758000Y-64775000D01*
X47757033Y-64779860D01*
X47751531Y-64827293D01*
X47744373Y-64843501D01*
X47739883Y-64866079D01*
X47723731Y-64890250D01*
X47715491Y-64908914D01*
X47702743Y-64921661D01*
X47688291Y-64943291D01*
X47666661Y-64957743D01*
X47653914Y-64970491D01*
X47635250Y-64978731D01*
X47611079Y-64994883D01*
X47588501Y-64999373D01*
X47572293Y-65006531D01*
X47524860Y-65012033D01*
X47520000Y-65013000D01*
X47120000Y-65013000D01*
X47115140Y-65012033D01*
X47067706Y-65006531D01*
X47051496Y-64999373D01*
X47028921Y-64994883D01*
X47004751Y-64978733D01*
X46986085Y-64970491D01*
X46973335Y-64957741D01*
X46951709Y-64943291D01*
X46937258Y-64921664D01*
X46924508Y-64908914D01*
X46916265Y-64890246D01*
X46900117Y-64866079D01*
X46895626Y-64843505D01*
X46888468Y-64827293D01*
X46882964Y-64779848D01*
X46882000Y-64775000D01*
X46882000Y-64225000D01*
X46882964Y-64220152D01*
X46888468Y-64172706D01*
X46895627Y-64156492D01*
X46900117Y-64133921D01*
X46916263Y-64109755D01*
X46924508Y-64091085D01*
X46937260Y-64078332D01*
X46951709Y-64056709D01*
X46973332Y-64042260D01*
X46986085Y-64029508D01*
X47004755Y-64021263D01*
X47028921Y-64005117D01*
X47051492Y-64000627D01*
X47067706Y-63993468D01*
X47115152Y-63987964D01*
X47120000Y-63987000D01*
X47520000Y-63987000D01*
X47524848Y-63987964D01*
G37*
G36*
X29262002Y-64929528D02*
G01*
X27737998Y-64929528D01*
X27737998Y-63405524D01*
X29262002Y-63405524D01*
X29262002Y-64929528D01*
G37*
G36*
X55762002Y-64929528D02*
G01*
X54237998Y-64929528D01*
X54237998Y-63405524D01*
X55762002Y-63405524D01*
X55762002Y-64929528D01*
G37*
G36*
X26721197Y-63438337D02*
G01*
X26859205Y-63495501D01*
X26983408Y-63578491D01*
X27089035Y-63684118D01*
X27172025Y-63808321D01*
X27229189Y-63946329D01*
X27258332Y-64092837D01*
X27258332Y-64242215D01*
X27229189Y-64388723D01*
X27172025Y-64526731D01*
X27089035Y-64650934D01*
X26983408Y-64756561D01*
X26859205Y-64839551D01*
X26721197Y-64896715D01*
X26574689Y-64925858D01*
X26425311Y-64925858D01*
X26278803Y-64896715D01*
X26140795Y-64839551D01*
X26016592Y-64756561D01*
X25910965Y-64650934D01*
X25827975Y-64526731D01*
X25770811Y-64388723D01*
X25741668Y-64242215D01*
X25741668Y-64092837D01*
X25770811Y-63946329D01*
X25827975Y-63808321D01*
X25910965Y-63684118D01*
X26016592Y-63578491D01*
X26140795Y-63495501D01*
X26278803Y-63438337D01*
X26425311Y-63409194D01*
X26574689Y-63409194D01*
X26721197Y-63438337D01*
G37*
G36*
X53221197Y-63438337D02*
G01*
X53359205Y-63495501D01*
X53483408Y-63578491D01*
X53589035Y-63684118D01*
X53672025Y-63808321D01*
X53729189Y-63946329D01*
X53758332Y-64092837D01*
X53758332Y-64242215D01*
X53729189Y-64388723D01*
X53672025Y-64526731D01*
X53589035Y-64650934D01*
X53483408Y-64756561D01*
X53359205Y-64839551D01*
X53221197Y-64896715D01*
X53074689Y-64925858D01*
X52925311Y-64925858D01*
X52778803Y-64896715D01*
X52640795Y-64839551D01*
X52516592Y-64756561D01*
X52410965Y-64650934D01*
X52327975Y-64526731D01*
X52270811Y-64388723D01*
X52241668Y-64242215D01*
X52241668Y-64092837D01*
X52270811Y-63946329D01*
X52327975Y-63808321D01*
X52410965Y-63684118D01*
X52516592Y-63578491D01*
X52640795Y-63495501D01*
X52778803Y-63438337D01*
X52925311Y-63409194D01*
X53074689Y-63409194D01*
X53221197Y-63438337D01*
G37*
G36*
X45884848Y-62487964D02*
G01*
X45932293Y-62493468D01*
X45948505Y-62500626D01*
X45971079Y-62505117D01*
X45995246Y-62521265D01*
X46013914Y-62529508D01*
X46026664Y-62542258D01*
X46048291Y-62556709D01*
X46062741Y-62578335D01*
X46075491Y-62591085D01*
X46083733Y-62609751D01*
X46099883Y-62633921D01*
X46104373Y-62656496D01*
X46111531Y-62672706D01*
X46117033Y-62720140D01*
X46118000Y-62725000D01*
X46118000Y-63275000D01*
X46117033Y-63279860D01*
X46111531Y-63327293D01*
X46104373Y-63343501D01*
X46099883Y-63366079D01*
X46083731Y-63390250D01*
X46075491Y-63408914D01*
X46062743Y-63421661D01*
X46048291Y-63443291D01*
X46026661Y-63457743D01*
X46013914Y-63470491D01*
X45995250Y-63478731D01*
X45971079Y-63494883D01*
X45948501Y-63499373D01*
X45932293Y-63506531D01*
X45884860Y-63512033D01*
X45880000Y-63513000D01*
X45480000Y-63513000D01*
X45475140Y-63512033D01*
X45427706Y-63506531D01*
X45411496Y-63499373D01*
X45388921Y-63494883D01*
X45364751Y-63478733D01*
X45346085Y-63470491D01*
X45333335Y-63457741D01*
X45311709Y-63443291D01*
X45297258Y-63421664D01*
X45284508Y-63408914D01*
X45276265Y-63390246D01*
X45260117Y-63366079D01*
X45255626Y-63343505D01*
X45248468Y-63327293D01*
X45242964Y-63279848D01*
X45242000Y-63275000D01*
X45242000Y-62725000D01*
X45242964Y-62720152D01*
X45248468Y-62672706D01*
X45255627Y-62656492D01*
X45260117Y-62633921D01*
X45276263Y-62609755D01*
X45284508Y-62591085D01*
X45297260Y-62578332D01*
X45311709Y-62556709D01*
X45333332Y-62542260D01*
X45346085Y-62529508D01*
X45364755Y-62521263D01*
X45388921Y-62505117D01*
X45411492Y-62500627D01*
X45427706Y-62493468D01*
X45475152Y-62487964D01*
X45480000Y-62487000D01*
X45880000Y-62487000D01*
X45884848Y-62487964D01*
G37*
G36*
X47524848Y-62487964D02*
G01*
X47572293Y-62493468D01*
X47588505Y-62500626D01*
X47611079Y-62505117D01*
X47635246Y-62521265D01*
X47653914Y-62529508D01*
X47666664Y-62542258D01*
X47688291Y-62556709D01*
X47702741Y-62578335D01*
X47715491Y-62591085D01*
X47723733Y-62609751D01*
X47739883Y-62633921D01*
X47744373Y-62656496D01*
X47751531Y-62672706D01*
X47757033Y-62720140D01*
X47758000Y-62725000D01*
X47758000Y-63275000D01*
X47757033Y-63279860D01*
X47751531Y-63327293D01*
X47744373Y-63343501D01*
X47739883Y-63366079D01*
X47723731Y-63390250D01*
X47715491Y-63408914D01*
X47702743Y-63421661D01*
X47688291Y-63443291D01*
X47666661Y-63457743D01*
X47653914Y-63470491D01*
X47635250Y-63478731D01*
X47611079Y-63494883D01*
X47588501Y-63499373D01*
X47572293Y-63506531D01*
X47524860Y-63512033D01*
X47520000Y-63513000D01*
X47120000Y-63513000D01*
X47115140Y-63512033D01*
X47067706Y-63506531D01*
X47051496Y-63499373D01*
X47028921Y-63494883D01*
X47004751Y-63478733D01*
X46986085Y-63470491D01*
X46973335Y-63457741D01*
X46951709Y-63443291D01*
X46937258Y-63421664D01*
X46924508Y-63408914D01*
X46916265Y-63390246D01*
X46900117Y-63366079D01*
X46895626Y-63343505D01*
X46888468Y-63327293D01*
X46882964Y-63279848D01*
X46882000Y-63275000D01*
X46882000Y-62725000D01*
X46882964Y-62720152D01*
X46888468Y-62672706D01*
X46895627Y-62656492D01*
X46900117Y-62633921D01*
X46916263Y-62609755D01*
X46924508Y-62591085D01*
X46937260Y-62578332D01*
X46951709Y-62556709D01*
X46973332Y-62542260D01*
X46986085Y-62529508D01*
X47004755Y-62521263D01*
X47028921Y-62505117D01*
X47051492Y-62500627D01*
X47067706Y-62493468D01*
X47115152Y-62487964D01*
X47120000Y-62487000D01*
X47520000Y-62487000D01*
X47524848Y-62487964D01*
G37*
G36*
X33384848Y-61987964D02*
G01*
X33432293Y-61993468D01*
X33448505Y-62000626D01*
X33471079Y-62005117D01*
X33495246Y-62021265D01*
X33513914Y-62029508D01*
X33526664Y-62042258D01*
X33548291Y-62056709D01*
X33562741Y-62078335D01*
X33575491Y-62091085D01*
X33583733Y-62109751D01*
X33599883Y-62133921D01*
X33604373Y-62156496D01*
X33611531Y-62172706D01*
X33617033Y-62220140D01*
X33618000Y-62225000D01*
X33618000Y-62775000D01*
X33617033Y-62779860D01*
X33611531Y-62827293D01*
X33604373Y-62843501D01*
X33599883Y-62866079D01*
X33583731Y-62890250D01*
X33575491Y-62908914D01*
X33562743Y-62921661D01*
X33548291Y-62943291D01*
X33526661Y-62957743D01*
X33513914Y-62970491D01*
X33495250Y-62978731D01*
X33471079Y-62994883D01*
X33448501Y-62999373D01*
X33432293Y-63006531D01*
X33384860Y-63012033D01*
X33380000Y-63013000D01*
X32980000Y-63013000D01*
X32975140Y-63012033D01*
X32927706Y-63006531D01*
X32911496Y-62999373D01*
X32888921Y-62994883D01*
X32864751Y-62978733D01*
X32846085Y-62970491D01*
X32833335Y-62957741D01*
X32811709Y-62943291D01*
X32797258Y-62921664D01*
X32784508Y-62908914D01*
X32776265Y-62890246D01*
X32760117Y-62866079D01*
X32755626Y-62843505D01*
X32748468Y-62827293D01*
X32742964Y-62779848D01*
X32742000Y-62775000D01*
X32742000Y-62225000D01*
X32742964Y-62220152D01*
X32748468Y-62172706D01*
X32755627Y-62156492D01*
X32760117Y-62133921D01*
X32776263Y-62109755D01*
X32784508Y-62091085D01*
X32797260Y-62078332D01*
X32811709Y-62056709D01*
X32833332Y-62042260D01*
X32846085Y-62029508D01*
X32864755Y-62021263D01*
X32888921Y-62005117D01*
X32911492Y-62000627D01*
X32927706Y-61993468D01*
X32975152Y-61987964D01*
X32980000Y-61987000D01*
X33380000Y-61987000D01*
X33384848Y-61987964D01*
G37*
G36*
X35024848Y-61987964D02*
G01*
X35072293Y-61993468D01*
X35088505Y-62000626D01*
X35111079Y-62005117D01*
X35135246Y-62021265D01*
X35153914Y-62029508D01*
X35166664Y-62042258D01*
X35188291Y-62056709D01*
X35202741Y-62078335D01*
X35215491Y-62091085D01*
X35223733Y-62109751D01*
X35239883Y-62133921D01*
X35244373Y-62156496D01*
X35251531Y-62172706D01*
X35257033Y-62220140D01*
X35258000Y-62225000D01*
X35258000Y-62775000D01*
X35257033Y-62779860D01*
X35251531Y-62827293D01*
X35244373Y-62843501D01*
X35239883Y-62866079D01*
X35223731Y-62890250D01*
X35215491Y-62908914D01*
X35202743Y-62921661D01*
X35188291Y-62943291D01*
X35166661Y-62957743D01*
X35153914Y-62970491D01*
X35135250Y-62978731D01*
X35111079Y-62994883D01*
X35088501Y-62999373D01*
X35072293Y-63006531D01*
X35024860Y-63012033D01*
X35020000Y-63013000D01*
X34620000Y-63013000D01*
X34615140Y-63012033D01*
X34567706Y-63006531D01*
X34551496Y-62999373D01*
X34528921Y-62994883D01*
X34504751Y-62978733D01*
X34486085Y-62970491D01*
X34473335Y-62957741D01*
X34451709Y-62943291D01*
X34437258Y-62921664D01*
X34424508Y-62908914D01*
X34416265Y-62890246D01*
X34400117Y-62866079D01*
X34395626Y-62843505D01*
X34388468Y-62827293D01*
X34382964Y-62779848D01*
X34382000Y-62775000D01*
X34382000Y-62225000D01*
X34382964Y-62220152D01*
X34388468Y-62172706D01*
X34395627Y-62156492D01*
X34400117Y-62133921D01*
X34416263Y-62109755D01*
X34424508Y-62091085D01*
X34437260Y-62078332D01*
X34451709Y-62056709D01*
X34473332Y-62042260D01*
X34486085Y-62029508D01*
X34504755Y-62021263D01*
X34528921Y-62005117D01*
X34551492Y-62000627D01*
X34567706Y-61993468D01*
X34615152Y-61987964D01*
X34620000Y-61987000D01*
X35020000Y-61987000D01*
X35024848Y-61987964D01*
G37*
G36*
X40384848Y-61987964D02*
G01*
X40432293Y-61993468D01*
X40448505Y-62000626D01*
X40471079Y-62005117D01*
X40495246Y-62021265D01*
X40513914Y-62029508D01*
X40526664Y-62042258D01*
X40548291Y-62056709D01*
X40562741Y-62078335D01*
X40575491Y-62091085D01*
X40583733Y-62109751D01*
X40599883Y-62133921D01*
X40604373Y-62156496D01*
X40611531Y-62172706D01*
X40617033Y-62220140D01*
X40618000Y-62225000D01*
X40618000Y-62775000D01*
X40617033Y-62779860D01*
X40611531Y-62827293D01*
X40604373Y-62843501D01*
X40599883Y-62866079D01*
X40583731Y-62890250D01*
X40575491Y-62908914D01*
X40562743Y-62921661D01*
X40548291Y-62943291D01*
X40526661Y-62957743D01*
X40513914Y-62970491D01*
X40495250Y-62978731D01*
X40471079Y-62994883D01*
X40448501Y-62999373D01*
X40432293Y-63006531D01*
X40384860Y-63012033D01*
X40380000Y-63013000D01*
X39980000Y-63013000D01*
X39975140Y-63012033D01*
X39927706Y-63006531D01*
X39911496Y-62999373D01*
X39888921Y-62994883D01*
X39864751Y-62978733D01*
X39846085Y-62970491D01*
X39833335Y-62957741D01*
X39811709Y-62943291D01*
X39797258Y-62921664D01*
X39784508Y-62908914D01*
X39776265Y-62890246D01*
X39760117Y-62866079D01*
X39755626Y-62843505D01*
X39748468Y-62827293D01*
X39742964Y-62779848D01*
X39742000Y-62775000D01*
X39742000Y-62225000D01*
X39742964Y-62220152D01*
X39748468Y-62172706D01*
X39755627Y-62156492D01*
X39760117Y-62133921D01*
X39776263Y-62109755D01*
X39784508Y-62091085D01*
X39797260Y-62078332D01*
X39811709Y-62056709D01*
X39833332Y-62042260D01*
X39846085Y-62029508D01*
X39864755Y-62021263D01*
X39888921Y-62005117D01*
X39911492Y-62000627D01*
X39927706Y-61993468D01*
X39975152Y-61987964D01*
X39980000Y-61987000D01*
X40380000Y-61987000D01*
X40384848Y-61987964D01*
G37*
G36*
X42024848Y-61987964D02*
G01*
X42072293Y-61993468D01*
X42088505Y-62000626D01*
X42111079Y-62005117D01*
X42135246Y-62021265D01*
X42153914Y-62029508D01*
X42166664Y-62042258D01*
X42188291Y-62056709D01*
X42202741Y-62078335D01*
X42215491Y-62091085D01*
X42223733Y-62109751D01*
X42239883Y-62133921D01*
X42244373Y-62156496D01*
X42251531Y-62172706D01*
X42257033Y-62220140D01*
X42258000Y-62225000D01*
X42258000Y-62775000D01*
X42257033Y-62779860D01*
X42251531Y-62827293D01*
X42244373Y-62843501D01*
X42239883Y-62866079D01*
X42223731Y-62890250D01*
X42215491Y-62908914D01*
X42202743Y-62921661D01*
X42188291Y-62943291D01*
X42166661Y-62957743D01*
X42153914Y-62970491D01*
X42135250Y-62978731D01*
X42111079Y-62994883D01*
X42088501Y-62999373D01*
X42072293Y-63006531D01*
X42024860Y-63012033D01*
X42020000Y-63013000D01*
X41620000Y-63013000D01*
X41615140Y-63012033D01*
X41567706Y-63006531D01*
X41551496Y-62999373D01*
X41528921Y-62994883D01*
X41504751Y-62978733D01*
X41486085Y-62970491D01*
X41473335Y-62957741D01*
X41451709Y-62943291D01*
X41437258Y-62921664D01*
X41424508Y-62908914D01*
X41416265Y-62890246D01*
X41400117Y-62866079D01*
X41395626Y-62843505D01*
X41388468Y-62827293D01*
X41382964Y-62779848D01*
X41382000Y-62775000D01*
X41382000Y-62225000D01*
X41382964Y-62220152D01*
X41388468Y-62172706D01*
X41395627Y-62156492D01*
X41400117Y-62133921D01*
X41416263Y-62109755D01*
X41424508Y-62091085D01*
X41437260Y-62078332D01*
X41451709Y-62056709D01*
X41473332Y-62042260D01*
X41486085Y-62029508D01*
X41504755Y-62021263D01*
X41528921Y-62005117D01*
X41551492Y-62000627D01*
X41567706Y-61993468D01*
X41615152Y-61987964D01*
X41620000Y-61987000D01*
X42020000Y-61987000D01*
X42024848Y-61987964D01*
G37*
G36*
X39327591Y-60598594D02*
G01*
X39366217Y-60637220D01*
X39387121Y-60687687D01*
X39389811Y-60715000D01*
X39389811Y-61285000D01*
X39387121Y-61312313D01*
X39366217Y-61362780D01*
X39327591Y-61401406D01*
X39277124Y-61422310D01*
X39222498Y-61422310D01*
X39172031Y-61401406D01*
X39133405Y-61362780D01*
X39112501Y-61312313D01*
X39109811Y-61285000D01*
X39109811Y-60715000D01*
X39112501Y-60687687D01*
X39133405Y-60637220D01*
X39172031Y-60598594D01*
X39222498Y-60577690D01*
X39277124Y-60577690D01*
X39327591Y-60598594D01*
G37*
G36*
X39827780Y-60598594D02*
G01*
X39866406Y-60637220D01*
X39887310Y-60687687D01*
X39890000Y-60715000D01*
X39890000Y-61285000D01*
X39887310Y-61312313D01*
X39866406Y-61362780D01*
X39827780Y-61401406D01*
X39777313Y-61422310D01*
X39722687Y-61422310D01*
X39672220Y-61401406D01*
X39633594Y-61362780D01*
X39612690Y-61312313D01*
X39610000Y-61285000D01*
X39610000Y-60715000D01*
X39612690Y-60687687D01*
X39633594Y-60637220D01*
X39672220Y-60598594D01*
X39722687Y-60577690D01*
X39777313Y-60577690D01*
X39827780Y-60598594D01*
G37*
G36*
X40327589Y-60598594D02*
G01*
X40366215Y-60637220D01*
X40387119Y-60687687D01*
X40389809Y-60715000D01*
X40389809Y-61285000D01*
X40387119Y-61312313D01*
X40366215Y-61362780D01*
X40327589Y-61401406D01*
X40277122Y-61422310D01*
X40222496Y-61422310D01*
X40172029Y-61401406D01*
X40133403Y-61362780D01*
X40112499Y-61312313D01*
X40109809Y-61285000D01*
X40109809Y-60715000D01*
X40112499Y-60687687D01*
X40133403Y-60637220D01*
X40172029Y-60598594D01*
X40222496Y-60577690D01*
X40277122Y-60577690D01*
X40327589Y-60598594D01*
G37*
G36*
X40827780Y-60598594D02*
G01*
X40866406Y-60637220D01*
X40887310Y-60687687D01*
X40890000Y-60715000D01*
X40890000Y-61285000D01*
X40887310Y-61312313D01*
X40866406Y-61362780D01*
X40827780Y-61401406D01*
X40777313Y-61422310D01*
X40722687Y-61422310D01*
X40672220Y-61401406D01*
X40633594Y-61362780D01*
X40612690Y-61312313D01*
X40610000Y-61285000D01*
X40610000Y-60715000D01*
X40612690Y-60687687D01*
X40633594Y-60637220D01*
X40672220Y-60598594D01*
X40722687Y-60577690D01*
X40777313Y-60577690D01*
X40827780Y-60598594D01*
G37*
G36*
X45865938Y-59744650D02*
G01*
X45874692Y-59748515D01*
X45881367Y-59749488D01*
X45923097Y-59769888D01*
X45962759Y-59787401D01*
X45966430Y-59791072D01*
X45966867Y-59791286D01*
X46033713Y-59858132D01*
X46033926Y-59858568D01*
X46037599Y-59862241D01*
X46055116Y-59901913D01*
X46075511Y-59943632D01*
X46076483Y-59950304D01*
X46080350Y-59959062D01*
X46088000Y-60025000D01*
X46088000Y-60975000D01*
X46080350Y-61040938D01*
X46076482Y-61049696D01*
X46075511Y-61056367D01*
X46055120Y-61098076D01*
X46037599Y-61137759D01*
X46033925Y-61141432D01*
X46033713Y-61141867D01*
X45966867Y-61208713D01*
X45966432Y-61208925D01*
X45962759Y-61212599D01*
X45923076Y-61230120D01*
X45881367Y-61250511D01*
X45874696Y-61251482D01*
X45865938Y-61255350D01*
X45800000Y-61263000D01*
X45300000Y-61263000D01*
X45234062Y-61255350D01*
X45225304Y-61251483D01*
X45218632Y-61250511D01*
X45176913Y-61230116D01*
X45137241Y-61212599D01*
X45133568Y-61208926D01*
X45133132Y-61208713D01*
X45066286Y-61141867D01*
X45066072Y-61141430D01*
X45062401Y-61137759D01*
X45044888Y-61098097D01*
X45024488Y-61056367D01*
X45023515Y-61049692D01*
X45019650Y-61040938D01*
X45012000Y-60975000D01*
X45012000Y-60025000D01*
X45019650Y-59959062D01*
X45023515Y-59950307D01*
X45024488Y-59943632D01*
X45044893Y-59901892D01*
X45062401Y-59862241D01*
X45066071Y-59858570D01*
X45066286Y-59858132D01*
X45133132Y-59791286D01*
X45133570Y-59791071D01*
X45137241Y-59787401D01*
X45176892Y-59769893D01*
X45218632Y-59749488D01*
X45225307Y-59748515D01*
X45234062Y-59744650D01*
X45300000Y-59737000D01*
X45800000Y-59737000D01*
X45865938Y-59744650D01*
G37*
G36*
X47765938Y-59744650D02*
G01*
X47774692Y-59748515D01*
X47781367Y-59749488D01*
X47823097Y-59769888D01*
X47862759Y-59787401D01*
X47866430Y-59791072D01*
X47866867Y-59791286D01*
X47933713Y-59858132D01*
X47933926Y-59858568D01*
X47937599Y-59862241D01*
X47955116Y-59901913D01*
X47975511Y-59943632D01*
X47976483Y-59950304D01*
X47980350Y-59959062D01*
X47988000Y-60025000D01*
X47988000Y-60975000D01*
X47980350Y-61040938D01*
X47976482Y-61049696D01*
X47975511Y-61056367D01*
X47955120Y-61098076D01*
X47937599Y-61137759D01*
X47933925Y-61141432D01*
X47933713Y-61141867D01*
X47866867Y-61208713D01*
X47866432Y-61208925D01*
X47862759Y-61212599D01*
X47823076Y-61230120D01*
X47781367Y-61250511D01*
X47774696Y-61251482D01*
X47765938Y-61255350D01*
X47700000Y-61263000D01*
X47200000Y-61263000D01*
X47134062Y-61255350D01*
X47125304Y-61251483D01*
X47118632Y-61250511D01*
X47076913Y-61230116D01*
X47037241Y-61212599D01*
X47033568Y-61208926D01*
X47033132Y-61208713D01*
X46966286Y-61141867D01*
X46966072Y-61141430D01*
X46962401Y-61137759D01*
X46944888Y-61098097D01*
X46924488Y-61056367D01*
X46923515Y-61049692D01*
X46919650Y-61040938D01*
X46912000Y-60975000D01*
X46912000Y-60025000D01*
X46919650Y-59959062D01*
X46923515Y-59950307D01*
X46924488Y-59943632D01*
X46944893Y-59901892D01*
X46962401Y-59862241D01*
X46966071Y-59858570D01*
X46966286Y-59858132D01*
X47033132Y-59791286D01*
X47033570Y-59791071D01*
X47037241Y-59787401D01*
X47076892Y-59769893D01*
X47118632Y-59749488D01*
X47125307Y-59748515D01*
X47134062Y-59744650D01*
X47200000Y-59737000D01*
X47700000Y-59737000D01*
X47765938Y-59744650D01*
G37*
G36*
X51540938Y-59919650D02*
G01*
X51549692Y-59923515D01*
X51556367Y-59924488D01*
X51598097Y-59944888D01*
X51637759Y-59962401D01*
X51641430Y-59966072D01*
X51641867Y-59966286D01*
X51708713Y-60033132D01*
X51708926Y-60033568D01*
X51712599Y-60037241D01*
X51730116Y-60076913D01*
X51750511Y-60118632D01*
X51751483Y-60125304D01*
X51755350Y-60134062D01*
X51763000Y-60200000D01*
X51763000Y-60700000D01*
X51755350Y-60765938D01*
X51751482Y-60774696D01*
X51750511Y-60781367D01*
X51730120Y-60823076D01*
X51712599Y-60862759D01*
X51708925Y-60866432D01*
X51708713Y-60866867D01*
X51641867Y-60933713D01*
X51641432Y-60933925D01*
X51637759Y-60937599D01*
X51598076Y-60955120D01*
X51556367Y-60975511D01*
X51549696Y-60976482D01*
X51540938Y-60980350D01*
X51475000Y-60988000D01*
X50525000Y-60988000D01*
X50459062Y-60980350D01*
X50450304Y-60976483D01*
X50443632Y-60975511D01*
X50401913Y-60955116D01*
X50362241Y-60937599D01*
X50358568Y-60933926D01*
X50358132Y-60933713D01*
X50291286Y-60866867D01*
X50291072Y-60866430D01*
X50287401Y-60862759D01*
X50269888Y-60823097D01*
X50249488Y-60781367D01*
X50248515Y-60774692D01*
X50244650Y-60765938D01*
X50237000Y-60700000D01*
X50237000Y-60200000D01*
X50244650Y-60134062D01*
X50248515Y-60125307D01*
X50249488Y-60118632D01*
X50269893Y-60076892D01*
X50287401Y-60037241D01*
X50291071Y-60033570D01*
X50291286Y-60033132D01*
X50358132Y-59966286D01*
X50358570Y-59966071D01*
X50362241Y-59962401D01*
X50401892Y-59944893D01*
X50443632Y-59924488D01*
X50450307Y-59923515D01*
X50459062Y-59919650D01*
X50525000Y-59912000D01*
X51475000Y-59912000D01*
X51540938Y-59919650D01*
G37*
G36*
X38812313Y-60112879D02*
G01*
X38862780Y-60133783D01*
X38901406Y-60172409D01*
X38922310Y-60222876D01*
X38922310Y-60277502D01*
X38901406Y-60327969D01*
X38862780Y-60366595D01*
X38812313Y-60387499D01*
X38785000Y-60390189D01*
X38782053Y-60390189D01*
X38217947Y-60390189D01*
X38215000Y-60390189D01*
X38187687Y-60387499D01*
X38137220Y-60366595D01*
X38098594Y-60327969D01*
X38077690Y-60277502D01*
X38077690Y-60222876D01*
X38098594Y-60172409D01*
X38137220Y-60133783D01*
X38187687Y-60112879D01*
X38215000Y-60110189D01*
X38785000Y-60110189D01*
X38812313Y-60112879D01*
G37*
G36*
X41812313Y-60112879D02*
G01*
X41862780Y-60133783D01*
X41901406Y-60172409D01*
X41922310Y-60222876D01*
X41922310Y-60277502D01*
X41901406Y-60327969D01*
X41862780Y-60366595D01*
X41812313Y-60387499D01*
X41785000Y-60390189D01*
X41782053Y-60390189D01*
X41217947Y-60390189D01*
X41215000Y-60390189D01*
X41187687Y-60387499D01*
X41137220Y-60366595D01*
X41098594Y-60327969D01*
X41077690Y-60277502D01*
X41077690Y-60222876D01*
X41098594Y-60172409D01*
X41137220Y-60133783D01*
X41187687Y-60112879D01*
X41215000Y-60110189D01*
X41785000Y-60110189D01*
X41812313Y-60112879D01*
G37*
G36*
X40853409Y-58646591D02*
G01*
X40854873Y-58650127D01*
X40854873Y-59925127D01*
X40853409Y-59928663D01*
X40428409Y-60353663D01*
X40424873Y-60355127D01*
X40412938Y-60355127D01*
X39161808Y-60355127D01*
X39149873Y-60355127D01*
X39146337Y-60353663D01*
X39144873Y-60350127D01*
X39144873Y-58650127D01*
X39146337Y-58646591D01*
X39149873Y-58645127D01*
X40849873Y-58645127D01*
X40853409Y-58646591D01*
G37*
G36*
X38812313Y-59612690D02*
G01*
X38862780Y-59633594D01*
X38901406Y-59672220D01*
X38922310Y-59722687D01*
X38922310Y-59777313D01*
X38901406Y-59827780D01*
X38862780Y-59866406D01*
X38812313Y-59887310D01*
X38785000Y-59890000D01*
X38782053Y-59890000D01*
X38217947Y-59890000D01*
X38215000Y-59890000D01*
X38187687Y-59887310D01*
X38137220Y-59866406D01*
X38098594Y-59827780D01*
X38077690Y-59777313D01*
X38077690Y-59722687D01*
X38098594Y-59672220D01*
X38137220Y-59633594D01*
X38187687Y-59612690D01*
X38215000Y-59610000D01*
X38785000Y-59610000D01*
X38812313Y-59612690D01*
G37*
G36*
X41812313Y-59612690D02*
G01*
X41862780Y-59633594D01*
X41901406Y-59672220D01*
X41922310Y-59722687D01*
X41922310Y-59777313D01*
X41901406Y-59827780D01*
X41862780Y-59866406D01*
X41812313Y-59887310D01*
X41785000Y-59890000D01*
X41782053Y-59890000D01*
X41217947Y-59890000D01*
X41215000Y-59890000D01*
X41187687Y-59887310D01*
X41137220Y-59866406D01*
X41098594Y-59827780D01*
X41077690Y-59777313D01*
X41077690Y-59722687D01*
X41098594Y-59672220D01*
X41137220Y-59633594D01*
X41187687Y-59612690D01*
X41215000Y-59610000D01*
X41785000Y-59610000D01*
X41812313Y-59612690D01*
G37*
G36*
X54336714Y-58052295D02*
G01*
X54472548Y-58108559D01*
X54594795Y-58190242D01*
X54698758Y-58294205D01*
X54780441Y-58416452D01*
X54836705Y-58552286D01*
X54865389Y-58696487D01*
X54865389Y-58843513D01*
X54836705Y-58987714D01*
X54780441Y-59123548D01*
X54698758Y-59245795D01*
X54594795Y-59349758D01*
X54472548Y-59431441D01*
X54336714Y-59487705D01*
X54192513Y-59516389D01*
X54045487Y-59516389D01*
X53901286Y-59487705D01*
X53765452Y-59431441D01*
X53643205Y-59349758D01*
X53539242Y-59245795D01*
X53457559Y-59123548D01*
X53401295Y-58987714D01*
X53372611Y-58843513D01*
X53372611Y-58696487D01*
X53401295Y-58552286D01*
X53457559Y-58416452D01*
X53539242Y-58294205D01*
X53643205Y-58190242D01*
X53765452Y-58108559D01*
X53901286Y-58052295D01*
X54045487Y-58023611D01*
X54192513Y-58023611D01*
X54336714Y-58052295D01*
G37*
G36*
X38812313Y-59112881D02*
G01*
X38862780Y-59133785D01*
X38901406Y-59172411D01*
X38922310Y-59222878D01*
X38922310Y-59277504D01*
X38901406Y-59327971D01*
X38862780Y-59366597D01*
X38812313Y-59387501D01*
X38785000Y-59390191D01*
X38782053Y-59390191D01*
X38217947Y-59390191D01*
X38215000Y-59390191D01*
X38187687Y-59387501D01*
X38137220Y-59366597D01*
X38098594Y-59327971D01*
X38077690Y-59277504D01*
X38077690Y-59222878D01*
X38098594Y-59172411D01*
X38137220Y-59133785D01*
X38187687Y-59112881D01*
X38215000Y-59110191D01*
X38785000Y-59110191D01*
X38812313Y-59112881D01*
G37*
G36*
X41812313Y-59112881D02*
G01*
X41862780Y-59133785D01*
X41901406Y-59172411D01*
X41922310Y-59222878D01*
X41922310Y-59277504D01*
X41901406Y-59327971D01*
X41862780Y-59366597D01*
X41812313Y-59387501D01*
X41785000Y-59390191D01*
X41782053Y-59390191D01*
X41217947Y-59390191D01*
X41215000Y-59390191D01*
X41187687Y-59387501D01*
X41137220Y-59366597D01*
X41098594Y-59327971D01*
X41077690Y-59277504D01*
X41077690Y-59222878D01*
X41098594Y-59172411D01*
X41137220Y-59133785D01*
X41187687Y-59112881D01*
X41215000Y-59110191D01*
X41785000Y-59110191D01*
X41812313Y-59112881D01*
G37*
G36*
X21638973Y-58053806D02*
G01*
X21177246Y-59322391D01*
X19908661Y-58860664D01*
X20334485Y-57690721D01*
X20368367Y-57597631D01*
X20368367Y-57597630D01*
X20370388Y-57592079D01*
X21638973Y-58053806D01*
G37*
G36*
X51540938Y-58019650D02*
G01*
X51549692Y-58023515D01*
X51556367Y-58024488D01*
X51598097Y-58044888D01*
X51637759Y-58062401D01*
X51641430Y-58066072D01*
X51641867Y-58066286D01*
X51708713Y-58133132D01*
X51708926Y-58133568D01*
X51712599Y-58137241D01*
X51730116Y-58176913D01*
X51750511Y-58218632D01*
X51751483Y-58225304D01*
X51755350Y-58234062D01*
X51763000Y-58300000D01*
X51763000Y-58800000D01*
X51755350Y-58865938D01*
X51751482Y-58874696D01*
X51750511Y-58881367D01*
X51730120Y-58923076D01*
X51712599Y-58962759D01*
X51708925Y-58966432D01*
X51708713Y-58966867D01*
X51641867Y-59033713D01*
X51641432Y-59033925D01*
X51637759Y-59037599D01*
X51598076Y-59055120D01*
X51556367Y-59075511D01*
X51549696Y-59076482D01*
X51540938Y-59080350D01*
X51475000Y-59088000D01*
X50525000Y-59088000D01*
X50459062Y-59080350D01*
X50450304Y-59076483D01*
X50443632Y-59075511D01*
X50401913Y-59055116D01*
X50362241Y-59037599D01*
X50358568Y-59033926D01*
X50358132Y-59033713D01*
X50291286Y-58966867D01*
X50291072Y-58966430D01*
X50287401Y-58962759D01*
X50269888Y-58923097D01*
X50249488Y-58881367D01*
X50248515Y-58874692D01*
X50244650Y-58865938D01*
X50237000Y-58800000D01*
X50237000Y-58300000D01*
X50244650Y-58234062D01*
X50248515Y-58225307D01*
X50249488Y-58218632D01*
X50269893Y-58176892D01*
X50287401Y-58137241D01*
X50291071Y-58133570D01*
X50291286Y-58133132D01*
X50358132Y-58066286D01*
X50358570Y-58066071D01*
X50362241Y-58062401D01*
X50401892Y-58044893D01*
X50443632Y-58024488D01*
X50450307Y-58023515D01*
X50459062Y-58019650D01*
X50525000Y-58012000D01*
X51475000Y-58012000D01*
X51540938Y-58019650D01*
G37*
G36*
X35064848Y-57987964D02*
G01*
X35112293Y-57993468D01*
X35128505Y-58000626D01*
X35151079Y-58005117D01*
X35175246Y-58021265D01*
X35193914Y-58029508D01*
X35206664Y-58042258D01*
X35228291Y-58056709D01*
X35242741Y-58078335D01*
X35255491Y-58091085D01*
X35263733Y-58109751D01*
X35279883Y-58133921D01*
X35284373Y-58156496D01*
X35291531Y-58172706D01*
X35297033Y-58220140D01*
X35298000Y-58225000D01*
X35298000Y-58775000D01*
X35297033Y-58779860D01*
X35291531Y-58827293D01*
X35284373Y-58843501D01*
X35279883Y-58866079D01*
X35263731Y-58890250D01*
X35255491Y-58908914D01*
X35242743Y-58921661D01*
X35228291Y-58943291D01*
X35206661Y-58957743D01*
X35193914Y-58970491D01*
X35175250Y-58978731D01*
X35151079Y-58994883D01*
X35128501Y-58999373D01*
X35112293Y-59006531D01*
X35064860Y-59012033D01*
X35060000Y-59013000D01*
X34660000Y-59013000D01*
X34655140Y-59012033D01*
X34607706Y-59006531D01*
X34591496Y-58999373D01*
X34568921Y-58994883D01*
X34544751Y-58978733D01*
X34526085Y-58970491D01*
X34513335Y-58957741D01*
X34491709Y-58943291D01*
X34477258Y-58921664D01*
X34464508Y-58908914D01*
X34456265Y-58890246D01*
X34440117Y-58866079D01*
X34435626Y-58843505D01*
X34428468Y-58827293D01*
X34422964Y-58779848D01*
X34422000Y-58775000D01*
X34422000Y-58225000D01*
X34422964Y-58220152D01*
X34428468Y-58172706D01*
X34435627Y-58156492D01*
X34440117Y-58133921D01*
X34456263Y-58109755D01*
X34464508Y-58091085D01*
X34477260Y-58078332D01*
X34491709Y-58056709D01*
X34513332Y-58042260D01*
X34526085Y-58029508D01*
X34544755Y-58021263D01*
X34568921Y-58005117D01*
X34591492Y-58000627D01*
X34607706Y-57993468D01*
X34655152Y-57987964D01*
X34660000Y-57987000D01*
X35060000Y-57987000D01*
X35064848Y-57987964D01*
G37*
G36*
X36704848Y-57987964D02*
G01*
X36752293Y-57993468D01*
X36768505Y-58000626D01*
X36791079Y-58005117D01*
X36815246Y-58021265D01*
X36833914Y-58029508D01*
X36846664Y-58042258D01*
X36868291Y-58056709D01*
X36882741Y-58078335D01*
X36895491Y-58091085D01*
X36903733Y-58109751D01*
X36919883Y-58133921D01*
X36924373Y-58156496D01*
X36931531Y-58172706D01*
X36937033Y-58220140D01*
X36938000Y-58225000D01*
X36938000Y-58775000D01*
X36937033Y-58779860D01*
X36931531Y-58827293D01*
X36924373Y-58843501D01*
X36919883Y-58866079D01*
X36903731Y-58890250D01*
X36895491Y-58908914D01*
X36882743Y-58921661D01*
X36868291Y-58943291D01*
X36846661Y-58957743D01*
X36833914Y-58970491D01*
X36815250Y-58978731D01*
X36791079Y-58994883D01*
X36768501Y-58999373D01*
X36752293Y-59006531D01*
X36704860Y-59012033D01*
X36700000Y-59013000D01*
X36300000Y-59013000D01*
X36295140Y-59012033D01*
X36247706Y-59006531D01*
X36231496Y-58999373D01*
X36208921Y-58994883D01*
X36184751Y-58978733D01*
X36166085Y-58970491D01*
X36153335Y-58957741D01*
X36131709Y-58943291D01*
X36117258Y-58921664D01*
X36104508Y-58908914D01*
X36096265Y-58890246D01*
X36080117Y-58866079D01*
X36075626Y-58843505D01*
X36068468Y-58827293D01*
X36062964Y-58779848D01*
X36062000Y-58775000D01*
X36062000Y-58225000D01*
X36062964Y-58220152D01*
X36068468Y-58172706D01*
X36075627Y-58156492D01*
X36080117Y-58133921D01*
X36096263Y-58109755D01*
X36104508Y-58091085D01*
X36117260Y-58078332D01*
X36131709Y-58056709D01*
X36153332Y-58042260D01*
X36166085Y-58029508D01*
X36184755Y-58021263D01*
X36208921Y-58005117D01*
X36231492Y-58000627D01*
X36247706Y-57993468D01*
X36295152Y-57987964D01*
X36300000Y-57987000D01*
X36700000Y-57987000D01*
X36704848Y-57987964D01*
G37*
G36*
X45884848Y-57987964D02*
G01*
X45932293Y-57993468D01*
X45948505Y-58000626D01*
X45971079Y-58005117D01*
X45995246Y-58021265D01*
X46013914Y-58029508D01*
X46026664Y-58042258D01*
X46048291Y-58056709D01*
X46062741Y-58078335D01*
X46075491Y-58091085D01*
X46083733Y-58109751D01*
X46099883Y-58133921D01*
X46104373Y-58156496D01*
X46111531Y-58172706D01*
X46117033Y-58220140D01*
X46118000Y-58225000D01*
X46118000Y-58775000D01*
X46117033Y-58779860D01*
X46111531Y-58827293D01*
X46104373Y-58843501D01*
X46099883Y-58866079D01*
X46083731Y-58890250D01*
X46075491Y-58908914D01*
X46062743Y-58921661D01*
X46048291Y-58943291D01*
X46026661Y-58957743D01*
X46013914Y-58970491D01*
X45995250Y-58978731D01*
X45971079Y-58994883D01*
X45948501Y-58999373D01*
X45932293Y-59006531D01*
X45884860Y-59012033D01*
X45880000Y-59013000D01*
X45480000Y-59013000D01*
X45475140Y-59012033D01*
X45427706Y-59006531D01*
X45411496Y-58999373D01*
X45388921Y-58994883D01*
X45364751Y-58978733D01*
X45346085Y-58970491D01*
X45333335Y-58957741D01*
X45311709Y-58943291D01*
X45297258Y-58921664D01*
X45284508Y-58908914D01*
X45276265Y-58890246D01*
X45260117Y-58866079D01*
X45255626Y-58843505D01*
X45248468Y-58827293D01*
X45242964Y-58779848D01*
X45242000Y-58775000D01*
X45242000Y-58225000D01*
X45242964Y-58220152D01*
X45248468Y-58172706D01*
X45255627Y-58156492D01*
X45260117Y-58133921D01*
X45276263Y-58109755D01*
X45284508Y-58091085D01*
X45297260Y-58078332D01*
X45311709Y-58056709D01*
X45333332Y-58042260D01*
X45346085Y-58029508D01*
X45364755Y-58021263D01*
X45388921Y-58005117D01*
X45411492Y-58000627D01*
X45427706Y-57993468D01*
X45475152Y-57987964D01*
X45480000Y-57987000D01*
X45880000Y-57987000D01*
X45884848Y-57987964D01*
G37*
G36*
X47524848Y-57987964D02*
G01*
X47572293Y-57993468D01*
X47588505Y-58000626D01*
X47611079Y-58005117D01*
X47635246Y-58021265D01*
X47653914Y-58029508D01*
X47666664Y-58042258D01*
X47688291Y-58056709D01*
X47702741Y-58078335D01*
X47715491Y-58091085D01*
X47723733Y-58109751D01*
X47739883Y-58133921D01*
X47744373Y-58156496D01*
X47751531Y-58172706D01*
X47757033Y-58220140D01*
X47758000Y-58225000D01*
X47758000Y-58775000D01*
X47757033Y-58779860D01*
X47751531Y-58827293D01*
X47744373Y-58843501D01*
X47739883Y-58866079D01*
X47723731Y-58890250D01*
X47715491Y-58908914D01*
X47702743Y-58921661D01*
X47688291Y-58943291D01*
X47666661Y-58957743D01*
X47653914Y-58970491D01*
X47635250Y-58978731D01*
X47611079Y-58994883D01*
X47588501Y-58999373D01*
X47572293Y-59006531D01*
X47524860Y-59012033D01*
X47520000Y-59013000D01*
X47120000Y-59013000D01*
X47115140Y-59012033D01*
X47067706Y-59006531D01*
X47051496Y-58999373D01*
X47028921Y-58994883D01*
X47004751Y-58978733D01*
X46986085Y-58970491D01*
X46973335Y-58957741D01*
X46951709Y-58943291D01*
X46937258Y-58921664D01*
X46924508Y-58908914D01*
X46916265Y-58890246D01*
X46900117Y-58866079D01*
X46895626Y-58843505D01*
X46888468Y-58827293D01*
X46882964Y-58779848D01*
X46882000Y-58775000D01*
X46882000Y-58225000D01*
X46882964Y-58220152D01*
X46888468Y-58172706D01*
X46895627Y-58156492D01*
X46900117Y-58133921D01*
X46916263Y-58109755D01*
X46924508Y-58091085D01*
X46937260Y-58078332D01*
X46951709Y-58056709D01*
X46973332Y-58042260D01*
X46986085Y-58029508D01*
X47004755Y-58021263D01*
X47028921Y-58005117D01*
X47051492Y-58000627D01*
X47067706Y-57993468D01*
X47115152Y-57987964D01*
X47120000Y-57987000D01*
X47520000Y-57987000D01*
X47524848Y-57987964D01*
G37*
G36*
X38812313Y-58612690D02*
G01*
X38862780Y-58633594D01*
X38901406Y-58672220D01*
X38922310Y-58722687D01*
X38922310Y-58777313D01*
X38901406Y-58827780D01*
X38862780Y-58866406D01*
X38812313Y-58887310D01*
X38785000Y-58890000D01*
X38782053Y-58890000D01*
X38217947Y-58890000D01*
X38215000Y-58890000D01*
X38187687Y-58887310D01*
X38137220Y-58866406D01*
X38098594Y-58827780D01*
X38077690Y-58777313D01*
X38077690Y-58722687D01*
X38098594Y-58672220D01*
X38137220Y-58633594D01*
X38187687Y-58612690D01*
X38215000Y-58610000D01*
X38785000Y-58610000D01*
X38812313Y-58612690D01*
G37*
G36*
X41812313Y-58612690D02*
G01*
X41862780Y-58633594D01*
X41901406Y-58672220D01*
X41922310Y-58722687D01*
X41922310Y-58777313D01*
X41901406Y-58827780D01*
X41862780Y-58866406D01*
X41812313Y-58887310D01*
X41785000Y-58890000D01*
X41782053Y-58890000D01*
X41217947Y-58890000D01*
X41215000Y-58890000D01*
X41187687Y-58887310D01*
X41137220Y-58866406D01*
X41098594Y-58827780D01*
X41077690Y-58777313D01*
X41077690Y-58722687D01*
X41098594Y-58672220D01*
X41137220Y-58633594D01*
X41187687Y-58612690D01*
X41215000Y-58610000D01*
X41785000Y-58610000D01*
X41812313Y-58612690D01*
G37*
G36*
X39327591Y-57598594D02*
G01*
X39366217Y-57637220D01*
X39387121Y-57687687D01*
X39389811Y-57715000D01*
X39389811Y-58285000D01*
X39387121Y-58312313D01*
X39366217Y-58362780D01*
X39327591Y-58401406D01*
X39277124Y-58422310D01*
X39222498Y-58422310D01*
X39172031Y-58401406D01*
X39133405Y-58362780D01*
X39112501Y-58312313D01*
X39109811Y-58285000D01*
X39109811Y-57715000D01*
X39112501Y-57687687D01*
X39133405Y-57637220D01*
X39172031Y-57598594D01*
X39222498Y-57577690D01*
X39277124Y-57577690D01*
X39327591Y-57598594D01*
G37*
G36*
X39827780Y-57598594D02*
G01*
X39866406Y-57637220D01*
X39887310Y-57687687D01*
X39890000Y-57715000D01*
X39890000Y-58285000D01*
X39887310Y-58312313D01*
X39866406Y-58362780D01*
X39827780Y-58401406D01*
X39777313Y-58422310D01*
X39722687Y-58422310D01*
X39672220Y-58401406D01*
X39633594Y-58362780D01*
X39612690Y-58312313D01*
X39610000Y-58285000D01*
X39610000Y-57715000D01*
X39612690Y-57687687D01*
X39633594Y-57637220D01*
X39672220Y-57598594D01*
X39722687Y-57577690D01*
X39777313Y-57577690D01*
X39827780Y-57598594D01*
G37*
G36*
X40327589Y-57598594D02*
G01*
X40366215Y-57637220D01*
X40387119Y-57687687D01*
X40389809Y-57715000D01*
X40389809Y-58285000D01*
X40387119Y-58312313D01*
X40366215Y-58362780D01*
X40327589Y-58401406D01*
X40277122Y-58422310D01*
X40222496Y-58422310D01*
X40172029Y-58401406D01*
X40133403Y-58362780D01*
X40112499Y-58312313D01*
X40109809Y-58285000D01*
X40109809Y-57715000D01*
X40112499Y-57687687D01*
X40133403Y-57637220D01*
X40172029Y-57598594D01*
X40222496Y-57577690D01*
X40277122Y-57577690D01*
X40327589Y-57598594D01*
G37*
G36*
X40827780Y-57598594D02*
G01*
X40866406Y-57637220D01*
X40887310Y-57687687D01*
X40890000Y-57715000D01*
X40890000Y-58285000D01*
X40887310Y-58312313D01*
X40866406Y-58362780D01*
X40827780Y-58401406D01*
X40777313Y-58422310D01*
X40722687Y-58422310D01*
X40672220Y-58401406D01*
X40633594Y-58362780D01*
X40612690Y-58312313D01*
X40610000Y-58285000D01*
X40610000Y-57715000D01*
X40612690Y-57687687D01*
X40633594Y-57637220D01*
X40672220Y-57598594D01*
X40722687Y-57577690D01*
X40777313Y-57577690D01*
X40827780Y-57598594D01*
G37*
G36*
X35064848Y-56487964D02*
G01*
X35112293Y-56493468D01*
X35128505Y-56500626D01*
X35151079Y-56505117D01*
X35175246Y-56521265D01*
X35193914Y-56529508D01*
X35206664Y-56542258D01*
X35228291Y-56556709D01*
X35242741Y-56578335D01*
X35255491Y-56591085D01*
X35263733Y-56609751D01*
X35279883Y-56633921D01*
X35284373Y-56656496D01*
X35291531Y-56672706D01*
X35297033Y-56720140D01*
X35298000Y-56725000D01*
X35298000Y-57275000D01*
X35297033Y-57279860D01*
X35291531Y-57327293D01*
X35284373Y-57343501D01*
X35279883Y-57366079D01*
X35263731Y-57390250D01*
X35255491Y-57408914D01*
X35242743Y-57421661D01*
X35228291Y-57443291D01*
X35206661Y-57457743D01*
X35193914Y-57470491D01*
X35175250Y-57478731D01*
X35151079Y-57494883D01*
X35128501Y-57499373D01*
X35112293Y-57506531D01*
X35064860Y-57512033D01*
X35060000Y-57513000D01*
X34660000Y-57513000D01*
X34655140Y-57512033D01*
X34607706Y-57506531D01*
X34591496Y-57499373D01*
X34568921Y-57494883D01*
X34544751Y-57478733D01*
X34526085Y-57470491D01*
X34513335Y-57457741D01*
X34491709Y-57443291D01*
X34477258Y-57421664D01*
X34464508Y-57408914D01*
X34456265Y-57390246D01*
X34440117Y-57366079D01*
X34435626Y-57343505D01*
X34428468Y-57327293D01*
X34422964Y-57279848D01*
X34422000Y-57275000D01*
X34422000Y-56725000D01*
X34422964Y-56720152D01*
X34428468Y-56672706D01*
X34435627Y-56656492D01*
X34440117Y-56633921D01*
X34456263Y-56609755D01*
X34464508Y-56591085D01*
X34477260Y-56578332D01*
X34491709Y-56556709D01*
X34513332Y-56542260D01*
X34526085Y-56529508D01*
X34544755Y-56521263D01*
X34568921Y-56505117D01*
X34591492Y-56500627D01*
X34607706Y-56493468D01*
X34655152Y-56487964D01*
X34660000Y-56487000D01*
X35060000Y-56487000D01*
X35064848Y-56487964D01*
G37*
G36*
X36704848Y-56487964D02*
G01*
X36752293Y-56493468D01*
X36768505Y-56500626D01*
X36791079Y-56505117D01*
X36815246Y-56521265D01*
X36833914Y-56529508D01*
X36846664Y-56542258D01*
X36868291Y-56556709D01*
X36882741Y-56578335D01*
X36895491Y-56591085D01*
X36903733Y-56609751D01*
X36919883Y-56633921D01*
X36924373Y-56656496D01*
X36931531Y-56672706D01*
X36937033Y-56720140D01*
X36938000Y-56725000D01*
X36938000Y-57275000D01*
X36937033Y-57279860D01*
X36931531Y-57327293D01*
X36924373Y-57343501D01*
X36919883Y-57366079D01*
X36903731Y-57390250D01*
X36895491Y-57408914D01*
X36882743Y-57421661D01*
X36868291Y-57443291D01*
X36846661Y-57457743D01*
X36833914Y-57470491D01*
X36815250Y-57478731D01*
X36791079Y-57494883D01*
X36768501Y-57499373D01*
X36752293Y-57506531D01*
X36704860Y-57512033D01*
X36700000Y-57513000D01*
X36300000Y-57513000D01*
X36295140Y-57512033D01*
X36247706Y-57506531D01*
X36231496Y-57499373D01*
X36208921Y-57494883D01*
X36184751Y-57478733D01*
X36166085Y-57470491D01*
X36153335Y-57457741D01*
X36131709Y-57443291D01*
X36117258Y-57421664D01*
X36104508Y-57408914D01*
X36096265Y-57390246D01*
X36080117Y-57366079D01*
X36075626Y-57343505D01*
X36068468Y-57327293D01*
X36062964Y-57279848D01*
X36062000Y-57275000D01*
X36062000Y-56725000D01*
X36062964Y-56720152D01*
X36068468Y-56672706D01*
X36075627Y-56656492D01*
X36080117Y-56633921D01*
X36096263Y-56609755D01*
X36104508Y-56591085D01*
X36117260Y-56578332D01*
X36131709Y-56556709D01*
X36153332Y-56542260D01*
X36166085Y-56529508D01*
X36184755Y-56521263D01*
X36208921Y-56505117D01*
X36231492Y-56500627D01*
X36247706Y-56493468D01*
X36295152Y-56487964D01*
X36300000Y-56487000D01*
X36700000Y-56487000D01*
X36704848Y-56487964D01*
G37*
G36*
X45865938Y-55744650D02*
G01*
X45874692Y-55748515D01*
X45881367Y-55749488D01*
X45923097Y-55769888D01*
X45962759Y-55787401D01*
X45966430Y-55791072D01*
X45966867Y-55791286D01*
X46033713Y-55858132D01*
X46033926Y-55858568D01*
X46037599Y-55862241D01*
X46055116Y-55901913D01*
X46075511Y-55943632D01*
X46076483Y-55950304D01*
X46080350Y-55959062D01*
X46088000Y-56025000D01*
X46088000Y-56975000D01*
X46080350Y-57040938D01*
X46076482Y-57049696D01*
X46075511Y-57056367D01*
X46055120Y-57098076D01*
X46037599Y-57137759D01*
X46033925Y-57141432D01*
X46033713Y-57141867D01*
X45966867Y-57208713D01*
X45966432Y-57208925D01*
X45962759Y-57212599D01*
X45923076Y-57230120D01*
X45881367Y-57250511D01*
X45874696Y-57251482D01*
X45865938Y-57255350D01*
X45800000Y-57263000D01*
X45300000Y-57263000D01*
X45234062Y-57255350D01*
X45225304Y-57251483D01*
X45218632Y-57250511D01*
X45176913Y-57230116D01*
X45137241Y-57212599D01*
X45133568Y-57208926D01*
X45133132Y-57208713D01*
X45066286Y-57141867D01*
X45066072Y-57141430D01*
X45062401Y-57137759D01*
X45044888Y-57098097D01*
X45024488Y-57056367D01*
X45023515Y-57049692D01*
X45019650Y-57040938D01*
X45012000Y-56975000D01*
X45012000Y-56025000D01*
X45019650Y-55959062D01*
X45023515Y-55950307D01*
X45024488Y-55943632D01*
X45044893Y-55901892D01*
X45062401Y-55862241D01*
X45066071Y-55858570D01*
X45066286Y-55858132D01*
X45133132Y-55791286D01*
X45133570Y-55791071D01*
X45137241Y-55787401D01*
X45176892Y-55769893D01*
X45218632Y-55749488D01*
X45225307Y-55748515D01*
X45234062Y-55744650D01*
X45300000Y-55737000D01*
X45800000Y-55737000D01*
X45865938Y-55744650D01*
G37*
G36*
X47765938Y-55744650D02*
G01*
X47774692Y-55748515D01*
X47781367Y-55749488D01*
X47823097Y-55769888D01*
X47862759Y-55787401D01*
X47866430Y-55791072D01*
X47866867Y-55791286D01*
X47933713Y-55858132D01*
X47933926Y-55858568D01*
X47937599Y-55862241D01*
X47955116Y-55901913D01*
X47975511Y-55943632D01*
X47976483Y-55950304D01*
X47980350Y-55959062D01*
X47988000Y-56025000D01*
X47988000Y-56975000D01*
X47980350Y-57040938D01*
X47976482Y-57049696D01*
X47975511Y-57056367D01*
X47955120Y-57098076D01*
X47937599Y-57137759D01*
X47933925Y-57141432D01*
X47933713Y-57141867D01*
X47866867Y-57208713D01*
X47866432Y-57208925D01*
X47862759Y-57212599D01*
X47823076Y-57230120D01*
X47781367Y-57250511D01*
X47774696Y-57251482D01*
X47765938Y-57255350D01*
X47700000Y-57263000D01*
X47200000Y-57263000D01*
X47134062Y-57255350D01*
X47125304Y-57251483D01*
X47118632Y-57250511D01*
X47076913Y-57230116D01*
X47037241Y-57212599D01*
X47033568Y-57208926D01*
X47033132Y-57208713D01*
X46966286Y-57141867D01*
X46966072Y-57141430D01*
X46962401Y-57137759D01*
X46944888Y-57098097D01*
X46924488Y-57056367D01*
X46923515Y-57049692D01*
X46919650Y-57040938D01*
X46912000Y-56975000D01*
X46912000Y-56025000D01*
X46919650Y-55959062D01*
X46923515Y-55950307D01*
X46924488Y-55943632D01*
X46944893Y-55901892D01*
X46962401Y-55862241D01*
X46966071Y-55858570D01*
X46966286Y-55858132D01*
X47033132Y-55791286D01*
X47033570Y-55791071D01*
X47037241Y-55787401D01*
X47076892Y-55769893D01*
X47118632Y-55749488D01*
X47125307Y-55748515D01*
X47134062Y-55744650D01*
X47200000Y-55737000D01*
X47700000Y-55737000D01*
X47765938Y-55744650D01*
G37*
G36*
X21653800Y-55931914D02*
G01*
X21776051Y-55982552D01*
X21886073Y-56056067D01*
X21979640Y-56149634D01*
X22053155Y-56259656D01*
X22103793Y-56381907D01*
X22129608Y-56511687D01*
X22129608Y-56644011D01*
X22103793Y-56773791D01*
X22053155Y-56896042D01*
X21979640Y-57006064D01*
X21886073Y-57099631D01*
X21776051Y-57173146D01*
X21653800Y-57223784D01*
X21524020Y-57249599D01*
X21391696Y-57249599D01*
X21261916Y-57223784D01*
X21139665Y-57173146D01*
X21029643Y-57099631D01*
X20936076Y-57006064D01*
X20862561Y-56896042D01*
X20811923Y-56773791D01*
X20786108Y-56644011D01*
X20786108Y-56511687D01*
X20811923Y-56381907D01*
X20862561Y-56259656D01*
X20936076Y-56149634D01*
X21029643Y-56056067D01*
X21139665Y-55982552D01*
X21261916Y-55931914D01*
X21391696Y-55906099D01*
X21524020Y-55906099D01*
X21653800Y-55931914D01*
G37*
G36*
X33557607Y-55800076D02*
G01*
X32757607Y-55800076D01*
X32757607Y-53600076D01*
X33557607Y-53600076D01*
X33557607Y-55800076D01*
G37*
G36*
X35557607Y-55800076D02*
G01*
X34757607Y-55800076D01*
X34757607Y-53600076D01*
X35557607Y-53600076D01*
X35557607Y-55800076D01*
G37*
G36*
X55038543Y-54812402D02*
G01*
X55150520Y-54877052D01*
X55241948Y-54968480D01*
X55306598Y-55080457D01*
X55340063Y-55205350D01*
X55340063Y-55334650D01*
X55306598Y-55459543D01*
X55241948Y-55571520D01*
X55150520Y-55662948D01*
X55038543Y-55727598D01*
X54913650Y-55761063D01*
X54784350Y-55761063D01*
X54659457Y-55727598D01*
X54547480Y-55662948D01*
X54456052Y-55571520D01*
X54391402Y-55459543D01*
X54357937Y-55334650D01*
X54357937Y-55205350D01*
X54391402Y-55080457D01*
X54456052Y-54968480D01*
X54547480Y-54877052D01*
X54659457Y-54812402D01*
X54784350Y-54778937D01*
X54913650Y-54778937D01*
X55038543Y-54812402D01*
G37*
G36*
X57070543Y-54812402D02*
G01*
X57182520Y-54877052D01*
X57273948Y-54968480D01*
X57338598Y-55080457D01*
X57372063Y-55205350D01*
X57372063Y-55334650D01*
X57338598Y-55459543D01*
X57273948Y-55571520D01*
X57182520Y-55662948D01*
X57070543Y-55727598D01*
X56945650Y-55761063D01*
X56816350Y-55761063D01*
X56691457Y-55727598D01*
X56579480Y-55662948D01*
X56488052Y-55571520D01*
X56423402Y-55459543D01*
X56389937Y-55334650D01*
X56389937Y-55205350D01*
X56423402Y-55080457D01*
X56488052Y-54968480D01*
X56579480Y-54877052D01*
X56691457Y-54812402D01*
X56816350Y-54778937D01*
X56945650Y-54778937D01*
X57070543Y-54812402D01*
G37*
G36*
X22337839Y-54052530D02*
G01*
X22460090Y-54103168D01*
X22570112Y-54176683D01*
X22663679Y-54270250D01*
X22737194Y-54380272D01*
X22787832Y-54502523D01*
X22813647Y-54632303D01*
X22813647Y-54764627D01*
X22787832Y-54894407D01*
X22737194Y-55016658D01*
X22663679Y-55126680D01*
X22570112Y-55220247D01*
X22460090Y-55293762D01*
X22337839Y-55344400D01*
X22208059Y-55370215D01*
X22075735Y-55370215D01*
X21945955Y-55344400D01*
X21823704Y-55293762D01*
X21713682Y-55220247D01*
X21620115Y-55126680D01*
X21546600Y-55016658D01*
X21495962Y-54894407D01*
X21470147Y-54764627D01*
X21470147Y-54632303D01*
X21495962Y-54502523D01*
X21546600Y-54380272D01*
X21620115Y-54270250D01*
X21713682Y-54176683D01*
X21823704Y-54103168D01*
X21945955Y-54052530D01*
X22075735Y-54026715D01*
X22208059Y-54026715D01*
X22337839Y-54052530D01*
G37*
G36*
X39674893Y-55320081D02*
G01*
X39009893Y-55320081D01*
X39009893Y-55040071D01*
X39674893Y-55040071D01*
X39674893Y-55320081D01*
G37*
G36*
X41990107Y-55320081D02*
G01*
X41325107Y-55320081D01*
X41325107Y-55040071D01*
X41990107Y-55040071D01*
X41990107Y-55320081D01*
G37*
G36*
X41099873Y-55180076D02*
G01*
X39899873Y-55180076D01*
X39899873Y-53180076D01*
X41099873Y-53180076D01*
X41099873Y-55180076D01*
G37*
G36*
X45484848Y-54087964D02*
G01*
X45532293Y-54093468D01*
X45548505Y-54100626D01*
X45571079Y-54105117D01*
X45595246Y-54121265D01*
X45613914Y-54129508D01*
X45626664Y-54142258D01*
X45648291Y-54156709D01*
X45662741Y-54178335D01*
X45675491Y-54191085D01*
X45683733Y-54209751D01*
X45699883Y-54233921D01*
X45704373Y-54256496D01*
X45711531Y-54272706D01*
X45717033Y-54320140D01*
X45718000Y-54325000D01*
X45718000Y-54875000D01*
X45717033Y-54879860D01*
X45711531Y-54927293D01*
X45704373Y-54943501D01*
X45699883Y-54966079D01*
X45683731Y-54990250D01*
X45675491Y-55008914D01*
X45662743Y-55021661D01*
X45648291Y-55043291D01*
X45626661Y-55057743D01*
X45613914Y-55070491D01*
X45595250Y-55078731D01*
X45571079Y-55094883D01*
X45548501Y-55099373D01*
X45532293Y-55106531D01*
X45484860Y-55112033D01*
X45480000Y-55113000D01*
X45080000Y-55113000D01*
X45075140Y-55112033D01*
X45027706Y-55106531D01*
X45011496Y-55099373D01*
X44988921Y-55094883D01*
X44964751Y-55078733D01*
X44946085Y-55070491D01*
X44933335Y-55057741D01*
X44911709Y-55043291D01*
X44897258Y-55021664D01*
X44884508Y-55008914D01*
X44876265Y-54990246D01*
X44860117Y-54966079D01*
X44855626Y-54943505D01*
X44848468Y-54927293D01*
X44842964Y-54879848D01*
X44842000Y-54875000D01*
X44842000Y-54325000D01*
X44842964Y-54320152D01*
X44848468Y-54272706D01*
X44855627Y-54256492D01*
X44860117Y-54233921D01*
X44876263Y-54209755D01*
X44884508Y-54191085D01*
X44897260Y-54178332D01*
X44911709Y-54156709D01*
X44933332Y-54142260D01*
X44946085Y-54129508D01*
X44964755Y-54121263D01*
X44988921Y-54105117D01*
X45011492Y-54100627D01*
X45027706Y-54093468D01*
X45075152Y-54087964D01*
X45080000Y-54087000D01*
X45480000Y-54087000D01*
X45484848Y-54087964D01*
G37*
G36*
X47124848Y-54087964D02*
G01*
X47172293Y-54093468D01*
X47188505Y-54100626D01*
X47211079Y-54105117D01*
X47235246Y-54121265D01*
X47253914Y-54129508D01*
X47266664Y-54142258D01*
X47288291Y-54156709D01*
X47302741Y-54178335D01*
X47315491Y-54191085D01*
X47323733Y-54209751D01*
X47339883Y-54233921D01*
X47344373Y-54256496D01*
X47351531Y-54272706D01*
X47357033Y-54320140D01*
X47358000Y-54325000D01*
X47358000Y-54875000D01*
X47357033Y-54879860D01*
X47351531Y-54927293D01*
X47344373Y-54943501D01*
X47339883Y-54966079D01*
X47323731Y-54990250D01*
X47315491Y-55008914D01*
X47302743Y-55021661D01*
X47288291Y-55043291D01*
X47266661Y-55057743D01*
X47253914Y-55070491D01*
X47235250Y-55078731D01*
X47211079Y-55094883D01*
X47188501Y-55099373D01*
X47172293Y-55106531D01*
X47124860Y-55112033D01*
X47120000Y-55113000D01*
X46720000Y-55113000D01*
X46715140Y-55112033D01*
X46667706Y-55106531D01*
X46651496Y-55099373D01*
X46628921Y-55094883D01*
X46604751Y-55078733D01*
X46586085Y-55070491D01*
X46573335Y-55057741D01*
X46551709Y-55043291D01*
X46537258Y-55021664D01*
X46524508Y-55008914D01*
X46516265Y-54990246D01*
X46500117Y-54966079D01*
X46495626Y-54943505D01*
X46488468Y-54927293D01*
X46482964Y-54879848D01*
X46482000Y-54875000D01*
X46482000Y-54325000D01*
X46482964Y-54320152D01*
X46488468Y-54272706D01*
X46495627Y-54256492D01*
X46500117Y-54233921D01*
X46516263Y-54209755D01*
X46524508Y-54191085D01*
X46537260Y-54178332D01*
X46551709Y-54156709D01*
X46573332Y-54142260D01*
X46586085Y-54129508D01*
X46604755Y-54121263D01*
X46628921Y-54105117D01*
X46651492Y-54100627D01*
X46667706Y-54093468D01*
X46715152Y-54087964D01*
X46720000Y-54087000D01*
X47120000Y-54087000D01*
X47124848Y-54087964D01*
G37*
G36*
X39674893Y-54819954D02*
G01*
X39009893Y-54819954D01*
X39009893Y-54539944D01*
X39674893Y-54539944D01*
X39674893Y-54819954D01*
G37*
G36*
X41990107Y-54819954D02*
G01*
X41325107Y-54819954D01*
X41325107Y-54539944D01*
X41990107Y-54539944D01*
X41990107Y-54819954D01*
G37*
G36*
X55380662Y-53636269D02*
G01*
X55469669Y-53687657D01*
X55542343Y-53760331D01*
X55593731Y-53849338D01*
X55620332Y-53948612D01*
X55620332Y-54051388D01*
X55593731Y-54150662D01*
X55542343Y-54239669D01*
X55469669Y-54312343D01*
X55380662Y-54363731D01*
X55281388Y-54390332D01*
X55178612Y-54390332D01*
X55079338Y-54363731D01*
X54990331Y-54312343D01*
X54917657Y-54239669D01*
X54866269Y-54150662D01*
X54839668Y-54051388D01*
X54839668Y-53948612D01*
X54866269Y-53849338D01*
X54917657Y-53760331D01*
X54990331Y-53687657D01*
X55079338Y-53636269D01*
X55178612Y-53609668D01*
X55281388Y-53609668D01*
X55380662Y-53636269D01*
G37*
G36*
X56650662Y-53636269D02*
G01*
X56739669Y-53687657D01*
X56812343Y-53760331D01*
X56863731Y-53849338D01*
X56890332Y-53948612D01*
X56890332Y-54051388D01*
X56863731Y-54150662D01*
X56812343Y-54239669D01*
X56739669Y-54312343D01*
X56650662Y-54363731D01*
X56551388Y-54390332D01*
X56448612Y-54390332D01*
X56349338Y-54363731D01*
X56260331Y-54312343D01*
X56187657Y-54239669D01*
X56136269Y-54150662D01*
X56109668Y-54051388D01*
X56109668Y-53948612D01*
X56136269Y-53849338D01*
X56187657Y-53760331D01*
X56260331Y-53687657D01*
X56349338Y-53636269D01*
X56448612Y-53609668D01*
X56551388Y-53609668D01*
X56650662Y-53636269D01*
G37*
G36*
X39674893Y-54320081D02*
G01*
X39009893Y-54320081D01*
X39009893Y-54040071D01*
X39674893Y-54040071D01*
X39674893Y-54320081D01*
G37*
G36*
X41990107Y-54320081D02*
G01*
X41325107Y-54320081D01*
X41325107Y-54040071D01*
X41990107Y-54040071D01*
X41990107Y-54320081D01*
G37*
G36*
X39674893Y-53819954D02*
G01*
X39009893Y-53819954D01*
X39009893Y-53539944D01*
X39674893Y-53539944D01*
X39674893Y-53819954D01*
G37*
G36*
X41990107Y-53819954D02*
G01*
X41325107Y-53819954D01*
X41325107Y-53539944D01*
X41990107Y-53539944D01*
X41990107Y-53819954D01*
G37*
G36*
X45484848Y-52587964D02*
G01*
X45532293Y-52593468D01*
X45548505Y-52600626D01*
X45571079Y-52605117D01*
X45595246Y-52621265D01*
X45613914Y-52629508D01*
X45626664Y-52642258D01*
X45648291Y-52656709D01*
X45662741Y-52678335D01*
X45675491Y-52691085D01*
X45683733Y-52709751D01*
X45699883Y-52733921D01*
X45704373Y-52756496D01*
X45711531Y-52772706D01*
X45717033Y-52820140D01*
X45718000Y-52825000D01*
X45718000Y-53375000D01*
X45717033Y-53379860D01*
X45711531Y-53427293D01*
X45704373Y-53443501D01*
X45699883Y-53466079D01*
X45683731Y-53490250D01*
X45675491Y-53508914D01*
X45662743Y-53521661D01*
X45648291Y-53543291D01*
X45626661Y-53557743D01*
X45613914Y-53570491D01*
X45595250Y-53578731D01*
X45571079Y-53594883D01*
X45548501Y-53599373D01*
X45532293Y-53606531D01*
X45484860Y-53612033D01*
X45480000Y-53613000D01*
X45080000Y-53613000D01*
X45075140Y-53612033D01*
X45027706Y-53606531D01*
X45011496Y-53599373D01*
X44988921Y-53594883D01*
X44964751Y-53578733D01*
X44946085Y-53570491D01*
X44933335Y-53557741D01*
X44911709Y-53543291D01*
X44897258Y-53521664D01*
X44884508Y-53508914D01*
X44876265Y-53490246D01*
X44860117Y-53466079D01*
X44855626Y-53443505D01*
X44848468Y-53427293D01*
X44842964Y-53379848D01*
X44842000Y-53375000D01*
X44842000Y-52825000D01*
X44842964Y-52820152D01*
X44848468Y-52772706D01*
X44855627Y-52756492D01*
X44860117Y-52733921D01*
X44876263Y-52709755D01*
X44884508Y-52691085D01*
X44897260Y-52678332D01*
X44911709Y-52656709D01*
X44933332Y-52642260D01*
X44946085Y-52629508D01*
X44964755Y-52621263D01*
X44988921Y-52605117D01*
X45011492Y-52600627D01*
X45027706Y-52593468D01*
X45075152Y-52587964D01*
X45080000Y-52587000D01*
X45480000Y-52587000D01*
X45484848Y-52587964D01*
G37*
G36*
X47124848Y-52587964D02*
G01*
X47172293Y-52593468D01*
X47188505Y-52600626D01*
X47211079Y-52605117D01*
X47235246Y-52621265D01*
X47253914Y-52629508D01*
X47266664Y-52642258D01*
X47288291Y-52656709D01*
X47302741Y-52678335D01*
X47315491Y-52691085D01*
X47323733Y-52709751D01*
X47339883Y-52733921D01*
X47344373Y-52756496D01*
X47351531Y-52772706D01*
X47357033Y-52820140D01*
X47358000Y-52825000D01*
X47358000Y-53375000D01*
X47357033Y-53379860D01*
X47351531Y-53427293D01*
X47344373Y-53443501D01*
X47339883Y-53466079D01*
X47323731Y-53490250D01*
X47315491Y-53508914D01*
X47302743Y-53521661D01*
X47288291Y-53543291D01*
X47266661Y-53557743D01*
X47253914Y-53570491D01*
X47235250Y-53578731D01*
X47211079Y-53594883D01*
X47188501Y-53599373D01*
X47172293Y-53606531D01*
X47124860Y-53612033D01*
X47120000Y-53613000D01*
X46720000Y-53613000D01*
X46715140Y-53612033D01*
X46667706Y-53606531D01*
X46651496Y-53599373D01*
X46628921Y-53594883D01*
X46604751Y-53578733D01*
X46586085Y-53570491D01*
X46573335Y-53557741D01*
X46551709Y-53543291D01*
X46537258Y-53521664D01*
X46524508Y-53508914D01*
X46516265Y-53490246D01*
X46500117Y-53466079D01*
X46495626Y-53443505D01*
X46488468Y-53427293D01*
X46482964Y-53379848D01*
X46482000Y-53375000D01*
X46482000Y-52825000D01*
X46482964Y-52820152D01*
X46488468Y-52772706D01*
X46495627Y-52756492D01*
X46500117Y-52733921D01*
X46516263Y-52709755D01*
X46524508Y-52691085D01*
X46537260Y-52678332D01*
X46551709Y-52656709D01*
X46573332Y-52642260D01*
X46586085Y-52629508D01*
X46604755Y-52621263D01*
X46628921Y-52605117D01*
X46651492Y-52600627D01*
X46667706Y-52593468D01*
X46715152Y-52587964D01*
X46720000Y-52587000D01*
X47120000Y-52587000D01*
X47124848Y-52587964D01*
G37*
G36*
X23021880Y-52173144D02*
G01*
X23144131Y-52223782D01*
X23254153Y-52297297D01*
X23347720Y-52390864D01*
X23421235Y-52500886D01*
X23471873Y-52623137D01*
X23497688Y-52752917D01*
X23497688Y-52885241D01*
X23471873Y-53015021D01*
X23421235Y-53137272D01*
X23347720Y-53247294D01*
X23254153Y-53340861D01*
X23144131Y-53414376D01*
X23021880Y-53465014D01*
X22892100Y-53490829D01*
X22759776Y-53490829D01*
X22629996Y-53465014D01*
X22507745Y-53414376D01*
X22397723Y-53340861D01*
X22304156Y-53247294D01*
X22230641Y-53137272D01*
X22180003Y-53015021D01*
X22154188Y-52885241D01*
X22154188Y-52752917D01*
X22180003Y-52623137D01*
X22230641Y-52500886D01*
X22304156Y-52390864D01*
X22397723Y-52297297D01*
X22507745Y-52223782D01*
X22629996Y-52173144D01*
X22759776Y-52147329D01*
X22892100Y-52147329D01*
X23021880Y-52173144D01*
G37*
G36*
X39674893Y-53320081D02*
G01*
X39009893Y-53320081D01*
X39009893Y-53040071D01*
X39674893Y-53040071D01*
X39674893Y-53320081D01*
G37*
G36*
X41990107Y-53320081D02*
G01*
X41325107Y-53320081D01*
X41325107Y-53040071D01*
X41990107Y-53040071D01*
X41990107Y-53320081D01*
G37*
G36*
X48757702Y-52293532D02*
G01*
X48816610Y-52301287D01*
X48831429Y-52308197D01*
X48850646Y-52312020D01*
X48876100Y-52329028D01*
X48900320Y-52340322D01*
X48915054Y-52355056D01*
X48935969Y-52369031D01*
X48949943Y-52389945D01*
X48964677Y-52404679D01*
X48975970Y-52428896D01*
X48992980Y-52454354D01*
X48996802Y-52473572D01*
X49003712Y-52488389D01*
X49011465Y-52547284D01*
X49013000Y-52555000D01*
X49013000Y-53005000D01*
X49011464Y-53012717D01*
X49003712Y-53071610D01*
X48996803Y-53086425D01*
X48992980Y-53105646D01*
X48975968Y-53131105D01*
X48964677Y-53155320D01*
X48949945Y-53170051D01*
X48935969Y-53190969D01*
X48915051Y-53204945D01*
X48900320Y-53219677D01*
X48876105Y-53230968D01*
X48850646Y-53247980D01*
X48831425Y-53251803D01*
X48816610Y-53258712D01*
X48757717Y-53266464D01*
X48750000Y-53268000D01*
X48250000Y-53268000D01*
X48242284Y-53266465D01*
X48183389Y-53258712D01*
X48168572Y-53251802D01*
X48149354Y-53247980D01*
X48123896Y-53230970D01*
X48099679Y-53219677D01*
X48084945Y-53204943D01*
X48064031Y-53190969D01*
X48050056Y-53170054D01*
X48035322Y-53155320D01*
X48024028Y-53131100D01*
X48007020Y-53105646D01*
X48003197Y-53086429D01*
X47996287Y-53071610D01*
X47988532Y-53012702D01*
X47987000Y-53005000D01*
X47987000Y-52555000D01*
X47988531Y-52547299D01*
X47996287Y-52488389D01*
X48003197Y-52473568D01*
X48007020Y-52454354D01*
X48024026Y-52428901D01*
X48035322Y-52404679D01*
X48050058Y-52389942D01*
X48064031Y-52369031D01*
X48084942Y-52355058D01*
X48099679Y-52340322D01*
X48123901Y-52329026D01*
X48149354Y-52312020D01*
X48168568Y-52308197D01*
X48183389Y-52301287D01*
X48242299Y-52293531D01*
X48250000Y-52292000D01*
X48750000Y-52292000D01*
X48757702Y-52293532D01*
G37*
G36*
X55380662Y-52366269D02*
G01*
X55469669Y-52417657D01*
X55542343Y-52490331D01*
X55593731Y-52579338D01*
X55620332Y-52678612D01*
X55620332Y-52781388D01*
X55593731Y-52880662D01*
X55542343Y-52969669D01*
X55469669Y-53042343D01*
X55380662Y-53093731D01*
X55281388Y-53120332D01*
X55178612Y-53120332D01*
X55079338Y-53093731D01*
X54990331Y-53042343D01*
X54917657Y-52969669D01*
X54866269Y-52880662D01*
X54839668Y-52781388D01*
X54839668Y-52678612D01*
X54866269Y-52579338D01*
X54917657Y-52490331D01*
X54990331Y-52417657D01*
X55079338Y-52366269D01*
X55178612Y-52339668D01*
X55281388Y-52339668D01*
X55380662Y-52366269D01*
G37*
G36*
X56650662Y-52366269D02*
G01*
X56739669Y-52417657D01*
X56812343Y-52490331D01*
X56863731Y-52579338D01*
X56890332Y-52678612D01*
X56890332Y-52781388D01*
X56863731Y-52880662D01*
X56812343Y-52969669D01*
X56739669Y-53042343D01*
X56650662Y-53093731D01*
X56551388Y-53120332D01*
X56448612Y-53120332D01*
X56349338Y-53093731D01*
X56260331Y-53042343D01*
X56187657Y-52969669D01*
X56136269Y-52880662D01*
X56109668Y-52781388D01*
X56109668Y-52678612D01*
X56136269Y-52579338D01*
X56187657Y-52490331D01*
X56260331Y-52417657D01*
X56349338Y-52366269D01*
X56448612Y-52339668D01*
X56551388Y-52339668D01*
X56650662Y-52366269D01*
G37*
G36*
X33865938Y-51244650D02*
G01*
X33874692Y-51248515D01*
X33881367Y-51249488D01*
X33923097Y-51269888D01*
X33962759Y-51287401D01*
X33966430Y-51291072D01*
X33966867Y-51291286D01*
X34033713Y-51358132D01*
X34033926Y-51358568D01*
X34037599Y-51362241D01*
X34055116Y-51401913D01*
X34075511Y-51443632D01*
X34076483Y-51450304D01*
X34080350Y-51459062D01*
X34088000Y-51525000D01*
X34088000Y-52475000D01*
X34080350Y-52540938D01*
X34076482Y-52549696D01*
X34075511Y-52556367D01*
X34055120Y-52598076D01*
X34037599Y-52637759D01*
X34033925Y-52641432D01*
X34033713Y-52641867D01*
X33966867Y-52708713D01*
X33966432Y-52708925D01*
X33962759Y-52712599D01*
X33923076Y-52730120D01*
X33881367Y-52750511D01*
X33874696Y-52751482D01*
X33865938Y-52755350D01*
X33800000Y-52763000D01*
X33300000Y-52763000D01*
X33234062Y-52755350D01*
X33225304Y-52751483D01*
X33218632Y-52750511D01*
X33176913Y-52730116D01*
X33137241Y-52712599D01*
X33133568Y-52708926D01*
X33133132Y-52708713D01*
X33066286Y-52641867D01*
X33066072Y-52641430D01*
X33062401Y-52637759D01*
X33044888Y-52598097D01*
X33024488Y-52556367D01*
X33023515Y-52549692D01*
X33019650Y-52540938D01*
X33012000Y-52475000D01*
X33012000Y-51525000D01*
X33019650Y-51459062D01*
X33023515Y-51450307D01*
X33024488Y-51443632D01*
X33044893Y-51401892D01*
X33062401Y-51362241D01*
X33066071Y-51358570D01*
X33066286Y-51358132D01*
X33133132Y-51291286D01*
X33133570Y-51291071D01*
X33137241Y-51287401D01*
X33176892Y-51269893D01*
X33218632Y-51249488D01*
X33225307Y-51248515D01*
X33234062Y-51244650D01*
X33300000Y-51237000D01*
X33800000Y-51237000D01*
X33865938Y-51244650D01*
G37*
G36*
X35765938Y-51244650D02*
G01*
X35774692Y-51248515D01*
X35781367Y-51249488D01*
X35823097Y-51269888D01*
X35862759Y-51287401D01*
X35866430Y-51291072D01*
X35866867Y-51291286D01*
X35933713Y-51358132D01*
X35933926Y-51358568D01*
X35937599Y-51362241D01*
X35955116Y-51401913D01*
X35975511Y-51443632D01*
X35976483Y-51450304D01*
X35980350Y-51459062D01*
X35988000Y-51525000D01*
X35988000Y-52475000D01*
X35980350Y-52540938D01*
X35976482Y-52549696D01*
X35975511Y-52556367D01*
X35955120Y-52598076D01*
X35937599Y-52637759D01*
X35933925Y-52641432D01*
X35933713Y-52641867D01*
X35866867Y-52708713D01*
X35866432Y-52708925D01*
X35862759Y-52712599D01*
X35823076Y-52730120D01*
X35781367Y-52750511D01*
X35774696Y-52751482D01*
X35765938Y-52755350D01*
X35700000Y-52763000D01*
X35200000Y-52763000D01*
X35134062Y-52755350D01*
X35125304Y-52751483D01*
X35118632Y-52750511D01*
X35076913Y-52730116D01*
X35037241Y-52712599D01*
X35033568Y-52708926D01*
X35033132Y-52708713D01*
X34966286Y-52641867D01*
X34966072Y-52641430D01*
X34962401Y-52637759D01*
X34944888Y-52598097D01*
X34924488Y-52556367D01*
X34923515Y-52549692D01*
X34919650Y-52540938D01*
X34912000Y-52475000D01*
X34912000Y-51525000D01*
X34919650Y-51459062D01*
X34923515Y-51450307D01*
X34924488Y-51443632D01*
X34944893Y-51401892D01*
X34962401Y-51362241D01*
X34966071Y-51358570D01*
X34966286Y-51358132D01*
X35033132Y-51291286D01*
X35033570Y-51291071D01*
X35037241Y-51287401D01*
X35076892Y-51269893D01*
X35118632Y-51249488D01*
X35125307Y-51248515D01*
X35134062Y-51244650D01*
X35200000Y-51237000D01*
X35700000Y-51237000D01*
X35765938Y-51244650D01*
G37*
G36*
X45484848Y-51087964D02*
G01*
X45532293Y-51093468D01*
X45548505Y-51100626D01*
X45571079Y-51105117D01*
X45595246Y-51121265D01*
X45613914Y-51129508D01*
X45626664Y-51142258D01*
X45648291Y-51156709D01*
X45662741Y-51178335D01*
X45675491Y-51191085D01*
X45683733Y-51209751D01*
X45699883Y-51233921D01*
X45704373Y-51256496D01*
X45711531Y-51272706D01*
X45717033Y-51320140D01*
X45718000Y-51325000D01*
X45718000Y-51875000D01*
X45717033Y-51879860D01*
X45711531Y-51927293D01*
X45704373Y-51943501D01*
X45699883Y-51966079D01*
X45683731Y-51990250D01*
X45675491Y-52008914D01*
X45662743Y-52021661D01*
X45648291Y-52043291D01*
X45626661Y-52057743D01*
X45613914Y-52070491D01*
X45595250Y-52078731D01*
X45571079Y-52094883D01*
X45548501Y-52099373D01*
X45532293Y-52106531D01*
X45484860Y-52112033D01*
X45480000Y-52113000D01*
X45080000Y-52113000D01*
X45075140Y-52112033D01*
X45027706Y-52106531D01*
X45011496Y-52099373D01*
X44988921Y-52094883D01*
X44964751Y-52078733D01*
X44946085Y-52070491D01*
X44933335Y-52057741D01*
X44911709Y-52043291D01*
X44897258Y-52021664D01*
X44884508Y-52008914D01*
X44876265Y-51990246D01*
X44860117Y-51966079D01*
X44855626Y-51943505D01*
X44848468Y-51927293D01*
X44842964Y-51879848D01*
X44842000Y-51875000D01*
X44842000Y-51325000D01*
X44842964Y-51320152D01*
X44848468Y-51272706D01*
X44855627Y-51256492D01*
X44860117Y-51233921D01*
X44876263Y-51209755D01*
X44884508Y-51191085D01*
X44897260Y-51178332D01*
X44911709Y-51156709D01*
X44933332Y-51142260D01*
X44946085Y-51129508D01*
X44964755Y-51121263D01*
X44988921Y-51105117D01*
X45011492Y-51100627D01*
X45027706Y-51093468D01*
X45075152Y-51087964D01*
X45080000Y-51087000D01*
X45480000Y-51087000D01*
X45484848Y-51087964D01*
G37*
G36*
X47124848Y-51087964D02*
G01*
X47172293Y-51093468D01*
X47188505Y-51100626D01*
X47211079Y-51105117D01*
X47235246Y-51121265D01*
X47253914Y-51129508D01*
X47266664Y-51142258D01*
X47288291Y-51156709D01*
X47302741Y-51178335D01*
X47315491Y-51191085D01*
X47323733Y-51209751D01*
X47339883Y-51233921D01*
X47344373Y-51256496D01*
X47351531Y-51272706D01*
X47357033Y-51320140D01*
X47358000Y-51325000D01*
X47358000Y-51875000D01*
X47357033Y-51879860D01*
X47351531Y-51927293D01*
X47344373Y-51943501D01*
X47339883Y-51966079D01*
X47323731Y-51990250D01*
X47315491Y-52008914D01*
X47302743Y-52021661D01*
X47288291Y-52043291D01*
X47266661Y-52057743D01*
X47253914Y-52070491D01*
X47235250Y-52078731D01*
X47211079Y-52094883D01*
X47188501Y-52099373D01*
X47172293Y-52106531D01*
X47124860Y-52112033D01*
X47120000Y-52113000D01*
X46720000Y-52113000D01*
X46715140Y-52112033D01*
X46667706Y-52106531D01*
X46651496Y-52099373D01*
X46628921Y-52094883D01*
X46604751Y-52078733D01*
X46586085Y-52070491D01*
X46573335Y-52057741D01*
X46551709Y-52043291D01*
X46537258Y-52021664D01*
X46524508Y-52008914D01*
X46516265Y-51990246D01*
X46500117Y-51966079D01*
X46495626Y-51943505D01*
X46488468Y-51927293D01*
X46482964Y-51879848D01*
X46482000Y-51875000D01*
X46482000Y-51325000D01*
X46482964Y-51320152D01*
X46488468Y-51272706D01*
X46495627Y-51256492D01*
X46500117Y-51233921D01*
X46516263Y-51209755D01*
X46524508Y-51191085D01*
X46537260Y-51178332D01*
X46551709Y-51156709D01*
X46573332Y-51142260D01*
X46586085Y-51129508D01*
X46604755Y-51121263D01*
X46628921Y-51105117D01*
X46651492Y-51100627D01*
X46667706Y-51093468D01*
X46715152Y-51087964D01*
X46720000Y-51087000D01*
X47120000Y-51087000D01*
X47124848Y-51087964D01*
G37*
G36*
X55380662Y-51096269D02*
G01*
X55469669Y-51147657D01*
X55542343Y-51220331D01*
X55593731Y-51309338D01*
X55620332Y-51408612D01*
X55620332Y-51511388D01*
X55593731Y-51610662D01*
X55542343Y-51699669D01*
X55469669Y-51772343D01*
X55380662Y-51823731D01*
X55281388Y-51850332D01*
X55178612Y-51850332D01*
X55079338Y-51823731D01*
X54990331Y-51772343D01*
X54917657Y-51699669D01*
X54866269Y-51610662D01*
X54839668Y-51511388D01*
X54839668Y-51408612D01*
X54866269Y-51309338D01*
X54917657Y-51220331D01*
X54990331Y-51147657D01*
X55079338Y-51096269D01*
X55178612Y-51069668D01*
X55281388Y-51069668D01*
X55380662Y-51096269D01*
G37*
G36*
X56650662Y-51096269D02*
G01*
X56739669Y-51147657D01*
X56812343Y-51220331D01*
X56863731Y-51309338D01*
X56890332Y-51408612D01*
X56890332Y-51511388D01*
X56863731Y-51610662D01*
X56812343Y-51699669D01*
X56739669Y-51772343D01*
X56650662Y-51823731D01*
X56551388Y-51850332D01*
X56448612Y-51850332D01*
X56349338Y-51823731D01*
X56260331Y-51772343D01*
X56187657Y-51699669D01*
X56136269Y-51610662D01*
X56109668Y-51511388D01*
X56109668Y-51408612D01*
X56136269Y-51309338D01*
X56187657Y-51220331D01*
X56260331Y-51147657D01*
X56349338Y-51096269D01*
X56448612Y-51069668D01*
X56551388Y-51069668D01*
X56650662Y-51096269D01*
G37*
G36*
X48757702Y-50733532D02*
G01*
X48816610Y-50741287D01*
X48831429Y-50748197D01*
X48850646Y-50752020D01*
X48876100Y-50769028D01*
X48900320Y-50780322D01*
X48915054Y-50795056D01*
X48935969Y-50809031D01*
X48949943Y-50829945D01*
X48964677Y-50844679D01*
X48975970Y-50868896D01*
X48992980Y-50894354D01*
X48996802Y-50913572D01*
X49003712Y-50928389D01*
X49011465Y-50987284D01*
X49013000Y-50995000D01*
X49013000Y-51445000D01*
X49011464Y-51452717D01*
X49003712Y-51511610D01*
X48996803Y-51526425D01*
X48992980Y-51545646D01*
X48975968Y-51571105D01*
X48964677Y-51595320D01*
X48949945Y-51610051D01*
X48935969Y-51630969D01*
X48915051Y-51644945D01*
X48900320Y-51659677D01*
X48876105Y-51670968D01*
X48850646Y-51687980D01*
X48831425Y-51691803D01*
X48816610Y-51698712D01*
X48757717Y-51706464D01*
X48750000Y-51708000D01*
X48250000Y-51708000D01*
X48242284Y-51706465D01*
X48183389Y-51698712D01*
X48168572Y-51691802D01*
X48149354Y-51687980D01*
X48123896Y-51670970D01*
X48099679Y-51659677D01*
X48084945Y-51644943D01*
X48064031Y-51630969D01*
X48050056Y-51610054D01*
X48035322Y-51595320D01*
X48024028Y-51571100D01*
X48007020Y-51545646D01*
X48003197Y-51526429D01*
X47996287Y-51511610D01*
X47988532Y-51452702D01*
X47987000Y-51445000D01*
X47987000Y-50995000D01*
X47988531Y-50987299D01*
X47996287Y-50928389D01*
X48003197Y-50913568D01*
X48007020Y-50894354D01*
X48024026Y-50868901D01*
X48035322Y-50844679D01*
X48050058Y-50829942D01*
X48064031Y-50809031D01*
X48084942Y-50795058D01*
X48099679Y-50780322D01*
X48123901Y-50769026D01*
X48149354Y-50752020D01*
X48168568Y-50748197D01*
X48183389Y-50741287D01*
X48242299Y-50733531D01*
X48250000Y-50732000D01*
X48750000Y-50732000D01*
X48757702Y-50733532D01*
G37*
G36*
X23705920Y-50293759D02*
G01*
X23828171Y-50344397D01*
X23938193Y-50417912D01*
X24031760Y-50511479D01*
X24105275Y-50621501D01*
X24155913Y-50743752D01*
X24181728Y-50873532D01*
X24181728Y-51005856D01*
X24155913Y-51135636D01*
X24105275Y-51257887D01*
X24031760Y-51367909D01*
X23938193Y-51461476D01*
X23828171Y-51534991D01*
X23705920Y-51585629D01*
X23576140Y-51611444D01*
X23443816Y-51611444D01*
X23314036Y-51585629D01*
X23191785Y-51534991D01*
X23081763Y-51461476D01*
X22988196Y-51367909D01*
X22914681Y-51257887D01*
X22864043Y-51135636D01*
X22838228Y-51005856D01*
X22838228Y-50873532D01*
X22864043Y-50743752D01*
X22914681Y-50621501D01*
X22988196Y-50511479D01*
X23081763Y-50417912D01*
X23191785Y-50344397D01*
X23314036Y-50293759D01*
X23443816Y-50267944D01*
X23576140Y-50267944D01*
X23705920Y-50293759D01*
G37*
G36*
X56054543Y-49732402D02*
G01*
X56166520Y-49797052D01*
X56257948Y-49888480D01*
X56322598Y-50000457D01*
X56356063Y-50125350D01*
X56356063Y-50254650D01*
X56322598Y-50379543D01*
X56257948Y-50491520D01*
X56166520Y-50582948D01*
X56054543Y-50647598D01*
X55929650Y-50681063D01*
X55800350Y-50681063D01*
X55675457Y-50647598D01*
X55563480Y-50582948D01*
X55472052Y-50491520D01*
X55407402Y-50379543D01*
X55373937Y-50254650D01*
X55373937Y-50125350D01*
X55407402Y-50000457D01*
X55472052Y-49888480D01*
X55563480Y-49797052D01*
X55675457Y-49732402D01*
X55800350Y-49698937D01*
X55929650Y-49698937D01*
X56054543Y-49732402D01*
G37*
G36*
X24389961Y-48414373D02*
G01*
X24512212Y-48465011D01*
X24622234Y-48538526D01*
X24715801Y-48632093D01*
X24789316Y-48742115D01*
X24839954Y-48864366D01*
X24865769Y-48994146D01*
X24865769Y-49126470D01*
X24839954Y-49256250D01*
X24789316Y-49378501D01*
X24715801Y-49488523D01*
X24622234Y-49582090D01*
X24512212Y-49655605D01*
X24389961Y-49706243D01*
X24260181Y-49732058D01*
X24127857Y-49732058D01*
X23998077Y-49706243D01*
X23875826Y-49655605D01*
X23765804Y-49582090D01*
X23672237Y-49488523D01*
X23598722Y-49378501D01*
X23548084Y-49256250D01*
X23522269Y-49126470D01*
X23522269Y-48994146D01*
X23548084Y-48864366D01*
X23598722Y-48742115D01*
X23672237Y-48632093D01*
X23765804Y-48538526D01*
X23875826Y-48465011D01*
X23998077Y-48414373D01*
X24127857Y-48388558D01*
X24260181Y-48388558D01*
X24389961Y-48414373D01*
G37*
G36*
X51782572Y-47988532D02*
G01*
X51841480Y-47996287D01*
X51856299Y-48003197D01*
X51875516Y-48007020D01*
X51900970Y-48024028D01*
X51925190Y-48035322D01*
X51939924Y-48050056D01*
X51960839Y-48064031D01*
X51974813Y-48084945D01*
X51989547Y-48099679D01*
X52000840Y-48123896D01*
X52017850Y-48149354D01*
X52021672Y-48168572D01*
X52028582Y-48183389D01*
X52036335Y-48242284D01*
X52037870Y-48250000D01*
X52037870Y-48750000D01*
X52036334Y-48757717D01*
X52028582Y-48816610D01*
X52021673Y-48831425D01*
X52017850Y-48850646D01*
X52000838Y-48876105D01*
X51989547Y-48900320D01*
X51974815Y-48915051D01*
X51960839Y-48935969D01*
X51939921Y-48949945D01*
X51925190Y-48964677D01*
X51900975Y-48975968D01*
X51875516Y-48992980D01*
X51856295Y-48996803D01*
X51841480Y-49003712D01*
X51782587Y-49011464D01*
X51774870Y-49013000D01*
X51324870Y-49013000D01*
X51317154Y-49011465D01*
X51258259Y-49003712D01*
X51243442Y-48996802D01*
X51224224Y-48992980D01*
X51198766Y-48975970D01*
X51174549Y-48964677D01*
X51159815Y-48949943D01*
X51138901Y-48935969D01*
X51124926Y-48915054D01*
X51110192Y-48900320D01*
X51098898Y-48876100D01*
X51081890Y-48850646D01*
X51078067Y-48831429D01*
X51071157Y-48816610D01*
X51063402Y-48757702D01*
X51061870Y-48750000D01*
X51061870Y-48250000D01*
X51063401Y-48242299D01*
X51071157Y-48183389D01*
X51078067Y-48168568D01*
X51081890Y-48149354D01*
X51098896Y-48123901D01*
X51110192Y-48099679D01*
X51124928Y-48084942D01*
X51138901Y-48064031D01*
X51159812Y-48050058D01*
X51174549Y-48035322D01*
X51198771Y-48024026D01*
X51224224Y-48007020D01*
X51243438Y-48003197D01*
X51258259Y-47996287D01*
X51317169Y-47988531D01*
X51324870Y-47987000D01*
X51774870Y-47987000D01*
X51782572Y-47988532D01*
G37*
G36*
X53342572Y-47988532D02*
G01*
X53401480Y-47996287D01*
X53416299Y-48003197D01*
X53435516Y-48007020D01*
X53460970Y-48024028D01*
X53485190Y-48035322D01*
X53499924Y-48050056D01*
X53520839Y-48064031D01*
X53534813Y-48084945D01*
X53549547Y-48099679D01*
X53560840Y-48123896D01*
X53577850Y-48149354D01*
X53581672Y-48168572D01*
X53588582Y-48183389D01*
X53596335Y-48242284D01*
X53597870Y-48250000D01*
X53597870Y-48750000D01*
X53596334Y-48757717D01*
X53588582Y-48816610D01*
X53581673Y-48831425D01*
X53577850Y-48850646D01*
X53560838Y-48876105D01*
X53549547Y-48900320D01*
X53534815Y-48915051D01*
X53520839Y-48935969D01*
X53499921Y-48949945D01*
X53485190Y-48964677D01*
X53460975Y-48975968D01*
X53435516Y-48992980D01*
X53416295Y-48996803D01*
X53401480Y-49003712D01*
X53342587Y-49011464D01*
X53334870Y-49013000D01*
X52884870Y-49013000D01*
X52877154Y-49011465D01*
X52818259Y-49003712D01*
X52803442Y-48996802D01*
X52784224Y-48992980D01*
X52758766Y-48975970D01*
X52734549Y-48964677D01*
X52719815Y-48949943D01*
X52698901Y-48935969D01*
X52684926Y-48915054D01*
X52670192Y-48900320D01*
X52658898Y-48876100D01*
X52641890Y-48850646D01*
X52638067Y-48831429D01*
X52631157Y-48816610D01*
X52623402Y-48757702D01*
X52621870Y-48750000D01*
X52621870Y-48250000D01*
X52623401Y-48242299D01*
X52631157Y-48183389D01*
X52638067Y-48168568D01*
X52641890Y-48149354D01*
X52658896Y-48123901D01*
X52670192Y-48099679D01*
X52684928Y-48084942D01*
X52698901Y-48064031D01*
X52719812Y-48050058D01*
X52734549Y-48035322D01*
X52758771Y-48024026D01*
X52784224Y-48007020D01*
X52803438Y-48003197D01*
X52818259Y-47996287D01*
X52877169Y-47988531D01*
X52884870Y-47987000D01*
X53334870Y-47987000D01*
X53342572Y-47988532D01*
G37*
G36*
X43062002Y-48610008D02*
G01*
X40937998Y-48610008D01*
X40937998Y-44389992D01*
X43062002Y-44389992D01*
X43062002Y-48610008D01*
G37*
G36*
X47062002Y-48610008D02*
G01*
X44937998Y-48610008D01*
X44937998Y-44389992D01*
X47062002Y-44389992D01*
X47062002Y-48610008D01*
G37*
G36*
X55691342Y-47038060D02*
G01*
X55804381Y-47103323D01*
X55896677Y-47195619D01*
X55961940Y-47308658D01*
X55995722Y-47434737D01*
X55995722Y-47565263D01*
X55961940Y-47691342D01*
X55896677Y-47804381D01*
X55804381Y-47896677D01*
X55691342Y-47961940D01*
X55565263Y-47995722D01*
X55434737Y-47995722D01*
X55308658Y-47961940D01*
X55195619Y-47896677D01*
X55103323Y-47804381D01*
X55038060Y-47691342D01*
X55004278Y-47565263D01*
X55004278Y-47434737D01*
X55038060Y-47308658D01*
X55103323Y-47195619D01*
X55195619Y-47103323D01*
X55308658Y-47038060D01*
X55434737Y-47004278D01*
X55565263Y-47004278D01*
X55691342Y-47038060D01*
G37*
G36*
X25074001Y-46534990D02*
G01*
X25196252Y-46585628D01*
X25306274Y-46659143D01*
X25399841Y-46752710D01*
X25473356Y-46862732D01*
X25523994Y-46984983D01*
X25549809Y-47114763D01*
X25549809Y-47247087D01*
X25523994Y-47376867D01*
X25473356Y-47499118D01*
X25399841Y-47609140D01*
X25306274Y-47702707D01*
X25196252Y-47776222D01*
X25074001Y-47826860D01*
X24944221Y-47852675D01*
X24811897Y-47852675D01*
X24682117Y-47826860D01*
X24559866Y-47776222D01*
X24449844Y-47702707D01*
X24356277Y-47609140D01*
X24282762Y-47499118D01*
X24232124Y-47376867D01*
X24206309Y-47247087D01*
X24206309Y-47114763D01*
X24232124Y-46984983D01*
X24282762Y-46862732D01*
X24356277Y-46752710D01*
X24449844Y-46659143D01*
X24559866Y-46585628D01*
X24682117Y-46534990D01*
X24811897Y-46509175D01*
X24944221Y-46509175D01*
X25074001Y-46534990D01*
G37*
G36*
X51782572Y-46488532D02*
G01*
X51841480Y-46496287D01*
X51856299Y-46503197D01*
X51875516Y-46507020D01*
X51900970Y-46524028D01*
X51925190Y-46535322D01*
X51939924Y-46550056D01*
X51960839Y-46564031D01*
X51974813Y-46584945D01*
X51989547Y-46599679D01*
X52000840Y-46623896D01*
X52017850Y-46649354D01*
X52021672Y-46668572D01*
X52028582Y-46683389D01*
X52036335Y-46742284D01*
X52037870Y-46750000D01*
X52037870Y-47250000D01*
X52036334Y-47257717D01*
X52028582Y-47316610D01*
X52021673Y-47331425D01*
X52017850Y-47350646D01*
X52000838Y-47376105D01*
X51989547Y-47400320D01*
X51974815Y-47415051D01*
X51960839Y-47435969D01*
X51939921Y-47449945D01*
X51925190Y-47464677D01*
X51900975Y-47475968D01*
X51875516Y-47492980D01*
X51856295Y-47496803D01*
X51841480Y-47503712D01*
X51782587Y-47511464D01*
X51774870Y-47513000D01*
X51324870Y-47513000D01*
X51317154Y-47511465D01*
X51258259Y-47503712D01*
X51243442Y-47496802D01*
X51224224Y-47492980D01*
X51198766Y-47475970D01*
X51174549Y-47464677D01*
X51159815Y-47449943D01*
X51138901Y-47435969D01*
X51124926Y-47415054D01*
X51110192Y-47400320D01*
X51098898Y-47376100D01*
X51081890Y-47350646D01*
X51078067Y-47331429D01*
X51071157Y-47316610D01*
X51063402Y-47257702D01*
X51061870Y-47250000D01*
X51061870Y-46750000D01*
X51063401Y-46742299D01*
X51071157Y-46683389D01*
X51078067Y-46668568D01*
X51081890Y-46649354D01*
X51098896Y-46623901D01*
X51110192Y-46599679D01*
X51124928Y-46584942D01*
X51138901Y-46564031D01*
X51159812Y-46550058D01*
X51174549Y-46535322D01*
X51198771Y-46524026D01*
X51224224Y-46507020D01*
X51243438Y-46503197D01*
X51258259Y-46496287D01*
X51317169Y-46488531D01*
X51324870Y-46487000D01*
X51774870Y-46487000D01*
X51782572Y-46488532D01*
G37*
G36*
X53342572Y-46488532D02*
G01*
X53401480Y-46496287D01*
X53416299Y-46503197D01*
X53435516Y-46507020D01*
X53460970Y-46524028D01*
X53485190Y-46535322D01*
X53499924Y-46550056D01*
X53520839Y-46564031D01*
X53534813Y-46584945D01*
X53549547Y-46599679D01*
X53560840Y-46623896D01*
X53577850Y-46649354D01*
X53581672Y-46668572D01*
X53588582Y-46683389D01*
X53596335Y-46742284D01*
X53597870Y-46750000D01*
X53597870Y-47250000D01*
X53596334Y-47257717D01*
X53588582Y-47316610D01*
X53581673Y-47331425D01*
X53577850Y-47350646D01*
X53560838Y-47376105D01*
X53549547Y-47400320D01*
X53534815Y-47415051D01*
X53520839Y-47435969D01*
X53499921Y-47449945D01*
X53485190Y-47464677D01*
X53460975Y-47475968D01*
X53435516Y-47492980D01*
X53416295Y-47496803D01*
X53401480Y-47503712D01*
X53342587Y-47511464D01*
X53334870Y-47513000D01*
X52884870Y-47513000D01*
X52877154Y-47511465D01*
X52818259Y-47503712D01*
X52803442Y-47496802D01*
X52784224Y-47492980D01*
X52758766Y-47475970D01*
X52734549Y-47464677D01*
X52719815Y-47449943D01*
X52698901Y-47435969D01*
X52684926Y-47415054D01*
X52670192Y-47400320D01*
X52658898Y-47376100D01*
X52641890Y-47350646D01*
X52638067Y-47331429D01*
X52631157Y-47316610D01*
X52623402Y-47257702D01*
X52621870Y-47250000D01*
X52621870Y-46750000D01*
X52623401Y-46742299D01*
X52631157Y-46683389D01*
X52638067Y-46668568D01*
X52641890Y-46649354D01*
X52658896Y-46623901D01*
X52670192Y-46599679D01*
X52684928Y-46584942D01*
X52698901Y-46564031D01*
X52719812Y-46550058D01*
X52734549Y-46535322D01*
X52758771Y-46524026D01*
X52784224Y-46507020D01*
X52803438Y-46503197D01*
X52818259Y-46496287D01*
X52877169Y-46488531D01*
X52884870Y-46487000D01*
X53334870Y-46487000D01*
X53342572Y-46488532D01*
G37*
G36*
X35257702Y-46293532D02*
G01*
X35316610Y-46301287D01*
X35331429Y-46308197D01*
X35350646Y-46312020D01*
X35376100Y-46329028D01*
X35400320Y-46340322D01*
X35415054Y-46355056D01*
X35435969Y-46369031D01*
X35449943Y-46389945D01*
X35464677Y-46404679D01*
X35475970Y-46428896D01*
X35492980Y-46454354D01*
X35496802Y-46473572D01*
X35503712Y-46488389D01*
X35511465Y-46547284D01*
X35513000Y-46555000D01*
X35513000Y-47005000D01*
X35511464Y-47012717D01*
X35503712Y-47071610D01*
X35496803Y-47086425D01*
X35492980Y-47105646D01*
X35475968Y-47131105D01*
X35464677Y-47155320D01*
X35449945Y-47170051D01*
X35435969Y-47190969D01*
X35415051Y-47204945D01*
X35400320Y-47219677D01*
X35376105Y-47230968D01*
X35350646Y-47247980D01*
X35331425Y-47251803D01*
X35316610Y-47258712D01*
X35257717Y-47266464D01*
X35250000Y-47268000D01*
X34750000Y-47268000D01*
X34742284Y-47266465D01*
X34683389Y-47258712D01*
X34668572Y-47251802D01*
X34649354Y-47247980D01*
X34623896Y-47230970D01*
X34599679Y-47219677D01*
X34584945Y-47204943D01*
X34564031Y-47190969D01*
X34550056Y-47170054D01*
X34535322Y-47155320D01*
X34524028Y-47131100D01*
X34507020Y-47105646D01*
X34503197Y-47086429D01*
X34496287Y-47071610D01*
X34488532Y-47012702D01*
X34487000Y-47005000D01*
X34487000Y-46555000D01*
X34488531Y-46547299D01*
X34496287Y-46488389D01*
X34503197Y-46473568D01*
X34507020Y-46454354D01*
X34524026Y-46428901D01*
X34535322Y-46404679D01*
X34550058Y-46389942D01*
X34564031Y-46369031D01*
X34584942Y-46355058D01*
X34599679Y-46340322D01*
X34623901Y-46329026D01*
X34649354Y-46312020D01*
X34668568Y-46308197D01*
X34683389Y-46301287D01*
X34742299Y-46293531D01*
X34750000Y-46292000D01*
X35250000Y-46292000D01*
X35257702Y-46293532D01*
G37*
G36*
X36757702Y-46293532D02*
G01*
X36816610Y-46301287D01*
X36831429Y-46308197D01*
X36850646Y-46312020D01*
X36876100Y-46329028D01*
X36900320Y-46340322D01*
X36915054Y-46355056D01*
X36935969Y-46369031D01*
X36949943Y-46389945D01*
X36964677Y-46404679D01*
X36975970Y-46428896D01*
X36992980Y-46454354D01*
X36996802Y-46473572D01*
X37003712Y-46488389D01*
X37011465Y-46547284D01*
X37013000Y-46555000D01*
X37013000Y-47005000D01*
X37011464Y-47012717D01*
X37003712Y-47071610D01*
X36996803Y-47086425D01*
X36992980Y-47105646D01*
X36975968Y-47131105D01*
X36964677Y-47155320D01*
X36949945Y-47170051D01*
X36935969Y-47190969D01*
X36915051Y-47204945D01*
X36900320Y-47219677D01*
X36876105Y-47230968D01*
X36850646Y-47247980D01*
X36831425Y-47251803D01*
X36816610Y-47258712D01*
X36757717Y-47266464D01*
X36750000Y-47268000D01*
X36250000Y-47268000D01*
X36242284Y-47266465D01*
X36183389Y-47258712D01*
X36168572Y-47251802D01*
X36149354Y-47247980D01*
X36123896Y-47230970D01*
X36099679Y-47219677D01*
X36084945Y-47204943D01*
X36064031Y-47190969D01*
X36050056Y-47170054D01*
X36035322Y-47155320D01*
X36024028Y-47131100D01*
X36007020Y-47105646D01*
X36003197Y-47086429D01*
X35996287Y-47071610D01*
X35988532Y-47012702D01*
X35987000Y-47005000D01*
X35987000Y-46555000D01*
X35988531Y-46547299D01*
X35996287Y-46488389D01*
X36003197Y-46473568D01*
X36007020Y-46454354D01*
X36024026Y-46428901D01*
X36035322Y-46404679D01*
X36050058Y-46389942D01*
X36064031Y-46369031D01*
X36084942Y-46355058D01*
X36099679Y-46340322D01*
X36123901Y-46329026D01*
X36149354Y-46312020D01*
X36168568Y-46308197D01*
X36183389Y-46301287D01*
X36242299Y-46293531D01*
X36250000Y-46292000D01*
X36750000Y-46292000D01*
X36757702Y-46293532D01*
G37*
G36*
X38257702Y-46293532D02*
G01*
X38316610Y-46301287D01*
X38331429Y-46308197D01*
X38350646Y-46312020D01*
X38376100Y-46329028D01*
X38400320Y-46340322D01*
X38415054Y-46355056D01*
X38435969Y-46369031D01*
X38449943Y-46389945D01*
X38464677Y-46404679D01*
X38475970Y-46428896D01*
X38492980Y-46454354D01*
X38496802Y-46473572D01*
X38503712Y-46488389D01*
X38511465Y-46547284D01*
X38513000Y-46555000D01*
X38513000Y-47005000D01*
X38511464Y-47012717D01*
X38503712Y-47071610D01*
X38496803Y-47086425D01*
X38492980Y-47105646D01*
X38475968Y-47131105D01*
X38464677Y-47155320D01*
X38449945Y-47170051D01*
X38435969Y-47190969D01*
X38415051Y-47204945D01*
X38400320Y-47219677D01*
X38376105Y-47230968D01*
X38350646Y-47247980D01*
X38331425Y-47251803D01*
X38316610Y-47258712D01*
X38257717Y-47266464D01*
X38250000Y-47268000D01*
X37750000Y-47268000D01*
X37742284Y-47266465D01*
X37683389Y-47258712D01*
X37668572Y-47251802D01*
X37649354Y-47247980D01*
X37623896Y-47230970D01*
X37599679Y-47219677D01*
X37584945Y-47204943D01*
X37564031Y-47190969D01*
X37550056Y-47170054D01*
X37535322Y-47155320D01*
X37524028Y-47131100D01*
X37507020Y-47105646D01*
X37503197Y-47086429D01*
X37496287Y-47071610D01*
X37488532Y-47012702D01*
X37487000Y-47005000D01*
X37487000Y-46555000D01*
X37488531Y-46547299D01*
X37496287Y-46488389D01*
X37503197Y-46473568D01*
X37507020Y-46454354D01*
X37524026Y-46428901D01*
X37535322Y-46404679D01*
X37550058Y-46389942D01*
X37564031Y-46369031D01*
X37584942Y-46355058D01*
X37599679Y-46340322D01*
X37623901Y-46329026D01*
X37649354Y-46312020D01*
X37668568Y-46308197D01*
X37683389Y-46301287D01*
X37742299Y-46293531D01*
X37750000Y-46292000D01*
X38250000Y-46292000D01*
X38257702Y-46293532D01*
G37*
G36*
X39757702Y-46293532D02*
G01*
X39816610Y-46301287D01*
X39831429Y-46308197D01*
X39850646Y-46312020D01*
X39876100Y-46329028D01*
X39900320Y-46340322D01*
X39915054Y-46355056D01*
X39935969Y-46369031D01*
X39949943Y-46389945D01*
X39964677Y-46404679D01*
X39975970Y-46428896D01*
X39992980Y-46454354D01*
X39996802Y-46473572D01*
X40003712Y-46488389D01*
X40011465Y-46547284D01*
X40013000Y-46555000D01*
X40013000Y-47005000D01*
X40011464Y-47012717D01*
X40003712Y-47071610D01*
X39996803Y-47086425D01*
X39992980Y-47105646D01*
X39975968Y-47131105D01*
X39964677Y-47155320D01*
X39949945Y-47170051D01*
X39935969Y-47190969D01*
X39915051Y-47204945D01*
X39900320Y-47219677D01*
X39876105Y-47230968D01*
X39850646Y-47247980D01*
X39831425Y-47251803D01*
X39816610Y-47258712D01*
X39757717Y-47266464D01*
X39750000Y-47268000D01*
X39250000Y-47268000D01*
X39242284Y-47266465D01*
X39183389Y-47258712D01*
X39168572Y-47251802D01*
X39149354Y-47247980D01*
X39123896Y-47230970D01*
X39099679Y-47219677D01*
X39084945Y-47204943D01*
X39064031Y-47190969D01*
X39050056Y-47170054D01*
X39035322Y-47155320D01*
X39024028Y-47131100D01*
X39007020Y-47105646D01*
X39003197Y-47086429D01*
X38996287Y-47071610D01*
X38988532Y-47012702D01*
X38987000Y-47005000D01*
X38987000Y-46555000D01*
X38988531Y-46547299D01*
X38996287Y-46488389D01*
X39003197Y-46473568D01*
X39007020Y-46454354D01*
X39024026Y-46428901D01*
X39035322Y-46404679D01*
X39050058Y-46389942D01*
X39064031Y-46369031D01*
X39084942Y-46355058D01*
X39099679Y-46340322D01*
X39123901Y-46329026D01*
X39149354Y-46312020D01*
X39168568Y-46308197D01*
X39183389Y-46301287D01*
X39242299Y-46293531D01*
X39250000Y-46292000D01*
X39750000Y-46292000D01*
X39757702Y-46293532D01*
G37*
G36*
X33779467Y-46382964D02*
G01*
X33826912Y-46388468D01*
X33843124Y-46395626D01*
X33865698Y-46400117D01*
X33889865Y-46416265D01*
X33908533Y-46424508D01*
X33921283Y-46437258D01*
X33942910Y-46451709D01*
X33957360Y-46473335D01*
X33970110Y-46486085D01*
X33978352Y-46504751D01*
X33994502Y-46528921D01*
X33998992Y-46551496D01*
X34006150Y-46567706D01*
X34011652Y-46615140D01*
X34012619Y-46620000D01*
X34012619Y-47020000D01*
X34011652Y-47024860D01*
X34006150Y-47072293D01*
X33998992Y-47088501D01*
X33994502Y-47111079D01*
X33978350Y-47135250D01*
X33970110Y-47153914D01*
X33957362Y-47166661D01*
X33942910Y-47188291D01*
X33921280Y-47202743D01*
X33908533Y-47215491D01*
X33889869Y-47223731D01*
X33865698Y-47239883D01*
X33843120Y-47244373D01*
X33826912Y-47251531D01*
X33779479Y-47257033D01*
X33774619Y-47258000D01*
X33224619Y-47258000D01*
X33219759Y-47257033D01*
X33172325Y-47251531D01*
X33156115Y-47244373D01*
X33133540Y-47239883D01*
X33109370Y-47223733D01*
X33090704Y-47215491D01*
X33077954Y-47202741D01*
X33056328Y-47188291D01*
X33041877Y-47166664D01*
X33029127Y-47153914D01*
X33020884Y-47135246D01*
X33004736Y-47111079D01*
X33000245Y-47088505D01*
X32993087Y-47072293D01*
X32987583Y-47024848D01*
X32986619Y-47020000D01*
X32986619Y-46620000D01*
X32987583Y-46615152D01*
X32993087Y-46567706D01*
X33000246Y-46551492D01*
X33004736Y-46528921D01*
X33020882Y-46504755D01*
X33029127Y-46486085D01*
X33041879Y-46473332D01*
X33056328Y-46451709D01*
X33077951Y-46437260D01*
X33090704Y-46424508D01*
X33109374Y-46416263D01*
X33133540Y-46400117D01*
X33156111Y-46395627D01*
X33172325Y-46388468D01*
X33219771Y-46382964D01*
X33224619Y-46382000D01*
X33774619Y-46382000D01*
X33779467Y-46382964D01*
G37*
G36*
X25758041Y-44655601D02*
G01*
X25880292Y-44706239D01*
X25990314Y-44779754D01*
X26083881Y-44873321D01*
X26157396Y-44983343D01*
X26208034Y-45105594D01*
X26233849Y-45235374D01*
X26233849Y-45367698D01*
X26208034Y-45497478D01*
X26157396Y-45619729D01*
X26083881Y-45729751D01*
X25990314Y-45823318D01*
X25880292Y-45896833D01*
X25758041Y-45947471D01*
X25628261Y-45973286D01*
X25495937Y-45973286D01*
X25366157Y-45947471D01*
X25243906Y-45896833D01*
X25133884Y-45823318D01*
X25040317Y-45729751D01*
X24966802Y-45619729D01*
X24916164Y-45497478D01*
X24890349Y-45367698D01*
X24890349Y-45235374D01*
X24916164Y-45105594D01*
X24966802Y-44983343D01*
X25040317Y-44873321D01*
X25133884Y-44779754D01*
X25243906Y-44706239D01*
X25366157Y-44655601D01*
X25495937Y-44629786D01*
X25628261Y-44629786D01*
X25758041Y-44655601D01*
G37*
G36*
X35257702Y-44733532D02*
G01*
X35316610Y-44741287D01*
X35331429Y-44748197D01*
X35350646Y-44752020D01*
X35376100Y-44769028D01*
X35400320Y-44780322D01*
X35415054Y-44795056D01*
X35435969Y-44809031D01*
X35449943Y-44829945D01*
X35464677Y-44844679D01*
X35475970Y-44868896D01*
X35492980Y-44894354D01*
X35496802Y-44913572D01*
X35503712Y-44928389D01*
X35511465Y-44987284D01*
X35513000Y-44995000D01*
X35513000Y-45445000D01*
X35511464Y-45452717D01*
X35503712Y-45511610D01*
X35496803Y-45526425D01*
X35492980Y-45545646D01*
X35475968Y-45571105D01*
X35464677Y-45595320D01*
X35449945Y-45610051D01*
X35435969Y-45630969D01*
X35415051Y-45644945D01*
X35400320Y-45659677D01*
X35376105Y-45670968D01*
X35350646Y-45687980D01*
X35331425Y-45691803D01*
X35316610Y-45698712D01*
X35257717Y-45706464D01*
X35250000Y-45708000D01*
X34750000Y-45708000D01*
X34742284Y-45706465D01*
X34683389Y-45698712D01*
X34668572Y-45691802D01*
X34649354Y-45687980D01*
X34623896Y-45670970D01*
X34599679Y-45659677D01*
X34584945Y-45644943D01*
X34564031Y-45630969D01*
X34550056Y-45610054D01*
X34535322Y-45595320D01*
X34524028Y-45571100D01*
X34507020Y-45545646D01*
X34503197Y-45526429D01*
X34496287Y-45511610D01*
X34488532Y-45452702D01*
X34487000Y-45445000D01*
X34487000Y-44995000D01*
X34488531Y-44987299D01*
X34496287Y-44928389D01*
X34503197Y-44913568D01*
X34507020Y-44894354D01*
X34524026Y-44868901D01*
X34535322Y-44844679D01*
X34550058Y-44829942D01*
X34564031Y-44809031D01*
X34584942Y-44795058D01*
X34599679Y-44780322D01*
X34623901Y-44769026D01*
X34649354Y-44752020D01*
X34668568Y-44748197D01*
X34683389Y-44741287D01*
X34742299Y-44733531D01*
X34750000Y-44732000D01*
X35250000Y-44732000D01*
X35257702Y-44733532D01*
G37*
G36*
X36757702Y-44733532D02*
G01*
X36816610Y-44741287D01*
X36831429Y-44748197D01*
X36850646Y-44752020D01*
X36876100Y-44769028D01*
X36900320Y-44780322D01*
X36915054Y-44795056D01*
X36935969Y-44809031D01*
X36949943Y-44829945D01*
X36964677Y-44844679D01*
X36975970Y-44868896D01*
X36992980Y-44894354D01*
X36996802Y-44913572D01*
X37003712Y-44928389D01*
X37011465Y-44987284D01*
X37013000Y-44995000D01*
X37013000Y-45445000D01*
X37011464Y-45452717D01*
X37003712Y-45511610D01*
X36996803Y-45526425D01*
X36992980Y-45545646D01*
X36975968Y-45571105D01*
X36964677Y-45595320D01*
X36949945Y-45610051D01*
X36935969Y-45630969D01*
X36915051Y-45644945D01*
X36900320Y-45659677D01*
X36876105Y-45670968D01*
X36850646Y-45687980D01*
X36831425Y-45691803D01*
X36816610Y-45698712D01*
X36757717Y-45706464D01*
X36750000Y-45708000D01*
X36250000Y-45708000D01*
X36242284Y-45706465D01*
X36183389Y-45698712D01*
X36168572Y-45691802D01*
X36149354Y-45687980D01*
X36123896Y-45670970D01*
X36099679Y-45659677D01*
X36084945Y-45644943D01*
X36064031Y-45630969D01*
X36050056Y-45610054D01*
X36035322Y-45595320D01*
X36024028Y-45571100D01*
X36007020Y-45545646D01*
X36003197Y-45526429D01*
X35996287Y-45511610D01*
X35988532Y-45452702D01*
X35987000Y-45445000D01*
X35987000Y-44995000D01*
X35988531Y-44987299D01*
X35996287Y-44928389D01*
X36003197Y-44913568D01*
X36007020Y-44894354D01*
X36024026Y-44868901D01*
X36035322Y-44844679D01*
X36050058Y-44829942D01*
X36064031Y-44809031D01*
X36084942Y-44795058D01*
X36099679Y-44780322D01*
X36123901Y-44769026D01*
X36149354Y-44752020D01*
X36168568Y-44748197D01*
X36183389Y-44741287D01*
X36242299Y-44733531D01*
X36250000Y-44732000D01*
X36750000Y-44732000D01*
X36757702Y-44733532D01*
G37*
G36*
X38257702Y-44733532D02*
G01*
X38316610Y-44741287D01*
X38331429Y-44748197D01*
X38350646Y-44752020D01*
X38376100Y-44769028D01*
X38400320Y-44780322D01*
X38415054Y-44795056D01*
X38435969Y-44809031D01*
X38449943Y-44829945D01*
X38464677Y-44844679D01*
X38475970Y-44868896D01*
X38492980Y-44894354D01*
X38496802Y-44913572D01*
X38503712Y-44928389D01*
X38511465Y-44987284D01*
X38513000Y-44995000D01*
X38513000Y-45445000D01*
X38511464Y-45452717D01*
X38503712Y-45511610D01*
X38496803Y-45526425D01*
X38492980Y-45545646D01*
X38475968Y-45571105D01*
X38464677Y-45595320D01*
X38449945Y-45610051D01*
X38435969Y-45630969D01*
X38415051Y-45644945D01*
X38400320Y-45659677D01*
X38376105Y-45670968D01*
X38350646Y-45687980D01*
X38331425Y-45691803D01*
X38316610Y-45698712D01*
X38257717Y-45706464D01*
X38250000Y-45708000D01*
X37750000Y-45708000D01*
X37742284Y-45706465D01*
X37683389Y-45698712D01*
X37668572Y-45691802D01*
X37649354Y-45687980D01*
X37623896Y-45670970D01*
X37599679Y-45659677D01*
X37584945Y-45644943D01*
X37564031Y-45630969D01*
X37550056Y-45610054D01*
X37535322Y-45595320D01*
X37524028Y-45571100D01*
X37507020Y-45545646D01*
X37503197Y-45526429D01*
X37496287Y-45511610D01*
X37488532Y-45452702D01*
X37487000Y-45445000D01*
X37487000Y-44995000D01*
X37488531Y-44987299D01*
X37496287Y-44928389D01*
X37503197Y-44913568D01*
X37507020Y-44894354D01*
X37524026Y-44868901D01*
X37535322Y-44844679D01*
X37550058Y-44829942D01*
X37564031Y-44809031D01*
X37584942Y-44795058D01*
X37599679Y-44780322D01*
X37623901Y-44769026D01*
X37649354Y-44752020D01*
X37668568Y-44748197D01*
X37683389Y-44741287D01*
X37742299Y-44733531D01*
X37750000Y-44732000D01*
X38250000Y-44732000D01*
X38257702Y-44733532D01*
G37*
G36*
X39757702Y-44733532D02*
G01*
X39816610Y-44741287D01*
X39831429Y-44748197D01*
X39850646Y-44752020D01*
X39876100Y-44769028D01*
X39900320Y-44780322D01*
X39915054Y-44795056D01*
X39935969Y-44809031D01*
X39949943Y-44829945D01*
X39964677Y-44844679D01*
X39975970Y-44868896D01*
X39992980Y-44894354D01*
X39996802Y-44913572D01*
X40003712Y-44928389D01*
X40011465Y-44987284D01*
X40013000Y-44995000D01*
X40013000Y-45445000D01*
X40011464Y-45452717D01*
X40003712Y-45511610D01*
X39996803Y-45526425D01*
X39992980Y-45545646D01*
X39975968Y-45571105D01*
X39964677Y-45595320D01*
X39949945Y-45610051D01*
X39935969Y-45630969D01*
X39915051Y-45644945D01*
X39900320Y-45659677D01*
X39876105Y-45670968D01*
X39850646Y-45687980D01*
X39831425Y-45691803D01*
X39816610Y-45698712D01*
X39757717Y-45706464D01*
X39750000Y-45708000D01*
X39250000Y-45708000D01*
X39242284Y-45706465D01*
X39183389Y-45698712D01*
X39168572Y-45691802D01*
X39149354Y-45687980D01*
X39123896Y-45670970D01*
X39099679Y-45659677D01*
X39084945Y-45644943D01*
X39064031Y-45630969D01*
X39050056Y-45610054D01*
X39035322Y-45595320D01*
X39024028Y-45571100D01*
X39007020Y-45545646D01*
X39003197Y-45526429D01*
X38996287Y-45511610D01*
X38988532Y-45452702D01*
X38987000Y-45445000D01*
X38987000Y-44995000D01*
X38988531Y-44987299D01*
X38996287Y-44928389D01*
X39003197Y-44913568D01*
X39007020Y-44894354D01*
X39024026Y-44868901D01*
X39035322Y-44844679D01*
X39050058Y-44829942D01*
X39064031Y-44809031D01*
X39084942Y-44795058D01*
X39099679Y-44780322D01*
X39123901Y-44769026D01*
X39149354Y-44752020D01*
X39168568Y-44748197D01*
X39183389Y-44741287D01*
X39242299Y-44733531D01*
X39250000Y-44732000D01*
X39750000Y-44732000D01*
X39757702Y-44733532D01*
G37*
G36*
X33779467Y-44742964D02*
G01*
X33826912Y-44748468D01*
X33843124Y-44755626D01*
X33865698Y-44760117D01*
X33889865Y-44776265D01*
X33908533Y-44784508D01*
X33921283Y-44797258D01*
X33942910Y-44811709D01*
X33957360Y-44833335D01*
X33970110Y-44846085D01*
X33978352Y-44864751D01*
X33994502Y-44888921D01*
X33998992Y-44911496D01*
X34006150Y-44927706D01*
X34011652Y-44975140D01*
X34012619Y-44980000D01*
X34012619Y-45380000D01*
X34011652Y-45384860D01*
X34006150Y-45432293D01*
X33998992Y-45448501D01*
X33994502Y-45471079D01*
X33978350Y-45495250D01*
X33970110Y-45513914D01*
X33957362Y-45526661D01*
X33942910Y-45548291D01*
X33921280Y-45562743D01*
X33908533Y-45575491D01*
X33889869Y-45583731D01*
X33865698Y-45599883D01*
X33843120Y-45604373D01*
X33826912Y-45611531D01*
X33779479Y-45617033D01*
X33774619Y-45618000D01*
X33224619Y-45618000D01*
X33219759Y-45617033D01*
X33172325Y-45611531D01*
X33156115Y-45604373D01*
X33133540Y-45599883D01*
X33109370Y-45583733D01*
X33090704Y-45575491D01*
X33077954Y-45562741D01*
X33056328Y-45548291D01*
X33041877Y-45526664D01*
X33029127Y-45513914D01*
X33020884Y-45495246D01*
X33004736Y-45471079D01*
X33000245Y-45448505D01*
X32993087Y-45432293D01*
X32987583Y-45384848D01*
X32986619Y-45380000D01*
X32986619Y-44980000D01*
X32987583Y-44975152D01*
X32993087Y-44927706D01*
X33000246Y-44911492D01*
X33004736Y-44888921D01*
X33020882Y-44864755D01*
X33029127Y-44846085D01*
X33041879Y-44833332D01*
X33056328Y-44811709D01*
X33077951Y-44797260D01*
X33090704Y-44784508D01*
X33109374Y-44776263D01*
X33133540Y-44760117D01*
X33156111Y-44755627D01*
X33172325Y-44748468D01*
X33219771Y-44742964D01*
X33224619Y-44742000D01*
X33774619Y-44742000D01*
X33779467Y-44742964D01*
G37*
G36*
X32154850Y-43750964D02*
G01*
X32205040Y-43756787D01*
X32222189Y-43764359D01*
X32245671Y-43769030D01*
X32270810Y-43785827D01*
X32290696Y-43794608D01*
X32304277Y-43808189D01*
X32326777Y-43823223D01*
X32341810Y-43845722D01*
X32355391Y-43859303D01*
X32364170Y-43879186D01*
X32380970Y-43904329D01*
X32385641Y-43927812D01*
X32393212Y-43944959D01*
X32399033Y-43995139D01*
X32400000Y-44000000D01*
X32400000Y-44500000D01*
X32399032Y-44504863D01*
X32393212Y-44555040D01*
X32385641Y-44572185D01*
X32380970Y-44595671D01*
X32364169Y-44620815D01*
X32355391Y-44640696D01*
X32341812Y-44654274D01*
X32326777Y-44676777D01*
X32304274Y-44691812D01*
X32290696Y-44705391D01*
X32270815Y-44714169D01*
X32245671Y-44730970D01*
X32222185Y-44735641D01*
X32205040Y-44743212D01*
X32154861Y-44749032D01*
X32150000Y-44750000D01*
X30850000Y-44750000D01*
X30845138Y-44749032D01*
X30794959Y-44743212D01*
X30777812Y-44735641D01*
X30754329Y-44730970D01*
X30729186Y-44714170D01*
X30709303Y-44705391D01*
X30695722Y-44691810D01*
X30673223Y-44676777D01*
X30658189Y-44654277D01*
X30644608Y-44640696D01*
X30635827Y-44620810D01*
X30619030Y-44595671D01*
X30614359Y-44572189D01*
X30606787Y-44555040D01*
X30600964Y-44504849D01*
X30600000Y-44500000D01*
X30600000Y-44000000D01*
X30600964Y-43995150D01*
X30606787Y-43944959D01*
X30614359Y-43927808D01*
X30619030Y-43904329D01*
X30635826Y-43879191D01*
X30644608Y-43859303D01*
X30658191Y-43845719D01*
X30673223Y-43823223D01*
X30695719Y-43808191D01*
X30709303Y-43794608D01*
X30729191Y-43785826D01*
X30754329Y-43769030D01*
X30777808Y-43764359D01*
X30794959Y-43756787D01*
X30845151Y-43750964D01*
X30850000Y-43750000D01*
X32150000Y-43750000D01*
X32154850Y-43750964D01*
G37*
G36*
X26442081Y-42776217D02*
G01*
X26564332Y-42826855D01*
X26674354Y-42900370D01*
X26767921Y-42993937D01*
X26841436Y-43103959D01*
X26892074Y-43226210D01*
X26917889Y-43355990D01*
X26917889Y-43488314D01*
X26892074Y-43618094D01*
X26841436Y-43740345D01*
X26767921Y-43850367D01*
X26674354Y-43943934D01*
X26564332Y-44017449D01*
X26442081Y-44068087D01*
X26312301Y-44093902D01*
X26179977Y-44093902D01*
X26050197Y-44068087D01*
X25927946Y-44017449D01*
X25817924Y-43943934D01*
X25724357Y-43850367D01*
X25650842Y-43740345D01*
X25600204Y-43618094D01*
X25574389Y-43488314D01*
X25574389Y-43355990D01*
X25600204Y-43226210D01*
X25650842Y-43103959D01*
X25724357Y-42993937D01*
X25817924Y-42900370D01*
X25927946Y-42826855D01*
X26050197Y-42776217D01*
X26179977Y-42750402D01*
X26312301Y-42750402D01*
X26442081Y-42776217D01*
G37*
G36*
X54164135Y-43224003D02*
G01*
X53275133Y-43224003D01*
X53275133Y-42775997D01*
X54164135Y-42775997D01*
X54164135Y-43224003D01*
G37*
G36*
X51325170Y-43224001D02*
G01*
X50436168Y-43224001D01*
X50436168Y-42775995D01*
X51325170Y-42775995D01*
X51325170Y-43224001D01*
G37*
G36*
X51325171Y-42424155D02*
G01*
X50436169Y-42424155D01*
X50436169Y-41976149D01*
X51325171Y-41976149D01*
X51325171Y-42424155D01*
G37*
G36*
X54164135Y-42424155D02*
G01*
X53275133Y-42424155D01*
X53275133Y-41976149D01*
X54164135Y-41976149D01*
X54164135Y-42424155D01*
G37*
G36*
X32154850Y-41250964D02*
G01*
X32205040Y-41256787D01*
X32222189Y-41264359D01*
X32245671Y-41269030D01*
X32270810Y-41285827D01*
X32290696Y-41294608D01*
X32304277Y-41308189D01*
X32326777Y-41323223D01*
X32341810Y-41345722D01*
X32355391Y-41359303D01*
X32364170Y-41379186D01*
X32380970Y-41404329D01*
X32385641Y-41427812D01*
X32393212Y-41444959D01*
X32399033Y-41495139D01*
X32400000Y-41500000D01*
X32400000Y-42000000D01*
X32399032Y-42004863D01*
X32393212Y-42055040D01*
X32385641Y-42072185D01*
X32380970Y-42095671D01*
X32364169Y-42120815D01*
X32355391Y-42140696D01*
X32341812Y-42154274D01*
X32326777Y-42176777D01*
X32304274Y-42191812D01*
X32290696Y-42205391D01*
X32270815Y-42214169D01*
X32245671Y-42230970D01*
X32222185Y-42235641D01*
X32205040Y-42243212D01*
X32154861Y-42249032D01*
X32150000Y-42250000D01*
X30850000Y-42250000D01*
X30845138Y-42249032D01*
X30794959Y-42243212D01*
X30777812Y-42235641D01*
X30754329Y-42230970D01*
X30729186Y-42214170D01*
X30709303Y-42205391D01*
X30695722Y-42191810D01*
X30673223Y-42176777D01*
X30658189Y-42154277D01*
X30644608Y-42140696D01*
X30635827Y-42120810D01*
X30619030Y-42095671D01*
X30614359Y-42072189D01*
X30606787Y-42055040D01*
X30600964Y-42004849D01*
X30600000Y-42000000D01*
X30600000Y-41500000D01*
X30600964Y-41495150D01*
X30606787Y-41444959D01*
X30614359Y-41427808D01*
X30619030Y-41404329D01*
X30635826Y-41379191D01*
X30644608Y-41359303D01*
X30658191Y-41345719D01*
X30673223Y-41323223D01*
X30695719Y-41308191D01*
X30709303Y-41294608D01*
X30729191Y-41285826D01*
X30754329Y-41269030D01*
X30777808Y-41264359D01*
X30794959Y-41256787D01*
X30845151Y-41250964D01*
X30850000Y-41250000D01*
X32150000Y-41250000D01*
X32154850Y-41250964D01*
G37*
G36*
X27126122Y-40896833D02*
G01*
X27248373Y-40947471D01*
X27358395Y-41020986D01*
X27451962Y-41114553D01*
X27525477Y-41224575D01*
X27576115Y-41346826D01*
X27601930Y-41476606D01*
X27601930Y-41608930D01*
X27576115Y-41738710D01*
X27525477Y-41860961D01*
X27451962Y-41970983D01*
X27358395Y-42064550D01*
X27248373Y-42138065D01*
X27126122Y-42188703D01*
X26996342Y-42214518D01*
X26864018Y-42214518D01*
X26734238Y-42188703D01*
X26611987Y-42138065D01*
X26501965Y-42064550D01*
X26408398Y-41970983D01*
X26334883Y-41860961D01*
X26284245Y-41738710D01*
X26258430Y-41608930D01*
X26258430Y-41476606D01*
X26284245Y-41346826D01*
X26334883Y-41224575D01*
X26408398Y-41114553D01*
X26501965Y-41020986D01*
X26611987Y-40947471D01*
X26734238Y-40896833D01*
X26864018Y-40871018D01*
X26996342Y-40871018D01*
X27126122Y-40896833D01*
G37*
G36*
X51325170Y-41624053D02*
G01*
X50436168Y-41624053D01*
X50436168Y-41176047D01*
X51325170Y-41176047D01*
X51325170Y-41624053D01*
G37*
G36*
X54164134Y-41624053D02*
G01*
X53275132Y-41624053D01*
X53275132Y-41176047D01*
X54164134Y-41176047D01*
X54164134Y-41624053D01*
G37*
G36*
X45452702Y-40488532D02*
G01*
X45511610Y-40496287D01*
X45526429Y-40503197D01*
X45545646Y-40507020D01*
X45571100Y-40524028D01*
X45595320Y-40535322D01*
X45610054Y-40550056D01*
X45630969Y-40564031D01*
X45644943Y-40584945D01*
X45659677Y-40599679D01*
X45670970Y-40623896D01*
X45687980Y-40649354D01*
X45691802Y-40668572D01*
X45698712Y-40683389D01*
X45706465Y-40742284D01*
X45708000Y-40750000D01*
X45708000Y-41250000D01*
X45706464Y-41257717D01*
X45698712Y-41316610D01*
X45691803Y-41331425D01*
X45687980Y-41350646D01*
X45670968Y-41376105D01*
X45659677Y-41400320D01*
X45644945Y-41415051D01*
X45630969Y-41435969D01*
X45610051Y-41449945D01*
X45595320Y-41464677D01*
X45571105Y-41475968D01*
X45545646Y-41492980D01*
X45526425Y-41496803D01*
X45511610Y-41503712D01*
X45452717Y-41511464D01*
X45445000Y-41513000D01*
X44995000Y-41513000D01*
X44987284Y-41511465D01*
X44928389Y-41503712D01*
X44913572Y-41496802D01*
X44894354Y-41492980D01*
X44868896Y-41475970D01*
X44844679Y-41464677D01*
X44829945Y-41449943D01*
X44809031Y-41435969D01*
X44795056Y-41415054D01*
X44780322Y-41400320D01*
X44769028Y-41376100D01*
X44752020Y-41350646D01*
X44748197Y-41331429D01*
X44741287Y-41316610D01*
X44733532Y-41257702D01*
X44732000Y-41250000D01*
X44732000Y-40750000D01*
X44733531Y-40742299D01*
X44741287Y-40683389D01*
X44748197Y-40668568D01*
X44752020Y-40649354D01*
X44769026Y-40623901D01*
X44780322Y-40599679D01*
X44795058Y-40584942D01*
X44809031Y-40564031D01*
X44829942Y-40550058D01*
X44844679Y-40535322D01*
X44868901Y-40524026D01*
X44894354Y-40507020D01*
X44913568Y-40503197D01*
X44928389Y-40496287D01*
X44987299Y-40488531D01*
X44995000Y-40487000D01*
X45445000Y-40487000D01*
X45452702Y-40488532D01*
G37*
G36*
X47012702Y-40488532D02*
G01*
X47071610Y-40496287D01*
X47086429Y-40503197D01*
X47105646Y-40507020D01*
X47131100Y-40524028D01*
X47155320Y-40535322D01*
X47170054Y-40550056D01*
X47190969Y-40564031D01*
X47204943Y-40584945D01*
X47219677Y-40599679D01*
X47230970Y-40623896D01*
X47247980Y-40649354D01*
X47251802Y-40668572D01*
X47258712Y-40683389D01*
X47266465Y-40742284D01*
X47268000Y-40750000D01*
X47268000Y-41250000D01*
X47266464Y-41257717D01*
X47258712Y-41316610D01*
X47251803Y-41331425D01*
X47247980Y-41350646D01*
X47230968Y-41376105D01*
X47219677Y-41400320D01*
X47204945Y-41415051D01*
X47190969Y-41435969D01*
X47170051Y-41449945D01*
X47155320Y-41464677D01*
X47131105Y-41475968D01*
X47105646Y-41492980D01*
X47086425Y-41496803D01*
X47071610Y-41503712D01*
X47012717Y-41511464D01*
X47005000Y-41513000D01*
X46555000Y-41513000D01*
X46547284Y-41511465D01*
X46488389Y-41503712D01*
X46473572Y-41496802D01*
X46454354Y-41492980D01*
X46428896Y-41475970D01*
X46404679Y-41464677D01*
X46389945Y-41449943D01*
X46369031Y-41435969D01*
X46355056Y-41415054D01*
X46340322Y-41400320D01*
X46329028Y-41376100D01*
X46312020Y-41350646D01*
X46308197Y-41331429D01*
X46301287Y-41316610D01*
X46293532Y-41257702D01*
X46292000Y-41250000D01*
X46292000Y-40750000D01*
X46293531Y-40742299D01*
X46301287Y-40683389D01*
X46308197Y-40668568D01*
X46312020Y-40649354D01*
X46329026Y-40623901D01*
X46340322Y-40599679D01*
X46355058Y-40584942D01*
X46369031Y-40564031D01*
X46389942Y-40550058D01*
X46404679Y-40535322D01*
X46428901Y-40524026D01*
X46454354Y-40507020D01*
X46473568Y-40503197D01*
X46488389Y-40496287D01*
X46547299Y-40488531D01*
X46555000Y-40487000D01*
X47005000Y-40487000D01*
X47012702Y-40488532D01*
G37*
G36*
X36326957Y-40620915D02*
G01*
X36365584Y-40659542D01*
X36386489Y-40710011D01*
X36389179Y-40737325D01*
X36389179Y-41357315D01*
X36386489Y-41384629D01*
X36365584Y-41435098D01*
X36326957Y-41473725D01*
X36276488Y-41494630D01*
X36221860Y-41494630D01*
X36171391Y-41473725D01*
X36132764Y-41435098D01*
X36111859Y-41384629D01*
X36109169Y-41357315D01*
X36109169Y-40737325D01*
X36111859Y-40710011D01*
X36132764Y-40659542D01*
X36171391Y-40620915D01*
X36221860Y-40600010D01*
X36276488Y-40600010D01*
X36326957Y-40620915D01*
G37*
G36*
X36827338Y-40620915D02*
G01*
X36865965Y-40659542D01*
X36886870Y-40710011D01*
X36889560Y-40737325D01*
X36889560Y-41357315D01*
X36886870Y-41384629D01*
X36865965Y-41435098D01*
X36827338Y-41473725D01*
X36776869Y-41494630D01*
X36722241Y-41494630D01*
X36671772Y-41473725D01*
X36633145Y-41435098D01*
X36612240Y-41384629D01*
X36609550Y-41357315D01*
X36609550Y-40737325D01*
X36612240Y-40710011D01*
X36633145Y-40659542D01*
X36671772Y-40620915D01*
X36722241Y-40600010D01*
X36776869Y-40600010D01*
X36827338Y-40620915D01*
G37*
G36*
X37327719Y-40620915D02*
G01*
X37366346Y-40659542D01*
X37387251Y-40710011D01*
X37389941Y-40737325D01*
X37389941Y-41357315D01*
X37387251Y-41384629D01*
X37366346Y-41435098D01*
X37327719Y-41473725D01*
X37277250Y-41494630D01*
X37222622Y-41494630D01*
X37172153Y-41473725D01*
X37133526Y-41435098D01*
X37112621Y-41384629D01*
X37109931Y-41357315D01*
X37109931Y-40737325D01*
X37112621Y-40710011D01*
X37133526Y-40659542D01*
X37172153Y-40620915D01*
X37222622Y-40600010D01*
X37277250Y-40600010D01*
X37327719Y-40620915D01*
G37*
G36*
X37828101Y-40620915D02*
G01*
X37866728Y-40659542D01*
X37887633Y-40710011D01*
X37890323Y-40737325D01*
X37890323Y-41357315D01*
X37887633Y-41384629D01*
X37866728Y-41435098D01*
X37828101Y-41473725D01*
X37777632Y-41494630D01*
X37723004Y-41494630D01*
X37672535Y-41473725D01*
X37633908Y-41435098D01*
X37613003Y-41384629D01*
X37610313Y-41357315D01*
X37610313Y-40737325D01*
X37613003Y-40710011D01*
X37633908Y-40659542D01*
X37672535Y-40620915D01*
X37723004Y-40600010D01*
X37777632Y-40600010D01*
X37828101Y-40620915D01*
G37*
G36*
X38328482Y-40620915D02*
G01*
X38367109Y-40659542D01*
X38388014Y-40710011D01*
X38390704Y-40737325D01*
X38390704Y-41357315D01*
X38388014Y-41384629D01*
X38367109Y-41435098D01*
X38328482Y-41473725D01*
X38278013Y-41494630D01*
X38223385Y-41494630D01*
X38172916Y-41473725D01*
X38134289Y-41435098D01*
X38113384Y-41384629D01*
X38110694Y-41357315D01*
X38110694Y-40737325D01*
X38113384Y-40710011D01*
X38134289Y-40659542D01*
X38172916Y-40620915D01*
X38223385Y-40600010D01*
X38278013Y-40600010D01*
X38328482Y-40620915D01*
G37*
G36*
X38828863Y-40620915D02*
G01*
X38867490Y-40659542D01*
X38888395Y-40710011D01*
X38891085Y-40737325D01*
X38891085Y-41357315D01*
X38888395Y-41384629D01*
X38867490Y-41435098D01*
X38828863Y-41473725D01*
X38778394Y-41494630D01*
X38723766Y-41494630D01*
X38673297Y-41473725D01*
X38634670Y-41435098D01*
X38613765Y-41384629D01*
X38611075Y-41357315D01*
X38611075Y-40737325D01*
X38613765Y-40710011D01*
X38634670Y-40659542D01*
X38673297Y-40620915D01*
X38723766Y-40600010D01*
X38778394Y-40600010D01*
X38828863Y-40620915D01*
G37*
G36*
X39326703Y-40620915D02*
G01*
X39365330Y-40659542D01*
X39386235Y-40710011D01*
X39388925Y-40737325D01*
X39388925Y-41357315D01*
X39386235Y-41384629D01*
X39365330Y-41435098D01*
X39326703Y-41473725D01*
X39276234Y-41494630D01*
X39221606Y-41494630D01*
X39171137Y-41473725D01*
X39132510Y-41435098D01*
X39111605Y-41384629D01*
X39108915Y-41357315D01*
X39108915Y-40737325D01*
X39111605Y-40710011D01*
X39132510Y-40659542D01*
X39171137Y-40620915D01*
X39221606Y-40600010D01*
X39276234Y-40600010D01*
X39326703Y-40620915D01*
G37*
G36*
X39827084Y-40620915D02*
G01*
X39865711Y-40659542D01*
X39886616Y-40710011D01*
X39889306Y-40737325D01*
X39889306Y-41357315D01*
X39886616Y-41384629D01*
X39865711Y-41435098D01*
X39827084Y-41473725D01*
X39776615Y-41494630D01*
X39721987Y-41494630D01*
X39671518Y-41473725D01*
X39632891Y-41435098D01*
X39611986Y-41384629D01*
X39609296Y-41357315D01*
X39609296Y-40737325D01*
X39611986Y-40710011D01*
X39632891Y-40659542D01*
X39671518Y-40620915D01*
X39721987Y-40600010D01*
X39776615Y-40600010D01*
X39827084Y-40620915D01*
G37*
G36*
X40327465Y-40620915D02*
G01*
X40366092Y-40659542D01*
X40386997Y-40710011D01*
X40389687Y-40737325D01*
X40389687Y-41357315D01*
X40386997Y-41384629D01*
X40366092Y-41435098D01*
X40327465Y-41473725D01*
X40276996Y-41494630D01*
X40222368Y-41494630D01*
X40171899Y-41473725D01*
X40133272Y-41435098D01*
X40112367Y-41384629D01*
X40109677Y-41357315D01*
X40109677Y-40737325D01*
X40112367Y-40710011D01*
X40133272Y-40659542D01*
X40171899Y-40620915D01*
X40222368Y-40600010D01*
X40276996Y-40600010D01*
X40327465Y-40620915D01*
G37*
G36*
X40827847Y-40620915D02*
G01*
X40866474Y-40659542D01*
X40887379Y-40710011D01*
X40890069Y-40737325D01*
X40890069Y-41357315D01*
X40887379Y-41384629D01*
X40866474Y-41435098D01*
X40827847Y-41473725D01*
X40777378Y-41494630D01*
X40722750Y-41494630D01*
X40672281Y-41473725D01*
X40633654Y-41435098D01*
X40612749Y-41384629D01*
X40610059Y-41357315D01*
X40610059Y-40737325D01*
X40612749Y-40710011D01*
X40633654Y-40659542D01*
X40672281Y-40620915D01*
X40722750Y-40600010D01*
X40777378Y-40600010D01*
X40827847Y-40620915D01*
G37*
G36*
X41328228Y-40620915D02*
G01*
X41366855Y-40659542D01*
X41387760Y-40710011D01*
X41390450Y-40737325D01*
X41390450Y-41357315D01*
X41387760Y-41384629D01*
X41366855Y-41435098D01*
X41328228Y-41473725D01*
X41277759Y-41494630D01*
X41223131Y-41494630D01*
X41172662Y-41473725D01*
X41134035Y-41435098D01*
X41113130Y-41384629D01*
X41110440Y-41357315D01*
X41110440Y-40737325D01*
X41113130Y-40710011D01*
X41134035Y-40659542D01*
X41172662Y-40620915D01*
X41223131Y-40600010D01*
X41277759Y-40600010D01*
X41328228Y-40620915D01*
G37*
G36*
X41828609Y-40620915D02*
G01*
X41867236Y-40659542D01*
X41888141Y-40710011D01*
X41890831Y-40737325D01*
X41890831Y-41357315D01*
X41888141Y-41384629D01*
X41867236Y-41435098D01*
X41828609Y-41473725D01*
X41778140Y-41494630D01*
X41723512Y-41494630D01*
X41673043Y-41473725D01*
X41634416Y-41435098D01*
X41613511Y-41384629D01*
X41610821Y-41357315D01*
X41610821Y-40737325D01*
X41613511Y-40710011D01*
X41634416Y-40659542D01*
X41673043Y-40620915D01*
X41723512Y-40600010D01*
X41778140Y-40600010D01*
X41828609Y-40620915D01*
G37*
G36*
X51325171Y-40824207D02*
G01*
X50436169Y-40824207D01*
X50436169Y-40376201D01*
X51325171Y-40376201D01*
X51325171Y-40824207D01*
G37*
G36*
X54164134Y-40824206D02*
G01*
X53275132Y-40824206D01*
X53275132Y-40376200D01*
X54164134Y-40376200D01*
X54164134Y-40824206D01*
G37*
G36*
X35789989Y-40113511D02*
G01*
X35840458Y-40134416D01*
X35879085Y-40173043D01*
X35899990Y-40223512D01*
X35899990Y-40278140D01*
X35879085Y-40328609D01*
X35840458Y-40367236D01*
X35789989Y-40388141D01*
X35762675Y-40390831D01*
X35759728Y-40390831D01*
X35145632Y-40390831D01*
X35142685Y-40390831D01*
X35115371Y-40388141D01*
X35064902Y-40367236D01*
X35026275Y-40328609D01*
X35005370Y-40278140D01*
X35005370Y-40223512D01*
X35026275Y-40173043D01*
X35064902Y-40134416D01*
X35115371Y-40113511D01*
X35142685Y-40110821D01*
X35762675Y-40110821D01*
X35789989Y-40113511D01*
G37*
G36*
X42884629Y-40113511D02*
G01*
X42935098Y-40134416D01*
X42973725Y-40173043D01*
X42994630Y-40223512D01*
X42994630Y-40278140D01*
X42973725Y-40328609D01*
X42935098Y-40367236D01*
X42884629Y-40388141D01*
X42857315Y-40390831D01*
X42854368Y-40390831D01*
X42240272Y-40390831D01*
X42237325Y-40390831D01*
X42210011Y-40388141D01*
X42159542Y-40367236D01*
X42120915Y-40328609D01*
X42100010Y-40278140D01*
X42100010Y-40223512D01*
X42120915Y-40173043D01*
X42159542Y-40134416D01*
X42210011Y-40113511D01*
X42237325Y-40110821D01*
X42857315Y-40110821D01*
X42884629Y-40113511D01*
G37*
G36*
X41800000Y-40300000D02*
G01*
X36200000Y-40300000D01*
X36200000Y-34700000D01*
X41800000Y-34700000D01*
X41800000Y-40300000D01*
G37*
G36*
X29952702Y-38988532D02*
G01*
X30011610Y-38996287D01*
X30026429Y-39003197D01*
X30045646Y-39007020D01*
X30071100Y-39024028D01*
X30095320Y-39035322D01*
X30110054Y-39050056D01*
X30130969Y-39064031D01*
X30144943Y-39084945D01*
X30159677Y-39099679D01*
X30170970Y-39123896D01*
X30187980Y-39149354D01*
X30191802Y-39168572D01*
X30198712Y-39183389D01*
X30206465Y-39242284D01*
X30208000Y-39250000D01*
X30208000Y-39750000D01*
X30206464Y-39757717D01*
X30198712Y-39816610D01*
X30191803Y-39831425D01*
X30187980Y-39850646D01*
X30170968Y-39876105D01*
X30159677Y-39900320D01*
X30144945Y-39915051D01*
X30130969Y-39935969D01*
X30110051Y-39949945D01*
X30095320Y-39964677D01*
X30071105Y-39975968D01*
X30045646Y-39992980D01*
X30026425Y-39996803D01*
X30011610Y-40003712D01*
X29952717Y-40011464D01*
X29945000Y-40013000D01*
X29495000Y-40013000D01*
X29487284Y-40011465D01*
X29428389Y-40003712D01*
X29413572Y-39996802D01*
X29394354Y-39992980D01*
X29368896Y-39975970D01*
X29344679Y-39964677D01*
X29329945Y-39949943D01*
X29309031Y-39935969D01*
X29295056Y-39915054D01*
X29280322Y-39900320D01*
X29269028Y-39876100D01*
X29252020Y-39850646D01*
X29248197Y-39831429D01*
X29241287Y-39816610D01*
X29233532Y-39757702D01*
X29232000Y-39750000D01*
X29232000Y-39250000D01*
X29233531Y-39242299D01*
X29241287Y-39183389D01*
X29248197Y-39168568D01*
X29252020Y-39149354D01*
X29269026Y-39123901D01*
X29280322Y-39099679D01*
X29295058Y-39084942D01*
X29309031Y-39064031D01*
X29329942Y-39050058D01*
X29344679Y-39035322D01*
X29368901Y-39024026D01*
X29394354Y-39007020D01*
X29413568Y-39003197D01*
X29428389Y-38996287D01*
X29487299Y-38988531D01*
X29495000Y-38987000D01*
X29945000Y-38987000D01*
X29952702Y-38988532D01*
G37*
G36*
X31512702Y-38988532D02*
G01*
X31571610Y-38996287D01*
X31586429Y-39003197D01*
X31605646Y-39007020D01*
X31631100Y-39024028D01*
X31655320Y-39035322D01*
X31670054Y-39050056D01*
X31690969Y-39064031D01*
X31704943Y-39084945D01*
X31719677Y-39099679D01*
X31730970Y-39123896D01*
X31747980Y-39149354D01*
X31751802Y-39168572D01*
X31758712Y-39183389D01*
X31766465Y-39242284D01*
X31768000Y-39250000D01*
X31768000Y-39750000D01*
X31766464Y-39757717D01*
X31758712Y-39816610D01*
X31751803Y-39831425D01*
X31747980Y-39850646D01*
X31730968Y-39876105D01*
X31719677Y-39900320D01*
X31704945Y-39915051D01*
X31690969Y-39935969D01*
X31670051Y-39949945D01*
X31655320Y-39964677D01*
X31631105Y-39975968D01*
X31605646Y-39992980D01*
X31586425Y-39996803D01*
X31571610Y-40003712D01*
X31512717Y-40011464D01*
X31505000Y-40013000D01*
X31055000Y-40013000D01*
X31047284Y-40011465D01*
X30988389Y-40003712D01*
X30973572Y-39996802D01*
X30954354Y-39992980D01*
X30928896Y-39975970D01*
X30904679Y-39964677D01*
X30889945Y-39949943D01*
X30869031Y-39935969D01*
X30855056Y-39915054D01*
X30840322Y-39900320D01*
X30829028Y-39876100D01*
X30812020Y-39850646D01*
X30808197Y-39831429D01*
X30801287Y-39816610D01*
X30793532Y-39757702D01*
X30792000Y-39750000D01*
X30792000Y-39250000D01*
X30793531Y-39242299D01*
X30801287Y-39183389D01*
X30808197Y-39168568D01*
X30812020Y-39149354D01*
X30829026Y-39123901D01*
X30840322Y-39099679D01*
X30855058Y-39084942D01*
X30869031Y-39064031D01*
X30889942Y-39050058D01*
X30904679Y-39035322D01*
X30928901Y-39024026D01*
X30954354Y-39007020D01*
X30973568Y-39003197D01*
X30988389Y-38996287D01*
X31047299Y-38988531D01*
X31055000Y-38987000D01*
X31505000Y-38987000D01*
X31512702Y-38988532D01*
G37*
G36*
X35789989Y-39613130D02*
G01*
X35840458Y-39634035D01*
X35879085Y-39672662D01*
X35899990Y-39723131D01*
X35899990Y-39777759D01*
X35879085Y-39828228D01*
X35840458Y-39866855D01*
X35789989Y-39887760D01*
X35762675Y-39890450D01*
X35759728Y-39890450D01*
X35145632Y-39890450D01*
X35142685Y-39890450D01*
X35115371Y-39887760D01*
X35064902Y-39866855D01*
X35026275Y-39828228D01*
X35005370Y-39777759D01*
X35005370Y-39723131D01*
X35026275Y-39672662D01*
X35064902Y-39634035D01*
X35115371Y-39613130D01*
X35142685Y-39610440D01*
X35762675Y-39610440D01*
X35789989Y-39613130D01*
G37*
G36*
X42884629Y-39613130D02*
G01*
X42935098Y-39634035D01*
X42973725Y-39672662D01*
X42994630Y-39723131D01*
X42994630Y-39777759D01*
X42973725Y-39828228D01*
X42935098Y-39866855D01*
X42884629Y-39887760D01*
X42857315Y-39890450D01*
X42854368Y-39890450D01*
X42240272Y-39890450D01*
X42237325Y-39890450D01*
X42210011Y-39887760D01*
X42159542Y-39866855D01*
X42120915Y-39828228D01*
X42100010Y-39777759D01*
X42100010Y-39723131D01*
X42120915Y-39672662D01*
X42159542Y-39634035D01*
X42210011Y-39613130D01*
X42237325Y-39610440D01*
X42857315Y-39610440D01*
X42884629Y-39613130D01*
G37*
G36*
X35789989Y-39112749D02*
G01*
X35840458Y-39133654D01*
X35879085Y-39172281D01*
X35899990Y-39222750D01*
X35899990Y-39277378D01*
X35879085Y-39327847D01*
X35840458Y-39366474D01*
X35789989Y-39387379D01*
X35762675Y-39390069D01*
X35759728Y-39390069D01*
X35145632Y-39390069D01*
X35142685Y-39390069D01*
X35115371Y-39387379D01*
X35064902Y-39366474D01*
X35026275Y-39327847D01*
X35005370Y-39277378D01*
X35005370Y-39222750D01*
X35026275Y-39172281D01*
X35064902Y-39133654D01*
X35115371Y-39112749D01*
X35142685Y-39110059D01*
X35762675Y-39110059D01*
X35789989Y-39112749D01*
G37*
G36*
X42884629Y-39112749D02*
G01*
X42935098Y-39133654D01*
X42973725Y-39172281D01*
X42994630Y-39222750D01*
X42994630Y-39277378D01*
X42973725Y-39327847D01*
X42935098Y-39366474D01*
X42884629Y-39387379D01*
X42857315Y-39390069D01*
X42854368Y-39390069D01*
X42240272Y-39390069D01*
X42237325Y-39390069D01*
X42210011Y-39387379D01*
X42159542Y-39366474D01*
X42120915Y-39327847D01*
X42100010Y-39277378D01*
X42100010Y-39222750D01*
X42120915Y-39172281D01*
X42159542Y-39133654D01*
X42210011Y-39112749D01*
X42237325Y-39110059D01*
X42857315Y-39110059D01*
X42884629Y-39112749D01*
G37*
G36*
X35789989Y-38612367D02*
G01*
X35840458Y-38633272D01*
X35879085Y-38671899D01*
X35899990Y-38722368D01*
X35899990Y-38776996D01*
X35879085Y-38827465D01*
X35840458Y-38866092D01*
X35789989Y-38886997D01*
X35762675Y-38889687D01*
X35759728Y-38889687D01*
X35145632Y-38889687D01*
X35142685Y-38889687D01*
X35115371Y-38886997D01*
X35064902Y-38866092D01*
X35026275Y-38827465D01*
X35005370Y-38776996D01*
X35005370Y-38722368D01*
X35026275Y-38671899D01*
X35064902Y-38633272D01*
X35115371Y-38612367D01*
X35142685Y-38609677D01*
X35762675Y-38609677D01*
X35789989Y-38612367D01*
G37*
G36*
X42884629Y-38612367D02*
G01*
X42935098Y-38633272D01*
X42973725Y-38671899D01*
X42994630Y-38722368D01*
X42994630Y-38776996D01*
X42973725Y-38827465D01*
X42935098Y-38866092D01*
X42884629Y-38886997D01*
X42857315Y-38889687D01*
X42854368Y-38889687D01*
X42240272Y-38889687D01*
X42237325Y-38889687D01*
X42210011Y-38886997D01*
X42159542Y-38866092D01*
X42120915Y-38827465D01*
X42100010Y-38776996D01*
X42100010Y-38722368D01*
X42120915Y-38671899D01*
X42159542Y-38633272D01*
X42210011Y-38612367D01*
X42237325Y-38609677D01*
X42857315Y-38609677D01*
X42884629Y-38612367D01*
G37*
G36*
X35789989Y-38111986D02*
G01*
X35840458Y-38132891D01*
X35879085Y-38171518D01*
X35899990Y-38221987D01*
X35899990Y-38276615D01*
X35879085Y-38327084D01*
X35840458Y-38365711D01*
X35789989Y-38386616D01*
X35762675Y-38389306D01*
X35759728Y-38389306D01*
X35145632Y-38389306D01*
X35142685Y-38389306D01*
X35115371Y-38386616D01*
X35064902Y-38365711D01*
X35026275Y-38327084D01*
X35005370Y-38276615D01*
X35005370Y-38221987D01*
X35026275Y-38171518D01*
X35064902Y-38132891D01*
X35115371Y-38111986D01*
X35142685Y-38109296D01*
X35762675Y-38109296D01*
X35789989Y-38111986D01*
G37*
G36*
X42884629Y-38111986D02*
G01*
X42935098Y-38132891D01*
X42973725Y-38171518D01*
X42994630Y-38221987D01*
X42994630Y-38276615D01*
X42973725Y-38327084D01*
X42935098Y-38365711D01*
X42884629Y-38386616D01*
X42857315Y-38389306D01*
X42854368Y-38389306D01*
X42240272Y-38389306D01*
X42237325Y-38389306D01*
X42210011Y-38386616D01*
X42159542Y-38365711D01*
X42120915Y-38327084D01*
X42100010Y-38276615D01*
X42100010Y-38221987D01*
X42120915Y-38171518D01*
X42159542Y-38132891D01*
X42210011Y-38111986D01*
X42237325Y-38109296D01*
X42857315Y-38109296D01*
X42884629Y-38111986D01*
G37*
G36*
X35789989Y-37611605D02*
G01*
X35840458Y-37632510D01*
X35879085Y-37671137D01*
X35899990Y-37721606D01*
X35899990Y-37776234D01*
X35879085Y-37826703D01*
X35840458Y-37865330D01*
X35789989Y-37886235D01*
X35762675Y-37888925D01*
X35759728Y-37888925D01*
X35145632Y-37888925D01*
X35142685Y-37888925D01*
X35115371Y-37886235D01*
X35064902Y-37865330D01*
X35026275Y-37826703D01*
X35005370Y-37776234D01*
X35005370Y-37721606D01*
X35026275Y-37671137D01*
X35064902Y-37632510D01*
X35115371Y-37611605D01*
X35142685Y-37608915D01*
X35762675Y-37608915D01*
X35789989Y-37611605D01*
G37*
G36*
X42884629Y-37611605D02*
G01*
X42935098Y-37632510D01*
X42973725Y-37671137D01*
X42994630Y-37721606D01*
X42994630Y-37776234D01*
X42973725Y-37826703D01*
X42935098Y-37865330D01*
X42884629Y-37886235D01*
X42857315Y-37888925D01*
X42854368Y-37888925D01*
X42240272Y-37888925D01*
X42237325Y-37888925D01*
X42210011Y-37886235D01*
X42159542Y-37865330D01*
X42120915Y-37826703D01*
X42100010Y-37776234D01*
X42100010Y-37721606D01*
X42120915Y-37671137D01*
X42159542Y-37632510D01*
X42210011Y-37611605D01*
X42237325Y-37608915D01*
X42857315Y-37608915D01*
X42884629Y-37611605D01*
G37*
G36*
X35789989Y-37113765D02*
G01*
X35840458Y-37134670D01*
X35879085Y-37173297D01*
X35899990Y-37223766D01*
X35899990Y-37278394D01*
X35879085Y-37328863D01*
X35840458Y-37367490D01*
X35789989Y-37388395D01*
X35762675Y-37391085D01*
X35759728Y-37391085D01*
X35145632Y-37391085D01*
X35142685Y-37391085D01*
X35115371Y-37388395D01*
X35064902Y-37367490D01*
X35026275Y-37328863D01*
X35005370Y-37278394D01*
X35005370Y-37223766D01*
X35026275Y-37173297D01*
X35064902Y-37134670D01*
X35115371Y-37113765D01*
X35142685Y-37111075D01*
X35762675Y-37111075D01*
X35789989Y-37113765D01*
G37*
G36*
X42884629Y-37113765D02*
G01*
X42935098Y-37134670D01*
X42973725Y-37173297D01*
X42994630Y-37223766D01*
X42994630Y-37278394D01*
X42973725Y-37328863D01*
X42935098Y-37367490D01*
X42884629Y-37388395D01*
X42857315Y-37391085D01*
X42854368Y-37391085D01*
X42240272Y-37391085D01*
X42237325Y-37391085D01*
X42210011Y-37388395D01*
X42159542Y-37367490D01*
X42120915Y-37328863D01*
X42100010Y-37278394D01*
X42100010Y-37223766D01*
X42120915Y-37173297D01*
X42159542Y-37134670D01*
X42210011Y-37113765D01*
X42237325Y-37111075D01*
X42857315Y-37111075D01*
X42884629Y-37113765D01*
G37*
G36*
X29952702Y-35988532D02*
G01*
X30011610Y-35996287D01*
X30026429Y-36003197D01*
X30045646Y-36007020D01*
X30071100Y-36024028D01*
X30095320Y-36035322D01*
X30110054Y-36050056D01*
X30130969Y-36064031D01*
X30144943Y-36084945D01*
X30159677Y-36099679D01*
X30170970Y-36123896D01*
X30187980Y-36149354D01*
X30191802Y-36168572D01*
X30198712Y-36183389D01*
X30206465Y-36242284D01*
X30208000Y-36250000D01*
X30208000Y-36750000D01*
X30206464Y-36757717D01*
X30198712Y-36816610D01*
X30191803Y-36831425D01*
X30187980Y-36850646D01*
X30170968Y-36876105D01*
X30159677Y-36900320D01*
X30144945Y-36915051D01*
X30130969Y-36935969D01*
X30110051Y-36949945D01*
X30095320Y-36964677D01*
X30071105Y-36975968D01*
X30045646Y-36992980D01*
X30026425Y-36996803D01*
X30011610Y-37003712D01*
X29952717Y-37011464D01*
X29945000Y-37013000D01*
X29495000Y-37013000D01*
X29487284Y-37011465D01*
X29428389Y-37003712D01*
X29413572Y-36996802D01*
X29394354Y-36992980D01*
X29368896Y-36975970D01*
X29344679Y-36964677D01*
X29329945Y-36949943D01*
X29309031Y-36935969D01*
X29295056Y-36915054D01*
X29280322Y-36900320D01*
X29269028Y-36876100D01*
X29252020Y-36850646D01*
X29248197Y-36831429D01*
X29241287Y-36816610D01*
X29233532Y-36757702D01*
X29232000Y-36750000D01*
X29232000Y-36250000D01*
X29233531Y-36242299D01*
X29241287Y-36183389D01*
X29248197Y-36168568D01*
X29252020Y-36149354D01*
X29269026Y-36123901D01*
X29280322Y-36099679D01*
X29295058Y-36084942D01*
X29309031Y-36064031D01*
X29329942Y-36050058D01*
X29344679Y-36035322D01*
X29368901Y-36024026D01*
X29394354Y-36007020D01*
X29413568Y-36003197D01*
X29428389Y-35996287D01*
X29487299Y-35988531D01*
X29495000Y-35987000D01*
X29945000Y-35987000D01*
X29952702Y-35988532D01*
G37*
G36*
X31512702Y-35988532D02*
G01*
X31571610Y-35996287D01*
X31586429Y-36003197D01*
X31605646Y-36007020D01*
X31631100Y-36024028D01*
X31655320Y-36035322D01*
X31670054Y-36050056D01*
X31690969Y-36064031D01*
X31704943Y-36084945D01*
X31719677Y-36099679D01*
X31730970Y-36123896D01*
X31747980Y-36149354D01*
X31751802Y-36168572D01*
X31758712Y-36183389D01*
X31766465Y-36242284D01*
X31768000Y-36250000D01*
X31768000Y-36750000D01*
X31766464Y-36757717D01*
X31758712Y-36816610D01*
X31751803Y-36831425D01*
X31747980Y-36850646D01*
X31730968Y-36876105D01*
X31719677Y-36900320D01*
X31704945Y-36915051D01*
X31690969Y-36935969D01*
X31670051Y-36949945D01*
X31655320Y-36964677D01*
X31631105Y-36975968D01*
X31605646Y-36992980D01*
X31586425Y-36996803D01*
X31571610Y-37003712D01*
X31512717Y-37011464D01*
X31505000Y-37013000D01*
X31055000Y-37013000D01*
X31047284Y-37011465D01*
X30988389Y-37003712D01*
X30973572Y-36996802D01*
X30954354Y-36992980D01*
X30928896Y-36975970D01*
X30904679Y-36964677D01*
X30889945Y-36949943D01*
X30869031Y-36935969D01*
X30855056Y-36915054D01*
X30840322Y-36900320D01*
X30829028Y-36876100D01*
X30812020Y-36850646D01*
X30808197Y-36831429D01*
X30801287Y-36816610D01*
X30793532Y-36757702D01*
X30792000Y-36750000D01*
X30792000Y-36250000D01*
X30793531Y-36242299D01*
X30801287Y-36183389D01*
X30808197Y-36168568D01*
X30812020Y-36149354D01*
X30829026Y-36123901D01*
X30840322Y-36099679D01*
X30855058Y-36084942D01*
X30869031Y-36064031D01*
X30889942Y-36050058D01*
X30904679Y-36035322D01*
X30928901Y-36024026D01*
X30954354Y-36007020D01*
X30973568Y-36003197D01*
X30988389Y-35996287D01*
X31047299Y-35988531D01*
X31055000Y-35987000D01*
X31505000Y-35987000D01*
X31512702Y-35988532D01*
G37*
G36*
X49384848Y-35987964D02*
G01*
X49432293Y-35993468D01*
X49448505Y-36000626D01*
X49471079Y-36005117D01*
X49495246Y-36021265D01*
X49513914Y-36029508D01*
X49526664Y-36042258D01*
X49548291Y-36056709D01*
X49562741Y-36078335D01*
X49575491Y-36091085D01*
X49583733Y-36109751D01*
X49599883Y-36133921D01*
X49604373Y-36156496D01*
X49611531Y-36172706D01*
X49617033Y-36220140D01*
X49618000Y-36225000D01*
X49618000Y-36775000D01*
X49617033Y-36779860D01*
X49611531Y-36827293D01*
X49604373Y-36843501D01*
X49599883Y-36866079D01*
X49583731Y-36890250D01*
X49575491Y-36908914D01*
X49562743Y-36921661D01*
X49548291Y-36943291D01*
X49526661Y-36957743D01*
X49513914Y-36970491D01*
X49495250Y-36978731D01*
X49471079Y-36994883D01*
X49448501Y-36999373D01*
X49432293Y-37006531D01*
X49384860Y-37012033D01*
X49380000Y-37013000D01*
X48980000Y-37013000D01*
X48975140Y-37012033D01*
X48927706Y-37006531D01*
X48911496Y-36999373D01*
X48888921Y-36994883D01*
X48864751Y-36978733D01*
X48846085Y-36970491D01*
X48833335Y-36957741D01*
X48811709Y-36943291D01*
X48797258Y-36921664D01*
X48784508Y-36908914D01*
X48776265Y-36890246D01*
X48760117Y-36866079D01*
X48755626Y-36843505D01*
X48748468Y-36827293D01*
X48742964Y-36779848D01*
X48742000Y-36775000D01*
X48742000Y-36225000D01*
X48742964Y-36220152D01*
X48748468Y-36172706D01*
X48755627Y-36156492D01*
X48760117Y-36133921D01*
X48776263Y-36109755D01*
X48784508Y-36091085D01*
X48797260Y-36078332D01*
X48811709Y-36056709D01*
X48833332Y-36042260D01*
X48846085Y-36029508D01*
X48864755Y-36021263D01*
X48888921Y-36005117D01*
X48911492Y-36000627D01*
X48927706Y-35993468D01*
X48975152Y-35987964D01*
X48980000Y-35987000D01*
X49380000Y-35987000D01*
X49384848Y-35987964D01*
G37*
G36*
X51024848Y-35987964D02*
G01*
X51072293Y-35993468D01*
X51088505Y-36000626D01*
X51111079Y-36005117D01*
X51135246Y-36021265D01*
X51153914Y-36029508D01*
X51166664Y-36042258D01*
X51188291Y-36056709D01*
X51202741Y-36078335D01*
X51215491Y-36091085D01*
X51223733Y-36109751D01*
X51239883Y-36133921D01*
X51244373Y-36156496D01*
X51251531Y-36172706D01*
X51257033Y-36220140D01*
X51258000Y-36225000D01*
X51258000Y-36775000D01*
X51257033Y-36779860D01*
X51251531Y-36827293D01*
X51244373Y-36843501D01*
X51239883Y-36866079D01*
X51223731Y-36890250D01*
X51215491Y-36908914D01*
X51202743Y-36921661D01*
X51188291Y-36943291D01*
X51166661Y-36957743D01*
X51153914Y-36970491D01*
X51135250Y-36978731D01*
X51111079Y-36994883D01*
X51088501Y-36999373D01*
X51072293Y-37006531D01*
X51024860Y-37012033D01*
X51020000Y-37013000D01*
X50620000Y-37013000D01*
X50615140Y-37012033D01*
X50567706Y-37006531D01*
X50551496Y-36999373D01*
X50528921Y-36994883D01*
X50504751Y-36978733D01*
X50486085Y-36970491D01*
X50473335Y-36957741D01*
X50451709Y-36943291D01*
X50437258Y-36921664D01*
X50424508Y-36908914D01*
X50416265Y-36890246D01*
X50400117Y-36866079D01*
X50395626Y-36843505D01*
X50388468Y-36827293D01*
X50382964Y-36779848D01*
X50382000Y-36775000D01*
X50382000Y-36225000D01*
X50382964Y-36220152D01*
X50388468Y-36172706D01*
X50395627Y-36156492D01*
X50400117Y-36133921D01*
X50416263Y-36109755D01*
X50424508Y-36091085D01*
X50437260Y-36078332D01*
X50451709Y-36056709D01*
X50473332Y-36042260D01*
X50486085Y-36029508D01*
X50504755Y-36021263D01*
X50528921Y-36005117D01*
X50551492Y-36000627D01*
X50567706Y-35993468D01*
X50615152Y-35987964D01*
X50620000Y-35987000D01*
X51020000Y-35987000D01*
X51024848Y-35987964D01*
G37*
G36*
X35789989Y-36613384D02*
G01*
X35840458Y-36634289D01*
X35879085Y-36672916D01*
X35899990Y-36723385D01*
X35899990Y-36778013D01*
X35879085Y-36828482D01*
X35840458Y-36867109D01*
X35789989Y-36888014D01*
X35762675Y-36890704D01*
X35759728Y-36890704D01*
X35145632Y-36890704D01*
X35142685Y-36890704D01*
X35115371Y-36888014D01*
X35064902Y-36867109D01*
X35026275Y-36828482D01*
X35005370Y-36778013D01*
X35005370Y-36723385D01*
X35026275Y-36672916D01*
X35064902Y-36634289D01*
X35115371Y-36613384D01*
X35142685Y-36610694D01*
X35762675Y-36610694D01*
X35789989Y-36613384D01*
G37*
G36*
X42884629Y-36613384D02*
G01*
X42935098Y-36634289D01*
X42973725Y-36672916D01*
X42994630Y-36723385D01*
X42994630Y-36778013D01*
X42973725Y-36828482D01*
X42935098Y-36867109D01*
X42884629Y-36888014D01*
X42857315Y-36890704D01*
X42854368Y-36890704D01*
X42240272Y-36890704D01*
X42237325Y-36890704D01*
X42210011Y-36888014D01*
X42159542Y-36867109D01*
X42120915Y-36828482D01*
X42100010Y-36778013D01*
X42100010Y-36723385D01*
X42120915Y-36672916D01*
X42159542Y-36634289D01*
X42210011Y-36613384D01*
X42237325Y-36610694D01*
X42857315Y-36610694D01*
X42884629Y-36613384D01*
G37*
G36*
X35789989Y-36113003D02*
G01*
X35840458Y-36133908D01*
X35879085Y-36172535D01*
X35899990Y-36223004D01*
X35899990Y-36277632D01*
X35879085Y-36328101D01*
X35840458Y-36366728D01*
X35789989Y-36387633D01*
X35762675Y-36390323D01*
X35759728Y-36390323D01*
X35145632Y-36390323D01*
X35142685Y-36390323D01*
X35115371Y-36387633D01*
X35064902Y-36366728D01*
X35026275Y-36328101D01*
X35005370Y-36277632D01*
X35005370Y-36223004D01*
X35026275Y-36172535D01*
X35064902Y-36133908D01*
X35115371Y-36113003D01*
X35142685Y-36110313D01*
X35762675Y-36110313D01*
X35789989Y-36113003D01*
G37*
G36*
X42884629Y-36113003D02*
G01*
X42935098Y-36133908D01*
X42973725Y-36172535D01*
X42994630Y-36223004D01*
X42994630Y-36277632D01*
X42973725Y-36328101D01*
X42935098Y-36366728D01*
X42884629Y-36387633D01*
X42857315Y-36390323D01*
X42854368Y-36390323D01*
X42240272Y-36390323D01*
X42237325Y-36390323D01*
X42210011Y-36387633D01*
X42159542Y-36366728D01*
X42120915Y-36328101D01*
X42100010Y-36277632D01*
X42100010Y-36223004D01*
X42120915Y-36172535D01*
X42159542Y-36133908D01*
X42210011Y-36113003D01*
X42237325Y-36110313D01*
X42857315Y-36110313D01*
X42884629Y-36113003D01*
G37*
G36*
X45865938Y-34744650D02*
G01*
X45874692Y-34748515D01*
X45881367Y-34749488D01*
X45923097Y-34769888D01*
X45962759Y-34787401D01*
X45966430Y-34791072D01*
X45966867Y-34791286D01*
X46033713Y-34858132D01*
X46033926Y-34858568D01*
X46037599Y-34862241D01*
X46055116Y-34901913D01*
X46075511Y-34943632D01*
X46076483Y-34950304D01*
X46080350Y-34959062D01*
X46088000Y-35025000D01*
X46088000Y-35975000D01*
X46080350Y-36040938D01*
X46076482Y-36049696D01*
X46075511Y-36056367D01*
X46055120Y-36098076D01*
X46037599Y-36137759D01*
X46033925Y-36141432D01*
X46033713Y-36141867D01*
X45966867Y-36208713D01*
X45966432Y-36208925D01*
X45962759Y-36212599D01*
X45923076Y-36230120D01*
X45881367Y-36250511D01*
X45874696Y-36251482D01*
X45865938Y-36255350D01*
X45800000Y-36263000D01*
X45300000Y-36263000D01*
X45234062Y-36255350D01*
X45225304Y-36251483D01*
X45218632Y-36250511D01*
X45176913Y-36230116D01*
X45137241Y-36212599D01*
X45133568Y-36208926D01*
X45133132Y-36208713D01*
X45066286Y-36141867D01*
X45066072Y-36141430D01*
X45062401Y-36137759D01*
X45044888Y-36098097D01*
X45024488Y-36056367D01*
X45023515Y-36049692D01*
X45019650Y-36040938D01*
X45012000Y-35975000D01*
X45012000Y-35025000D01*
X45019650Y-34959062D01*
X45023515Y-34950307D01*
X45024488Y-34943632D01*
X45044893Y-34901892D01*
X45062401Y-34862241D01*
X45066071Y-34858570D01*
X45066286Y-34858132D01*
X45133132Y-34791286D01*
X45133570Y-34791071D01*
X45137241Y-34787401D01*
X45176892Y-34769893D01*
X45218632Y-34749488D01*
X45225307Y-34748515D01*
X45234062Y-34744650D01*
X45300000Y-34737000D01*
X45800000Y-34737000D01*
X45865938Y-34744650D01*
G37*
G36*
X47765938Y-34744650D02*
G01*
X47774692Y-34748515D01*
X47781367Y-34749488D01*
X47823097Y-34769888D01*
X47862759Y-34787401D01*
X47866430Y-34791072D01*
X47866867Y-34791286D01*
X47933713Y-34858132D01*
X47933926Y-34858568D01*
X47937599Y-34862241D01*
X47955116Y-34901913D01*
X47975511Y-34943632D01*
X47976483Y-34950304D01*
X47980350Y-34959062D01*
X47988000Y-35025000D01*
X47988000Y-35975000D01*
X47980350Y-36040938D01*
X47976482Y-36049696D01*
X47975511Y-36056367D01*
X47955120Y-36098076D01*
X47937599Y-36137759D01*
X47933925Y-36141432D01*
X47933713Y-36141867D01*
X47866867Y-36208713D01*
X47866432Y-36208925D01*
X47862759Y-36212599D01*
X47823076Y-36230120D01*
X47781367Y-36250511D01*
X47774696Y-36251482D01*
X47765938Y-36255350D01*
X47700000Y-36263000D01*
X47200000Y-36263000D01*
X47134062Y-36255350D01*
X47125304Y-36251483D01*
X47118632Y-36250511D01*
X47076913Y-36230116D01*
X47037241Y-36212599D01*
X47033568Y-36208926D01*
X47033132Y-36208713D01*
X46966286Y-36141867D01*
X46966072Y-36141430D01*
X46962401Y-36137759D01*
X46944888Y-36098097D01*
X46924488Y-36056367D01*
X46923515Y-36049692D01*
X46919650Y-36040938D01*
X46912000Y-35975000D01*
X46912000Y-35025000D01*
X46919650Y-34959062D01*
X46923515Y-34950307D01*
X46924488Y-34943632D01*
X46944893Y-34901892D01*
X46962401Y-34862241D01*
X46966071Y-34858570D01*
X46966286Y-34858132D01*
X47033132Y-34791286D01*
X47033570Y-34791071D01*
X47037241Y-34787401D01*
X47076892Y-34769893D01*
X47118632Y-34749488D01*
X47125307Y-34748515D01*
X47134062Y-34744650D01*
X47200000Y-34737000D01*
X47700000Y-34737000D01*
X47765938Y-34744650D01*
G37*
G36*
X35789989Y-35612621D02*
G01*
X35840458Y-35633526D01*
X35879085Y-35672153D01*
X35899990Y-35722622D01*
X35899990Y-35777250D01*
X35879085Y-35827719D01*
X35840458Y-35866346D01*
X35789989Y-35887251D01*
X35762675Y-35889941D01*
X35759728Y-35889941D01*
X35145632Y-35889941D01*
X35142685Y-35889941D01*
X35115371Y-35887251D01*
X35064902Y-35866346D01*
X35026275Y-35827719D01*
X35005370Y-35777250D01*
X35005370Y-35722622D01*
X35026275Y-35672153D01*
X35064902Y-35633526D01*
X35115371Y-35612621D01*
X35142685Y-35609931D01*
X35762675Y-35609931D01*
X35789989Y-35612621D01*
G37*
G36*
X42884629Y-35612621D02*
G01*
X42935098Y-35633526D01*
X42973725Y-35672153D01*
X42994630Y-35722622D01*
X42994630Y-35777250D01*
X42973725Y-35827719D01*
X42935098Y-35866346D01*
X42884629Y-35887251D01*
X42857315Y-35889941D01*
X42854368Y-35889941D01*
X42240272Y-35889941D01*
X42237325Y-35889941D01*
X42210011Y-35887251D01*
X42159542Y-35866346D01*
X42120915Y-35827719D01*
X42100010Y-35777250D01*
X42100010Y-35722622D01*
X42120915Y-35672153D01*
X42159542Y-35633526D01*
X42210011Y-35612621D01*
X42237325Y-35609931D01*
X42857315Y-35609931D01*
X42884629Y-35612621D01*
G37*
G36*
X49384848Y-34487964D02*
G01*
X49432293Y-34493468D01*
X49448505Y-34500626D01*
X49471079Y-34505117D01*
X49495246Y-34521265D01*
X49513914Y-34529508D01*
X49526664Y-34542258D01*
X49548291Y-34556709D01*
X49562741Y-34578335D01*
X49575491Y-34591085D01*
X49583733Y-34609751D01*
X49599883Y-34633921D01*
X49604373Y-34656496D01*
X49611531Y-34672706D01*
X49617033Y-34720140D01*
X49618000Y-34725000D01*
X49618000Y-35275000D01*
X49617033Y-35279860D01*
X49611531Y-35327293D01*
X49604373Y-35343501D01*
X49599883Y-35366079D01*
X49583731Y-35390250D01*
X49575491Y-35408914D01*
X49562743Y-35421661D01*
X49548291Y-35443291D01*
X49526661Y-35457743D01*
X49513914Y-35470491D01*
X49495250Y-35478731D01*
X49471079Y-35494883D01*
X49448501Y-35499373D01*
X49432293Y-35506531D01*
X49384860Y-35512033D01*
X49380000Y-35513000D01*
X48980000Y-35513000D01*
X48975140Y-35512033D01*
X48927706Y-35506531D01*
X48911496Y-35499373D01*
X48888921Y-35494883D01*
X48864751Y-35478733D01*
X48846085Y-35470491D01*
X48833335Y-35457741D01*
X48811709Y-35443291D01*
X48797258Y-35421664D01*
X48784508Y-35408914D01*
X48776265Y-35390246D01*
X48760117Y-35366079D01*
X48755626Y-35343505D01*
X48748468Y-35327293D01*
X48742964Y-35279848D01*
X48742000Y-35275000D01*
X48742000Y-34725000D01*
X48742964Y-34720152D01*
X48748468Y-34672706D01*
X48755627Y-34656492D01*
X48760117Y-34633921D01*
X48776263Y-34609755D01*
X48784508Y-34591085D01*
X48797260Y-34578332D01*
X48811709Y-34556709D01*
X48833332Y-34542260D01*
X48846085Y-34529508D01*
X48864755Y-34521263D01*
X48888921Y-34505117D01*
X48911492Y-34500627D01*
X48927706Y-34493468D01*
X48975152Y-34487964D01*
X48980000Y-34487000D01*
X49380000Y-34487000D01*
X49384848Y-34487964D01*
G37*
G36*
X51024848Y-34487964D02*
G01*
X51072293Y-34493468D01*
X51088505Y-34500626D01*
X51111079Y-34505117D01*
X51135246Y-34521265D01*
X51153914Y-34529508D01*
X51166664Y-34542258D01*
X51188291Y-34556709D01*
X51202741Y-34578335D01*
X51215491Y-34591085D01*
X51223733Y-34609751D01*
X51239883Y-34633921D01*
X51244373Y-34656496D01*
X51251531Y-34672706D01*
X51257033Y-34720140D01*
X51258000Y-34725000D01*
X51258000Y-35275000D01*
X51257033Y-35279860D01*
X51251531Y-35327293D01*
X51244373Y-35343501D01*
X51239883Y-35366079D01*
X51223731Y-35390250D01*
X51215491Y-35408914D01*
X51202743Y-35421661D01*
X51188291Y-35443291D01*
X51166661Y-35457743D01*
X51153914Y-35470491D01*
X51135250Y-35478731D01*
X51111079Y-35494883D01*
X51088501Y-35499373D01*
X51072293Y-35506531D01*
X51024860Y-35512033D01*
X51020000Y-35513000D01*
X50620000Y-35513000D01*
X50615140Y-35512033D01*
X50567706Y-35506531D01*
X50551496Y-35499373D01*
X50528921Y-35494883D01*
X50504751Y-35478733D01*
X50486085Y-35470491D01*
X50473335Y-35457741D01*
X50451709Y-35443291D01*
X50437258Y-35421664D01*
X50424508Y-35408914D01*
X50416265Y-35390246D01*
X50400117Y-35366079D01*
X50395626Y-35343505D01*
X50388468Y-35327293D01*
X50382964Y-35279848D01*
X50382000Y-35275000D01*
X50382000Y-34725000D01*
X50382964Y-34720152D01*
X50388468Y-34672706D01*
X50395627Y-34656492D01*
X50400117Y-34633921D01*
X50416263Y-34609755D01*
X50424508Y-34591085D01*
X50437260Y-34578332D01*
X50451709Y-34556709D01*
X50473332Y-34542260D01*
X50486085Y-34529508D01*
X50504755Y-34521263D01*
X50528921Y-34505117D01*
X50551492Y-34500627D01*
X50567706Y-34493468D01*
X50615152Y-34487964D01*
X50620000Y-34487000D01*
X51020000Y-34487000D01*
X51024848Y-34487964D01*
G37*
G36*
X30749975Y-35449911D02*
G01*
X29849975Y-35449911D01*
X29849975Y-34649911D01*
X30749975Y-34649911D01*
X30749975Y-35449911D01*
G37*
G36*
X32150025Y-35449911D02*
G01*
X31250025Y-35449911D01*
X31250025Y-34649911D01*
X32150025Y-34649911D01*
X32150025Y-35449911D01*
G37*
G36*
X35789989Y-35112240D02*
G01*
X35840458Y-35133145D01*
X35879085Y-35171772D01*
X35899990Y-35222241D01*
X35899990Y-35276869D01*
X35879085Y-35327338D01*
X35840458Y-35365965D01*
X35789989Y-35386870D01*
X35762675Y-35389560D01*
X35759728Y-35389560D01*
X35145632Y-35389560D01*
X35142685Y-35389560D01*
X35115371Y-35386870D01*
X35064902Y-35365965D01*
X35026275Y-35327338D01*
X35005370Y-35276869D01*
X35005370Y-35222241D01*
X35026275Y-35171772D01*
X35064902Y-35133145D01*
X35115371Y-35112240D01*
X35142685Y-35109550D01*
X35762675Y-35109550D01*
X35789989Y-35112240D01*
G37*
G36*
X42884629Y-35112240D02*
G01*
X42935098Y-35133145D01*
X42973725Y-35171772D01*
X42994630Y-35222241D01*
X42994630Y-35276869D01*
X42973725Y-35327338D01*
X42935098Y-35365965D01*
X42884629Y-35386870D01*
X42857315Y-35389560D01*
X42854368Y-35389560D01*
X42240272Y-35389560D01*
X42237325Y-35389560D01*
X42210011Y-35386870D01*
X42159542Y-35365965D01*
X42120915Y-35327338D01*
X42100010Y-35276869D01*
X42100010Y-35222241D01*
X42120915Y-35171772D01*
X42159542Y-35133145D01*
X42210011Y-35112240D01*
X42237325Y-35109550D01*
X42857315Y-35109550D01*
X42884629Y-35112240D01*
G37*
G36*
X35789989Y-34611859D02*
G01*
X35840458Y-34632764D01*
X35879085Y-34671391D01*
X35899990Y-34721860D01*
X35899990Y-34776488D01*
X35879085Y-34826957D01*
X35840458Y-34865584D01*
X35789989Y-34886489D01*
X35762675Y-34889179D01*
X35759728Y-34889179D01*
X35145632Y-34889179D01*
X35142685Y-34889179D01*
X35115371Y-34886489D01*
X35064902Y-34865584D01*
X35026275Y-34826957D01*
X35005370Y-34776488D01*
X35005370Y-34721860D01*
X35026275Y-34671391D01*
X35064902Y-34632764D01*
X35115371Y-34611859D01*
X35142685Y-34609169D01*
X35762675Y-34609169D01*
X35789989Y-34611859D01*
G37*
G36*
X42884629Y-34611859D02*
G01*
X42935098Y-34632764D01*
X42973725Y-34671391D01*
X42994630Y-34721860D01*
X42994630Y-34776488D01*
X42973725Y-34826957D01*
X42935098Y-34865584D01*
X42884629Y-34886489D01*
X42857315Y-34889179D01*
X42854368Y-34889179D01*
X42240272Y-34889179D01*
X42237325Y-34889179D01*
X42210011Y-34886489D01*
X42159542Y-34865584D01*
X42120915Y-34826957D01*
X42100010Y-34776488D01*
X42100010Y-34721860D01*
X42120915Y-34671391D01*
X42159542Y-34632764D01*
X42210011Y-34611859D01*
X42237325Y-34609169D01*
X42857315Y-34609169D01*
X42884629Y-34611859D01*
G37*
G36*
X36327719Y-33526275D02*
G01*
X36366346Y-33564902D01*
X36387251Y-33615371D01*
X36389941Y-33642685D01*
X36389941Y-34262675D01*
X36387251Y-34289989D01*
X36366346Y-34340458D01*
X36327719Y-34379085D01*
X36277250Y-34399990D01*
X36222622Y-34399990D01*
X36172153Y-34379085D01*
X36133526Y-34340458D01*
X36112621Y-34289989D01*
X36109931Y-34262675D01*
X36109931Y-33642685D01*
X36112621Y-33615371D01*
X36133526Y-33564902D01*
X36172153Y-33526275D01*
X36222622Y-33505370D01*
X36277250Y-33505370D01*
X36327719Y-33526275D01*
G37*
G36*
X36827847Y-33526275D02*
G01*
X36866474Y-33564902D01*
X36887379Y-33615371D01*
X36890069Y-33642685D01*
X36890069Y-34262675D01*
X36887379Y-34289989D01*
X36866474Y-34340458D01*
X36827847Y-34379085D01*
X36777378Y-34399990D01*
X36722750Y-34399990D01*
X36672281Y-34379085D01*
X36633654Y-34340458D01*
X36612749Y-34289989D01*
X36610059Y-34262675D01*
X36610059Y-33642685D01*
X36612749Y-33615371D01*
X36633654Y-33564902D01*
X36672281Y-33526275D01*
X36722750Y-33505370D01*
X36777378Y-33505370D01*
X36827847Y-33526275D01*
G37*
G36*
X37327719Y-33526275D02*
G01*
X37366346Y-33564902D01*
X37387251Y-33615371D01*
X37389941Y-33642685D01*
X37389941Y-34262675D01*
X37387251Y-34289989D01*
X37366346Y-34340458D01*
X37327719Y-34379085D01*
X37277250Y-34399990D01*
X37222622Y-34399990D01*
X37172153Y-34379085D01*
X37133526Y-34340458D01*
X37112621Y-34289989D01*
X37109931Y-34262675D01*
X37109931Y-33642685D01*
X37112621Y-33615371D01*
X37133526Y-33564902D01*
X37172153Y-33526275D01*
X37222622Y-33505370D01*
X37277250Y-33505370D01*
X37327719Y-33526275D01*
G37*
G36*
X37827847Y-33526275D02*
G01*
X37866474Y-33564902D01*
X37887379Y-33615371D01*
X37890069Y-33642685D01*
X37890069Y-34262675D01*
X37887379Y-34289989D01*
X37866474Y-34340458D01*
X37827847Y-34379085D01*
X37777378Y-34399990D01*
X37722750Y-34399990D01*
X37672281Y-34379085D01*
X37633654Y-34340458D01*
X37612749Y-34289989D01*
X37610059Y-34262675D01*
X37610059Y-33642685D01*
X37612749Y-33615371D01*
X37633654Y-33564902D01*
X37672281Y-33526275D01*
X37722750Y-33505370D01*
X37777378Y-33505370D01*
X37827847Y-33526275D01*
G37*
G36*
X38327719Y-33526275D02*
G01*
X38366346Y-33564902D01*
X38387251Y-33615371D01*
X38389941Y-33642685D01*
X38389941Y-34262675D01*
X38387251Y-34289989D01*
X38366346Y-34340458D01*
X38327719Y-34379085D01*
X38277250Y-34399990D01*
X38222622Y-34399990D01*
X38172153Y-34379085D01*
X38133526Y-34340458D01*
X38112621Y-34289989D01*
X38109931Y-34262675D01*
X38109931Y-33642685D01*
X38112621Y-33615371D01*
X38133526Y-33564902D01*
X38172153Y-33526275D01*
X38222622Y-33505370D01*
X38277250Y-33505370D01*
X38327719Y-33526275D01*
G37*
G36*
X38827847Y-33526275D02*
G01*
X38866474Y-33564902D01*
X38887379Y-33615371D01*
X38890069Y-33642685D01*
X38890069Y-34262675D01*
X38887379Y-34289989D01*
X38866474Y-34340458D01*
X38827847Y-34379085D01*
X38777378Y-34399990D01*
X38722750Y-34399990D01*
X38672281Y-34379085D01*
X38633654Y-34340458D01*
X38612749Y-34289989D01*
X38610059Y-34262675D01*
X38610059Y-33642685D01*
X38612749Y-33615371D01*
X38633654Y-33564902D01*
X38672281Y-33526275D01*
X38722750Y-33505370D01*
X38777378Y-33505370D01*
X38827847Y-33526275D01*
G37*
G36*
X39327719Y-33526275D02*
G01*
X39366346Y-33564902D01*
X39387251Y-33615371D01*
X39389941Y-33642685D01*
X39389941Y-34262675D01*
X39387251Y-34289989D01*
X39366346Y-34340458D01*
X39327719Y-34379085D01*
X39277250Y-34399990D01*
X39222622Y-34399990D01*
X39172153Y-34379085D01*
X39133526Y-34340458D01*
X39112621Y-34289989D01*
X39109931Y-34262675D01*
X39109931Y-33642685D01*
X39112621Y-33615371D01*
X39133526Y-33564902D01*
X39172153Y-33526275D01*
X39222622Y-33505370D01*
X39277250Y-33505370D01*
X39327719Y-33526275D01*
G37*
G36*
X39827847Y-33526275D02*
G01*
X39866474Y-33564902D01*
X39887379Y-33615371D01*
X39890069Y-33642685D01*
X39890069Y-34262675D01*
X39887379Y-34289989D01*
X39866474Y-34340458D01*
X39827847Y-34379085D01*
X39777378Y-34399990D01*
X39722750Y-34399990D01*
X39672281Y-34379085D01*
X39633654Y-34340458D01*
X39612749Y-34289989D01*
X39610059Y-34262675D01*
X39610059Y-33642685D01*
X39612749Y-33615371D01*
X39633654Y-33564902D01*
X39672281Y-33526275D01*
X39722750Y-33505370D01*
X39777378Y-33505370D01*
X39827847Y-33526275D01*
G37*
G36*
X40327719Y-33526275D02*
G01*
X40366346Y-33564902D01*
X40387251Y-33615371D01*
X40389941Y-33642685D01*
X40389941Y-34262675D01*
X40387251Y-34289989D01*
X40366346Y-34340458D01*
X40327719Y-34379085D01*
X40277250Y-34399990D01*
X40222622Y-34399990D01*
X40172153Y-34379085D01*
X40133526Y-34340458D01*
X40112621Y-34289989D01*
X40109931Y-34262675D01*
X40109931Y-33642685D01*
X40112621Y-33615371D01*
X40133526Y-33564902D01*
X40172153Y-33526275D01*
X40222622Y-33505370D01*
X40277250Y-33505370D01*
X40327719Y-33526275D01*
G37*
G36*
X40827847Y-33526275D02*
G01*
X40866474Y-33564902D01*
X40887379Y-33615371D01*
X40890069Y-33642685D01*
X40890069Y-34262675D01*
X40887379Y-34289989D01*
X40866474Y-34340458D01*
X40827847Y-34379085D01*
X40777378Y-34399990D01*
X40722750Y-34399990D01*
X40672281Y-34379085D01*
X40633654Y-34340458D01*
X40612749Y-34289989D01*
X40610059Y-34262675D01*
X40610059Y-33642685D01*
X40612749Y-33615371D01*
X40633654Y-33564902D01*
X40672281Y-33526275D01*
X40722750Y-33505370D01*
X40777378Y-33505370D01*
X40827847Y-33526275D01*
G37*
G36*
X41327719Y-33526275D02*
G01*
X41366346Y-33564902D01*
X41387251Y-33615371D01*
X41389941Y-33642685D01*
X41389941Y-34262675D01*
X41387251Y-34289989D01*
X41366346Y-34340458D01*
X41327719Y-34379085D01*
X41277250Y-34399990D01*
X41222622Y-34399990D01*
X41172153Y-34379085D01*
X41133526Y-34340458D01*
X41112621Y-34289989D01*
X41109931Y-34262675D01*
X41109931Y-33642685D01*
X41112621Y-33615371D01*
X41133526Y-33564902D01*
X41172153Y-33526275D01*
X41222622Y-33505370D01*
X41277250Y-33505370D01*
X41327719Y-33526275D01*
G37*
G36*
X41827847Y-33526275D02*
G01*
X41866474Y-33564902D01*
X41887379Y-33615371D01*
X41890069Y-33642685D01*
X41890069Y-34262675D01*
X41887379Y-34289989D01*
X41866474Y-34340458D01*
X41827847Y-34379085D01*
X41777378Y-34399990D01*
X41722750Y-34399990D01*
X41672281Y-34379085D01*
X41633654Y-34340458D01*
X41612749Y-34289989D01*
X41610059Y-34262675D01*
X41610059Y-33642685D01*
X41612749Y-33615371D01*
X41633654Y-33564902D01*
X41672281Y-33526275D01*
X41722750Y-33505370D01*
X41777378Y-33505370D01*
X41827847Y-33526275D01*
G37*
G36*
X30749975Y-34350089D02*
G01*
X29849975Y-34350089D01*
X29849975Y-33550089D01*
X30749975Y-33550089D01*
X30749975Y-34350089D01*
G37*
G36*
X32150025Y-34350089D02*
G01*
X31250025Y-34350089D01*
X31250025Y-33550089D01*
X32150025Y-33550089D01*
X32150025Y-34350089D01*
G37*
G36*
X43708118Y-32165549D02*
G01*
X43765865Y-32204135D01*
X43804451Y-32261882D01*
X43818000Y-32330000D01*
X43818000Y-32670000D01*
X43804451Y-32738118D01*
X43765865Y-32795865D01*
X43708118Y-32834451D01*
X43640000Y-32848000D01*
X43360000Y-32848000D01*
X43291882Y-32834451D01*
X43234135Y-32795865D01*
X43195549Y-32738118D01*
X43182000Y-32670000D01*
X43182000Y-32330000D01*
X43195549Y-32261882D01*
X43234135Y-32204135D01*
X43291882Y-32165549D01*
X43360000Y-32152000D01*
X43640000Y-32152000D01*
X43708118Y-32165549D01*
G37*
G36*
X44708118Y-32165549D02*
G01*
X44765865Y-32204135D01*
X44804451Y-32261882D01*
X44818000Y-32330000D01*
X44818000Y-32670000D01*
X44804451Y-32738118D01*
X44765865Y-32795865D01*
X44708118Y-32834451D01*
X44640000Y-32848000D01*
X44360000Y-32848000D01*
X44291882Y-32834451D01*
X44234135Y-32795865D01*
X44195549Y-32738118D01*
X44182000Y-32670000D01*
X44182000Y-32330000D01*
X44195549Y-32261882D01*
X44234135Y-32204135D01*
X44291882Y-32165549D01*
X44360000Y-32152000D01*
X44640000Y-32152000D01*
X44708118Y-32165549D01*
G37*
G36*
X46691342Y-31538060D02*
G01*
X46804381Y-31603323D01*
X46896677Y-31695619D01*
X46961940Y-31808658D01*
X46995722Y-31934737D01*
X46995722Y-32065263D01*
X46961940Y-32191342D01*
X46896677Y-32304381D01*
X46804381Y-32396677D01*
X46691342Y-32461940D01*
X46565263Y-32495722D01*
X46434737Y-32495722D01*
X46308658Y-32461940D01*
X46195619Y-32396677D01*
X46103323Y-32304381D01*
X46038060Y-32191342D01*
X46004278Y-32065263D01*
X46004278Y-31934737D01*
X46038060Y-31808658D01*
X46103323Y-31695619D01*
X46195619Y-31603323D01*
X46308658Y-31538060D01*
X46434737Y-31504278D01*
X46565263Y-31504278D01*
X46691342Y-31538060D01*
G37*
G36*
X37216818Y-31915185D02*
G01*
X37244962Y-31943329D01*
X37260193Y-31980100D01*
X37260193Y-32019900D01*
X37244962Y-32056671D01*
X37216818Y-32084815D01*
X37180047Y-32100046D01*
X37140247Y-32100046D01*
X37103476Y-32084815D01*
X37075332Y-32056671D01*
X37060101Y-32019900D01*
X37060101Y-31980100D01*
X37075332Y-31943329D01*
X37103476Y-31915185D01*
X37140247Y-31899954D01*
X37180047Y-31899954D01*
X37216818Y-31915185D01*
G37*
G36*
X37926749Y-31915185D02*
G01*
X37954893Y-31943329D01*
X37970124Y-31980100D01*
X37970124Y-32019900D01*
X37954893Y-32056671D01*
X37926749Y-32084815D01*
X37889978Y-32100046D01*
X37850178Y-32100046D01*
X37813407Y-32084815D01*
X37785263Y-32056671D01*
X37770032Y-32019900D01*
X37770032Y-31980100D01*
X37785263Y-31943329D01*
X37813407Y-31915185D01*
X37850178Y-31899954D01*
X37889978Y-31899954D01*
X37926749Y-31915185D01*
G37*
G36*
X38556671Y-31915185D02*
G01*
X38584815Y-31943329D01*
X38600046Y-31980100D01*
X38600046Y-32019900D01*
X38584815Y-32056671D01*
X38556671Y-32084815D01*
X38519900Y-32100046D01*
X38480100Y-32100046D01*
X38443329Y-32084815D01*
X38415185Y-32056671D01*
X38399954Y-32019900D01*
X38399954Y-31980100D01*
X38415185Y-31943329D01*
X38443329Y-31915185D01*
X38480100Y-31899954D01*
X38519900Y-31899954D01*
X38556671Y-31915185D01*
G37*
G36*
X43708118Y-31165549D02*
G01*
X43765865Y-31204135D01*
X43804451Y-31261882D01*
X43818000Y-31330000D01*
X43818000Y-31670000D01*
X43804451Y-31738118D01*
X43765865Y-31795865D01*
X43708118Y-31834451D01*
X43640000Y-31848000D01*
X43360000Y-31848000D01*
X43291882Y-31834451D01*
X43234135Y-31795865D01*
X43195549Y-31738118D01*
X43182000Y-31670000D01*
X43182000Y-31330000D01*
X43195549Y-31261882D01*
X43234135Y-31204135D01*
X43291882Y-31165549D01*
X43360000Y-31152000D01*
X43640000Y-31152000D01*
X43708118Y-31165549D01*
G37*
G36*
X44708118Y-31165549D02*
G01*
X44765865Y-31204135D01*
X44804451Y-31261882D01*
X44818000Y-31330000D01*
X44818000Y-31670000D01*
X44804451Y-31738118D01*
X44765865Y-31795865D01*
X44708118Y-31834451D01*
X44640000Y-31848000D01*
X44360000Y-31848000D01*
X44291882Y-31834451D01*
X44234135Y-31795865D01*
X44195549Y-31738118D01*
X44182000Y-31670000D01*
X44182000Y-31330000D01*
X44195549Y-31261882D01*
X44234135Y-31204135D01*
X44291882Y-31165549D01*
X44360000Y-31152000D01*
X44640000Y-31152000D01*
X44708118Y-31165549D01*
G37*
G36*
X37716691Y-31225320D02*
G01*
X37744835Y-31253464D01*
X37760066Y-31290235D01*
X37760066Y-31330035D01*
X37744835Y-31366806D01*
X37716691Y-31394950D01*
X37679920Y-31410181D01*
X37640120Y-31410181D01*
X37603349Y-31394950D01*
X37575205Y-31366806D01*
X37559974Y-31330035D01*
X37559974Y-31290235D01*
X37575205Y-31253464D01*
X37603349Y-31225320D01*
X37640120Y-31210089D01*
X37679920Y-31210089D01*
X37716691Y-31225320D01*
G37*
G36*
X36876711Y-31140230D02*
G01*
X36904855Y-31168374D01*
X36920086Y-31205145D01*
X36920086Y-31244945D01*
X36904855Y-31281716D01*
X36876711Y-31309860D01*
X36839940Y-31325091D01*
X36800140Y-31325091D01*
X36763369Y-31309860D01*
X36735225Y-31281716D01*
X36719994Y-31244945D01*
X36719994Y-31205145D01*
X36735225Y-31168374D01*
X36763369Y-31140230D01*
X36800140Y-31124999D01*
X36839940Y-31124999D01*
X36876711Y-31140230D01*
G37*
G36*
X43708118Y-30165549D02*
G01*
X43765865Y-30204135D01*
X43804451Y-30261882D01*
X43818000Y-30330000D01*
X43818000Y-30670000D01*
X43804451Y-30738118D01*
X43765865Y-30795865D01*
X43708118Y-30834451D01*
X43640000Y-30848000D01*
X43360000Y-30848000D01*
X43291882Y-30834451D01*
X43234135Y-30795865D01*
X43195549Y-30738118D01*
X43182000Y-30670000D01*
X43182000Y-30330000D01*
X43195549Y-30261882D01*
X43234135Y-30204135D01*
X43291882Y-30165549D01*
X43360000Y-30152000D01*
X43640000Y-30152000D01*
X43708118Y-30165549D01*
G37*
G36*
X44708118Y-30165549D02*
G01*
X44765865Y-30204135D01*
X44804451Y-30261882D01*
X44818000Y-30330000D01*
X44818000Y-30670000D01*
X44804451Y-30738118D01*
X44765865Y-30795865D01*
X44708118Y-30834451D01*
X44640000Y-30848000D01*
X44360000Y-30848000D01*
X44291882Y-30834451D01*
X44234135Y-30795865D01*
X44195549Y-30738118D01*
X44182000Y-30670000D01*
X44182000Y-30330000D01*
X44195549Y-30261882D01*
X44234135Y-30204135D01*
X44291882Y-30165549D01*
X44360000Y-30152000D01*
X44640000Y-30152000D01*
X44708118Y-30165549D01*
G37*
G36*
X36876711Y-30535201D02*
G01*
X36904855Y-30563345D01*
X36920086Y-30600116D01*
X36920086Y-30639916D01*
X36904855Y-30676687D01*
X36876711Y-30704831D01*
X36839940Y-30720062D01*
X36800140Y-30720062D01*
X36763369Y-30704831D01*
X36735225Y-30676687D01*
X36719994Y-30639916D01*
X36719994Y-30600116D01*
X36735225Y-30563345D01*
X36763369Y-30535201D01*
X36800140Y-30519970D01*
X36839940Y-30519970D01*
X36876711Y-30535201D01*
G37*
G36*
X37716691Y-30535201D02*
G01*
X37744835Y-30563345D01*
X37760066Y-30600116D01*
X37760066Y-30639916D01*
X37744835Y-30676687D01*
X37716691Y-30704831D01*
X37679920Y-30720062D01*
X37640120Y-30720062D01*
X37603349Y-30704831D01*
X37575205Y-30676687D01*
X37559974Y-30639916D01*
X37559974Y-30600116D01*
X37575205Y-30563345D01*
X37603349Y-30535201D01*
X37640120Y-30519970D01*
X37679920Y-30519970D01*
X37716691Y-30535201D01*
G37*
G36*
X38556671Y-30535201D02*
G01*
X38584815Y-30563345D01*
X38600046Y-30600116D01*
X38600046Y-30639916D01*
X38584815Y-30676687D01*
X38556671Y-30704831D01*
X38519900Y-30720062D01*
X38480100Y-30720062D01*
X38443329Y-30704831D01*
X38415185Y-30676687D01*
X38399954Y-30639916D01*
X38399954Y-30600116D01*
X38415185Y-30563345D01*
X38443329Y-30535201D01*
X38480100Y-30519970D01*
X38519900Y-30519970D01*
X38556671Y-30535201D01*
G37*
G36*
X42952702Y-28988532D02*
G01*
X43011610Y-28996287D01*
X43026429Y-29003197D01*
X43045646Y-29007020D01*
X43071100Y-29024028D01*
X43095320Y-29035322D01*
X43110054Y-29050056D01*
X43130969Y-29064031D01*
X43144943Y-29084945D01*
X43159677Y-29099679D01*
X43170970Y-29123896D01*
X43187980Y-29149354D01*
X43191802Y-29168572D01*
X43198712Y-29183389D01*
X43206465Y-29242284D01*
X43208000Y-29250000D01*
X43208000Y-29750000D01*
X43206464Y-29757717D01*
X43198712Y-29816610D01*
X43191803Y-29831425D01*
X43187980Y-29850646D01*
X43170968Y-29876105D01*
X43159677Y-29900320D01*
X43144945Y-29915051D01*
X43130969Y-29935969D01*
X43110051Y-29949945D01*
X43095320Y-29964677D01*
X43071105Y-29975968D01*
X43045646Y-29992980D01*
X43026425Y-29996803D01*
X43011610Y-30003712D01*
X42952717Y-30011464D01*
X42945000Y-30013000D01*
X42495000Y-30013000D01*
X42487284Y-30011465D01*
X42428389Y-30003712D01*
X42413572Y-29996802D01*
X42394354Y-29992980D01*
X42368896Y-29975970D01*
X42344679Y-29964677D01*
X42329945Y-29949943D01*
X42309031Y-29935969D01*
X42295056Y-29915054D01*
X42280322Y-29900320D01*
X42269028Y-29876100D01*
X42252020Y-29850646D01*
X42248197Y-29831429D01*
X42241287Y-29816610D01*
X42233532Y-29757702D01*
X42232000Y-29750000D01*
X42232000Y-29250000D01*
X42233531Y-29242299D01*
X42241287Y-29183389D01*
X42248197Y-29168568D01*
X42252020Y-29149354D01*
X42269026Y-29123901D01*
X42280322Y-29099679D01*
X42295058Y-29084942D01*
X42309031Y-29064031D01*
X42329942Y-29050058D01*
X42344679Y-29035322D01*
X42368901Y-29024026D01*
X42394354Y-29007020D01*
X42413568Y-29003197D01*
X42428389Y-28996287D01*
X42487299Y-28988531D01*
X42495000Y-28987000D01*
X42945000Y-28987000D01*
X42952702Y-28988532D01*
G37*
G36*
X44512702Y-28988532D02*
G01*
X44571610Y-28996287D01*
X44586429Y-29003197D01*
X44605646Y-29007020D01*
X44631100Y-29024028D01*
X44655320Y-29035322D01*
X44670054Y-29050056D01*
X44690969Y-29064031D01*
X44704943Y-29084945D01*
X44719677Y-29099679D01*
X44730970Y-29123896D01*
X44747980Y-29149354D01*
X44751802Y-29168572D01*
X44758712Y-29183389D01*
X44766465Y-29242284D01*
X44768000Y-29250000D01*
X44768000Y-29750000D01*
X44766464Y-29757717D01*
X44758712Y-29816610D01*
X44751803Y-29831425D01*
X44747980Y-29850646D01*
X44730968Y-29876105D01*
X44719677Y-29900320D01*
X44704945Y-29915051D01*
X44690969Y-29935969D01*
X44670051Y-29949945D01*
X44655320Y-29964677D01*
X44631105Y-29975968D01*
X44605646Y-29992980D01*
X44586425Y-29996803D01*
X44571610Y-30003712D01*
X44512717Y-30011464D01*
X44505000Y-30013000D01*
X44055000Y-30013000D01*
X44047284Y-30011465D01*
X43988389Y-30003712D01*
X43973572Y-29996802D01*
X43954354Y-29992980D01*
X43928896Y-29975970D01*
X43904679Y-29964677D01*
X43889945Y-29949943D01*
X43869031Y-29935969D01*
X43855056Y-29915054D01*
X43840322Y-29900320D01*
X43829028Y-29876100D01*
X43812020Y-29850646D01*
X43808197Y-29831429D01*
X43801287Y-29816610D01*
X43793532Y-29757702D01*
X43792000Y-29750000D01*
X43792000Y-29250000D01*
X43793531Y-29242299D01*
X43801287Y-29183389D01*
X43808197Y-29168568D01*
X43812020Y-29149354D01*
X43829026Y-29123901D01*
X43840322Y-29099679D01*
X43855058Y-29084942D01*
X43869031Y-29064031D01*
X43889942Y-29050058D01*
X43904679Y-29035322D01*
X43928901Y-29024026D01*
X43954354Y-29007020D01*
X43973568Y-29003197D01*
X43988389Y-28996287D01*
X44047299Y-28988531D01*
X44055000Y-28987000D01*
X44505000Y-28987000D01*
X44512702Y-28988532D01*
G37*
G36*
X42884848Y-27487964D02*
G01*
X42932293Y-27493468D01*
X42948505Y-27500626D01*
X42971079Y-27505117D01*
X42995246Y-27521265D01*
X43013914Y-27529508D01*
X43026664Y-27542258D01*
X43048291Y-27556709D01*
X43062741Y-27578335D01*
X43075491Y-27591085D01*
X43083733Y-27609751D01*
X43099883Y-27633921D01*
X43104373Y-27656496D01*
X43111531Y-27672706D01*
X43117033Y-27720140D01*
X43118000Y-27725000D01*
X43118000Y-28275000D01*
X43117033Y-28279860D01*
X43111531Y-28327293D01*
X43104373Y-28343501D01*
X43099883Y-28366079D01*
X43083731Y-28390250D01*
X43075491Y-28408914D01*
X43062743Y-28421661D01*
X43048291Y-28443291D01*
X43026661Y-28457743D01*
X43013914Y-28470491D01*
X42995250Y-28478731D01*
X42971079Y-28494883D01*
X42948501Y-28499373D01*
X42932293Y-28506531D01*
X42884860Y-28512033D01*
X42880000Y-28513000D01*
X42480000Y-28513000D01*
X42475140Y-28512033D01*
X42427706Y-28506531D01*
X42411496Y-28499373D01*
X42388921Y-28494883D01*
X42364751Y-28478733D01*
X42346085Y-28470491D01*
X42333335Y-28457741D01*
X42311709Y-28443291D01*
X42297258Y-28421664D01*
X42284508Y-28408914D01*
X42276265Y-28390246D01*
X42260117Y-28366079D01*
X42255626Y-28343505D01*
X42248468Y-28327293D01*
X42242964Y-28279848D01*
X42242000Y-28275000D01*
X42242000Y-27725000D01*
X42242964Y-27720152D01*
X42248468Y-27672706D01*
X42255627Y-27656492D01*
X42260117Y-27633921D01*
X42276263Y-27609755D01*
X42284508Y-27591085D01*
X42297260Y-27578332D01*
X42311709Y-27556709D01*
X42333332Y-27542260D01*
X42346085Y-27529508D01*
X42364755Y-27521263D01*
X42388921Y-27505117D01*
X42411492Y-27500627D01*
X42427706Y-27493468D01*
X42475152Y-27487964D01*
X42480000Y-27487000D01*
X42880000Y-27487000D01*
X42884848Y-27487964D01*
G37*
G36*
X44524848Y-27487964D02*
G01*
X44572293Y-27493468D01*
X44588505Y-27500626D01*
X44611079Y-27505117D01*
X44635246Y-27521265D01*
X44653914Y-27529508D01*
X44666664Y-27542258D01*
X44688291Y-27556709D01*
X44702741Y-27578335D01*
X44715491Y-27591085D01*
X44723733Y-27609751D01*
X44739883Y-27633921D01*
X44744373Y-27656496D01*
X44751531Y-27672706D01*
X44757033Y-27720140D01*
X44758000Y-27725000D01*
X44758000Y-28275000D01*
X44757033Y-28279860D01*
X44751531Y-28327293D01*
X44744373Y-28343501D01*
X44739883Y-28366079D01*
X44723731Y-28390250D01*
X44715491Y-28408914D01*
X44702743Y-28421661D01*
X44688291Y-28443291D01*
X44666661Y-28457743D01*
X44653914Y-28470491D01*
X44635250Y-28478731D01*
X44611079Y-28494883D01*
X44588501Y-28499373D01*
X44572293Y-28506531D01*
X44524860Y-28512033D01*
X44520000Y-28513000D01*
X44120000Y-28513000D01*
X44115140Y-28512033D01*
X44067706Y-28506531D01*
X44051496Y-28499373D01*
X44028921Y-28494883D01*
X44004751Y-28478733D01*
X43986085Y-28470491D01*
X43973335Y-28457741D01*
X43951709Y-28443291D01*
X43937258Y-28421664D01*
X43924508Y-28408914D01*
X43916265Y-28390246D01*
X43900117Y-28366079D01*
X43895626Y-28343505D01*
X43888468Y-28327293D01*
X43882964Y-28279848D01*
X43882000Y-28275000D01*
X43882000Y-27725000D01*
X43882964Y-27720152D01*
X43888468Y-27672706D01*
X43895627Y-27656492D01*
X43900117Y-27633921D01*
X43916263Y-27609755D01*
X43924508Y-27591085D01*
X43937260Y-27578332D01*
X43951709Y-27556709D01*
X43973332Y-27542260D01*
X43986085Y-27529508D01*
X44004755Y-27521263D01*
X44028921Y-27505117D01*
X44051492Y-27500627D01*
X44067706Y-27493468D01*
X44115152Y-27487964D01*
X44120000Y-27487000D01*
X44520000Y-27487000D01*
X44524848Y-27487964D01*
G37*
G36*
X38829837Y-25865944D02*
G01*
X38874304Y-25871103D01*
X38889497Y-25877811D01*
X38911091Y-25882107D01*
X38934209Y-25897554D01*
X38951554Y-25905213D01*
X38963399Y-25917058D01*
X38984086Y-25930881D01*
X38997908Y-25951567D01*
X39009753Y-25963412D01*
X39017410Y-25980754D01*
X39032860Y-26003876D01*
X39037155Y-26025471D01*
X39043863Y-26040662D01*
X39049020Y-26085119D01*
X39049987Y-26089980D01*
X39049987Y-26589980D01*
X39049019Y-26594842D01*
X39043863Y-26639297D01*
X39037155Y-26654486D01*
X39032860Y-26676084D01*
X39017409Y-26699207D01*
X39009753Y-26716547D01*
X38997910Y-26728389D01*
X38984086Y-26749079D01*
X38963396Y-26762903D01*
X38951554Y-26774746D01*
X38934214Y-26782402D01*
X38911091Y-26797853D01*
X38889493Y-26802148D01*
X38874304Y-26808856D01*
X38829848Y-26814012D01*
X38824987Y-26814980D01*
X38374987Y-26814980D01*
X38370125Y-26814013D01*
X38325669Y-26808856D01*
X38310478Y-26802148D01*
X38288883Y-26797853D01*
X38265761Y-26782403D01*
X38248419Y-26774746D01*
X38236574Y-26762901D01*
X38215888Y-26749079D01*
X38202065Y-26728392D01*
X38190220Y-26716547D01*
X38182561Y-26699202D01*
X38167114Y-26676084D01*
X38162818Y-26654490D01*
X38156110Y-26639297D01*
X38150951Y-26594829D01*
X38149987Y-26589980D01*
X38149987Y-26089980D01*
X38150951Y-26085130D01*
X38156110Y-26040662D01*
X38162819Y-26025467D01*
X38167114Y-26003876D01*
X38182560Y-25980759D01*
X38190220Y-25963412D01*
X38202067Y-25951564D01*
X38215888Y-25930881D01*
X38236571Y-25917060D01*
X38248419Y-25905213D01*
X38265766Y-25897553D01*
X38288883Y-25882107D01*
X38310474Y-25877812D01*
X38325669Y-25871103D01*
X38370138Y-25865944D01*
X38374987Y-25864980D01*
X38824987Y-25864980D01*
X38829837Y-25865944D01*
G37*
G36*
X40379837Y-25865944D02*
G01*
X40424304Y-25871103D01*
X40439497Y-25877811D01*
X40461091Y-25882107D01*
X40484209Y-25897554D01*
X40501554Y-25905213D01*
X40513399Y-25917058D01*
X40534086Y-25930881D01*
X40547908Y-25951567D01*
X40559753Y-25963412D01*
X40567410Y-25980754D01*
X40582860Y-26003876D01*
X40587155Y-26025471D01*
X40593863Y-26040662D01*
X40599020Y-26085119D01*
X40599987Y-26089980D01*
X40599987Y-26589980D01*
X40599019Y-26594842D01*
X40593863Y-26639297D01*
X40587155Y-26654486D01*
X40582860Y-26676084D01*
X40567409Y-26699207D01*
X40559753Y-26716547D01*
X40547910Y-26728389D01*
X40534086Y-26749079D01*
X40513396Y-26762903D01*
X40501554Y-26774746D01*
X40484214Y-26782402D01*
X40461091Y-26797853D01*
X40439493Y-26802148D01*
X40424304Y-26808856D01*
X40379848Y-26814012D01*
X40374987Y-26814980D01*
X39924987Y-26814980D01*
X39920125Y-26814013D01*
X39875669Y-26808856D01*
X39860478Y-26802148D01*
X39838883Y-26797853D01*
X39815761Y-26782403D01*
X39798419Y-26774746D01*
X39786574Y-26762901D01*
X39765888Y-26749079D01*
X39752065Y-26728392D01*
X39740220Y-26716547D01*
X39732561Y-26699202D01*
X39717114Y-26676084D01*
X39712818Y-26654490D01*
X39706110Y-26639297D01*
X39700951Y-26594829D01*
X39699987Y-26589980D01*
X39699987Y-26089980D01*
X39700951Y-26085130D01*
X39706110Y-26040662D01*
X39712819Y-26025467D01*
X39717114Y-26003876D01*
X39732560Y-25980759D01*
X39740220Y-25963412D01*
X39752067Y-25951564D01*
X39765888Y-25930881D01*
X39786571Y-25917060D01*
X39798419Y-25905213D01*
X39815766Y-25897553D01*
X39838883Y-25882107D01*
X39860474Y-25877812D01*
X39875669Y-25871103D01*
X39920138Y-25865944D01*
X39924987Y-25864980D01*
X40374987Y-25864980D01*
X40379837Y-25865944D01*
G37*
G36*
X43050025Y-26664974D02*
G01*
X42270015Y-26664974D01*
X42270015Y-26314960D01*
X43050025Y-26314960D01*
X43050025Y-26664974D01*
G37*
G36*
X44729985Y-26664974D02*
G01*
X43949975Y-26664974D01*
X43949975Y-26314960D01*
X44729985Y-26314960D01*
X44729985Y-26664974D01*
G37*
G36*
X35358105Y-25505529D02*
G01*
X35415852Y-25544115D01*
X35454438Y-25601862D01*
X35467987Y-25669980D01*
X35467987Y-26009980D01*
X35454438Y-26078098D01*
X35415852Y-26135845D01*
X35358105Y-26174431D01*
X35289987Y-26187980D01*
X35009987Y-26187980D01*
X34941869Y-26174431D01*
X34884122Y-26135845D01*
X34845536Y-26078098D01*
X34831987Y-26009980D01*
X34831987Y-25669980D01*
X34845536Y-25601862D01*
X34884122Y-25544115D01*
X34941869Y-25505529D01*
X35009987Y-25491980D01*
X35289987Y-25491980D01*
X35358105Y-25505529D01*
G37*
G36*
X36358105Y-25505529D02*
G01*
X36415852Y-25544115D01*
X36454438Y-25601862D01*
X36467987Y-25669980D01*
X36467987Y-26009980D01*
X36454438Y-26078098D01*
X36415852Y-26135845D01*
X36358105Y-26174431D01*
X36289987Y-26187980D01*
X36009987Y-26187980D01*
X35941869Y-26174431D01*
X35884122Y-26135845D01*
X35845536Y-26078098D01*
X35831987Y-26009980D01*
X35831987Y-25669980D01*
X35845536Y-25601862D01*
X35884122Y-25544115D01*
X35941869Y-25505529D01*
X36009987Y-25491980D01*
X36289987Y-25491980D01*
X36358105Y-25505529D01*
G37*
G36*
X43050025Y-26014987D02*
G01*
X42270015Y-26014987D01*
X42270015Y-25664973D01*
X43050025Y-25664973D01*
X43050025Y-26014987D01*
G37*
G36*
X44729985Y-26014987D02*
G01*
X43949975Y-26014987D01*
X43949975Y-25664973D01*
X44729985Y-25664973D01*
X44729985Y-26014987D01*
G37*
G36*
X43050025Y-25365000D02*
G01*
X42270015Y-25365000D01*
X42270015Y-25014986D01*
X43050025Y-25014986D01*
X43050025Y-25365000D01*
G37*
G36*
X44729985Y-25365000D02*
G01*
X43949975Y-25365000D01*
X43949975Y-25014986D01*
X44729985Y-25014986D01*
X44729985Y-25365000D01*
G37*
G36*
X38829837Y-24365944D02*
G01*
X38874304Y-24371103D01*
X38889497Y-24377811D01*
X38911091Y-24382107D01*
X38934209Y-24397554D01*
X38951554Y-24405213D01*
X38963399Y-24417058D01*
X38984086Y-24430881D01*
X38997908Y-24451567D01*
X39009753Y-24463412D01*
X39017410Y-24480754D01*
X39032860Y-24503876D01*
X39037155Y-24525471D01*
X39043863Y-24540662D01*
X39049020Y-24585119D01*
X39049987Y-24589980D01*
X39049987Y-25089980D01*
X39049019Y-25094842D01*
X39043863Y-25139297D01*
X39037155Y-25154486D01*
X39032860Y-25176084D01*
X39017409Y-25199207D01*
X39009753Y-25216547D01*
X38997910Y-25228389D01*
X38984086Y-25249079D01*
X38963396Y-25262903D01*
X38951554Y-25274746D01*
X38934214Y-25282402D01*
X38911091Y-25297853D01*
X38889493Y-25302148D01*
X38874304Y-25308856D01*
X38829848Y-25314012D01*
X38824987Y-25314980D01*
X38374987Y-25314980D01*
X38370125Y-25314013D01*
X38325669Y-25308856D01*
X38310478Y-25302148D01*
X38288883Y-25297853D01*
X38265761Y-25282403D01*
X38248419Y-25274746D01*
X38236574Y-25262901D01*
X38215888Y-25249079D01*
X38202065Y-25228392D01*
X38190220Y-25216547D01*
X38182561Y-25199202D01*
X38167114Y-25176084D01*
X38162818Y-25154490D01*
X38156110Y-25139297D01*
X38150951Y-25094829D01*
X38149987Y-25089980D01*
X38149987Y-24589980D01*
X38150951Y-24585130D01*
X38156110Y-24540662D01*
X38162819Y-24525467D01*
X38167114Y-24503876D01*
X38182560Y-24480759D01*
X38190220Y-24463412D01*
X38202067Y-24451564D01*
X38215888Y-24430881D01*
X38236571Y-24417060D01*
X38248419Y-24405213D01*
X38265766Y-24397553D01*
X38288883Y-24382107D01*
X38310474Y-24377812D01*
X38325669Y-24371103D01*
X38370138Y-24365944D01*
X38374987Y-24364980D01*
X38824987Y-24364980D01*
X38829837Y-24365944D01*
G37*
G36*
X40379837Y-24365944D02*
G01*
X40424304Y-24371103D01*
X40439497Y-24377811D01*
X40461091Y-24382107D01*
X40484209Y-24397554D01*
X40501554Y-24405213D01*
X40513399Y-24417058D01*
X40534086Y-24430881D01*
X40547908Y-24451567D01*
X40559753Y-24463412D01*
X40567410Y-24480754D01*
X40582860Y-24503876D01*
X40587155Y-24525471D01*
X40593863Y-24540662D01*
X40599020Y-24585119D01*
X40599987Y-24589980D01*
X40599987Y-25089980D01*
X40599019Y-25094842D01*
X40593863Y-25139297D01*
X40587155Y-25154486D01*
X40582860Y-25176084D01*
X40567409Y-25199207D01*
X40559753Y-25216547D01*
X40547910Y-25228389D01*
X40534086Y-25249079D01*
X40513396Y-25262903D01*
X40501554Y-25274746D01*
X40484214Y-25282402D01*
X40461091Y-25297853D01*
X40439493Y-25302148D01*
X40424304Y-25308856D01*
X40379848Y-25314012D01*
X40374987Y-25314980D01*
X39924987Y-25314980D01*
X39920125Y-25314013D01*
X39875669Y-25308856D01*
X39860478Y-25302148D01*
X39838883Y-25297853D01*
X39815761Y-25282403D01*
X39798419Y-25274746D01*
X39786574Y-25262901D01*
X39765888Y-25249079D01*
X39752065Y-25228392D01*
X39740220Y-25216547D01*
X39732561Y-25199202D01*
X39717114Y-25176084D01*
X39712818Y-25154490D01*
X39706110Y-25139297D01*
X39700951Y-25094829D01*
X39699987Y-25089980D01*
X39699987Y-24589980D01*
X39700951Y-24585130D01*
X39706110Y-24540662D01*
X39712819Y-24525467D01*
X39717114Y-24503876D01*
X39732560Y-24480759D01*
X39740220Y-24463412D01*
X39752067Y-24451564D01*
X39765888Y-24430881D01*
X39786571Y-24417060D01*
X39798419Y-24405213D01*
X39815766Y-24397553D01*
X39838883Y-24382107D01*
X39860474Y-24377812D01*
X39875669Y-24371103D01*
X39920138Y-24365944D01*
X39924987Y-24364980D01*
X40374987Y-24364980D01*
X40379837Y-24365944D01*
G37*
G36*
X35358105Y-24505529D02*
G01*
X35415852Y-24544115D01*
X35454438Y-24601862D01*
X35467987Y-24669980D01*
X35467987Y-25009980D01*
X35454438Y-25078098D01*
X35415852Y-25135845D01*
X35358105Y-25174431D01*
X35289987Y-25187980D01*
X35009987Y-25187980D01*
X34941869Y-25174431D01*
X34884122Y-25135845D01*
X34845536Y-25078098D01*
X34831987Y-25009980D01*
X34831987Y-24669980D01*
X34845536Y-24601862D01*
X34884122Y-24544115D01*
X34941869Y-24505529D01*
X35009987Y-24491980D01*
X35289987Y-24491980D01*
X35358105Y-24505529D01*
G37*
G36*
X36358105Y-24505529D02*
G01*
X36415852Y-24544115D01*
X36454438Y-24601862D01*
X36467987Y-24669980D01*
X36467987Y-25009980D01*
X36454438Y-25078098D01*
X36415852Y-25135845D01*
X36358105Y-25174431D01*
X36289987Y-25187980D01*
X36009987Y-25187980D01*
X35941869Y-25174431D01*
X35884122Y-25135845D01*
X35845536Y-25078098D01*
X35831987Y-25009980D01*
X35831987Y-24669980D01*
X35845536Y-24601862D01*
X35884122Y-24544115D01*
X35941869Y-24505529D01*
X36009987Y-24491980D01*
X36289987Y-24491980D01*
X36358105Y-24505529D01*
G37*
G36*
X41104850Y-21475964D02*
G01*
X41155040Y-21481787D01*
X41172189Y-21489359D01*
X41195671Y-21494030D01*
X41220810Y-21510827D01*
X41240696Y-21519608D01*
X41254277Y-21533189D01*
X41276777Y-21548223D01*
X41291810Y-21570722D01*
X41305391Y-21584303D01*
X41314170Y-21604186D01*
X41330970Y-21629329D01*
X41335641Y-21652812D01*
X41343212Y-21669959D01*
X41349033Y-21720139D01*
X41350000Y-21725000D01*
X41350000Y-22275000D01*
X41349032Y-22279863D01*
X41343212Y-22330040D01*
X41335641Y-22347185D01*
X41330970Y-22370671D01*
X41314169Y-22395815D01*
X41305391Y-22415696D01*
X41291812Y-22429274D01*
X41276777Y-22451777D01*
X41254274Y-22466812D01*
X41240696Y-22480391D01*
X41220815Y-22489169D01*
X41195671Y-22505970D01*
X41172185Y-22510641D01*
X41155040Y-22518212D01*
X41104861Y-22524032D01*
X41100000Y-22525000D01*
X39400000Y-22525000D01*
X39395138Y-22524032D01*
X39344959Y-22518212D01*
X39327812Y-22510641D01*
X39304329Y-22505970D01*
X39279186Y-22489170D01*
X39259303Y-22480391D01*
X39245722Y-22466810D01*
X39223223Y-22451777D01*
X39208189Y-22429277D01*
X39194608Y-22415696D01*
X39185827Y-22395810D01*
X39169030Y-22370671D01*
X39164359Y-22347189D01*
X39156787Y-22330040D01*
X39150964Y-22279849D01*
X39150000Y-22275000D01*
X39150000Y-21725000D01*
X39150964Y-21720150D01*
X39156787Y-21669959D01*
X39164359Y-21652808D01*
X39169030Y-21629329D01*
X39185826Y-21604191D01*
X39194608Y-21584303D01*
X39208191Y-21570719D01*
X39223223Y-21548223D01*
X39245719Y-21533191D01*
X39259303Y-21519608D01*
X39279191Y-21510826D01*
X39304329Y-21494030D01*
X39327808Y-21489359D01*
X39344959Y-21481787D01*
X39395151Y-21475964D01*
X39400000Y-21475000D01*
X41100000Y-21475000D01*
X41104850Y-21475964D01*
G37*
G36*
X39029850Y-20000964D02*
G01*
X39080040Y-20006787D01*
X39097189Y-20014359D01*
X39120671Y-20019030D01*
X39145810Y-20035827D01*
X39165696Y-20044608D01*
X39179277Y-20058189D01*
X39201777Y-20073223D01*
X39216810Y-20095722D01*
X39230391Y-20109303D01*
X39239170Y-20129186D01*
X39255970Y-20154329D01*
X39260641Y-20177812D01*
X39268212Y-20194959D01*
X39274033Y-20245139D01*
X39275000Y-20250000D01*
X39275000Y-20750000D01*
X39274032Y-20754863D01*
X39268212Y-20805040D01*
X39260641Y-20822185D01*
X39255970Y-20845671D01*
X39239169Y-20870815D01*
X39230391Y-20890696D01*
X39216812Y-20904274D01*
X39201777Y-20926777D01*
X39179274Y-20941812D01*
X39165696Y-20955391D01*
X39145815Y-20964169D01*
X39120671Y-20980970D01*
X39097185Y-20985641D01*
X39080040Y-20993212D01*
X39029861Y-20999032D01*
X39025000Y-21000000D01*
X38475000Y-21000000D01*
X38470138Y-20999032D01*
X38419959Y-20993212D01*
X38402812Y-20985641D01*
X38379329Y-20980970D01*
X38354186Y-20964170D01*
X38334303Y-20955391D01*
X38320722Y-20941810D01*
X38298223Y-20926777D01*
X38283189Y-20904277D01*
X38269608Y-20890696D01*
X38260827Y-20870810D01*
X38244030Y-20845671D01*
X38239359Y-20822189D01*
X38231787Y-20805040D01*
X38225964Y-20754849D01*
X38225000Y-20750000D01*
X38225000Y-20250000D01*
X38225964Y-20245150D01*
X38231787Y-20194959D01*
X38239359Y-20177808D01*
X38244030Y-20154329D01*
X38260826Y-20129191D01*
X38269608Y-20109303D01*
X38283191Y-20095719D01*
X38298223Y-20073223D01*
X38320719Y-20058191D01*
X38334303Y-20044608D01*
X38354191Y-20035826D01*
X38379329Y-20019030D01*
X38402808Y-20014359D01*
X38419959Y-20006787D01*
X38470151Y-20000964D01*
X38475000Y-20000000D01*
X39025000Y-20000000D01*
X39029850Y-20000964D01*
G37*
G36*
X41104850Y-18475964D02*
G01*
X41155040Y-18481787D01*
X41172189Y-18489359D01*
X41195671Y-18494030D01*
X41220810Y-18510827D01*
X41240696Y-18519608D01*
X41254277Y-18533189D01*
X41276777Y-18548223D01*
X41291810Y-18570722D01*
X41305391Y-18584303D01*
X41314170Y-18604186D01*
X41330970Y-18629329D01*
X41335641Y-18652812D01*
X41343212Y-18669959D01*
X41349033Y-18720139D01*
X41350000Y-18725000D01*
X41350000Y-19275000D01*
X41349032Y-19279863D01*
X41343212Y-19330040D01*
X41335641Y-19347185D01*
X41330970Y-19370671D01*
X41314169Y-19395815D01*
X41305391Y-19415696D01*
X41291812Y-19429274D01*
X41276777Y-19451777D01*
X41254274Y-19466812D01*
X41240696Y-19480391D01*
X41220815Y-19489169D01*
X41195671Y-19505970D01*
X41172185Y-19510641D01*
X41155040Y-19518212D01*
X41104861Y-19524032D01*
X41100000Y-19525000D01*
X39400000Y-19525000D01*
X39395138Y-19524032D01*
X39344959Y-19518212D01*
X39327812Y-19510641D01*
X39304329Y-19505970D01*
X39279186Y-19489170D01*
X39259303Y-19480391D01*
X39245722Y-19466810D01*
X39223223Y-19451777D01*
X39208189Y-19429277D01*
X39194608Y-19415696D01*
X39185827Y-19395810D01*
X39169030Y-19370671D01*
X39164359Y-19347189D01*
X39156787Y-19330040D01*
X39150964Y-19279849D01*
X39150000Y-19275000D01*
X39150000Y-18725000D01*
X39150964Y-18720150D01*
X39156787Y-18669959D01*
X39164359Y-18652808D01*
X39169030Y-18629329D01*
X39185826Y-18604191D01*
X39194608Y-18584303D01*
X39208191Y-18570719D01*
X39223223Y-18548223D01*
X39245719Y-18533191D01*
X39259303Y-18519608D01*
X39279191Y-18510826D01*
X39304329Y-18494030D01*
X39327808Y-18489359D01*
X39344959Y-18481787D01*
X39395151Y-18475964D01*
X39400000Y-18475000D01*
X41100000Y-18475000D01*
X41104850Y-18475964D01*
G37*
M02*
