M48
; DRILL file KiCad 10.0.3 date 2026-05-20T09:56:52
; FORMAT={-:-/ absolute / inch / decimal}
; #@! TF.CreationDate,2026-05-20T09:56:52+02:00
; #@! TF.GenerationSoftware,Kicad,Pcbnew,10.0.3
; #@! TF.FileFunction,Plated,1,4,PTH
FMAT,2
INCH
; #@! TA.AperFunction,Plated,PTH,ViaDrill
T1C0.0118
; #@! TA.AperFunction,Plated,PTH,ViaDrill
T2C0.0157
; #@! TA.AperFunction,Plated,PTH,ComponentDrill
T3C0.0315
; #@! TA.AperFunction,Plated,PTH,ComponentDrill
T4C0.0360
%
G90
G05
T1
X1.1024Y-1.5354
X1.1122Y-1.939
X1.1417Y-1.4961
X1.1417Y-1.6339
X1.1811Y-2.0669
X1.1811Y-2.1457
X1.2598Y-1.4764
X1.2598Y-1.9094
X1.2752Y-1.5988
X1.2992Y-1.378
X1.3189Y-1.437
X1.3189Y-1.6929
X1.3189Y-1.6929
X1.3189Y-1.6929
X1.3189Y-1.6929
X1.3386Y-1.5157
X1.3485Y-1.5847
X1.378Y-1.7126
X1.3976Y-1.2402
X1.4055Y-1.9299
X1.4365Y-1.6762
X1.4764Y-0.9646
X1.5256Y-1.7225
X1.5551Y-1.2992
X1.5846Y-1.2894
X1.5945Y-1.9488
X1.5945Y-1.1417
X1.5945Y-1.7323
X1.6142Y-1.2992
X1.6142Y-2.2244
X1.6535Y-1.6732
X1.6535Y-1.9882
X1.6601Y-1.2861
X1.6929Y-1.3077
X1.6929Y-1.6339
X1.7126Y-0.8661
X1.7126Y-1.4567
X1.7323Y-0.9449
X1.7323Y-1.3386
X1.7323Y-1.3386
X1.7323Y-1.3878
X1.7323Y-1.5551
X1.7323Y-2.0079
X1.752Y-1.6535
X1.7913Y-1.0236
X1.7913Y-1.1024
X1.8307Y-1.4961
X1.8701Y-1.2008
X1.9488Y-2.0472
X1.9827Y-1.9433
X2.1457Y-2.4213
X2.3031Y-2.0472
X2.3031Y-2.0866
X2.3031Y-2.126
T2
X1.8504Y-1.6732
X2.0551Y-1.6614
X2.0669Y-1.9685
T3
X0.8179Y-2.3015
X0.8448Y-2.2275
X0.8717Y-2.1535
X0.8987Y-2.0795
X0.9256Y-2.0055
X0.9525Y-1.9315
X0.9795Y-1.8575
X1.0064Y-1.7835
X1.0333Y-1.7095
X1.0602Y-1.6355
T4
X1.0433Y-2.5263
X1.122Y-2.5263
X1.5551Y-2.7953
X1.6339Y-2.7953
X2.0866Y-2.5263
X2.1654Y-2.5263
M30
