%TF.GenerationSoftware,KiCad,Pcbnew,10.0.3*%
%TF.CreationDate,2026-05-20T09:56:52+02:00*%
%TF.ProjectId,vesta,76657374-612e-46b6-9963-61645f706362,1*%
%TF.SameCoordinates,Original*%
%TF.FileFunction,Soldermask,Bot*%
%TF.FilePolarity,Negative*%
%FSLAX46Y46*%
G04 Gerber Fmt 4.6, Leading zero omitted, Abs format (unit mm)*
G04 Created by KiCad (PCBNEW 10.0.3) date 2026-05-20 09:56:52*
%MOMM*%
%LPD*%
G01*
G04 APERTURE LIST*
G04 APERTURE END LIST*
G36*
X42262002Y-71762002D02*
G01*
X40737998Y-71762002D01*
X40737998Y-70237998D01*
X42262002Y-70237998D01*
X42262002Y-71762002D01*
G37*
G36*
X39721197Y-70270811D02*
G01*
X39859205Y-70327975D01*
X39983408Y-70410965D01*
X40089035Y-70516592D01*
X40172025Y-70640795D01*
X40229189Y-70778803D01*
X40258332Y-70925311D01*
X40258332Y-71074689D01*
X40229189Y-71221197D01*
X40172025Y-71359205D01*
X40089035Y-71483408D01*
X39983408Y-71589035D01*
X39859205Y-71672025D01*
X39721197Y-71729189D01*
X39574689Y-71758332D01*
X39425311Y-71758332D01*
X39278803Y-71729189D01*
X39140795Y-71672025D01*
X39016592Y-71589035D01*
X38910965Y-71483408D01*
X38827975Y-71359205D01*
X38770811Y-71221197D01*
X38741668Y-71074689D01*
X38741668Y-70925311D01*
X38770811Y-70778803D01*
X38827975Y-70640795D01*
X38910965Y-70516592D01*
X39016592Y-70410965D01*
X39140795Y-70327975D01*
X39278803Y-70270811D01*
X39425311Y-70241668D01*
X39574689Y-70241668D01*
X39721197Y-70270811D01*
G37*
G36*
X29262002Y-64929528D02*
G01*
X27737998Y-64929528D01*
X27737998Y-63405524D01*
X29262002Y-63405524D01*
X29262002Y-64929528D01*
G37*
G36*
X55762002Y-64929528D02*
G01*
X54237998Y-64929528D01*
X54237998Y-63405524D01*
X55762002Y-63405524D01*
X55762002Y-64929528D01*
G37*
G36*
X26721197Y-63438337D02*
G01*
X26859205Y-63495501D01*
X26983408Y-63578491D01*
X27089035Y-63684118D01*
X27172025Y-63808321D01*
X27229189Y-63946329D01*
X27258332Y-64092837D01*
X27258332Y-64242215D01*
X27229189Y-64388723D01*
X27172025Y-64526731D01*
X27089035Y-64650934D01*
X26983408Y-64756561D01*
X26859205Y-64839551D01*
X26721197Y-64896715D01*
X26574689Y-64925858D01*
X26425311Y-64925858D01*
X26278803Y-64896715D01*
X26140795Y-64839551D01*
X26016592Y-64756561D01*
X25910965Y-64650934D01*
X25827975Y-64526731D01*
X25770811Y-64388723D01*
X25741668Y-64242215D01*
X25741668Y-64092837D01*
X25770811Y-63946329D01*
X25827975Y-63808321D01*
X25910965Y-63684118D01*
X26016592Y-63578491D01*
X26140795Y-63495501D01*
X26278803Y-63438337D01*
X26425311Y-63409194D01*
X26574689Y-63409194D01*
X26721197Y-63438337D01*
G37*
G36*
X53221197Y-63438337D02*
G01*
X53359205Y-63495501D01*
X53483408Y-63578491D01*
X53589035Y-63684118D01*
X53672025Y-63808321D01*
X53729189Y-63946329D01*
X53758332Y-64092837D01*
X53758332Y-64242215D01*
X53729189Y-64388723D01*
X53672025Y-64526731D01*
X53589035Y-64650934D01*
X53483408Y-64756561D01*
X53359205Y-64839551D01*
X53221197Y-64896715D01*
X53074689Y-64925858D01*
X52925311Y-64925858D01*
X52778803Y-64896715D01*
X52640795Y-64839551D01*
X52516592Y-64756561D01*
X52410965Y-64650934D01*
X52327975Y-64526731D01*
X52270811Y-64388723D01*
X52241668Y-64242215D01*
X52241668Y-64092837D01*
X52270811Y-63946329D01*
X52327975Y-63808321D01*
X52410965Y-63684118D01*
X52516592Y-63578491D01*
X52640795Y-63495501D01*
X52778803Y-63438337D01*
X52925311Y-63409194D01*
X53074689Y-63409194D01*
X53221197Y-63438337D01*
G37*
G36*
X21638973Y-58053806D02*
G01*
X21177246Y-59322391D01*
X19908661Y-58860664D01*
X20370388Y-57592079D01*
X21638973Y-58053806D01*
G37*
G36*
X21653800Y-55931914D02*
G01*
X21776051Y-55982552D01*
X21886073Y-56056067D01*
X21979640Y-56149634D01*
X22053155Y-56259656D01*
X22103793Y-56381907D01*
X22129608Y-56511687D01*
X22129608Y-56644011D01*
X22103793Y-56773791D01*
X22053155Y-56896042D01*
X21979640Y-57006064D01*
X21886073Y-57099631D01*
X21776051Y-57173146D01*
X21653800Y-57223784D01*
X21524020Y-57249599D01*
X21391696Y-57249599D01*
X21261916Y-57223784D01*
X21139665Y-57173146D01*
X21029643Y-57099631D01*
X20936076Y-57006064D01*
X20862561Y-56896042D01*
X20811923Y-56773791D01*
X20786108Y-56644011D01*
X20786108Y-56511687D01*
X20811923Y-56381907D01*
X20862561Y-56259656D01*
X20936076Y-56149634D01*
X21029643Y-56056067D01*
X21139665Y-55982552D01*
X21261916Y-55931914D01*
X21391696Y-55906099D01*
X21524020Y-55906099D01*
X21653800Y-55931914D01*
G37*
G36*
X55038543Y-54812402D02*
G01*
X55150520Y-54877052D01*
X55241948Y-54968480D01*
X55306598Y-55080457D01*
X55340063Y-55205350D01*
X55340063Y-55334650D01*
X55306598Y-55459543D01*
X55241948Y-55571520D01*
X55150520Y-55662948D01*
X55038543Y-55727598D01*
X54913650Y-55761063D01*
X54784350Y-55761063D01*
X54659457Y-55727598D01*
X54547480Y-55662948D01*
X54456052Y-55571520D01*
X54391402Y-55459543D01*
X54357937Y-55334650D01*
X54357937Y-55205350D01*
X54391402Y-55080457D01*
X54456052Y-54968480D01*
X54547480Y-54877052D01*
X54659457Y-54812402D01*
X54784350Y-54778937D01*
X54913650Y-54778937D01*
X55038543Y-54812402D01*
G37*
G36*
X57070543Y-54812402D02*
G01*
X57182520Y-54877052D01*
X57273948Y-54968480D01*
X57338598Y-55080457D01*
X57372063Y-55205350D01*
X57372063Y-55334650D01*
X57338598Y-55459543D01*
X57273948Y-55571520D01*
X57182520Y-55662948D01*
X57070543Y-55727598D01*
X56945650Y-55761063D01*
X56816350Y-55761063D01*
X56691457Y-55727598D01*
X56579480Y-55662948D01*
X56488052Y-55571520D01*
X56423402Y-55459543D01*
X56389937Y-55334650D01*
X56389937Y-55205350D01*
X56423402Y-55080457D01*
X56488052Y-54968480D01*
X56579480Y-54877052D01*
X56691457Y-54812402D01*
X56816350Y-54778937D01*
X56945650Y-54778937D01*
X57070543Y-54812402D01*
G37*
G36*
X22337839Y-54052530D02*
G01*
X22460090Y-54103168D01*
X22570112Y-54176683D01*
X22663679Y-54270250D01*
X22737194Y-54380272D01*
X22787832Y-54502523D01*
X22813647Y-54632303D01*
X22813647Y-54764627D01*
X22787832Y-54894407D01*
X22737194Y-55016658D01*
X22663679Y-55126680D01*
X22570112Y-55220247D01*
X22460090Y-55293762D01*
X22337839Y-55344400D01*
X22208059Y-55370215D01*
X22075735Y-55370215D01*
X21945955Y-55344400D01*
X21823704Y-55293762D01*
X21713682Y-55220247D01*
X21620115Y-55126680D01*
X21546600Y-55016658D01*
X21495962Y-54894407D01*
X21470147Y-54764627D01*
X21470147Y-54632303D01*
X21495962Y-54502523D01*
X21546600Y-54380272D01*
X21620115Y-54270250D01*
X21713682Y-54176683D01*
X21823704Y-54103168D01*
X21945955Y-54052530D01*
X22075735Y-54026715D01*
X22208059Y-54026715D01*
X22337839Y-54052530D01*
G37*
G36*
X23021880Y-52173144D02*
G01*
X23144131Y-52223782D01*
X23254153Y-52297297D01*
X23347720Y-52390864D01*
X23421235Y-52500886D01*
X23471873Y-52623137D01*
X23497688Y-52752917D01*
X23497688Y-52885241D01*
X23471873Y-53015021D01*
X23421235Y-53137272D01*
X23347720Y-53247294D01*
X23254153Y-53340861D01*
X23144131Y-53414376D01*
X23021880Y-53465014D01*
X22892100Y-53490829D01*
X22759776Y-53490829D01*
X22629996Y-53465014D01*
X22507745Y-53414376D01*
X22397723Y-53340861D01*
X22304156Y-53247294D01*
X22230641Y-53137272D01*
X22180003Y-53015021D01*
X22154188Y-52885241D01*
X22154188Y-52752917D01*
X22180003Y-52623137D01*
X22230641Y-52500886D01*
X22304156Y-52390864D01*
X22397723Y-52297297D01*
X22507745Y-52223782D01*
X22629996Y-52173144D01*
X22759776Y-52147329D01*
X22892100Y-52147329D01*
X23021880Y-52173144D01*
G37*
G36*
X23705920Y-50293759D02*
G01*
X23828171Y-50344397D01*
X23938193Y-50417912D01*
X24031760Y-50511479D01*
X24105275Y-50621501D01*
X24155913Y-50743752D01*
X24181728Y-50873532D01*
X24181728Y-51005856D01*
X24155913Y-51135636D01*
X24105275Y-51257887D01*
X24031760Y-51367909D01*
X23938193Y-51461476D01*
X23828171Y-51534991D01*
X23705920Y-51585629D01*
X23576140Y-51611444D01*
X23443816Y-51611444D01*
X23314036Y-51585629D01*
X23191785Y-51534991D01*
X23081763Y-51461476D01*
X22988196Y-51367909D01*
X22914681Y-51257887D01*
X22864043Y-51135636D01*
X22838228Y-51005856D01*
X22838228Y-50873532D01*
X22864043Y-50743752D01*
X22914681Y-50621501D01*
X22988196Y-50511479D01*
X23081763Y-50417912D01*
X23191785Y-50344397D01*
X23314036Y-50293759D01*
X23443816Y-50267944D01*
X23576140Y-50267944D01*
X23705920Y-50293759D01*
G37*
G36*
X56054543Y-49732402D02*
G01*
X56166520Y-49797052D01*
X56257948Y-49888480D01*
X56322598Y-50000457D01*
X56356063Y-50125350D01*
X56356063Y-50254650D01*
X56322598Y-50379543D01*
X56257948Y-50491520D01*
X56166520Y-50582948D01*
X56054543Y-50647598D01*
X55929650Y-50681063D01*
X55800350Y-50681063D01*
X55675457Y-50647598D01*
X55563480Y-50582948D01*
X55472052Y-50491520D01*
X55407402Y-50379543D01*
X55373937Y-50254650D01*
X55373937Y-50125350D01*
X55407402Y-50000457D01*
X55472052Y-49888480D01*
X55563480Y-49797052D01*
X55675457Y-49732402D01*
X55800350Y-49698937D01*
X55929650Y-49698937D01*
X56054543Y-49732402D01*
G37*
G36*
X24389961Y-48414373D02*
G01*
X24512212Y-48465011D01*
X24622234Y-48538526D01*
X24715801Y-48632093D01*
X24789316Y-48742115D01*
X24839954Y-48864366D01*
X24865769Y-48994146D01*
X24865769Y-49126470D01*
X24839954Y-49256250D01*
X24789316Y-49378501D01*
X24715801Y-49488523D01*
X24622234Y-49582090D01*
X24512212Y-49655605D01*
X24389961Y-49706243D01*
X24260181Y-49732058D01*
X24127857Y-49732058D01*
X23998077Y-49706243D01*
X23875826Y-49655605D01*
X23765804Y-49582090D01*
X23672237Y-49488523D01*
X23598722Y-49378501D01*
X23548084Y-49256250D01*
X23522269Y-49126470D01*
X23522269Y-48994146D01*
X23548084Y-48864366D01*
X23598722Y-48742115D01*
X23672237Y-48632093D01*
X23765804Y-48538526D01*
X23875826Y-48465011D01*
X23998077Y-48414373D01*
X24127857Y-48388558D01*
X24260181Y-48388558D01*
X24389961Y-48414373D01*
G37*
G36*
X25074001Y-46534990D02*
G01*
X25196252Y-46585628D01*
X25306274Y-46659143D01*
X25399841Y-46752710D01*
X25473356Y-46862732D01*
X25523994Y-46984983D01*
X25549809Y-47114763D01*
X25549809Y-47247087D01*
X25523994Y-47376867D01*
X25473356Y-47499118D01*
X25399841Y-47609140D01*
X25306274Y-47702707D01*
X25196252Y-47776222D01*
X25074001Y-47826860D01*
X24944221Y-47852675D01*
X24811897Y-47852675D01*
X24682117Y-47826860D01*
X24559866Y-47776222D01*
X24449844Y-47702707D01*
X24356277Y-47609140D01*
X24282762Y-47499118D01*
X24232124Y-47376867D01*
X24206309Y-47247087D01*
X24206309Y-47114763D01*
X24232124Y-46984983D01*
X24282762Y-46862732D01*
X24356277Y-46752710D01*
X24449844Y-46659143D01*
X24559866Y-46585628D01*
X24682117Y-46534990D01*
X24811897Y-46509175D01*
X24944221Y-46509175D01*
X25074001Y-46534990D01*
G37*
G36*
X25758041Y-44655601D02*
G01*
X25880292Y-44706239D01*
X25990314Y-44779754D01*
X26083881Y-44873321D01*
X26157396Y-44983343D01*
X26208034Y-45105594D01*
X26233849Y-45235374D01*
X26233849Y-45367698D01*
X26208034Y-45497478D01*
X26157396Y-45619729D01*
X26083881Y-45729751D01*
X25990314Y-45823318D01*
X25880292Y-45896833D01*
X25758041Y-45947471D01*
X25628261Y-45973286D01*
X25495937Y-45973286D01*
X25366157Y-45947471D01*
X25243906Y-45896833D01*
X25133884Y-45823318D01*
X25040317Y-45729751D01*
X24966802Y-45619729D01*
X24916164Y-45497478D01*
X24890349Y-45367698D01*
X24890349Y-45235374D01*
X24916164Y-45105594D01*
X24966802Y-44983343D01*
X25040317Y-44873321D01*
X25133884Y-44779754D01*
X25243906Y-44706239D01*
X25366157Y-44655601D01*
X25495937Y-44629786D01*
X25628261Y-44629786D01*
X25758041Y-44655601D01*
G37*
G36*
X26442081Y-42776217D02*
G01*
X26564332Y-42826855D01*
X26674354Y-42900370D01*
X26767921Y-42993937D01*
X26841436Y-43103959D01*
X26892074Y-43226210D01*
X26917889Y-43355990D01*
X26917889Y-43488314D01*
X26892074Y-43618094D01*
X26841436Y-43740345D01*
X26767921Y-43850367D01*
X26674354Y-43943934D01*
X26564332Y-44017449D01*
X26442081Y-44068087D01*
X26312301Y-44093902D01*
X26179977Y-44093902D01*
X26050197Y-44068087D01*
X25927946Y-44017449D01*
X25817924Y-43943934D01*
X25724357Y-43850367D01*
X25650842Y-43740345D01*
X25600204Y-43618094D01*
X25574389Y-43488314D01*
X25574389Y-43355990D01*
X25600204Y-43226210D01*
X25650842Y-43103959D01*
X25724357Y-42993937D01*
X25817924Y-42900370D01*
X25927946Y-42826855D01*
X26050197Y-42776217D01*
X26179977Y-42750402D01*
X26312301Y-42750402D01*
X26442081Y-42776217D01*
G37*
G36*
X27126122Y-40896833D02*
G01*
X27248373Y-40947471D01*
X27358395Y-41020986D01*
X27451962Y-41114553D01*
X27525477Y-41224575D01*
X27576115Y-41346826D01*
X27601930Y-41476606D01*
X27601930Y-41608930D01*
X27576115Y-41738710D01*
X27525477Y-41860961D01*
X27451962Y-41970983D01*
X27358395Y-42064550D01*
X27248373Y-42138065D01*
X27126122Y-42188703D01*
X26996342Y-42214518D01*
X26864018Y-42214518D01*
X26734238Y-42188703D01*
X26611987Y-42138065D01*
X26501965Y-42064550D01*
X26408398Y-41970983D01*
X26334883Y-41860961D01*
X26284245Y-41738710D01*
X26258430Y-41608930D01*
X26258430Y-41476606D01*
X26284245Y-41346826D01*
X26334883Y-41224575D01*
X26408398Y-41114553D01*
X26501965Y-41020986D01*
X26611987Y-40947471D01*
X26734238Y-40896833D01*
X26864018Y-40871018D01*
X26996342Y-40871018D01*
X27126122Y-40896833D01*
G37*
M02*
